<svg xmlns="http://www.w3.org/2000/svg" viewBox="0 0 2666.85 3445.95"><defs><style>.cls-1{fill:#508041;}.cls-2{fill:#1c4500;}.cls-3{fill:#f5cbb0;}.cls-4{fill:#e1c1a8;}</style></defs><g id="Layer_2" data-name="Layer 2"><g id="Layer_1-2" data-name="Layer 1"><path d="M2649.61,2957.87c-22.49-139-36.7-239.48-61.89-442.79-36.68-295.48-49-367.28-79.55-459.42-39.37-119.75-101.8-196.91-212.16-262.52-32.68-19.56-94.57-50.64-138.22-69.64-27.88-12.06-147.07-59.74-184-73.68l-12.87-4.82,5.63-7c26.26-33.48,63.48-98.31,76.08-132.59,3.49-8.85,7.23-13.67,11.78-15.82,50.65-20.35,79.85-41.53,109.58-78.21,63.22-78.76,79.28-180.81,38.57-244.05-5.9-9.1-16.07-20.35-23-25.16-6.7-4.85-12.32-9.12-12.32-9.39,0-.54,9.39-7.76,20.9-16.34,57.33-42.87,100.71-99.65,130.17-169.56,15.56-37,22-57.59,28.42-88.68,28.39-140.36-3.77-276.72-93.51-397.52l-18.47-25.19,25.44,9.36c14.2,4.85,32.42,9.66,40.71,10.47,12.87,1.32,15.82.81,21.18-4,3.2-3.21,5.89-8.29,5.89-11.52,0-27.59-90-125.62-168.78-184-11.52-8.58-35.87-25.19-54.09-36.71-118.68-75-237.62-113.85-362.46-118.13-67.23-2.16-125.09,5.62-181.35,24.38-14.46,4.55-26.24,8.29-26.24,7.77s9.36-14.47,20.88-31.08c28.93-41.79,37-54.92,41.79-69.37,7.78-23.85-4-36.44-29.47-31.62-27.31,5.35-67,31.35-98.84,64.56-34.28,35.89-57.86,75.27-77.42,129.38-1.35,4.28-3.47,1.89-10.71-12.59-25.19-49.81-68-90.8-107.7-102.32-21.69-6.43-36.68,3.21-32.13,21.16.81,3.47,15,20.61,31.35,37.78s28.93,31.86,28.39,32.67c-.81.54-8.31,0-16.87-1.62-66.18-12.32-148.42,15-148.42,49.3,0,15.8,7,18.22,57.32,19.57l43.41,1.05-22.77,11.79c-91.89,46.87-155.65,136.08-188,263.07-23.57,91.88-32.69,169.3-33,274l-.27,76.61-15,2.94c-33.48,6.16-71.53,32.42-92.41,64-13.41,20.1-26.81,58.66-30.82,88.4-10.44,79,20.08,169.3,76.62,226.91,32.13,32.4,72.85,56.25,110.63,64.56,11.25,2.67,22,5.09,23.57,5.36,1.62.53,3.74,7.75,4.82,16.33,4,35.36,22.23,96.69,42.06,143.84,12.86,29.47,13.4,31.89,10.44,41.52-1.88,5.36-4.28,11-5.35,12.06s-46.34,11.25-100.73,22.23c-295.19,59.74-418.68,90-511.92,124.57-110.1,41-170.38,87.32-229.55,176.53-39.94,60-65.64,114.13-93,196.37-34,102.59-53,194.75-89.45,431.81-21.18,136.63-61.36,363.51-86,484.61C3,2984.94,0,3002.62,0,3006.63c0,12.06,5.89,15.8,84.39,49.55,26.51,11.52,49,21.71,50.08,22.79,1.08.78.27,36.41-1.85,79-2.16,42.87-5.63,118.14-8.05,167.44s-4.82,97-5.63,105.81L117.72,3446h35v-7.23c0-5.63,3.77-77.16,8.05-158.86s8-157.51,8-168.49c0-23.3-7.5-23,58.94-1.61,114.37,36.7,230.89,59.47,357.08,69.64,24.89,1.89,45.8,4,46.34,4.84.81.54-2.42,54.1-6.7,118.66-4.55,64.82-8.59,123.49-8.85,131l-.71,12H648l1.62-18.21c.8-9.91,3.2-48.23,5.62-84.91,2.13-37,5.09-83.85,6.43-104.49s2.67-40.72,2.67-45c0-6.7.8-7.24,12-7.24,19.57,0,21.69-4,23.85-44.45,4.28-82.78,7-211.63,7-353.61,0-125.35.8-155.09,3.74-166.1,16.87-57.05,68.59-333.23,68.59-365.9,0-7.24-1.61-11-5.89-13.94-13.67-9.64-24.65-1.62-27.61,20.1-6.16,49-39.91,240-42.58,242.68-.53.54-1.61-13.91-2.69-31.86-3.74-66.17-12.32-144.92-16.33-151.35-4.82-7-16.34-8.31-24.11-2.42-5.63,4-5.9,11-1.35,52.5,12.86,120.56,17.14,248.87,15.26,450-1.59,151.38-6.14,326.57-8.83,329.23-2.15,2.42-142.25-10.71-187-17.41C339.94,3113,200.11,3072.27,76.88,3016.81c-37.48-16.88-42.3-19.81-41-24.65.81-3.21,6.16-31.06,12.05-61.87,5.9-31.08,18-94.3,26.81-140.64,17.41-90,32.13-179.22,60.52-361.65,32.16-206.52,60.28-325.73,101.8-429.93,29.2-73.68,75.27-146.53,123-195,75-75.81,185.36-116.26,502.53-183.78,48-10.17,88.94-18.73,91.36-18.73,3.75-.27,4.55,5.9,6.17,44.46,6.16,155.63,57.32,297.88,146,406.11,19.56,23.84,68.3,71.26,91.07,88.4,58.66,43.92,127.79,74.2,197.17,86.25,34.82,6.16,100.46,6.43,133.94.54,113.32-20.1,211.35-86.79,278.06-189.67,56.79-87.59,83.83-176.53,94.54-309.66l1.62-22.23,18.22-16.09,18-16.07,31.88,11.79c143,52.77,267.07,109.85,330.28,151.89,72.34,48,114.94,95.37,148.68,166.09,26,54.38,41.53,105.81,59.48,198,13.13,67.24,21.42,127.26,62.67,460.76,11,88.94,27.07,197.42,45,307.24l15.53,94.3-17.41,8c-9.66,4.27-32.43,14.47-50.38,22.76-81.43,36.71-200.62,69.92-304.3,84.39-41.8,5.9-145.46,13.11-148.12,10.18-2.15-1.89,6.4-83.32,30.79-296.8l18.48-159.4,9.39-18.75c5.09-10.18,15.8-33.48,24.09-52,26.53-60,108.5-237.35,125.38-271.37,5.89-11.78,5.89-13.4,2.15-20.1-3.23-5.89-5.89-7.21-14.48-7.21h-10.71l-15.26,30.79c-18,36.43-67.52,142.25-89.48,191.28-8.58,19-15.79,33.47-16.33,32.13-1.08-3.47,23-171.69,38-266.26,19-118.41,19.57-122.95,13.41-127.53-6.7-4.81-18.76-4.81-23.58.27-5.08,4.84-4.82,3.5-17.68,83-24.65,150-58.4,402.37-76.34,570.59-18.49,173.06-42.07,375.3-51.16,439.32-3.5,24.92-8.32,60.55-10.74,79-2.13,18.49-4.82,37.49-5.62,42.31L2041,3446h35.21l1.2-8.58c.81-6.41,4.3-33.21,8-59.72,6.44-46.88,20.11-152.69,20.11-155.38,0-.81,14.18-1.34,31.59-1.34,57.32,0,132.62-8.83,210.82-24.36,42.87-8.31,123.49-30.27,150-40.74l16.06-6.14,1.62,52.24c.8,28.92,2.12,95.88,2.66,148.92l1,95.1h34.26l-1.8-93.22c-.81-52.5-1.89-122.68-2.16-155.65l-.8-60,21.42-9.12c45.56-19.27,95.1-44.73,96.45-49.28C2667.83,3076,2659.79,3021.62,2649.61,2957.87ZM2168,1173.52c3.74,4.31,10.18,14.75,14.21,23.58,6.41,13.67,7.48,20.64,8.56,46.07,1.08,26.26.27,32.69-5.89,54.92-12.6,44-30,75-60.55,107.7-15.26,16.33-49.55,41.79-56.25,41.79-2.15,0-2.42-1.88-1.34-4.84,15-37,72.87-211.9,86-259.83,2.67-9.12,5.36-16.63,6.41-16.63C2159.92,1166.28,2164,1169.51,2168,1173.52Zm-468.78,644c9.9-3,18-4.57,18-3.76s-7.78,23-17.42,49.57-17.41,50.35-17.41,53c0,6.43,9.37,13.91,17.41,13.91h6.7l-7,12.6c-30.27,52.5-82,99.11-133.39,120.56-40.21,16.6-57.35,20.07-104.76,20.07-38.57,0-45.54-.8-69.38-7.24-99.11-27.31-180.28-101.51-237.33-217.52-1.59-3.22-3.13-6.35-4.57-9.36-.49-1-1-2-1.45-3s-.92-2-1.39-2.93q-1.22-2.57-2.35-5.06c-.31-.71-.63-1.4-1-2.08-.2-.47-.39-.93-.61-1.39-.56-1.23-1-2.4-1.59-3.58-.2-.44-.39-.88-.59-1.29-1.32-3-2.54-5.85-3.72-8.71-.34-.8-.66-1.59-1-2.37-1.42-3.5-2.77-6.94-4.06-10.42-1.13-3-2.18-6-3.16-8.85-.56-1.59-1.07-3.18-1.61-4.79-.44-1.35-.88-2.67-1.3-4-.27-.8-.51-1.61-.76-2.39-1-3.18-1.93-6.34-2.83-9.52-.88-3-1.71-6-2.54-9-1.55-5.5-3.09-11.37-4.68-17.7-.34-1.37-.71-2.74-1.07-4.16s-.66-2.59-1-3.84c-.9-3.71-1.74-7-2.49-9.92,0,0,0,0,0,0a0,0,0,0,0,0,0c-.35-1.37-.66-2.71-1-4q-.73-3-1.4-5.78c-3.1-13.89-2-14.42,1.57-14.42,2.15,0,4.55-1.08,5.35-2.42,2.16-3.21,18.22-79,25.73-120.27,3.35-17.24,6.7-31.25,7.9-32.11a.88.88,0,0,0,.15,0c1,.54,9.36,11.52,18.19,24.92,22.52,33.75,53.31,69.65,91.9,107.16,82.24,80.09,164.21,124.54,259.85,140.9,1.73.3,3.47.59,5.21.84a6.87,6.87,0,0,0,1,.14l1.91.3c1.56.22,3.1.44,4.67.61a390.09,390.09,0,0,0,42.18,2.79c.81,0,1.62,0,2.42,0,.22,0,.49,0,.74,0h1.37C1619.48,1833.13,1663.11,1827.77,1699.18,1817.52Zm31.35,54.63c3.2-9.63,6.4-17.41,6.94-16.6.54.54-1.59,9.1-4.82,18.76-2.93,9.9-6.16,17.41-7,16.87C1725.15,1890.37,1727.3,1881.81,1730.53,1872.15Zm132.86-114.91c-11.25,129.12-63,251-140.1,329-31.35,31.6-63.49,55.17-101.27,73.93-55.46,27.58-113.86,39.37-178.15,36.7-59.47-2.69-106.59-15.79-163.4-45-42.33-22-76.08-46.61-111.44-81.46-62.67-61.87-109-138.21-139.83-230.36-22.49-67-31.35-118.94-34.28-197.44L993,1592.5l6.43-1.62c17.68-4,55.19-11.52,60.28-11.78s5.35,1.07,5.62,43.13c.27,48,2.94,73.66,13.4,120,18.73,84.93,57,167.44,108.21,232,21.18,26.77,67,68.83,95.64,87.86,46.88,31.35,94.57,48.49,153,55.17,87.33,10.2,178.67-24.36,243-91.61,13.4-14.2,30.54-35.09,38.32-46.61,30-44.45,58.12-115.18,67-167.17l4.84-28.12,24.63-13.91c13.67-7.78,30.81-18.49,38.32-23.84l13.67-10.2Zm28.93-90c-45.81,44.21-94.3,76.08-151.62,99.65-142,58.66-280.2,39.37-404-56.25-29.2-22.76-93-86.54-115.74-115.74-63.75-82.48-104.2-173.84-120-271.61-3-17.68-6.43-33.23-7.77-34.55s-10.72-3.5-20.89-4.58c-23.84-2.66-38.86-6.94-58.13-16.33-57.34-28.39-99.38-81.17-119.48-149.74-8.85-30.54-10.44-85.46-3.23-114.39,7.78-30.81,17.44-49.55,35.36-68.84C945.35,915,962.49,905.38,985,901.37c39.37-7.24,79.81,9.91,107.94,45.8L1103.4,960l-1.59,54.36c-1.88,65.1-.54,77.69,9.9,88.13,14.72,14.75,42.33,7.51,50.35-13.11,1.62-4.3,6.7-27.34,11.25-51.72,17.41-93.22,31.89-130.17,63.24-161.79,5.89-5.62,24.38-20.1,41.26-32.15,35.09-24.9,69.64-57.86,92.14-87.87,35.63-47.39,70.45-121.61,84.12-179.2l7-28.39,20.64,31.08c11.24,17.15,28.93,41.23,38.83,53.83,27.61,34.55,108,113.59,147.07,144.67,63.48,50.35,136.08,94,172.52,103.39,27.05,6.7,45-4,42.06-25.19-1.34-8.83-14.21-39.1-51.18-118.14-11-24.08-19.81-44.18-19.27-44.72s15.53,15.53,33.21,35.9c75.81,86,179.74,181.08,234.93,214.56,23.57,14.21,34.55,17.16,45.8,12.59,16.88-7.21,17.68-17.95,5.63-71.26-3.48-15.53-7.24-31.86-8.29-36.14-2.69-11.79,30.79,39.64,46.88,72.31l13.37,26.8-15.79,61.6c-8.56,33.75-21.16,79.84-28.13,101.8-6.7,22.23-16.33,55.44-21.69,73.66-11.52,39.93-49.84,156.73-69.67,213C1998.94,1536.23,1962.5,1599.47,1892.32,1667.23Z"/><path class="cls-1" d="M1865.26,1735.81l-1.88,21.43c-11.25,129.12-63,251-140.1,329-31.34,31.61-63.49,55.18-101.26,73.93-55.45,27.59-113.85,39.38-178.14,36.7-59.47-2.68-106.61-15.8-163.4-45-42.33-22-76.08-46.61-111.44-81.44-62.69-61.88-109-138.23-139.84-230.38-22.5-67-31.34-118.93-34.28-197.42l-1.88-50.1,6.43-1.6c17.68-4,55.18-11.52,60.27-11.79s5.36,1.07,5.63,43.13c.27,48,2.94,73.66,13.39,120,18.75,84.92,57.06,167.42,108.23,232,21.16,26.79,67,68.85,95.63,87.87,46.88,31.34,94.56,48.48,153,55.18,87.33,10.18,178.67-24.38,243-91.62,13.39-14.19,30.53-35.09,38.3-46.61,30-44.46,58.13-115.18,67-167.15l4.82-28.13,24.65-13.93c13.66-7.77,30.81-18.48,38.31-23.84Z"/><path class="cls-2" d="M2616.67,2968.31c-18-109.82-34-218.3-45-307.24-41.25-333.5-49.54-393.52-62.67-460.76-17.95-92.15-33.48-143.58-59.48-198-33.74-70.72-76.34-118.14-148.68-166.09-63.21-42-187.24-99.12-330.28-151.89l-31.88-11.79-18,16.07-18.22,16.09-1.62,22.23c-10.71,133.13-37.75,222.07-94.54,309.66-66.71,102.88-164.74,169.57-278.06,189.67-33.48,5.89-99.12,5.62-133.94-.54-69.38-12.05-138.51-42.33-197.17-86.25-22.77-17.14-71.51-64.56-91.07-88.4-88.67-108.23-139.83-250.48-146-406.11-1.62-38.56-2.42-44.73-6.17-44.46-2.42,0-43.4,8.56-91.36,18.73C545.4,1686.79,435,1727.24,360,1803.05c-47.69,48.49-93.76,121.34-123,195-41.52,104.2-69.64,223.41-101.8,429.93-28.39,182.43-43.11,271.64-60.52,361.65C65.9,2836,53.85,2899.21,48,2930.29c-5.89,30.81-11.24,58.66-12.05,61.87-1.32,4.84,3.5,7.77,41,24.65,123.23,55.46,263.06,96.18,401.57,116.79,44.72,6.7,184.82,19.83,187,17.41,2.69-2.66,7.24-177.85,8.83-329.23,1.88-201.16-2.4-329.47-15.26-450-4.55-41.52-4.28-48.49,1.35-52.5,7.77-5.89,19.29-4.55,24.11,2.42,4,6.43,12.59,85.18,16.33,151.35,1.08,17.95,2.16,32.4,2.69,31.86,2.67-2.66,36.42-193.67,42.58-242.68,3-21.72,13.94-29.74,27.61-20.1,4.28,3,5.89,6.7,5.89,13.94,0,32.67-51.72,308.85-68.59,365.9-2.94,11-3.74,40.75-3.74,166.1,0,142-2.69,270.83-7,353.61-2.16,40.44-4.28,44.45-23.85,44.45-11.25,0-12,.54-12,7.24,0,4.28-1.35,24.38-2.67,45s-4.3,67.52-6.43,104.49c-2.42,36.68-4.82,75-5.62,84.91L648,3446H2041l1.32-8.58c.8-4.82,3.49-23.82,5.62-42.31,2.42-18.48,7.24-54.11,10.74-79,9.09-64,32.67-266.26,51.16-439.32,17.94-168.22,51.69-420.56,76.34-570.59,12.86-79.55,12.6-78.21,17.68-83,4.82-5.08,16.88-5.08,23.58-.27,6.16,4.58,5.62,9.12-13.41,127.53-15,94.57-39.1,262.79-38,266.26.54,1.34,7.75-13.11,16.33-32.13,22-49,71.53-154.85,89.48-191.28l15.26-30.79h10.71c8.59,0,11.25,1.32,14.48,7.21,3.74,6.7,3.74,8.32-2.15,20.1-16.88,34-98.85,211.36-125.38,271.37-8.29,18.49-19,41.79-24.09,52l-9.39,18.75-18.48,159.4c-24.39,213.48-32.94,294.91-30.79,296.8,2.66,2.93,106.32-4.28,148.12-10.18,103.68-14.47,222.87-47.68,304.3-84.39,18-8.29,40.72-18.49,50.38-22.76l17.41-8ZM675.6,2256.57c-2.94,3.75-8.29,7-12.06,7.49-10.17,1.34-16.87-6.95-19-23.85-3.5-26.5-15.55-81.16-26-117.57-34.55-120.56-87-214.32-161-287.19-17.41-17.14-31.6-32.94-31.6-35.36,0-2.67,2.94-7.49,6.7-11,3.48-3.74,8.83-6.68,12.06-6.68,8,0,40.72,29.71,67.76,61.87,80.9,95.37,129.66,206,159.93,362.71C680.41,2249.07,680.41,2249.87,675.6,2256.57Z"/><path class="cls-3" d="M2076.21,3446l1.2-8.58c.81-6.41,4.3-33.21,8-59.72,6.44-46.88,20.11-152.69,20.11-155.38,0-.81,14.18-1.34,31.59-1.34,57.32,0,132.62-8.83,210.82-24.36,42.87-8.31,123.49-30.27,150-40.74l16.06-6.14,1.62,52.24c.8,28.92,2.12,95.88,2.66,148.92l1,95.1Z"/><path class="cls-4" d="M614.88,3446l.71-12c.26-7.51,4.3-66.18,8.85-131,4.28-64.56,7.51-118.12,6.7-118.66-.54-.8-21.45-2.95-46.34-4.84-126.19-10.17-242.71-32.94-357.08-69.64-66.44-21.42-58.94-21.69-58.94,1.61,0,11-3.76,86.79-8,168.49s-8.05,153.23-8.05,158.86V3446Z"/><path class="cls-3" d="M2184.84,1298.09c-12.59,43.94-30,75-60.54,107.69-15.27,16.34-49.56,41.79-56.26,41.79-2.14,0-2.41-1.88-1.34-4.82,15-37,72.87-211.89,86-259.85,2.68-9.1,5.36-16.6,6.43-16.6.81,0,4.82,3.21,8.84,7.23,3.75,4.28,10.18,14.73,14.2,23.57,6.43,13.66,7.5,20.63,8.57,46.08C2191.8,1269.43,2191,1275.86,2184.84,1298.09Z"/><path class="cls-3" d="M2169.85,921.18c-16.09-32.67-49.57-84.1-46.88-72.31,1.05,4.28,4.81,20.61,8.29,36.14,12,53.31,11.25,64-5.63,71.26-11.25,4.57-22.23,1.62-45.8-12.59-55.19-33.48-159.12-128.58-234.93-214.56-17.68-20.37-32.67-36.44-33.21-35.9s8.29,20.64,19.27,44.72c37,79,49.84,109.31,51.18,118.14,2.94,21.18-15,31.89-42.06,25.19-36.44-9.37-109-53-172.52-103.39-39.11-31.08-119.46-110.12-147.07-144.67-9.9-12.6-27.59-36.68-38.83-53.83L1461,548.3l-7,28.39c-13.67,57.59-48.49,131.81-84.12,179.2-22.5,30-57,63-92.14,87.87-16.88,12-35.37,26.53-41.26,32.15-31.35,31.62-45.83,68.57-63.24,161.79-4.55,24.38-9.63,47.42-11.25,51.72-8,20.62-35.63,27.86-50.35,13.11-10.44-10.44-11.78-23-9.9-88.13L1103.4,960,1093,947.17c-28.13-35.89-68.57-53-107.94-45.8-22.53,4-39.67,13.65-58.16,33.48-17.92,19.29-27.58,38-35.36,68.84-7.21,28.93-5.62,83.85,3.23,114.39,20.1,68.57,62.14,121.35,119.48,149.74,19.27,9.39,34.29,13.67,58.13,16.33,10.17,1.08,19.54,3.23,20.89,4.58s4.81,16.87,7.77,34.55c15.8,97.77,56.25,189.13,120,271.61,22.77,29.2,86.54,93,115.74,115.74,123.76,95.62,262,114.91,404,56.25,57.32-23.57,105.81-55.44,151.62-99.65,70.18-67.76,106.62-131,155.62-269.22,19.83-56.24,58.15-173,69.67-213,5.36-18.22,15-51.43,21.69-73.66,7-22,19.57-68.05,28.13-101.8l15.79-61.6Zm-1100.2,231.73c-10.44,0-13.4-5.09-20.88-35.36-6.7-26.27-7.51-26.81-19.83-13.94-17.42,18.22-19.57,36.17-8.05,64.29,3,7.51,2.69,9.66-1,15.55-5.36,8-17.68,9.37-24.11,2.94-15.29-15.26-16.88-58.94-3.23-85.72,7.24-14.47,23.57-30.54,34-34,2.43-.78-.78-8-9.9-23.3-14.72-24.36-27.58-38.84-41.79-47.15-11.79-6.94-13.92-19.81-4.55-26.51,8-5.62,15-5.35,25.46,1.08,28.93,17.68,64.29,73.12,83.56,131.78C1092.69,1142.73,1090.56,1152.91,1069.65,1152.91ZM1359.51,966.2c-11.79-18-6.43-42.6,10.71-50.91,8.83-4.28,11.52-4,45,1.34,63.22,10.44,136.63,7.24,192.09-8.58,32.4-9.1,38.83-8.83,49.81,2.15,7.78,7.78,9.1,11,9.1,21.42,0,15-5.08,25.73-15,32.16-10.44,7.24-61.87,19.29-102.85,24.38C1475.49,997.53,1372.1,985.47,1359.51,966.2Zm114.37,215.1c-21.42-11-30.81-38-23-66.17,1.08-3.75-1.61-3.75-24.92-.54-22.76,3.23-26.5,3-32.13-.54a13.33,13.33,0,0,1-6.16-11.52c0-14.45,3.74-16.33,42.87-20.61,19.81-2.42,57.86-7.51,84.36-11.79,57.86-9.39,67.52-9.63,74.22-3.74,6.17,5.62,6.17,17.41.27,22.77-2.69,2.39-13.13,5.62-23.57,7.21L1547,1099.6v20.61c0,26-7.77,43.41-24.65,55.2C1508.16,1185.31,1486.47,1187.73,1473.88,1181.3Zm229,429.68c-2.67,0-10.44-4.54-16.88-10.19-38-33.75-94-44.19-150.54-28.4-23.3,6.71-25.18,6.71-31.35,2.69-7.5-5.08-9.09-16.06-2.93-24.38,2.13-3,12.57-7.23,27.31-11,28.66-7.5,75.27-8.58,104.2-2.42,40.45,8.59,87.06,39.13,87.06,57.08C1719.79,1603.21,1712,1611,1702.92,1611Zm70.18-263.86c7.24,40.18,5.89,50.89-8.29,67.23-16.63,18.75-55.73,41.25-71.8,41.25-12.59,0-21.69-18.75-12.59-26.24,1.88-1.61,14.48-8.58,27.85-15.28,37.25-18.49,39.4-22.77,31.35-65.64-12.32-66.15-4.28-194.73,12.87-209.74,7.23-6.16,14.18-5.89,21.15,1.08,6.43,6.43,6.16,10.44-1.88,45.26C1764,1217.47,1764.81,1301.83,1773.1,1347.12ZM2006.69,1244c-2.67,0-12.84-5.36-22.5-12.06-9.9-6.7-18.22-12.06-19-12.06s-3,5.11-4.84,11.25c-4.82,15.82-24.38,35.63-39.11,39.67-32.15,8.29-56.78-13.67-56.78-50.38,0-19,5.09-33.21,15.53-44.46,7-7.24,7-7.77,2.15-10.71-26.8-16.09-34-28.14-23.3-38.86,3.2-3.2,8.29-5.62,11.52-5.62,5.62,0,61.06,34.28,120,74.22,27.34,18.46,30.81,22,31.62,29.47C2023.05,1234.07,2015.27,1244,2006.69,1244Zm108-139.57c-5.08,12.87-14.21,20.89-26.51,23.31-12.86,2.42-66.17-16.34-110.38-38.83-57.59-29.47-113.57-74.49-117.33-94.84a38.31,38.31,0,0,1,12.32-35.36c6.43-5.08,11.25-6.7,21.18-6.7,12.59,0,14.45,1.08,34,18.22a494.94,494.94,0,0,0,42.07,32.67c25.7,17.14,83,44.75,113.29,54.92C2114.65,1068,2123.75,1081.65,2114.65,1104.41Z"/><path class="cls-3" d="M1765.21,1797.73q-17.6,46.17-35.21,92.35-15.27,26.4-30.56,52.8c-30.27,52.5-82,99.12-133.4,120.55-40.19,16.6-57.33,20.09-104.75,20.09-38.57,0-45.53-.81-69.38-7.24-99.11-27.32-180.28-101.52-237.34-217.51-9.64-19.54-16.45-34.62-22.24-50.19-7.7-20.7-12.09-37.94-17.94-60.45-4-15.53-7.05-28.57-9.1-37.83q-4.24-68.37-8.5-136.74c8.67-3.73,18.09-7.42,28.23-10.89,8.4-2.87,16.49-5.32,24.19-7.41,1.08.53,9.38,11.52,18.22,24.91,22.5,33.75,53.31,69.65,91.88,107.15,82.24,80.1,164.21,124.57,259.85,140.91,71,12.14,135.25-1.93,180-10.72,7.6-1.49,13.83-2.84,17.95-3.75Z"/><path d="M1666.22,931.63c0,15-5.09,25.72-15,32.15-10.45,7.23-61.88,19.29-102.86,24.38-72.87,9.37-176.27-2.68-188.86-22-11.79-18-6.43-42.59,10.72-50.9,8.84-4.28,11.51-4,45,1.34,63.22,10.45,136.62,7.23,192.07-8.57,32.41-9.11,38.84-8.84,49.82,2.14C1664.88,918,1666.22,921.19,1666.22,931.63Z"/><path d="M2114.65,1104.42c-5.09,12.85-14.19,20.89-26.52,23.3-12.85,2.41-66.16-16.34-110.36-38.84-57.6-29.47-113.58-74.47-117.33-94.83a38.25,38.25,0,0,1,12.32-35.36c6.43-5.09,11.25-6.7,21.16-6.7,12.59,0,14.47,1.07,34,18.22a497.06,497.06,0,0,0,42.06,32.68c25.72,17.14,83,44.74,113.31,54.91C2114.65,1068,2123.76,1081.65,2114.65,1104.42Z"/><path d="M1069.65,1152.9c-10.44,0-13.39-5.09-20.89-35.36-6.7-26.25-7.5-26.79-19.82-13.93-17.42,18.22-19.56,36.17-8,64.29,3,7.5,2.68,9.65-1.07,15.54-5.36,8-17.68,9.38-24.11,3-15.27-15.27-16.88-58.94-3.22-85.72,7.24-14.47,23.58-30.54,34-34,2.41-.8-.81-8-9.92-23.3-14.73-24.38-27.59-38.84-41.79-47.15-11.78-7-13.93-19.82-4.55-26.52,8-5.62,15-5.36,25.45,1.07,28.93,17.68,64.29,73.13,83.58,131.8C1092.69,1142.72,1090.55,1152.9,1069.65,1152.9Z"/><path d="M1589.34,1089.15c-2.68,2.41-13.12,5.62-23.57,7.23l-18.75,3.21v20.63c0,26-7.77,43.4-24.65,55.18-14.2,9.92-35.89,12.33-48.49,5.9-21.43-11-30.8-38-23-66.17,1.07-3.75-1.61-3.75-24.92-.53-22.77,3.21-26.52,2.94-32.14-.54a13.34,13.34,0,0,1-6.16-11.52c0-14.46,3.75-16.34,42.86-20.63,19.82-2.41,57.86-7.5,84.38-11.78,57.86-9.38,67.51-9.65,74.2-3.75C1595.23,1072,1595.23,1083.79,1589.34,1089.15Z"/><path d="M2006.7,1244c-2.68,0-12.86-5.36-22.5-12-9.92-6.7-18.22-12.06-19-12.06s-3,5.09-4.82,11.25c-4.83,15.81-24.38,35.63-39.12,39.65-32.14,8.3-56.79-13.66-56.79-50.36,0-19,5.09-33.22,15.54-44.47,7-7.23,7-7.77,2.14-10.72-26.78-16.07-34-28.12-23.3-38.84,3.21-3.21,8.3-5.62,11.52-5.62,5.62,0,61.07,34.29,120,74.2,27.32,18.48,30.8,22,31.61,29.47C2023,1234.07,2015.27,1244,2006.7,1244Z"/><path d="M1773.11,1347.11c7.23,40.19,5.89,50.9-8.31,67.24-16.61,18.75-55.72,41.26-71.79,41.26-12.59,0-21.7-18.76-12.59-26.26,1.88-1.6,14.47-8.57,27.86-15.27,37.24-18.48,39.38-22.76,31.34-65.63-12.32-66.16-4.28-194.74,12.86-209.75,7.23-6.16,14.2-5.89,21.16,1.08,6.43,6.43,6.16,10.44-1.87,45.27C1764,1217.46,1764.8,1301.84,1773.11,1347.11Z"/><path d="M1719.8,1594.37c0,8.84-7.77,16.61-16.88,16.61-2.68,0-10.44-4.56-16.87-10.18-38-33.76-94-44.2-150.55-28.4-23.31,6.7-25.18,6.7-31.34,2.68-7.51-5.09-9.11-16.07-3-24.38,2.14-2.94,12.59-7.23,27.32-11,28.67-7.5,75.28-8.57,104.21-2.41C1673.19,1545.88,1719.8,1576.42,1719.8,1594.37Z"/><path d="M675.6,2256.57c-2.94,3.75-8.3,7-12.05,7.5-10.18,1.34-16.88-7-19-23.84-3.48-26.52-15.54-81.17-26-117.6-34.55-120.55-87.06-214.31-161-287.17-17.41-17.14-31.61-33-31.61-35.36,0-2.68,2.95-7.5,6.7-11,3.48-3.75,8.84-6.7,12.05-6.7,8,0,40.72,29.73,67.77,61.88,80.9,95.37,129.66,206,159.93,362.71C680.42,2249.07,680.42,2249.87,675.6,2256.57Z"/></g></g></svg>