<svg width="300" height="109" viewBox="0 0 300 109" fill="none" xmlns="http://www.w3.org/2000/svg">
<path d="M64.0862 85.2822C63.8582 85.1112 63.6871 84.8751 63.5954 84.605L59.3447 70.1772C59.3187 70.0882 59.2671 70.0088 59.1965 69.9489C59.1258 69.889 59.0392 69.8511 58.9473 69.84C58.8554 69.8289 58.7622 69.845 58.6793 69.8863C58.5965 69.9277 58.5275 69.9925 58.4811 70.0727L45.2498 92.9556L45.2382 92.9711C45.1037 93.1301 44.9396 93.2615 44.7552 93.3581C44.4796 93.4942 44.165 93.5289 43.8665 93.4561C43.5679 93.3832 43.3046 93.2074 43.1225 92.9595C43.0085 92.8014 42.936 92.6171 42.9119 92.4236C41.5543 84.9823 40.1953 77.543 38.8351 70.1056C38.8216 70.0308 38.7851 69.9622 38.7307 69.9092C38.6763 69.8563 38.6067 69.8218 38.5317 69.8105C38.4567 69.7991 38.38 69.8116 38.3125 69.8462C38.2449 69.8807 38.1898 69.9356 38.155 70.003L31.0409 83.8814C30.8477 84.2316 30.668 84.5818 30.4825 84.9552L30.3472 85.1119L30.3337 85.1313C30.179 85.2652 29.999 85.3666 29.8043 85.4292C29.6019 85.498 29.3869 85.5217 29.1744 85.4989H21.2527C21.1594 85.4988 21.0679 85.5243 20.9882 85.5728C20.9085 85.6213 20.8436 85.6908 20.8007 85.7737C20.7578 85.8566 20.7386 85.9497 20.745 86.0429C20.7514 86.136 20.7834 86.2256 20.8373 86.3018C22.4216 88.4705 24.2241 90.4706 26.2163 92.2707C31.9973 97.5089 38.012 102.485 44.2605 107.2C45.0277 107.777 45.9614 108.089 46.9211 108.089C47.8808 108.089 48.8145 107.777 49.5817 107.2C55.8134 102.474 61.8275 97.4947 67.624 92.263C69.6095 90.4686 71.4067 88.4757 72.9876 86.3154C73.0427 86.2375 73.0753 86.1458 73.0818 86.0505C73.0882 85.9552 73.0683 85.86 73.0241 85.7754C72.9799 85.6907 72.9133 85.6199 72.8315 85.5708C72.7497 85.5217 72.6559 85.4961 72.5606 85.497C68.3813 85.5144 65.4329 85.5144 64.8494 85.5144C64.577 85.5188 64.3101 85.4376 64.0862 85.2822Z" fill="#367C78"/>
<path d="M78.3451 65.8547C78.3451 57.7052 70.9779 50.6316 61.9065 50.6316C58.8098 50.6517 55.7768 51.5151 53.1327 53.1294C50.5177 54.7085 48.3878 56.9785 46.9769 59.6904C45.6061 57.0479 43.5523 54.8222 41.0298 53.2455C38.345 51.5379 35.2336 50.6232 32.053 50.6064C22.9817 50.6064 15.6299 57.682 15.6299 65.8314V66.9768C15.7676 70.4757 16.7098 73.8955 18.3832 76.9701C18.486 77.1532 18.6359 77.3055 18.8174 77.4109C18.9988 77.5164 19.2051 77.5713 19.4149 77.5699H27.9163C28.1343 77.5689 28.3478 77.5077 28.5332 77.393C28.7187 77.2783 28.8689 77.1145 28.9674 76.9198C33.9775 67.0426 37.6736 59.7194 38.176 58.8971C38.3305 58.6185 38.5782 58.4034 38.8754 58.2896C39.093 58.2157 39.326 58.1997 39.5517 58.2431C39.7796 58.2815 39.9909 58.3873 40.1584 58.5469C40.2584 58.6491 40.3424 58.7659 40.4076 58.8932C40.4715 59.022 40.5158 59.1596 40.539 59.3015L44.5095 81.1648C44.5331 81.2932 44.5954 81.4112 44.688 81.5031C44.7806 81.5949 44.8991 81.6561 45.0275 81.6785C45.1559 81.7008 45.2881 81.6832 45.4062 81.628C45.5243 81.5729 45.6227 81.4828 45.6881 81.3699L58.5562 58.9261C58.73 58.6406 59.0066 58.4328 59.329 58.3457C59.6484 58.2584 59.9887 58.2914 60.2854 58.4385C60.48 58.5486 60.6476 58.7006 60.7762 58.8835C60.8972 59.0665 60.9764 59.2739 61.0081 59.4911C61.826 62.481 62.6465 65.4696 63.4696 68.457C64.2231 71.1967 64.9883 73.9789 65.7495 76.7244C65.8178 76.9708 65.9646 77.1881 66.1676 77.3432C66.3706 77.4982 66.6187 77.5826 66.874 77.5834C69.3993 77.5834 71.9266 77.566 74.4538 77.5834C74.6664 77.5843 74.8752 77.5276 75.0582 77.4192C75.2412 77.3109 75.3915 77.1551 75.4933 76.9682C78.5577 71.245 78.3722 66.9962 78.3374 66.5202C78.3374 66.4815 78.3374 66.4448 78.3374 66.4061L78.3451 65.8547Z" fill="#367C78"/>
<path d="M88.3228 30.1036L92.6952 28.7086C92.9976 28.6123 93.2653 28.4297 93.4654 28.1832C93.6656 27.9366 93.7895 27.6369 93.8219 27.3209C93.8543 27.0048 93.7939 26.6862 93.6479 26.4041C93.502 26.122 93.277 25.8887 93.0005 25.7328L47.6919 0.208866C47.4482 0.0719223 47.1734 0 46.8939 0C46.6145 0 46.3397 0.0719223 46.0959 0.208866L0.829836 25.6922C0.553818 25.8478 0.32909 26.0806 0.183162 26.3621C0.0372346 26.6436 -0.0235601 26.9616 0.00822072 27.2772C0.0400015 27.5928 0.162979 27.8922 0.362098 28.1389C0.561216 28.3856 0.827836 28.5687 1.12932 28.666L17.5254 33.9325C17.8529 34.038 18.1387 34.2445 18.3417 34.5226C18.5448 34.8006 18.6547 35.1359 18.6557 35.4804V43.0145C18.6548 43.3108 18.7345 43.6018 18.8864 43.856C19.0383 44.1103 19.2565 44.3183 19.5177 44.4576C19.7788 44.5969 20.073 44.6623 20.3684 44.6467C20.6639 44.631 20.9495 44.535 21.1946 44.3689C24.0632 42.4597 27.4145 41.406 30.858 41.3303C34.3016 41.2546 37.6958 42.1601 40.6454 43.9413C42.8658 45.2831 44.7611 47.1017 46.1945 49.2659C46.2642 49.3739 46.3608 49.4619 46.4746 49.5213C46.5889 49.5843 46.7171 49.6173 46.8475 49.6173C46.978 49.6173 47.1062 49.5843 47.2204 49.5213C47.3347 49.4624 47.4314 49.3743 47.5006 49.2659C48.9605 47.064 50.8923 45.2159 53.1554 43.856C55.4185 42.4961 57.956 41.6587 60.5831 41.4048C63.2297 41.1309 65.9041 41.4413 68.4179 42.3141C69.8681 42.8132 71.2465 43.5008 72.5179 44.3592C72.7623 44.5264 73.0476 44.6237 73.3432 44.6406C73.6387 44.6574 73.9332 44.5932 74.195 44.4549C74.4567 44.3165 74.6759 44.1093 74.8288 43.8555C74.9816 43.6017 75.0625 43.3109 75.0625 43.0145V35.4862C75.0637 35.1415 75.1739 34.806 75.3773 34.5279C75.5808 34.2498 75.8669 34.0434 76.1948 33.9383L83.2934 31.6649L88.3228 30.1036Z" fill="#367C78"/>
<path d="M108.72 75.1013C107.11 75.1013 105.882 74.6659 105.034 73.7953C104.186 72.9246 103.76 71.6831 103.755 70.0708V46.8705C103.755 45.2608 104.179 44.0302 105.028 43.1789C105.877 42.3276 107.062 41.9026 108.583 41.9039C110.15 41.9039 111.346 42.3289 112.173 43.1789C113 44.0289 113.414 45.2595 113.416 46.8705V51.0536L112.697 48.4396C113.543 46.4649 114.95 44.7828 116.743 43.6026C118.571 42.3837 120.724 41.7742 123.204 41.7742C125.683 41.7742 127.751 42.3605 129.408 43.533C131.06 44.7093 132.235 46.5152 132.932 48.9504H132.018C132.923 46.7917 134.458 44.9577 136.423 43.6897C138.402 42.3998 140.675 41.7549 143.242 41.7549C145.723 41.7549 147.757 42.245 149.344 43.2253C150.931 44.2056 152.116 45.689 152.901 47.6754C153.683 49.6566 154.074 52.1719 154.075 55.2211V70.0572C154.075 71.6683 153.651 72.9098 152.802 73.7817C151.953 74.6537 150.746 75.089 149.181 75.0877C147.57 75.0877 146.34 74.6524 145.493 73.7817C144.645 72.9111 144.222 71.6696 144.222 70.0572V55.5462C144.222 53.4114 143.884 51.8539 143.209 50.8736C142.534 49.8933 141.392 49.4038 139.783 49.4051C137.913 49.4051 136.456 50.0584 135.411 51.3651C134.366 52.6717 133.844 54.5233 133.844 56.9199V70.0553C133.844 71.6663 133.42 72.9078 132.573 73.7798C131.725 74.6517 130.518 75.0871 128.95 75.0858C127.385 75.0858 126.167 74.6505 125.296 73.7798C124.426 72.9091 123.99 71.6676 123.99 70.0553V55.5442C123.99 53.4095 123.653 51.852 122.98 50.8717C122.306 49.8914 121.164 49.4019 119.554 49.4032C117.682 49.4032 116.225 50.0565 115.182 51.3631C114.138 52.6698 113.614 54.5272 113.609 56.9354V70.0708C113.609 73.4257 111.979 75.1026 108.72 75.1013Z" fill="#367C78"/>
<path d="M173.13 75.233C170.781 75.233 168.671 74.7751 166.801 73.8593C165.034 73.036 163.523 71.7489 162.428 70.1348C161.384 68.57 160.838 66.725 160.861 64.8431C160.861 62.4904 161.47 60.6278 162.689 59.2554C163.908 57.883 165.887 56.9027 168.626 56.3145C171.369 55.7263 175.002 55.4322 179.526 55.4322H182.984V60.5285H179.591C177.371 60.5285 175.576 60.6485 174.206 60.8884C172.837 61.1283 171.858 61.5346 171.27 62.1073C170.682 62.6748 170.389 63.4591 170.389 64.46C170.372 65.0234 170.477 65.5837 170.697 66.1026C170.917 66.6215 171.246 67.0868 171.662 67.4667C172.511 68.251 173.74 68.6431 175.348 68.6431C176.529 68.6637 177.692 68.3584 178.71 67.7608C179.685 67.1767 180.486 66.3415 181.029 65.3423C181.606 64.2689 181.898 63.065 181.877 61.8461V54.3216C181.877 52.4049 181.442 51.0434 180.571 50.2373C179.7 49.4311 178.219 49.028 176.127 49.028C174.843 49.0398 173.564 49.1818 172.309 49.4517C170.76 49.7909 169.242 50.2614 167.772 50.8583C166.815 51.2943 165.967 51.3923 165.228 51.1524C164.522 50.9385 163.918 50.4733 163.531 49.8445C163.143 49.2167 162.942 48.4912 162.952 47.753C162.958 46.9661 163.185 46.1967 163.605 45.5318C164.04 44.8121 164.758 44.2781 165.757 43.9298C167.616 43.1576 169.552 42.5881 171.532 42.231C173.181 41.941 174.851 41.7883 176.525 41.7744C179.874 41.7744 182.626 42.2646 184.781 43.2449C186.862 44.1573 188.574 45.7455 189.642 47.753C190.729 49.7781 191.274 52.381 191.275 55.5618V70.0729C191.275 71.6839 190.883 72.9254 190.1 73.7974C189.317 74.6693 188.185 75.1047 186.705 75.1034C185.225 75.1034 184.084 74.6681 183.28 73.7974C182.476 72.9267 182.073 71.6852 182.072 70.0729V67.6544L182.53 68.0413C182.307 69.4356 181.734 70.7504 180.865 71.8626C180.004 72.9402 178.896 73.7927 177.634 74.3469C176.213 74.9601 174.677 75.2622 173.13 75.233Z" fill="#367C78"/>
<path d="M211.568 75.2332C209.588 75.2275 207.613 75.0527 205.663 74.7108C203.748 74.3977 201.89 73.8031 200.149 72.9463C199.277 72.5116 198.657 71.9556 198.288 71.2785C197.93 70.654 197.76 69.9389 197.799 69.2198C197.838 68.5352 198.076 67.8768 198.483 67.3257C198.882 66.7698 199.458 66.3664 200.116 66.1822C200.79 65.9874 201.54 66.0635 202.367 66.4105C203.946 67.0863 205.584 67.6116 207.261 67.9796C208.699 68.2805 210.164 68.4335 211.634 68.4362C213.504 68.4362 214.863 68.1421 215.712 67.554C216.561 66.9658 216.986 66.1919 216.986 65.2322C216.986 64.3615 216.703 63.7082 216.137 63.2722C215.572 62.8363 214.745 62.5312 213.657 62.3571L206.805 61.1149C204.1 60.6377 202.022 59.6471 200.572 58.1431C199.122 56.6391 198.393 54.7107 198.387 52.358C198.387 50.182 198.995 48.2981 200.213 46.7064C201.43 45.1147 203.116 43.8945 205.271 43.0458C207.425 42.1957 209.872 41.7714 212.613 41.7727C214.43 41.7595 216.243 41.9345 218.023 42.2951C219.68 42.6451 221.283 43.2165 222.788 43.9938C223.5 44.319 224.085 44.8706 224.451 45.563C224.773 46.1861 224.888 46.8959 224.778 47.5887C224.671 48.2792 224.391 48.9311 223.963 49.4829C223.551 50.0337 222.963 50.4259 222.297 50.5935C221.623 50.7702 220.851 50.6831 219.978 50.3323C218.745 49.7376 217.456 49.2671 216.13 48.9276C215.019 48.653 213.879 48.5108 212.735 48.5039C210.778 48.5039 209.361 48.8192 208.484 49.45C207.607 50.0807 207.172 50.8759 207.178 51.8356C207.17 52.1811 207.232 52.5247 207.361 52.8451C207.491 53.1656 207.684 53.4561 207.93 53.6988C208.428 54.1993 209.201 54.5366 210.248 54.7107L217.1 55.9529C219.933 56.4327 222.087 57.3801 223.561 58.7951C225.034 60.2101 225.774 62.1378 225.779 64.5782C225.779 67.8906 224.485 70.4942 221.897 72.389C219.309 74.2839 215.866 75.2319 211.568 75.2332Z" fill="#367C78"/>
<path d="M248.698 75.2327C244.912 75.2327 241.66 74.5464 238.943 73.174C236.225 71.8016 234.136 69.8629 232.677 67.358C231.22 64.8531 230.491 61.9012 230.491 58.5024C230.491 55.1913 231.188 52.2833 232.58 49.7783C233.938 47.3073 235.963 45.2694 238.425 43.8985C240.925 42.4796 243.763 41.7702 246.94 41.7702C249.083 41.7401 251.211 42.1285 253.206 42.9136C255.03 43.6445 256.678 44.7589 258.036 46.1815C259.421 47.6587 260.468 49.4202 261.104 51.3436C261.824 53.5274 262.177 55.8158 262.147 58.1154C262.147 58.9435 261.89 59.5639 261.375 59.9767C260.859 60.3895 260.097 60.5965 259.089 60.5978H238.608V55.4976H255.053L254.009 56.4128C254.009 54.625 253.752 53.1326 253.236 51.9356C252.782 50.8221 251.995 49.8761 250.984 49.2269C250.006 48.6181 248.799 48.313 247.363 48.3118C245.754 48.3118 244.383 48.6826 243.251 49.4243C242.07 50.2033 241.149 51.3186 240.606 52.6264C239.996 54.0194 239.691 55.6963 239.692 57.6569V58.1793C239.692 61.4917 240.465 63.9314 242.011 65.4986C243.556 67.0658 245.852 67.8501 248.897 67.8514C250.102 67.8358 251.304 67.7063 252.485 67.4644C253.795 67.215 255.067 66.7975 256.27 66.2223C257.271 65.7424 258.163 65.5786 258.946 65.7308C259.669 65.8491 260.321 66.2343 260.774 66.8104C261.208 67.3775 261.468 68.0583 261.523 68.7704C261.584 69.5331 261.413 70.2962 261.035 70.9606C260.648 71.6778 259.995 72.2763 259.075 72.7561C257.511 73.6163 255.83 74.244 254.085 74.6193C252.317 75.0214 250.511 75.2271 248.698 75.2327Z" fill="#367C78"/>
<path d="M273.497 75.1013C271.885 75.1013 270.656 74.666 269.808 73.7953C268.961 72.9247 268.537 71.6832 268.537 70.0708V32.8916C268.537 31.2367 268.961 29.9842 269.808 29.1342C270.656 28.2842 271.885 27.8598 273.497 27.8611C275.062 27.8611 276.269 28.2855 277.118 29.1342C277.966 29.9829 278.391 31.2354 278.391 32.8916V48.4455H277.477C278.419 46.3757 279.982 44.6512 281.948 43.5117C283.926 42.3586 286.181 41.7782 288.71 41.7704C291.278 41.7704 293.388 42.2606 295.042 43.2409C296.696 44.2212 297.936 45.7045 298.761 47.6909C299.586 49.6722 299.999 52.1874 300 55.2367V70.0728C300 71.6838 299.576 72.9253 298.729 73.7973C297.881 74.6692 296.65 75.1039 295.036 75.1013C293.469 75.1013 292.261 74.666 291.413 73.7953C290.566 72.9247 290.142 71.6832 290.14 70.0708V55.6933C290.14 53.4721 289.738 51.8707 288.935 50.8892C288.131 49.9076 286.901 49.4181 285.246 49.4206C283.158 49.4206 281.494 50.074 280.253 51.3806C279.013 52.6872 278.393 54.4286 278.395 56.6046V70.067C278.392 73.4245 276.76 75.1026 273.497 75.1013Z" fill="#367C78"/>
</svg>
