<svg width="24" height="28" viewBox="0 0 24 28" fill="none" xmlns="http://www.w3.org/2000/svg">
<path d="M11.6667 11.667C13.5998 11.667 15.1667 13.2339 15.1667 15.167C15.1667 17.1002 13.5998 18.667 11.6667 18.667C9.7335 18.667 8.16667 17.1002 8.16667 15.167C8.16667 13.2339 9.7335 11.667 11.6667 11.667ZM23.3333 11.667V16.7327C23.3333 18.4162 22.4268 19.969 20.9603 20.7962L17.5 22.7504V26.8337C17.5 27.4777 16.9773 28.0004 16.3333 28.0004H7C6.356 28.0004 5.83333 27.4777 5.83333 26.8337V22.7504L2.37183 20.7962C0.9065 19.969 0 18.4162 0 16.7327V11.667C0 11.023 0.522667 10.5004 1.16667 10.5004C1.81067 10.5004 2.33333 11.023 2.33333 11.667V17.0862C2.33333 17.5634 2.62383 17.9927 3.06717 18.17L7.224 19.8337H16.1082L20.2662 18.17C20.7095 17.9927 21 17.5634 21 17.0862V11.6659C21 11.0219 21.5215 10.4992 22.1667 10.4992C22.8118 10.4992 23.3333 11.0219 23.3333 11.6659V11.667ZM3.32733 7.7972C3.584 8.27786 4.2315 8.37353 4.6165 7.98853L6.531 6.07403L7.95317 8.9277C8.18183 9.38736 8.80717 9.4597 9.135 9.06536C9.2645 8.9102 9.32167 8.70719 9.2925 8.50769L8.32183 1.83203C8.19583 1.20903 7.427 0.976862 6.97783 1.4272L5.07617 3.32886L3.78933 0.484529C3.53267 -0.0463045 2.82917 -0.165304 2.4115 0.252362L1.10717 1.5567C0.795667 1.8682 0.718667 2.34186 0.9135 2.7362L3.32617 7.79836L3.32733 7.7972ZM15.3463 8.9277L16.7685 6.07403L18.683 7.98853C19.068 8.37353 19.7155 8.27786 19.9722 7.7972L22.3848 2.73503C22.5797 2.3407 22.5027 1.86703 22.1912 1.55553L20.8868 0.251196C20.4703 -0.165304 19.7657 -0.0474711 19.509 0.483362L18.2222 3.32886L16.3205 1.4272C15.8713 0.978029 15.1025 1.2102 14.9765 1.83203L14.0058 8.50769C13.9767 8.70719 14.0338 8.9102 14.1633 9.06536C14.4923 9.4597 15.1165 9.3862 15.3452 8.9277H15.3463Z" fill="black"/>
</svg>
