<svg width="31" height="31" viewBox="0 0 31 31" fill="none" xmlns="http://www.w3.org/2000/svg">
<path d="M15.4397 3.85993C15.4397 3.1497 16.0149 2.57329 16.7264 2.57329H20.5863C21.0739 2.57329 21.5191 2.84863 21.7379 3.2848C21.9553 3.72097 21.909 4.24207 21.6156 4.63192L19.2997 7.71986H20.5863C21.2978 7.71986 21.8729 8.29628 21.8729 9.00651C21.8729 9.71674 21.2978 10.2932 20.5863 10.2932H16.7264C16.2387 10.2932 15.7936 10.0178 15.5748 9.58164C15.3574 9.14547 15.4037 8.62438 15.6971 8.23452L18.013 5.14658H16.7264C16.0149 5.14658 15.4397 4.57016 15.4397 3.85993ZM25.7329 2.57329H27.0195L24.7036 5.66123C24.4102 6.05109 24.3639 6.57218 24.5813 7.00835C24.8001 7.44452 25.2452 7.71986 25.7329 7.71986H29.5928C30.3043 7.71986 30.8795 7.14345 30.8795 6.43322C30.8795 5.72299 30.3043 5.14658 29.5928 5.14658H28.3062L30.6221 2.05863C30.9155 1.66878 30.9618 1.14769 30.7444 0.711514C30.5256 0.275342 30.0805 0 29.5928 0H25.7329C25.0214 0 24.4462 0.576417 24.4462 1.28664C24.4462 1.99687 25.0214 2.57329 25.7329 2.57329ZM20.5503 15.4359C20.0047 15.4333 19.4952 15.1541 19.0333 14.6086C18.5753 14.0669 17.7647 13.9961 17.2192 14.458C16.6775 14.9161 16.6093 15.7292 17.0686 16.2709C18.2755 17.6965 19.6187 18.0027 20.5336 18.0092H20.5593C21.8832 18.0092 23.2316 17.3658 24.1709 16.2838C24.6354 15.7472 24.5775 14.9341 24.0409 14.4683C23.5044 14.0038 22.6913 14.0592 22.2255 14.597C21.7765 15.1142 21.1383 15.4359 20.5593 15.4359H20.5503ZM28.7102 10.342C28.027 10.535 27.6294 11.2466 27.8237 11.9298C28.1441 13.0672 28.3075 14.247 28.3075 15.4397C28.3075 22.5343 22.5356 28.3062 15.441 28.3062C8.34646 28.3062 2.57329 22.5343 2.57329 15.4397C2.57329 9.70644 6.42035 4.61519 11.9298 3.05707C12.613 2.86407 13.0105 2.15256 12.8163 1.46935C12.6246 0.783566 11.904 0.393713 11.2285 0.581563C4.61777 2.45106 0 8.56133 0 15.4397C0 23.9535 6.926 30.8795 15.4397 30.8795C23.9535 30.8795 30.8795 23.9535 30.8795 15.4397C30.8795 14.0116 30.6839 12.595 30.2979 11.2298C30.1062 10.5453 29.3947 10.1516 28.7102 10.342ZM12.8677 23.1596C12.8677 24.5813 14.0193 25.7329 15.441 25.7329C16.8628 25.7329 18.0143 24.5813 18.0143 23.1596C18.0143 21.7379 16.8628 20.5863 15.441 20.5863C14.0193 20.5863 12.8677 21.7379 12.8677 23.1596ZM11.9323 14.597C11.4833 15.1142 10.8451 15.4359 10.2661 15.4359H10.2571C9.71159 15.4333 9.20208 15.1541 8.74017 14.6086C8.28084 14.0669 7.47154 13.9961 6.926 14.458C6.38433 14.9161 6.31614 15.7292 6.77547 16.2709C7.98234 17.6965 9.3256 18.0027 10.2404 18.0092H10.2661C11.5901 18.0092 12.9385 17.3658 13.8777 16.2838C14.3422 15.7472 14.2843 14.9341 13.7478 14.4683C13.2113 14.0038 12.3994 14.0592 11.9323 14.597Z" fill="black"/>
</svg>
