<svg width="31" height="31" viewBox="0 0 31 31" fill="none" xmlns="http://www.w3.org/2000/svg">
<path d="M11.7648 14.8668C11.7648 12.8307 13.4104 11.1809 15.4412 11.1809C17.472 11.1809 19.1176 12.8307 19.1176 14.8668C19.1176 16.903 17.472 18.5528 15.4412 18.5528C13.4104 18.5528 11.7648 16.903 11.7648 14.8668ZM30.4099 13.739L22.119 21.4131C21.8705 21.6416 21.6013 21.8406 21.3234 22.0205V28.8734C21.3234 29.6873 20.6661 30.3478 19.8528 30.3478H11.0295C10.2163 30.3478 9.559 29.6873 9.559 28.8734V22.0205C9.28107 21.8392 9.01196 21.6416 8.76491 21.4131L0.472499 13.739C-0.123072 13.1861 -0.161308 12.2543 0.390146 11.6557C0.94013 11.0585 1.87246 11.0202 2.46803 11.5716L10.759 19.2457C11.3031 19.75 12.0133 20.0272 12.753 20.0272H18.1264C18.8676 20.0272 19.5764 19.75 20.122 19.2443L28.4114 11.5716C29.0085 11.0202 29.9408 11.0571 30.4893 11.6557C31.0408 12.2543 31.004 13.1875 30.407 13.739H30.4099Z" fill="black"/>
<path d="M17.7018 0C16.3049 0 15.1731 1.12532 15.1731 2.51411C15.1731 1.12532 14.0412 0 12.6444 0C11.2475 0 10.1157 1.12532 10.1157 2.51411C10.1157 4.71948 12.9741 7.71227 14.3932 8.78932C14.8535 9.13827 15.4937 9.13827 15.954 8.78932C17.3731 7.71328 20.2315 4.71948 20.2315 2.51411C20.2315 1.12532 19.0997 0 17.7028 0H17.7018Z" fill="black"/>
</svg>
