<svg width="175" height="162" viewBox="0 0 175 162" fill="none" xmlns="http://www.w3.org/2000/svg">
<path d="M4.42803 161.126C2.99222 161.126 1.89641 160.738 1.1406 159.961C0.384795 159.185 0.00459458 158.078 0 156.64V135.951C0 134.516 0.378483 133.419 1.13544 132.66C1.8924 131.9 2.94914 131.521 4.30569 131.523C5.70244 131.523 6.76954 131.902 7.50697 132.66C8.2444 133.418 8.61369 134.515 8.61484 135.951V139.682L7.9739 137.351C8.72815 135.59 9.98281 134.09 11.5818 133.037C13.2117 131.95 15.1322 131.407 17.3434 131.407C19.5545 131.407 21.3987 131.93 22.8758 132.975C24.3495 134.024 25.3971 135.635 26.0185 137.806H25.2036C26.01 135.881 27.3795 134.246 29.1319 133.115C30.8962 131.965 32.923 131.39 35.2123 131.39C37.4246 131.39 39.2383 131.827 40.6534 132.701C42.0685 133.575 43.1259 134.898 43.8254 136.669C44.5226 138.436 44.8718 140.679 44.873 143.398V156.628C44.873 158.065 44.4945 159.172 43.7375 159.949C42.9806 160.727 41.9043 161.115 40.5087 161.114C39.0717 161.114 37.9753 160.726 37.2195 159.949C36.4637 159.173 36.0858 158.066 36.0858 156.628V143.688C36.0858 141.784 35.7849 140.395 35.183 139.521C34.5811 138.647 33.5628 138.211 32.1282 138.212C30.4603 138.212 29.1606 138.794 28.2291 139.959C27.2975 141.125 26.8318 142.776 26.8318 144.913V156.626C26.8318 158.063 26.4539 159.17 25.6981 159.948C24.9422 160.725 23.8654 161.113 22.4675 161.112C21.0719 161.112 19.9858 160.724 19.2094 159.948C18.4329 159.171 18.0446 158.064 18.0446 156.626V143.686C18.0446 141.783 17.7443 140.394 17.1435 139.519C16.5428 138.645 15.5245 138.209 14.0887 138.21C12.4197 138.21 11.12 138.793 10.1896 139.958C9.25923 141.123 8.79173 142.779 8.78713 144.927V156.64C8.78713 159.632 7.3341 161.127 4.42803 161.126Z" fill="#3B8173"/>
<path d="M61.8649 161.243C59.7697 161.243 57.8882 160.835 56.2204 160.018C54.6451 159.284 53.2977 158.136 52.3213 156.697C51.3902 155.302 50.903 153.656 50.924 151.978C50.924 149.88 51.4673 148.219 52.5539 146.995C53.6406 145.772 55.4055 144.897 57.8486 144.373C60.2941 143.848 63.5338 143.586 67.5679 143.586H70.652V148.131H67.6265C65.6462 148.131 64.0456 148.238 62.8246 148.452C61.6035 148.666 60.7306 149.028 60.2056 149.539C59.6819 150.045 59.42 150.744 59.42 151.637C59.4054 152.139 59.4993 152.639 59.6952 153.101C59.8912 153.564 60.1846 153.979 60.5554 154.318C61.3124 155.017 62.4082 155.367 63.8428 155.367C64.8953 155.385 65.9326 155.113 66.8408 154.58C67.7101 154.059 68.4241 153.314 68.9083 152.423C69.4229 151.466 69.6834 150.393 69.6647 149.306V142.596C69.6647 140.887 69.2765 139.673 68.5 138.954C67.7235 138.235 66.4026 137.875 64.5372 137.875C63.3925 137.886 62.2518 138.012 61.1326 138.253C59.751 138.556 58.3976 138.975 57.0871 139.507C56.2336 139.896 55.4772 139.984 54.8179 139.77C54.1883 139.579 53.6503 139.164 53.3052 138.603C52.9592 138.044 52.7799 137.397 52.7883 136.738C52.7942 136.037 52.9959 135.351 53.3706 134.758C53.7589 134.116 54.3987 133.64 55.29 133.329C56.9474 132.64 58.674 132.133 60.44 131.814C61.9102 131.556 63.3994 131.419 64.8921 131.407C67.8786 131.407 70.3327 131.844 72.2543 132.718C74.1097 133.532 75.637 134.948 76.5893 136.738C77.5588 138.544 78.0441 140.865 78.0452 143.702V156.642C78.0452 158.079 77.6961 159.186 76.9977 159.963C76.2993 160.741 75.2902 161.129 73.9704 161.128C72.6506 161.128 71.6324 160.74 70.9156 159.963C70.1989 159.187 69.8399 158.08 69.8388 156.642V154.485L70.2471 154.83C70.0478 156.074 69.5368 157.246 68.7619 158.238C67.9948 159.199 67.0062 159.959 65.8811 160.453C64.6138 161 63.2445 161.269 61.8649 161.243Z" fill="#3B8173"/>
<path d="M96.1416 161.244C94.3764 161.238 92.6149 161.083 90.8762 160.778C89.1687 160.498 87.5117 159.968 85.9588 159.204C85.1812 158.817 84.6281 158.321 84.2996 157.717C83.9802 157.16 83.8288 156.522 83.8637 155.881C83.8982 155.271 84.1103 154.684 84.4736 154.192C84.8291 153.696 85.3426 153.337 85.9295 153.172C86.5303 152.999 87.1994 153.067 87.9368 153.376C89.3445 153.979 90.8057 154.447 92.3011 154.775C93.5835 155.044 94.89 155.18 96.2002 155.182C97.868 155.182 99.0804 154.92 99.8373 154.396C100.594 153.871 100.973 153.181 100.973 152.325C100.973 151.549 100.721 150.966 100.216 150.577C99.7121 150.189 98.9747 149.917 98.0041 149.761L91.8945 148.654C89.4823 148.228 87.6295 147.345 86.3362 146.004C85.0428 144.662 84.3932 142.943 84.3875 140.845C84.3875 138.904 84.9302 137.224 86.0157 135.805C87.1012 134.386 88.6047 133.298 90.5264 132.541C92.447 131.783 94.6294 131.404 97.0737 131.405C98.6936 131.394 100.31 131.55 101.898 131.871C103.376 132.183 104.805 132.693 106.147 133.386C106.782 133.676 107.303 134.168 107.63 134.785C107.917 135.341 108.019 135.974 107.921 136.592C107.826 137.208 107.576 137.789 107.194 138.281C106.828 138.772 106.303 139.122 105.709 139.271C105.108 139.429 104.419 139.351 103.642 139.038C102.542 138.508 101.392 138.088 100.209 137.786C99.2188 137.541 98.2027 137.414 97.1823 137.408C95.4375 137.408 94.174 137.689 93.3917 138.252C92.6095 138.814 92.2213 139.523 92.227 140.379C92.2195 140.687 92.2751 140.993 92.3904 141.279C92.5056 141.565 92.6781 141.824 92.8972 142.04C93.3418 142.487 94.0309 142.788 94.9648 142.943L101.074 144.05C103.601 144.478 105.522 145.323 106.836 146.585C108.15 147.847 108.809 149.566 108.814 151.742C108.814 154.696 107.66 157.018 105.353 158.707C103.045 160.397 99.9746 161.242 96.1416 161.244Z" fill="#3B8173"/>
<path d="M129.252 161.243C125.876 161.243 122.976 160.632 120.553 159.408C118.129 158.184 116.266 156.455 114.965 154.221C113.666 151.988 113.016 149.355 113.016 146.324C113.016 143.372 113.637 140.779 114.879 138.545C116.089 136.341 117.896 134.524 120.091 133.301C122.32 132.036 124.851 131.404 127.684 131.404C129.595 131.377 131.493 131.723 133.271 132.423C134.899 133.075 136.368 134.069 137.579 135.337C138.814 136.655 139.748 138.225 140.315 139.941C140.957 141.888 141.271 143.929 141.245 145.979C141.245 146.718 141.016 147.271 140.556 147.639C140.097 148.007 139.417 148.192 138.518 148.193H120.254V143.645H134.919L133.988 144.461C133.988 142.867 133.759 141.536 133.299 140.469C132.894 139.476 132.192 138.632 131.29 138.053C130.418 137.51 129.342 137.238 128.061 137.237C126.627 137.237 125.404 137.568 124.395 138.229C123.342 138.924 122.52 139.918 122.036 141.084C121.492 142.327 121.22 143.822 121.221 145.57V146.036C121.221 148.99 121.91 151.166 123.289 152.563C124.667 153.961 126.714 154.66 129.429 154.661C130.504 154.647 131.576 154.532 132.629 154.316C133.797 154.094 134.931 153.721 136.004 153.208C136.897 152.781 137.692 152.635 138.39 152.77C139.035 152.876 139.616 153.219 140.02 153.733C140.407 154.239 140.639 154.846 140.689 155.481C140.743 156.161 140.591 156.841 140.253 157.434C139.908 158.073 139.326 158.607 138.506 159.035C137.111 159.802 135.612 160.362 134.055 160.696C132.479 161.055 130.868 161.238 129.252 161.243Z" fill="#3B8173"/>
<path d="M151.366 161.126C149.929 161.126 148.833 160.738 148.077 159.961C147.321 159.185 146.943 158.078 146.943 156.64V123.486C146.943 122.01 147.321 120.893 148.077 120.135C148.833 119.377 149.929 118.999 151.366 119C152.762 119 153.838 119.378 154.595 120.135C155.352 120.892 155.73 122.009 155.73 123.486V137.356H154.915C155.756 135.51 157.149 133.972 158.902 132.956C160.667 131.928 162.677 131.41 164.933 131.404C167.222 131.404 169.104 131.841 170.579 132.715C172.054 133.589 173.159 134.912 173.896 136.683C174.631 138.45 174.999 140.693 175 143.412V156.642C175 158.079 174.622 159.186 173.866 159.963C173.11 160.741 172.013 161.128 170.574 161.126C169.176 161.126 168.099 160.738 167.343 159.961C166.587 159.185 166.209 158.078 166.208 156.64V143.819C166.208 141.838 165.849 140.41 165.133 139.535C164.416 138.66 163.319 138.223 161.843 138.226C159.981 138.226 158.497 138.808 157.391 139.973C156.285 141.139 155.733 142.691 155.734 144.632V156.637C155.731 159.631 154.276 161.127 151.366 161.126Z" fill="#3B8173"/>
<g clip-path="url(#clip0_219_632)">
<path d="M105.202 86.0091C104.974 85.8365 104.803 85.5985 104.712 85.3262L100.466 70.7754C100.44 70.6855 100.388 70.6053 100.317 70.5448C100.247 70.4842 100.16 70.446 100.067 70.4348C99.9751 70.4236 99.8816 70.44 99.7985 70.4819C99.7153 70.5237 99.6462 70.5893 99.5997 70.6703L86.3316 93.7486L86.32 93.7641C86.186 93.9252 86.0213 94.0575 85.8356 94.1533C85.552 94.2902 85.2301 94.3239 84.9247 94.2486C84.6374 94.1657 84.3839 93.9926 84.201 93.7544C84.087 93.594 84.0147 93.4074 83.9906 93.2116C82.6307 85.6991 81.2694 78.1951 79.9069 70.6995C79.8935 70.6244 79.857 70.5553 79.8027 70.5021C79.7483 70.4489 79.6788 70.4141 79.6039 70.4028C79.529 70.3914 79.4524 70.4039 79.3849 70.4387C79.3174 70.4734 79.2624 70.5286 79.2276 70.5964L72.1005 84.5928C71.9075 84.9449 71.7261 85.299 71.5389 85.6764L71.4057 85.834L71.3922 85.8457C71.2374 85.9814 71.0568 86.084 70.8615 86.1473C70.6586 86.2165 70.4433 86.2404 70.2304 86.2173H62.2907C62.1976 86.2176 62.1062 86.2437 62.0267 86.2927C61.9472 86.3416 61.8825 86.4117 61.8398 86.4951C61.797 86.5786 61.7777 86.6723 61.7841 86.766C61.7904 86.8597 61.8222 86.9499 61.8758 87.0267C63.4635 89.2133 65.269 91.2303 67.2641 93.0462C73.0538 98.3291 79.079 103.348 85.3396 108.103C86.1083 108.685 87.0436 108.999 88.0048 108.999C88.9661 108.999 89.9013 108.685 90.67 108.103C96.9178 103.348 102.946 98.3317 108.753 93.054C110.742 91.2443 112.541 89.2345 114.124 87.0558C114.179 86.9773 114.212 86.8851 114.218 86.7892C114.224 86.6934 114.204 86.5976 114.16 86.5124C114.116 86.4272 114.05 86.3559 113.968 86.3062C113.887 86.2566 113.793 86.2305 113.698 86.2309C109.512 86.2484 106.557 86.2484 105.978 86.2484C105.701 86.2542 105.429 86.1704 105.202 86.0091Z" fill="#3B8173"/>
<path d="M119.487 66.4175C119.487 58.1994 112.106 51.0631 103.02 51.0631C99.9179 51.0877 96.8813 51.962 94.2346 53.5924C91.6156 55.1846 89.4823 57.4733 88.0685 60.2073C86.697 57.5372 84.6378 55.2886 82.107 53.6974C79.4178 51.9739 76.3003 51.0513 73.1137 51.0359C64.0257 51.0359 56.667 58.1703 56.667 66.3902V67.544C56.8059 71.0746 57.751 74.5254 59.4287 77.6278C59.5323 77.812 59.6828 77.965 59.8647 78.071C60.0465 78.177 60.2531 78.2322 60.4631 78.2309H68.9837C69.2021 78.23 69.4161 78.1683 69.6021 78.0526C69.788 77.9369 69.9386 77.7717 70.0374 77.5753C75.0551 67.614 78.7586 60.2287 79.2604 59.3999C79.4173 59.1199 79.6655 58.9033 79.9629 58.787C80.1809 58.7127 80.4143 58.6966 80.6403 58.7403C80.868 58.7789 81.079 58.8853 81.2463 59.0458C81.3474 59.1487 81.4321 59.2668 81.4972 59.396C81.561 59.5261 81.6052 59.6651 81.6284 59.8084L85.606 81.8555C85.6313 81.9842 85.695 82.1021 85.7885 82.1933C85.8821 82.2845 86.0011 82.3447 86.1296 82.3659C86.258 82.387 86.3898 82.3681 86.5073 82.3117C86.6248 82.2552 86.7224 82.164 86.7871 82.0501L99.6788 59.4135C99.853 59.1269 100.129 58.9181 100.451 58.8298C100.773 58.7401 101.117 58.7741 101.416 58.9251C101.611 59.0352 101.779 59.1881 101.908 59.3726C102.029 59.5573 102.109 59.7665 102.141 59.9855C102.96 62.9998 103.781 66.0141 104.606 69.0284C105.36 71.7892 106.129 74.5966 106.891 77.3652C106.959 77.6139 107.106 77.8333 107.31 77.9897C107.513 78.1461 107.762 78.2308 108.018 78.2309C110.548 78.2407 113.08 78.2134 115.61 78.2309C115.823 78.2323 116.032 78.1755 116.216 78.0665C116.399 77.9576 116.55 77.8006 116.652 77.6122C119.721 71.8398 119.536 67.5537 119.501 67.077C119.501 67.0401 119.501 67.0031 119.501 66.9642L119.487 66.4175Z" fill="#3B8173"/>
<path d="M129.482 30.3605L133.863 28.9538C134.166 28.8568 134.434 28.6727 134.635 28.4241C134.835 28.1755 134.959 27.8733 134.992 27.5546C135.024 27.2359 134.963 26.9146 134.817 26.6302C134.671 26.3458 134.445 26.1107 134.168 25.9538L88.7788 0.212054C88.5348 0.073827 88.2597 0.0012207 87.9798 0.0012207C87.7 0.0012207 87.4248 0.073827 87.1808 0.212054L41.828 25.9129C41.5523 26.0706 41.3281 26.3058 41.1828 26.5899C41.0375 26.8739 40.9773 27.1944 41.0096 27.5123C41.0419 27.8302 41.1654 28.1318 41.3649 28.3801C41.5643 28.6285 41.8312 28.813 42.1329 28.911L58.5622 34.2224C58.8898 34.3282 59.1757 34.5358 59.3792 34.8153C59.5826 35.0949 59.6932 35.4321 59.6951 35.7788V43.386C59.6957 43.6831 59.7762 43.9744 59.9281 44.229C60.08 44.4836 60.2976 44.6919 60.5576 44.8317C60.8177 44.9714 61.1105 45.0375 61.4049 45.0227C61.6992 45.008 61.9841 44.913 62.2291 44.7479C65.1034 42.8209 68.4619 41.7572 71.9129 41.6807C75.364 41.6042 78.7656 42.5182 81.7211 44.316C83.946 45.6688 85.8451 47.5028 87.2812 49.6857C87.3502 49.7953 87.4468 49.8845 87.561 49.9445C87.6761 50.007 87.8047 50.0397 87.9354 50.0397C88.0661 50.0397 88.1948 50.007 88.3098 49.9445C88.4237 49.884 88.5201 49.7949 88.5897 49.6857C90.0511 47.4639 91.9857 45.5986 94.2526 44.2257C96.5195 42.8529 99.0616 42.007 101.694 41.7498C104.345 41.4735 107.024 41.787 109.543 42.6681C110.996 43.1699 112.378 43.8633 113.651 44.7304C113.897 44.899 114.183 44.9969 114.48 45.0135C114.776 45.0301 115.071 44.9648 115.334 44.8247C115.596 44.6845 115.815 44.4748 115.968 44.2182C116.121 43.9616 116.202 43.6678 116.201 43.3685V35.7983C116.203 35.4513 116.314 35.1139 116.518 34.8343C116.721 34.5548 117.008 34.3474 117.336 34.2418L124.445 31.95L129.482 30.3605Z" fill="#3B8173"/>
</g>
<defs>
<clipPath id="clip0_219_632">
<rect width="94" height="109" fill="white" transform="translate(41)"/>
</clipPath>
</defs>
</svg>
