<svg xmlns="http://www.w3.org/2000/svg" viewBox="0 0 3263.12 3592.74"><defs><style>.cls-1{fill:#ddd;}.cls-2{fill:#bbb;}.cls-3{fill:#c96;}.cls-4{fill:#fff;}.cls-5{fill:none;}</style></defs><g id="Layer_2" data-name="Layer 2"><g id="Layer_1-2" data-name="Layer 1"><path d="M1738.64,3563.86l-.26-.22-.4-.28-.25-.13a10.57,10.57,0,0,0-1.67-.69c-.16-.05-.32-.11-.49-.15a20.18,20.18,0,0,0-2-.48l-.86-.17-.59-.1-1.08-.17-1.17-.17c-.61-.08-1.26-.16-1.94-.23l-1.43-.15-1.13-.12-1.21-.1-2.14-.17c-.37,0-.75-.06-1.14-.08l-1.19-.09c-1.29-.09-2.66-.18-4.12-.25l-1.11-.06c-1.5-.08-3.09-.16-4.78-.23l-6.38-.25-2.56-.09-2.68-.09-2.79-.09-3.34-.1-5.31-.15-3.74-.09c-7.15-.19-14.29-.43-21.06-.72q-2.55-.09-5-.21l-7.19-.36-3.14-.18-2.82-.16-1.79-.11-3.58-.24-3.34-.24-3.51-.28-.82-.07-.8-.07c-.26,0-.51,0-.77-.08-.76-.06-1.49-.13-2.17-.2-1.85-.19-3.42-.38-4.67-.57-.9-.15-1.64-.29-2.18-.42s-.82-.22-1.21-.31-.87-.21-1.29-.31a32.77,32.77,0,0,0-3.78-.61l-.67-.06-.65,0-.84,0h-.07c-.36,0-.7,0-1,0h0l-.91.09h0l-.56.08a1.42,1.42,0,0,0-.22.05l-.32.07c-.24.06-.48.12-.7.19s-.5.17-.73.26l-.24.11c-.19.08-.38.18-.56.27l-.6.38-.11.09a5.75,5.75,0,0,0-.54.44,6.41,6.41,0,0,0-1,1.14v0a4.94,4.94,0,0,0-.32.55s0,.05,0,.07a1.3,1.3,0,0,0-.08.17,6,6,0,0,0-.43,1.17c0,.15-.08.29-.12.45a5.67,5.67,0,0,0-.12.62,2.79,2.79,0,0,0,0,.32s0,0,0,0,0,0,0,0a.06.06,0,0,0,0,.06s0,0,0,0a3.69,3.69,0,0,0,0,.49c0,.31,0,.63,0,1a3.67,3.67,0,0,1,0,.46.82.82,0,0,1,0,.21c0,.09,0,.17,0,.27a3.9,3.9,0,0,1-.12.46,1.83,1.83,0,0,1-.08.25.92.92,0,0,1-.09.25c0,.15-.11.29-.17.44a11.91,11.91,0,0,1-.63,1.22l-.38.62c-.32.5-.7,1-1.11,1.57l-.62.76c-.37.45-.76.89-1.2,1.38l-.52.56-.72.76a89.44,89.44,0,0,1-7,6.38c-.21.19-.43.37-.65.55-.49.41-1,.82-1.51,1.23l-.9.72c-.3.25-.61.49-.92.73s-.72.57-1.09.85l-1.32,1c-.45.34-.91.69-1.37,1q-3.23,2.44-6.93,5.06c-.78.56-1.58,1.12-2.4,1.69l-1.23.86-1.46,1-.73.52H1604l3.81-3.7c15.65-15.4,20.55-17.12,35.46-12.47,3.91,1.22,25.92,2.94,48.91,3.91,1.19,0,2.35.07,3.48.12.75,0,1.48,0,2.21.07h0c.72,0,1.42,0,2.12.07l4,.12c.52,0,1,0,1.54,0l1.1,0c.36,0,.72,0,1.07,0l4.23.09,1.5,0c3.55.06,6.56.09,9.12.06l2,0c.89,0,1.73,0,2.51-.08l.68,0c.44,0,.86,0,1.27-.07.63-.06,1.22-.1,1.76-.16a20.54,20.54,0,0,0,4.35-.87c.24-.09.47-.18.68-.28a7.06,7.06,0,0,0,1.16-.62c.17-.13.33-.23.49-.37a7.21,7.21,0,0,0,.66-.58C1743.05,3573.15,1743.05,3568.51,1738.64,3563.86Zm1524.48-444.09c0-7.84-5.38-10-24.46-10h-18.58l-5.63-19.56c-3.66-12.72-7.58-21-11-23.23-3.91-2.94-13.45-3.67-41.08-3.67-20,0-36.19-1-36.19-2,0-6.6-16.63-25.92-27.88-32.28-20.79-12-42.31-9.55-59.67,6.85l-8.32,7.82-9.53-8.07c-21.77-18.84-49.89-18.09-69.94,1.22l-8.07,7.82-6.6-6.35a64.66,64.66,0,0,0-33.26-16.15l-10-1.7-12-40.36c-6.6-22.24-20.05-67.24-29.83-100.26-10-33-27.64-91.94-39.13-130.82-48.91-164.82-94.39-303.72-122.27-374.15-20.79-52.58-55-120.31-76.3-150.39-21.76-30.81-66.76-75.81-96.35-96.11-13-9-47.68-28.85-77-44-154.55-80.21-200.28-103.93-309.35-159.2L2011.8,1865l-4.4-16.63c-10-37.91-34.24-97.08-47.69-116.9l-7.58-10.51,16.87-8.55c45.49-23,86.08-67.74,135.72-149.42,72.88-120.32,116.41-247,138.41-402.28,21-147.69,34.73-287.08,35.46-358.74.25-43.53,1-52.33,4.4-56.25,7.34-8.56,35.71-60.88,47.69-88.77a622.22,622.22,0,0,0,35.46-107.58c4.89-22,5.62-32.28,5.62-72.15s-1-49.39-5.62-68.22c-10.27-41.34-35-86.82-59.67-111l-10.76-10.27,3.42-19.08c4.41-24.7,2.45-72.86-4.15-100-19.57-79.24-65.78-134.25-130.83-156-25.92-8.56-52.34-10-98.8-5.15-50.13,5.39-108.09,4.9-187.56-1.21C1831.11,2.7,1752.19.31,1690.49,0c-7.09,0-14,0-20.54,0-26.65.1-48.3.68-59.94,1.84-38.63,3.66-92.43,13.69-124.71,23-93.17,26.65-162.62,85.59-192.7,163.84-4.16,10.76-9,24.46-10.76,30.33l-3.18,10.76-23.23,7.58C1149.05,272.56,1094.28,354.72,1081.8,498c-7.82,91.69,4.16,245.77,28.62,360.2l3.91,19.33-11.25,9.54c-52.58,45-60.89,157.73-18.1,243.07,35.46,70.92,104.42,118.61,170.94,118.61H1273l-1.47,15.16c-1,8.55-3.18,36.19-5.38,61.87-3.43,42.55-13.45,146.48-17.12,178.76l-1.71,13.45-17.61,8.07c-26.9,12.47-37.41,24.94-78.74,94.38-21,35.71-66.27,114.21-72.14,125.46-2.94,5.62-10,9.77-40.11,22.25-20,8.55-83.63,35.46-141.59,59.92-146.48,62.11-239.65,101.24-346,145.74-96.84,40.35-117.38,50.87-150.89,76.79C322,2111,262.59,2219.12,214.9,2387.12c-37.17,130.58-54,216.91-106.13,541.66C99.23,2987.22,71.36,3158.4,46.41,3309,23,3452.05,2.81,3575,0,3592.74H1050.43l.81-9.57c5.13-61.38,26.41-118.12,57-152.59,13.45-15.16,15.9-15.9,105.65-37.17,28.85-6.86,53.06-13,53.55-13.7,1.47-1.22,7.58-1.22,7.58.25,0,.49-2.93,5.13-6.36,10.27-27.63,40.35-52.82,123.49-56.49,186.34l-.88,16.17H1229l.71-10.54c5.87-80.94,33.75-161.9,71.65-207.37,33.5-40.11,61.87-79.23,127.16-175.34q6.8-10,13.13-19.17l3.63-5.28,1.67-2.43,1.65-2.38q4.92-7.14,9.57-13.82l1-1.48,6.94-9.94,2.41-3.45q3.32-4.7,6.44-9.13,1.55-2.17,3-4.3c1-1.43,2-2.81,3-4.19q5.31-7.44,10.19-14.15c.6-.84,1.2-1.66,1.79-2.47q3-4.1,5.84-7.94l2.51-3.38c.83-1.12,1.64-2.2,2.46-3.28,5.25-7,10.09-13.27,14.59-18.9.69-.87,1.38-1.71,2.06-2.56l3.06-3.75q.66-.78,1.29-1.56,2.22-2.66,4.3-5.07c.3-.37.6-.7.91-1.06s.59-.69.89-1c.59-.67,1.18-1.35,1.76-2s1.15-1.3,1.72-1.91l1.68-1.83,1.24-1.33,1.21-1.29c.44-.46.88-.92,1.32-1.36.62-.64,1.22-1.24,1.81-1.83l1.52-1.5c1.34-1.29,2.63-2.5,3.89-3.63l1.13-1c2.1-1.83,4.1-3.44,6-4.84l.67-.48c.24-.18.48-.34.72-.5l.22-.17.58-.38.16-.1.51-.34c.36-.25.72-.47,1.08-.69l.79-.47.77-.46c.4-.22.79-.44,1.19-.64.2-.12.39-.22.58-.31s.57-.3.86-.43l.85-.4q.84-.39,1.68-.72l.62-.25c.53-.2,1.06-.38,1.58-.55a11.21,11.21,0,0,1,1.08-.34c.25-.07.52-.15.82-.22a.07.07,0,0,0,.06,0l.49-.12.53-.13c.37-.1.76-.19,1.17-.28l1.31-.29,2.22-.49,3.2-.64,1.16-.24,5.17-1,2.27-.41,2.4-.43c.79-.16,1.6-.29,2.43-.44,3-.54,6.27-1.1,9.73-1.69,1-.17,2-.35,3-.51l1.53-.26,3.14-.53,3.24-.55,1.65-.26,6.84-1.12c1-.16,2-.31,2.94-.49.8-.11,1.6-.25,2.41-.38l7.42-1.19,3.71-.58,8.57-1.35,3.45-.53,8.27-1.29q4.74-.71,9.61-1.46c4-.6,8-1.22,12-1.82l6.73-1,13.74-2,9.33-1.37c8.6-1.25,17.34-2.51,26.15-3.76l6.61-.94,10.25-1.44c1-.14,2-.29,3-.42l6.64-.93,6-.83,18-2.46c3.19-.44,6.36-.86,9.52-1.28l4.73-.63,4.7-.63c23.72-3.17,40.59-1.71,55.75,5.38.48.22,1,.48,1.53.76,1.08.58,2.27,1.27,3.57,2.06l2,1.3c.7.45,1.43,1,2.18,1.45l2.32,1.63,1.22.87c.82.59,1.66,1.21,2.52,1.85l2.67,2c1.82,1.38,3.73,2.86,5.71,4.43l2.35,1.87c.22.19.45.37.68.55l3.13,2.54c1.07.86,2.15,1.75,3.25,2.66l3.34,2.78c2.25,1.88,4.57,3.85,6.95,5.87s4.8,4.13,7.27,6.29c3.09,2.69,6.25,5.48,9.48,8.34q1.94,1.71,3.89,3.47l2.61,2.34c.88.79,1.75,1.57,2.63,2.38q2.64,2.37,5.32,4.81l2.68,2.46q4,3.68,8.13,7.48l2.83,2.62,6.18,5.77,4.13,3.89,2.58,2.44,2.58,2.45q4.13,3.9,8.24,7.87c1,1,2,2,3.07,3,6.13,5.91,12.19,11.83,18.09,17.68,1.22,1.19,2.43,2.41,3.63,3.6l4.13,4.14c.64.63,1.28,1.26,1.9,1.91,2.54,2.54,5,5.07,7.46,7.56,1.22,1.23,2.42,2.48,3.62,3.71l3.53,3.65q1.77,1.82,3.46,3.6c2.27,2.38,4.49,4.71,6.63,7,1.08,1.14,2.14,2.27,3.16,3.39.53.56,1,1.11,1.54,1.66,4.08,4.41,7.86,8.59,11.28,12.5l2.5,2.88c.79.92,1.56,1.82,2.3,2.7.4.46.79.94,1.18,1.39q1.67,2,3.15,3.85c.34.4.66.82,1,1.21s.56.71.82,1,.53.68.79,1q2.32,3,4,5.51l.64.94.44.68c.15.23.29.44.42.67s.27.42.39.63.25.41.37.61c10,17.12,5.38,35-12.47,48.17-9.78,7.34-41.81,7.1-58.93-.73-1.24-.56-2.51-1.16-3.8-1.79l-1.29-.64c-1-.51-2.06-1-3.11-1.61-.56-.31-1.13-.6-1.7-.91-1.7-.92-3.43-1.9-5.16-2.92-.68-.39-1.37-.8-2-1.21l-.18-.11c-.74-.44-1.49-.91-2.23-1.36s-1.46-.9-2.19-1.36l-2.27-1.46c-.88-.57-1.75-1.16-2.62-1.73l-2.28-1.54c-4.58-3.12-9-6.39-13.11-9.62l-1.93-1.55-1.35-1.11-1.32-1.11c-.44-.35-.87-.72-1.3-1.09l-1.25-1.1c-1.24-1.07-2.43-2.15-3.55-3.21q-1.12-1-2.16-2.1c-.35-.32-.69-.67-1-1s-.65-.68-1-1c-.7-.75-1.35-1.45-2-2.16-.77-.88-1.47-1.74-2.1-2.56s-1.05-1.34-1.59-2l-1.1-1.33-1.24-1.46c-.5-.56-1-1.12-1.5-1.66l-1.47-1.56c-.59-.62-1.19-1.22-1.8-1.81q-1.83-1.77-3.72-3.4c-.63-.56-1.28-1.09-1.93-1.61s-1.61-1.27-2.44-1.89c-.52-.38-1-.76-1.59-1.13s-.93-.66-1.41-1-.95-.63-1.44-.94-1-.65-1.54-1-1-.61-1.56-.92c-.22-.14-.43-.25-.65-.37-.72-.41-1.45-.81-2.19-1.19-1-.55-2.11-1.09-3.19-1.6l-1.35-.63c-.39-.18-.78-.36-1.17-.52-.6-.27-1.21-.53-1.83-.79l-1.86-.76q-1.2-.48-2.43-.93c-.42-.17-.85-.32-1.28-.48s-.86-.31-1.3-.45-.89-.3-1.39-.5c-.25-.09-.51-.19-.78-.31s-.34-.14-.52-.22l-.55-.23c-.74-.32-1.55-.69-2.4-1.1l-.68-.33c-1.15-.56-2.38-1.18-3.68-1.86-.75-.4-1.52-.81-2.31-1.25q-2.38-1.27-4.94-2.75c-1.69-1-3.44-2-5.2-3.06-1-.58-2-1.19-3-1.82s-2-1.22-3-1.85c-.66-.41-1.33-.83-2-1.27l-2.63-1.69-2.58-1.7c-.43-.28-.85-.57-1.27-.86l-24.21-16.63-14.92,1.48c-.51,0-1,.09-1.57.17l-1.69.21c-.86.11-1.77.25-2.7.39l-2.87.5-2.48.46-2.53.51c-.42.08-.85.16-1.27.27l-1.79.39c-1,.22-2,.46-3,.69l-2,.5c-1,.24-1.95.5-2.89.75l-1.16.31c-1.45.41-2.83.81-4.1,1.21l-15.4,4.65-54.29-9.8-5.21-.92-.35-.06c-2.76-.49-5.48-1-8.15-1.44l-8.15-1.42c-4.13-.72-8.07-1.39-11.74-2l-9.46-1.57-1.88-.31-1.58-.26-4.29-.68c-.5-.09-1-.16-1.45-.23l-2-.3c-.1,0-.21,0-.31-.06s-.35-.06-.52-.07l-2-.3a2.7,2.7,0,0,1-.41-.06l-1.15-.15-.64-.09-.39,0a3.55,3.55,0,0,0-.48-.05c-7.09-.49-12.23,6.36-8.56,12.23a3.78,3.78,0,0,0,.71.84l.16.13.31.25.06,0,.2.14.25.16.27.16a8.58,8.58,0,0,0,.86.44c.15.06.31.15.48.23a43.83,43.83,0,0,0,5.24,1.81l.71.2c.24.07.49.15.74.2l.91.26c.23,0,.46.13.7.19s.52.13.79.2l.83.21,2.78.69.89.21.22,0,1.07.25c1.3.3,2.69.62,4.17.93l1.22.28c3.46.76,7.42,1.6,12,2.53l2.43.5,10.83,2.16,3,.59,6.36,1.24,3.36.64q3.43.69,7.12,1.38l3.76.73,3.89.74,4,.77,6.31,1.19c.54.12,1.08.22,1.63.32l3.31.62q1.79.36,3.63.69l2,.37c6.13,1.17,12.64,2.4,19.57,3.69l2.54.49,2.58.48,4.11.77c1.38.26,2.79.51,4.2.79l5.39,1c1.09.2,2.19.4,3.3.62l10.62,2,3.13.58,8.16,1.52,5.82,1.1c1.11.2,2.21.4,3.29.62l.45.09,7.17,1.36c1.15.23,2.3.44,3.42.65l5,1,9.22,1.83c3.92.78,7.58,1.54,11,2.28l5,1.08,2.37.52c1.55.36,3,.69,4.5,1,.73.17,1.44.33,2.14.51,2.8.67,5.4,1.34,7.83,2l.9.25,1.76.49,2.52.74c.48.14,1,.28,1.43.44l1.72.54,1,.34.87.29,2.41.85c.78.29,1.53.56,2.26.86l.7.27,1.7.72.82.36c.53.23,1.06.48,1.57.72.77.37,1.51.74,2.23,1.11.38.2.76.4,1.13.61.9.5,1.77,1,2.6,1.54.35.22.7.44,1.05.68l.45.3c.53.36,1.05.73,1.55,1.1.25.17.49.36.73.55l.82.65,1,.85c.34.3.68.59,1,.9s.54.47.81.72.8.75,1.19,1.14l.82.82c.52.53,1,1.07,1.56,1.63.39.41.77.83,1.16,1.26.75.83,1.5,1.69,2.27,2.58,20.79,24.21,66,109.07,70.67,132.79a67.42,67.42,0,0,1,1.37,13.49c0,.54,0,1.09,0,1.63s0,1.06-.06,1.59-.06,1.15-.11,1.73c0,.17,0,.34,0,.5,0,.42-.07.84-.11,1.25,0,.21,0,.44-.07.65-.05.49-.11,1-.18,1.46s-.15,1.14-.24,1.7-.13.83-.21,1.24q-.26,1.44-.57,2.85c-.14.65-.29,1.28-.45,1.91-.09.37-.19.75-.29,1.12s-.26,1-.4,1.41-.29,1-.45,1.48c-.09.31-.19.61-.3.92-.37,1.14-.78,2.27-1.21,3.38-.23.59-.47,1.18-.72,1.76q-.93,2.22-2,4.38c-.27.54-.55,1.07-.84,1.6s-.63,1.17-1,1.75-.53.92-.81,1.39-.54.9-.82,1.34q-.2.33-.42.66l-.43.65c-.39.61-.79,1.19-1.2,1.79s-.83,1.17-1.26,1.75l-.7.93c-.36.47-.74,1-1.13,1.44-.17.22-.35.45-.54.67-.38.47-.77.92-1.17,1.39s-.77.89-1.17,1.33-.73.81-1.1,1.2-.89.93-1.34,1.38-.91.93-1.37,1.37l-.76.73c-.52.49-1,1-1.57,1.44q-1.07.95-2.16,1.86c-.73.6-1.47,1.21-2.23,1.8q-2.28,1.76-4.7,3.4c-.61.4-1.22.81-1.85,1.2s-1.24.78-1.88,1.16c-.84.51-1.7,1-2.57,1.48-.65.37-1.31.73-2,1.06s-1.33.7-2,1-1.36.65-2.06,1-1.39.64-2.09.93c-20.3,9.06-21.28,8.57-28.61-12-.32-.92-.66-1.85-1-2.79-.11-.3-.22-.61-.34-.9-.72-1.93-1.5-3.9-2.32-5.87-.29-.72-.6-1.46-.91-2.17-.41-1-.82-1.93-1.25-2.9l0-.1c-.42-1-.86-1.94-1.3-2.92-.64-1.38-1.29-2.75-2-4.14-.35-.74-.7-1.45-1.06-2.18s-.66-1.35-1-2l-1-2c-.37-.75-.75-1.49-1.14-2.21-.66-1.29-1.34-2.56-2-3.83-.34-.64-.69-1.28-1-1.91s-.7-1.27-1.06-1.9q-.92-1.64-1.86-3.27l-1.19-2c-.19-.32-.38-.66-.57-1q-.46-.79-1-1.59c-.49-.81-1-1.62-1.48-2.43l-1.39-2.24a.78.78,0,0,0-.1-.15c-.48-.76-1-1.53-1.46-2.28s-1-1.51-1.47-2.25-1-1.5-1.48-2.22c-.6-.9-1.21-1.79-1.82-2.67l-1.83-2.61c-1.53-2.13-3.06-4.2-4.6-6.19q-.92-1.18-1.83-2.34c-.69-.86-1.38-1.72-2.07-2.53-.53-.65-1.06-1.28-1.59-1.9l-.53-.61c-.17-.21-.34-.41-.52-.6s-.5-.58-.76-.86-.56-.63-.85-.94c-.13-.15-.26-.3-.4-.44-.32-.35-.64-.71-1-1s-.59-.63-.89-.94c-.81-.84-1.61-1.65-2.4-2.42-.52-.5-1-1-1.55-1.46a37.59,37.59,0,0,0-4.72-3.75c-.45-.3-.91-.6-1.39-.89-.72-.44-1.48-.88-2.28-1.31-.54-.29-1.1-.59-1.68-.87-.87-.43-1.79-.86-2.77-1.29l-2-.87c-.35-.14-.72-.28-1.08-.44l-2.29-.87-1.56-.56-1.64-.57c-.46-.14-.93-.31-1.41-.46s-.8-.25-1.21-.39l-2.22-.71-2.35-.7-2.36-.69-3.44-1-.67-.18-2.08-.56c-.31-.1-.63-.17-1-.25l-1.29-.35-1.52-.38-1.56-.4c-.52-.15-1-.28-1.59-.4l-.07,0-1.57-.39-1.67-.41-1.69-.41-4.09-1-2.44-.57c-2.63-.62-5.39-1.25-8.29-1.91l-1.47-.32c-2.34-.53-4.76-1.07-7.28-1.62l-1.89-.42q-7.29-1.59-15.61-3.35c-1.54-.33-3.1-.67-4.7-1l-4.52-.95-2.4-.5c-1.61-.35-3.26-.68-4.93-1l-2.53-.51-1.17-.24-3.69-.76-8.41-1.74c-1.58-.31-3.14-.63-4.67-1l-3.83-.78-3.73-.77c-1.16-.25-2.31-.47-3.43-.7l-5.55-1.13c-.36-.07-.71-.14-1.06-.23l-3.45-.69-7.41-1.5-3.23-.65-1.8-.36-3.33-.68-1.84-.37-1.64-.32c-2.71-.55-5.27-1.05-7.7-1.52l-2.38-.47c-3.11-.6-6-1.16-8.64-1.65l-2-.38c-2.48-.47-4.76-.88-6.85-1.25l-2-.35-1-.19-1.51-.25-2.35-.38-3.35-.5h0l-1.28-.18-.9-.12c-1.4-.19-2.64-.32-3.74-.4l-.72-.05c-.54-.05-1-.07-1.52-.08h-.51a16.25,16.25,0,0,0-2.54.1,7.57,7.57,0,0,0-1.52.3h0a4.68,4.68,0,0,0-.6.22,3.78,3.78,0,0,0-.35.17l-.32.18a6.57,6.57,0,0,0-.66.48l-.08.06-.51.48c-.23.22-.45.44-.66.67s-.41.44-.6.66a12.11,12.11,0,0,0-1,1.3,4.25,4.25,0,0,0-.25.39,8.75,8.75,0,0,0-.63,1.21,8.44,8.44,0,0,0-.31.82,9.08,9.08,0,0,0-.21,1,5.66,5.66,0,0,0-.06.82c0,1.92,1,3.75,3,5.41.64.51,2.65,1.25,6.08,2.24l1.38.39c1.4.38,3,.81,4.79,1.25.81.22,1.66.43,2.55.65l1.36.33q4.88,1.19,11.27,2.64l2.47.56,3.27.73,2,.45,1.08.24,3.2.7q6.6,1.46,14.35,3.09l5.3,1.11,2.75.59,5.69,1.19,3,.61,6.08,1.26q4.67,1,9.63,2l6.75,1.38q5.16,1.08,10.63,2.17l7.43,1.5,11.66,2.33c3,.62,6,1.23,9.14,1.84l3.13.62,4.27.85c6.33,1.28,12,2.42,17,3.46,1.37.27,2.7.54,4,.82l6.38,1.34,2.52.54c1.64.34,3.19.69,4.66,1q2.94.64,5.49,1.26,3.18.75,5.82,1.44c.71.18,1.39.37,2,.55l1.89.53q2,.59,3.75,1.17l.57.18.55.19,1.39.52c.9.34,1.72.67,2.5,1l.75.35.6.29.58.29.77.4c.84.47,1.63.94,2.39,1.44l1.12.78c1.11.78,2.19,1.64,3.34,2.59,13,11,37.17,49.15,45.73,72.37,6.85,17.87,7.09,40.61.73,54.3-7.82,17.12-38.15,40.83-47.44,37.17a2,2,0,0,1-.37-.17,4,4,0,0,1-.67-.48,1.4,1.4,0,0,1-.2-.17,3.83,3.83,0,0,1-.29-.28c-.11-.12-.2-.21-.29-.32l-.29-.34c-.1-.12-.2-.24-.29-.37l-.43-.62c-.14-.22-.28-.44-.41-.67s-.27-.48-.4-.73-.26-.5-.38-.75-.16-.34-.23-.52-.23-.55-.33-.81-.21-.56-.3-.84-.19-.58-.27-.86-.16-.58-.23-.87c-4.16-18.6-32-51.11-48.66-56.25-.55-.19-1.74-.49-3.48-.87l-.41-.09-.54-.12-.92-.19-.53-.11-1.62-.33-1.78-.36-3-.59-2.19-.41-2.33-.44-2.48-.47-9.71-1.76-2.86-.52L1739,3424c-.89-.14-1.79-.31-2.7-.46l-2.26-.39-7-1.21-3.82-.64c-8.35-1.43-17.15-2.91-26.14-4.4-59.91-10.28-81.43-13-83.88-11-3.42,2.94-4.4,13.45-1.22,15.41a3.09,3.09,0,0,0,.61.2,1.15,1.15,0,0,0,.28.06c.13,0,.28.07.44.12l.53.12a.58.58,0,0,1,.18,0l.94.2,1.35.27c.56.12,1.18.25,1.84.37l.51.1.9.16,1.34.25,1.27.25,1.5.28.48.09,1.8.32,2.09.39,1.4.25,2.51.45,2.91.53,1.36.24,5.76,1,1.73.3,11.12,1.94c1.16.2,2.33.39,3.52.61l1.8.31,3.65.63,1.86.32,3.43.58,4.21.73c1.29.21,2.6.44,3.92.67l5,.85,1.51.25c.51.1,1,.18,1.53.27,1.36.22,2.73.46,4.11.7l2.32.39,3.92.66q4.23.72,8.37,1.47l4.12.73c3,.53,6,1,8.88,1.58l3.19.57,1,.18c1.64.29,3.25.57,4.85.87,1.28.23,2.55.45,3.8.69l3.71.68,3.11.57c3.18.58,6.25,1.16,9.2,1.72l3.3.63,1.71.32,4.54.88,1.49.29,4,.78.3.06,2.69.54,3.77.77,3.27.68c2,.41,3.75.81,5.32,1.17.52.11,1,.23,1.49.35q1.89.43,3.27.81c.41.11.78.2,1.12.31l.7.2a2.09,2.09,0,0,1,.3.11,6.83,6.83,0,0,1,.74.26l.18.07.15.08q.64.33,1.32.75l.42.26c.23.15.47.3.71.47l.73.52a6,6,0,0,1,.55.41c.19.13.37.28.56.43.53.41,1.07.85,1.61,1.33l.82.73.8.74c1.41,1.32,2.85,2.82,4.3,4.46l1.16,1.32c.39.46.77.92,1.16,1.4s.6.72.9,1.1c.8,1,1.59,2,2.38,3.09.39.53.79,1.07,1.18,1.62s.61.85.91,1.28l.9,1.3.89,1.32c.83,1.24,1.64,2.51,2.45,3.81.28.45.56.93.84,1.39s.72,1.19,1.07,1.8.61,1,.9,1.57.72,1.26,1.07,1.91c8.56,15.9,10.27,34,4.89,52.34-.16.55-.33,1.1-.52,1.66-.37,1.12-.79,2.24-1.25,3.37h0c-.48,1.12-1,2.24-1.55,3.36s-1.09,2.09-1.7,3.13c-.13.23-.27.48-.42.72-.29.49-.59,1-.9,1.45a1.49,1.49,0,0,1-.14.24c-.26.41-.53.82-.81,1.24s-.74,1.1-1.14,1.64a2.75,2.75,0,0,1-.23.33c-.39.55-.8,1.11-1.22,1.67s-.74,1-1.12,1.44-.7.87-1.07,1.31c-.23.28-.45.55-.68.81-.6.74-1.24,1.47-1.9,2.19-.41.47-.83.93-1.25,1.37-.2.24-.41.46-.64.69s-.43.46-.66.69c-.43.46-.88.91-1.34,1.37l-1.28,1.25c-.43.43-.87.85-1.31,1.26l-1.29,1.21c-.48.45-1,.88-1.45,1.32-1.25,1.11-2.54,2.21-3.87,3.33s-2.72,2.2-4.13,3.31-2.88,2.19-4.38,3.28c-.75.54-1.51,1.09-2.29,1.63l-1.46,1-1.48,1q-4.11,2.78-8.57,5.5l-.81.49-.86.52h88l26.34-25.22c22-21,49.39-47.19,60.89-57.95,27.63-25.92,186.09-176.33,288.31-273.89,45.24-42.8,98.55-94.15,118.85-114.2l36.44-35.95,7.82,13.94,7.58,13.94-24.7,24.45c-13.69,13.44-52.82,50.87-87,83.15s-125,118.1-201.75,190.73c-76.54,72.64-154.06,146-172.4,163.12l-18.86,17.88h26.19c13.18-12.79,42.5-40.56,74.59-70.95,154.79-146,180.47-170.2,250.9-237.45,39.61-37.66,93.41-88.52,119.58-113l47.69-44.26h85.83c47.2-.24,86.32.49,87.3,1.23,2.2,2.2-9,23.22-15.89,29.59-2.94,2.93-10.76,7.57-16.88,10-13.45,5.87-15.65,8.56-12,15.17,8.8,16.14,49.4-12.22,60.16-42.06l4.64-13,33.75-.73c38.88-.74,39.62-.25,25.68,20.54-6.12,9-11.74,13.69-22,18.83-14.67,7.08-17.85,12.71-10.52,18.83,11.74,9.78,45.24-16.63,55-43.53l5.62-15.16h68l-1.71,5.38c-2.2,7.58-11.49,21.75-17.12,26.9-2.69,2.2-9.78,6.35-16.14,9-12.47,5.14-15.16,11.5-8.07,17.37,12.23,10.27,46.71-18.1,56.74-46.71l4.4-12h34.72c27.15,0,35,.73,35,3.18,0,5.13-13.45,24.7-20.78,30.57a63.3,63.3,0,0,1-14.92,8.31c-9.78,3.42-13,10.51-7.34,16.13,3.18,3.19,5.14,3.43,13.94.74,17.36-5.13,38.88-30.08,47-54.77,1.47-3.67,5.38-4.16,35.95-4.16,22,0,34.24,1,34.24,2.44,0,11.74-23.23,37.42-36.19,40.35-9.05,2-12.48,9.78-6.85,15.4,10.76,10.77,45.48-15.15,56.49-42.31l5.87-14.66,35.7-.73,35.46-.74-3.67,9.3c-6.36,15.16-15.16,24.45-29.59,31.3-10.76,5.13-13.45,7.33-12.72,11.49,1.47,10,8.07,11.25,22.75,3.41,17.85-9.28,31.54-27.37,38.88-51.09,1.22-3.67,5.13-4.16,35.7-4.16h34.48l-1.46,5.38c-4.9,15.88-19.32,31.3-34.24,36.19-6.36,2.19-8.56,4.16-8.56,8.56,0,14.67,16.14,13,35.21-3.91,7.59-6.61,14.19-15.9,20.06-28.13l8.56-18.09h50.13c27.39,0,49.88.49,49.88,1,0,1.21-300.54,297.12-336.24,331.11L2865.74,3489,2834,3481.2c-43.53-10.52-85.59-24.21-132.06-43-21.51-8.8-47.19-17.86-57.22-20.55-59.91-15.4-108.57,9.55-109.06,55.75,0,8.57-.74,15.42-2,15.42-1,0-9.29-3.67-18.34-8.31-32.52-16.14-45.73-19.57-75.08-19.81-24.69,0-27.87.49-39.37,6.6-22.74,12-35.21,31.29-35.21,54.78,0,10-.25,10.26-10.27,11.74-14.92,2.44-32.53,13-40.35,24.21-6.11,8.8-6.85,12-6.85,29.1v5.65h17.49a42.52,42.52,0,0,1-.34-6.6c0-.19,0-.37,0-.56,0-.74.08-1.47.16-2.18,0-.13,0-.26,0-.38,0-.35.08-.69.13-1s.13-.88.2-1.31c.14-.76.3-1.52.49-2.26,0-.18.08-.33.13-.5s.13-.49.2-.72c.12-.43.25-.85.39-1.27.07-.21.15-.44.24-.66a27.71,27.71,0,0,1,1.06-2.57c.19-.42.4-.84.61-1.24.11-.22.22-.42.34-.63s.17-.31.26-.47.29-.5.45-.75.29-.47.45-.7c.35-.56.73-1.11,1.13-1.63l.17-.23.77-1a29.7,29.7,0,0,1,2.49-2.66c.3-.28.6-.57.92-.83a30.25,30.25,0,0,1,3.09-2.39c.32-.23.65-.44,1-.66s.73-.45,1.11-.67a38.4,38.4,0,0,1,6.14-2.85c1.8-.65,3.45-1.21,5-1.67.61-.19,1.21-.37,1.79-.51,1.16-.31,2.26-.55,3.31-.74.52-.08,1-.15,1.54-.2s.75-.07,1.13-.09.71,0,1.07,0a17.57,17.57,0,0,1,2.42.16,3.13,3.13,0,0,1,.6.1c.4.06.79.15,1.19.25.19,0,.39.1.59.16s.45.13.68.21a5.17,5.17,0,0,1,.51.18c.17.05.34.12.52.19s.62.25.93.39.67.3,1,.48a3.58,3.58,0,0,1,.48.24q.69.36,1.41.78t1.32.81c.45.29.91.6,1.37.92s.94.66,1.43,1c1,.71,2,1.5,3.08,2.35l.82.65c.55.44,1.12.92,1.71,1.4l1.8,1.51c8.07,6.84,23,17.84,33,24.7.89.57,1.76,1.16,2.62,1.74s1.68,1.14,2.49,1.71h35.7l-2.06-1.44c-.71-.48-1.44-1-2.18-1.5l-3.07-2.12-4.9-3.38c-1.12-.76-2.26-1.56-3.42-2.34l-8.93-6.1c-.61-.43-1.22-.83-1.83-1.25l-1.91-1.31-.24-.16-2.07-1.43c-1.07-.73-2.1-1.45-3.11-2.16l-3.36-2.33c-1.08-.76-2.14-1.5-3.16-2.23s-2-1.42-3-2.1l-2.79-2-1-.73-.73-.54c-2.45-1.78-4.66-3.44-6.66-5-.7-.53-1.37-1.06-2-1.59l-1.87-1.53c-.44-.37-.86-.71-1.27-1.07l-.25-.22-.62-.53c-.85-.74-1.63-1.45-2.36-2.15-.19-.17-.37-.35-.54-.53-.36-.32-.7-.66-1-1l-.48-.5c-.21-.21-.41-.44-.61-.65h0a.53.53,0,0,1-.12-.14c-.12-.12-.24-.25-.35-.38a.53.53,0,0,1-.1-.12c-.18-.19-.35-.4-.51-.59a27.67,27.67,0,0,1-2.51-3.33c-.09-.13-.17-.26-.25-.4a5.09,5.09,0,0,1-.3-.5c-.12-.2-.22-.39-.32-.58-.26-.46-.5-.94-.71-1.41-.1-.22-.19-.44-.28-.66s-.28-.71-.4-1.07-.19-.57-.28-.86h0c-.09-.33-.18-.65-.26-1s-.15-.67-.22-1-.12-.63-.17-1-.07-.49-.1-.74c-.06-.42-.1-.83-.14-1.26,0-.25,0-.5,0-.75s0-.5,0-.76c0-.76-.05-1.56-.05-2.38,0-17.6,9.54-32.52,25.93-40.59,1.09-.53,2.23-1,3.42-1.51s2.41-.92,3.69-1.32,2.31-.7,3.51-1c.67-.18,1.36-.35,2.06-.5l.85-.19h0c.53-.12,1.06-.23,1.61-.33s1.41-.27,2.13-.39,1.34-.22,2-.32l1.51-.2c.57-.07,1.13-.15,1.71-.2,1.19-.14,2.39-.24,3.6-.33.75-.06,1.51-.09,2.26-.12s1.3-.07,1.95-.07h.58c.68,0,1.35,0,2,0l2.05,0c1,0,2,.05,3,.1l2,.12c1.15.08,2.31.19,3.46.32h0c1.15.12,2.29.27,3.42.44,0,0,0,0,0,0,2.27.34,4.5.76,6.67,1.28h0a64.54,64.54,0,0,1,6.29,1.8q2.17.74,4.64,1.64l2.52,1,2.64,1,1.36.54,2.82,1.15,2.41,1,2,.85c3,1.28,6.2,2.66,9.48,4.15l3.33,1.5c9,4.09,18.7,8.75,28.6,13.73,1.24.61,2.48,1.24,3.72,1.88q3.73,1.9,7.47,3.84c1.05.54,2.1,1.08,3.15,1.64,3.93,2,7.84,4.14,11.71,6.23l3.65,2q3.64,2,7.19,4c2.37,1.32,4.7,2.66,7,4l3.4,2q6.29,3.71,12.16,7.13c1.57.93,3.12,1.83,4.65,2.72l4.52,2.62,4.41,2.55q6.52,3.76,12.54,7.17,2,1.13,4,2.25l1.94,1.09c1.92,1.08,3.81,2.14,5.66,3.16s3.65,2,5.43,3l5.2,2.85,3.36,1.83c8.51,4.6,16.11,8.54,23,11.92l1.36.67c1.59.77,3.14,1.52,4.66,2.23l1.51.72c2.22,1,4.35,2,6.41,2.93l1.34.58c.46.22.92.42,1.38.61l1.9.82,2.12.88h57.79l-4.35-1.5q-4.77-1.65-9.52-3.38-7.11-2.58-14.21-5.35l-4.73-1.87q-4.73-1.89-9.45-3.86a0,0,0,0,1,0,0l-4.74-2c-.79-.34-1.58-.67-2.37-1s-1.58-.67-2.37-1l-4.21-1.86q-2.67-1.17-5.35-2.4l-4.73-2.18-4.8-2.25c-1.11-.52-2.22-1.05-3.33-1.6s-2.22-1.07-3.34-1.61c-2.07-1-4.14-2-6.22-3.06q-6.48-3.23-13.08-6.66-2.74-1.42-5.51-2.9c-1.48-.78-3-1.59-4.44-2.38q-4.45-2.4-9-4.9c-1.5-.83-3-1.66-4.53-2.52l-2.28-1.29-3.44-2q-5.17-2.92-10.44-6-3.51-2.05-7.07-4.17l-1.71-1c-2.82-1.69-5.46-3.27-7.92-4.78-1.48-.91-2.89-1.79-4.26-2.62l-3.5-2.18q-3.6-2.26-6.6-4.24l-1.46-1-1.39-.94-1.33-.92c-.69-.48-1.35-1-2-1.42s-1.24-.92-1.82-1.36l-1.09-.86c-.74-.58-1.44-1.16-2.1-1.72-1.05-.91-2-1.79-2.82-2.64l-.54-.58c-.25-.25-.49-.52-.72-.78s-.45-.52-.66-.79-.6-.76-.88-1.15l0-.06c-.18-.24-.35-.49-.51-.74s-.51-.8-.73-1.21c-.1-.17-.19-.34-.27-.49s-.2-.38-.29-.58l-.35-.77c-.12-.28-.24-.56-.34-.85a2.09,2.09,0,0,1-.11-.3c-.14-.37-.26-.75-.37-1.13-.07-.23-.13-.47-.19-.71s-.16-.6-.22-.92-.1-.47-.15-.72c-.08-.43-.15-.88-.21-1.34,0-.23-.07-.46-.09-.71-.07-.55-.12-1.13-.16-1.72,0-.29,0-.6-.06-.89,0-.65-.06-1.31-.08-2,0-.34,0-.69,0-1s0-.72,0-1.09,0-.75,0-1.13c0-.55,0-1.09,0-1.63,0-.19,0-.38,0-.57,0-.46,0-.91.07-1.36,0-.24,0-.45,0-.68s0-.45.06-.68,0-.5.07-.76c0-.06,0-.12,0-.19.05-.4.09-.81.15-1.2,0-.17,0-.32.07-.49.06-.46.14-.93.22-1.37s.16-.87.25-1.29a.35.35,0,0,1,0-.14,5.05,5.05,0,0,1,.12-.56c.2-.94.43-1.86.71-2.77.06-.2.11-.42.18-.61,0,0,0,0,0-.06.11-.38.23-.77.37-1.16s.33-1,.52-1.44c0-.1.07-.19.11-.29.34-.9.72-1.8,1.14-2.68.09-.2.19-.4.3-.62.33-.69.68-1.35,1.06-2a7.51,7.51,0,0,1,.39-.68s0,0,0,0c.2-.36.42-.71.64-1.06l0,0c.2-.32.4-.63.62-.94s.32-.49.49-.71.34-.49.53-.73a.59.59,0,0,1,.08-.11l.49-.63c.12-.17.26-.34.4-.51s.27-.34.42-.51a.07.07,0,0,1,0-.05c.26-.31.52-.63.81-.94s.72-.8,1.1-1.18.76-.77,1.15-1.14c0,0,.05,0,.08-.08.34-.32.68-.65,1-1a.87.87,0,0,0,.15-.13c.38-.33.78-.66,1.18-1s.71-.58,1.08-.84c.52-.4,1.05-.78,1.59-1.15s.9-.61,1.37-.9,1.13-.69,1.71-1c.4-.24.8-.46,1.22-.68,1-.53,2-1,3.13-1.5.53-.23,1.08-.45,1.63-.66s1.1-.43,1.67-.63c.39-.15.79-.28,1.21-.41s.85-.28,1.3-.4l.68-.18c.23-.07.46-.13.7-.18l.72-.18c.48-.12,1-.24,1.49-.32s1-.21,1.56-.3a7,7,0,0,1,.8-.14l.82-.14q1.24-.19,2.55-.36c1.16-.14,2.36-.27,3.57-.38.46,0,.92-.09,1.39-.11.23,0,.46,0,.7,0l.71-.06,1.91-.1,1.7-.07a.93.93,0,0,1,.23,0l1.49,0a149.16,149.16,0,0,1,19.49.83,97.37,97.37,0,0,1,14.45,2.61l.76.21c.26.07.55.14.84.24,1.18.34,2.59.77,4.19,1.28l1.24.41c.42.14.86.27,1.3.43.89.28,1.83.61,2.8.94l1.68.58c.44.14.89.31,1.35.45,4.19,1.47,8.92,3.18,13.92,5l3.79,1.41,3.86,1.47c5.18,2,10.49,4.06,15.62,6.14,7.3,2.95,15.53,6.19,23.71,9.33l9.88,3.79c3.51,1.32,6.93,2.61,10.18,3.81.65.25,1.3.49,1.93.71l.94.36,2.55.93,3.74,1.37,1.66.59,1,.37,2.86,1c1.21.44,2.36.84,3.41,1.2l2.65.89c.32.1.64.2,1,.32,2.66.86,5.74,1.82,9.16,2.85l1.25.38c1.27.37,2.58.77,3.93,1.15.46.15.93.29,1.4.42l.09,0,1.69.5c2.69.79,5.51,1.6,8.43,2.42l4.33,1.23,3.1.87,2.26.63c.4.1.79.22,1.19.33l1.19.33c3.75,1,7.59,2.09,11.47,3.13l1.73.48,1.44.38,2.39.64c2.95.8,5.92,1.59,8.88,2.37.78.19,1.55.41,2.33.61l7.7,2,2.13.55,1.2.31,1.8.46,5.3,1.35,3.45.87.18.05c1.07.27,2.14.54,3.19.79,4.81,1.19,9.35,2.3,13.48,3.28l2.8.66,4.34,1,1.62.36,1.55.34,1.47.31.71.16,1.35.28c.88.18,1.7.35,2.47.49l3,.53c1.14.17,2.16.32,3.08.44l.57.07.55.06c.69.08,1.31.14,1.88.16h.41a8.86,8.86,0,0,0,2.21-.14l.5-.13a3.73,3.73,0,0,0,.74-.31l.29-.17a4.17,4.17,0,0,0,.84-.69l.21-.23a5.64,5.64,0,0,0,.4-.53l.2-.3a3.21,3.21,0,0,0,.19-.31l.19-.33c.38-.68.76-1.5,1.19-2.48,2.69-5.86,2.44-7.09-1.71-10.27-4.65-3.42-4.4-3.92,8.56-15.65l13.45-12,12,12.71c26.41,28.86,40.59,52.34,45.48,76.3,2.5,12,2.47,18.13-.66,34.51h75.69c-2.47-7.25-5.65-17.38-8.76-28.15-5.62-19.56-19.31-65.54-30.32-102.23l-19.81-66.75,36.44-36C3164.81,3222.23,3263.12,3123.18,3263.12,3119.77ZM1259.1,1585c7.09-50.13,29.59-275.84,32-322.32,1.22-24,1-32-1.22-33.5-1.71-1-13.21-1.22-25.43-.73-29.1,1.47-50.13-3.42-77-17.6-35-18.58-59.43-43-81-80.7-20.54-36-30.08-73.36-29.83-118.6,0-47.69,13-83.88,38.64-109.31,16.87-16.63,34.48-23.48,59.91-23.48,16.63-.24,20.78.74,36.68,8.81,10.27,5.12,22.74,13.69,29.35,20.54l11.73,12,3.92,29.09c4.15,32.77,17.36,121.78,19.31,130.35,2.69,11.74,9.54,15.15,30.08,15.15,23.48,0,35.22-3.17,45.24-12l7.58-7.08-2.93-22.74c-8.56-64.07-10.76-99.53-9.54-152.6,2-91,9.3-107.12,85.1-187.82,46.71-49.87,50.13-59.9,42.55-131.3-8.8-84.13-5.62-99.54,23.72-109.07,17.61-5.63,80.46-2.93,154.8,7.33,134,17.86,188.79,23,270.22,25.19,103,2.45,201.75-7.58,255.3-26.17,8.07-2.68,15.9-4.88,17.61-4.88,5.87,0,25.67,58.2,39.86,117.37,15.65,65.29,24.45,136.71,24.7,199.06v22l-7.83-7.59c-27.88-26.89-101.73-39.36-171.42-28.84-39.62,5.86-46.22,11.73-46.22,42.06.24,22.25,2.44,30.07,11.25,35.7,7.82,5.13,17.36,5.13,46,.25,16.88-2.94,32.77-3.67,60.65-2.94,42.06,1.22,51.84,3.91,78.74,20.29,7.83,4.9,16.38,9.06,19.07,9.29,6.36.49,6.36,3.19,0,64.81-11,107.11-26.89,227.42-37.9,284.15-22,114.46-64.8,225.72-125.45,327-57.47,95.62-108.82,142.56-171.67,156.51-29.59,6.85-107.84,6.12-144.28-1.23-69.69-14.17-134.5-42.3-206.64-89.75-95.86-63.32-180-145.75-210.55-205.89-11.49-23-26.9-71.41-33.5-105.16-4.65-24-6.11-28.61-10.76-30.81-3.91-1.71-6.6-1.46-9.54,1-4.89,4.15-3.66,14.17,6.36,56,17.61,71.64,36.19,108.33,80.7,159a371.5,371.5,0,0,1,28.37,39.13c24,38.39,63.58,86.8,103.68,127.16,82.41,82.89,169.72,135.23,264.35,159.19,25.93,6.61,36.2,7.83,71.41,8.81,22.5.74,40.84,1.71,40.84,2.2,0,.25-1.71,8.81-3.67,18.59-8.56,40.84-21.27,71.89-69.69,168.24-42.55,84.61-54.54,107.6-56.25,107.6-.73,0-7.09-11.74-14.18-26.41-21.28-42.79-34.48-63.58-46.71-73.85-6.11-5.14-26.17-21.77-44.26-36.93-46.71-38.88-143.55-122.27-176.56-151.86-15.16-13.94-42.55-38.4-60.65-54.53-84.85-75.81-153.08-144.52-164.33-165.8C1255.92,1610.2,1255.92,1607.27,1259.1,1585Zm166.53,667.11c-13.45,11.74-24.94,21-26.17,20.79-5.87-2-212.75-327-252.85-396.89-18.59-32.77-41.57-78.26-50.13-99.79l-5.63-13.93,8.32-15.4c18.09-34.24,74.83-131.81,91.45-157,17.12-26.65,28.86-38.88,43.78-46.22,8.56-4.4,11.25-4.64,11.25-2,0,1-1.23,11-2.45,22-2,14.68-3.91,21.53-7.58,25.19-8.31,8.31-2.69,23.48,19.32,52.34,27.63,36.67,103.69,109.06,242.59,231.33,35,30.81,174.35,149.91,184.14,157.49l9.53,7.09-11.25,2.69C1657,2045.74,1647.92,2053.32,1425.63,2252.13Zm480.77-122.76c-22.5,25.19-53.56,54.29-79.48,74.1-21,15.89-69.2,45.48-74.09,45.48-8.07,0-156.27-82.9-173.38-96.84l-7.34-6.11,14.67-13.45c31.79-29.34,69-60.4,79.23-66.52,9.54-5.62,28.13-12,36-12.47,1.23-.24,7.58,8.32,13.94,18.59,10.27,17.12,26.66,50.37,40.35,81.92,5.63,13.21,10.52,14.67,16.63,5.62,9-13.69,95.37-77.27,110.29-80.94,6.6-1.71,18.83,5.87,33,20.3l9,9.29Zm131.48,977.47v.07c0,.14,0,.27,0,.43,0,.4,0,.8,0,1.19s0,.68,0,1,0,.7-.08,1-.06.69-.1,1-.07.67-.12,1-.07.5-.11.74-.09.58-.14.85-.14.72-.21,1.06-.08.38-.13.58c-.11.42-.22.85-.33,1.26a17,17,0,0,1-1,2.71,5.5,5.5,0,0,1-.45.69l-.24.28h0a2.57,2.57,0,0,1-.39.34,1.65,1.65,0,0,1-.44.22h0a.75.75,0,0,1-.33.1,2.7,2.7,0,0,1-1.08,0,2.43,2.43,0,0,1-.72-.26l-.12,0a1.3,1.3,0,0,1-.3-.13,2.1,2.1,0,0,1-.3-.15,3.85,3.85,0,0,1-.68-.37,30.63,30.63,0,0,1-3.32-2.33c-.66-.55-1.38-1.12-2.19-1.78l-.16-.12-.18-.15a1.29,1.29,0,0,0-.18-.16l-.29-.25c-.27-.26-.56-.5-.85-.74l-.65-.56-1.08-1c-.21-.19-.43-.38-.65-.59s-.46-.4-.69-.62c-.62-.54-1.26-1.13-1.93-1.73l-.68-.62c-.91-.84-1.88-1.73-2.9-2.69l-1-.94-1.57-1.46-1.65-1.56c-2.25-2.1-4.71-4.44-7.41-7l-1.84-1.75-.53-.5a1.07,1.07,0,0,0-.18-.19c-.53-.53-1.12-1.07-1.68-1.62s-1.13-1.07-1.69-1.58l-.85-.8-1.67-1.6c-.27-.25-.54-.53-.81-.78,0,0,0-.06-.09-.08l-.1-.11-.62-.59c-3.49-3.37-6.77-6.59-9.75-9.57l-1.28-1.28c-.47-.49-.93-.94-1.39-1.41-.2-.21-.41-.42-.61-.64h0c-.55-.56-1.07-1.09-1.58-1.63l-.26-.26c-.2-.21-.39-.41-.6-.61-1.25-1.29-2.42-2.52-3.48-3.65l-.51-.56-.25-.25-.74-.8-.16-.2c-.57-.61-1.08-1.2-1.57-1.73l-.28-.29-.43-.5-1.22-1.44-.08-.08c-.12-.13-.23-.26-.32-.38l-.11-.15-.25-.29-.33-.43c-.11-.13-.2-.25-.29-.38h0c-.17-.22-.32-.43-.44-.62l-.21-.29a2.93,2.93,0,0,1-.32-.65c0-.15,0-.26,0-.32v0a2,2,0,0,1,.33-.31.89.89,0,0,1,.22-.16,7.74,7.74,0,0,1,1.21-.66l.51-.22a26.38,26.38,0,0,1,2.51-.83c.17,0,.34-.11.53-.15.36-.1.73-.2,1.12-.28s.79-.2,1.2-.28.63-.15,1-.21l1.48-.28.78-.15.79-.13,1.44-.23,1.49-.22c.75-.11,1.53-.21,2.31-.3h.18a.58.58,0,0,0,.19,0l.49,0a5.7,5.7,0,0,1,.58.06l.67.06.25,0,1.06.16,2,.25,2.3.36c2.23.33,4.7.76,7.17,1.21.76.18,1.54.39,2.31.62.3.07.6.17.9.27.69.2,1.38.42,2.07.67l.1,0a40.36,40.36,0,0,1,5,2.08.42.42,0,0,1,.13.07c.43.21.85.42,1.27.65.9.46,1.8,1,2.68,1.49l1,.58.15.09c.36.23.72.47,1.08.69l1,.7.93.67.87.63c.48.36,1,.73,1.42,1.11,1,.81,2,1.64,2.9,2.51l.51.46.5.47c.28.26.56.54.84.82a12.48,12.48,0,0,1,1,1l.34.38.16.18.75.84c.17.19.34.37.5.56l.47.57,1,1.27c.33.41.65.85,1,1.28l.26.36.25.36c.17.23.34.47.5.72a1.74,1.74,0,0,1,.11.18c.06.1.13.18.19.28.35.53.68,1,1,1.6.16.26.32.54.47.81s.31.54.45.81c.24.43.47.87.69,1.31s.39.76.58,1.17c.38.81.73,1.65,1,2.53.16.44.32.88.47,1.34s.29.91.43,1.39.24.83.35,1.27c.06.22.12.44.17.66.21.8.39,1.62.56,2.45.1.5.2,1,.28,1.51s.18,1,.25,1.53c.1.7.19,1.41.27,2.1a4.88,4.88,0,0,1,.06.52c0,.36.08.73.11,1.11s.06.65.08,1c0,.75.1,1.48.12,2.22,0,.36,0,.73,0,1.09,0,.63,0,1.26,0,1.87C2037.89,3106.83,2037.89,3106.83,2037.88,3106.84Zm5.46-878.67c-1.22-1.47-11.73-15.17-23.23-30.82-35-46.95-97.08-119.58-110.29-128.63-21.27-14.67-35.7-10.27-86.32,25.93-13,9.53-24,16.87-24.21,16.63-.49-.25,14.43-30.82,33-67.74,71.9-144,79.48-167,90-273.4,2.69-26.18,5.38-42.06,7.1-42.06,1.46,0,4.89,2.44,7.58,5.37,15.16,16.39,37.41,66.51,51.6,115.92,19.56,68.23,36.19,166.78,47.93,285.14C2045.79,2226.21,2046,2230.86,2043.34,2228.17Zm547.29,881.57H2415.29l-6.36-14.67-6.11-14.67,91.95,1.71c62.6,1,92.68,2.44,93.9,4.15,1,1.47,2,7.34,2,13Zm54,0c-31.3,0-34.48-.5-34.48-4.4,0-2.2-.73-8.32-1.47-13.45l-1.71-9h33.26c18.34,0,33.75.73,34.24,1.71.73,1.23,1.95,7.09,2.93,13.44l1.71,11.75Zm86.08-.5-34.48.75-1-13.7-.73-13.45h33.5c18.34,0,34,.73,34.48,2,.73,1,1.71,6.6,2,12.71l1,11Zm88.53.5h-35.46v-8.07a73.31,73.31,0,0,0-1.47-13.45l-1.47-5.38h70.67l1.72,9C2856.2,3111,2858.65,3109.74,2819.28,3109.74Zm86.81-68.47c3.18,0,9.78,4.4,15.65,10.27l10,10.51-13.2.74c-7.09.49-13.21.49-13.7,0a92.81,92.81,0,0,1-2.44-11.25C2901,3042,2901.2,3041.27,2906.09,3041.27Zm-34.24,68.47v-28.13l33.75.74c18.34.49,33.75,1.22,33.75,1.47.24,0,1.22,6.11,2.2,13l1.71,13Zm83.15-48.42c0-8.56,23.23-23.72,33-21.27a38.75,38.75,0,0,0,7.82,1.22c3.67,0,22.75,16.63,22.75,19.81,0,1.22-14.19,2.2-31.79,2.2C2969.42,3063.28,2955,3062.54,2955,3061.32Zm40.59,48.42h-35.21l-1-13.45-.74-13.45h69l1.72,9C3032.27,3111,3034.72,3109.74,2995.59,3109.74Zm45-48.42c0-3.18,12.71-14.43,20.78-18.58,9.29-4.89,14.43-4.89,24.46,0A46.2,46.2,0,0,1,3100.5,3055l6.36,8.32h-33C3055.5,3063.28,3040.59,3062.3,3040.59,3061.32Zm75.8,48.42h-68.47v-26.9h32.77c27.63,0,33,.49,34.24,3.9.73,2.21,1.46,8.08,1.46,13.46Zm52.82,0h-32.52l-1.71-9.29c-3.42-21-5.14-19.81,28.61-19.33l29.83.49,4.16,12.24c2.2,6.6,4.16,13,4.16,13.93C3202,3109,3187.31,3109.74,3169.21,3109.74Z"/><path class="cls-1" d="M2043.34,2228.17c-1.22-1.47-11.73-15.17-23.23-30.82-35-46.95-97.08-119.58-110.29-128.63-21.27-14.67-35.7-10.27-86.32,25.93-13,9.53-24,16.87-24.21,16.63-.49-.25,14.43-30.82,33-67.74,71.9-144,79.48-167,90-273.4,2.69-26.18,5.38-42.06,7.1-42.06,1.46,0,4.89,2.44,7.58,5.37,15.16,16.39,37.41,66.51,51.6,115.92,19.56,68.23,36.19,166.78,47.93,285.14C2045.79,2226.21,2046,2230.86,2043.34,2228.17Z"/><path class="cls-2" d="M1925.23,2108.34l-18.83,21c-22.5,25.19-53.56,54.29-79.48,74.1-21,15.89-69.2,45.48-74.09,45.48-8.07,0-156.27-82.9-173.38-96.84l-7.34-6.11,14.67-13.45c31.79-29.34,69-60.4,79.23-66.52,9.54-5.62,28.13-12,36-12.47,1.23-.24,7.58,8.32,13.94,18.59,10.27,17.12,26.66,50.37,40.35,81.92,5.63,13.21,10.52,14.67,16.63,5.62,9-13.69,95.37-77.27,110.29-80.94,6.6-1.71,18.83,5.87,33,20.3Z"/><path class="cls-1" d="M1691.2,2037.18l-11.25,2.69c-23,5.87-32,13.45-254.32,212.26-13.45,11.74-24.94,21-26.17,20.79-5.87-2-212.75-327-252.85-396.89-18.59-32.77-41.57-78.26-50.13-99.79l-5.63-13.93,8.32-15.4c18.09-34.24,74.83-131.81,91.45-157,17.12-26.65,28.86-38.88,43.78-46.22,8.56-4.4,11.25-4.64,11.25-2,0,1-1.23,11-2.45,22-2,14.68-3.91,21.53-7.58,25.19-8.31,8.31-2.69,23.48,19.32,52.34,27.63,36.67,103.69,109.06,242.59,231.33,35,30.81,174.35,149.91,184.14,157.49Z"/><path class="cls-1" d="M3201.74,3107.78c.24,1.23-14.43,2-32.53,2h-32.52l-1.71-9.29c-3.42-21-5.14-19.81,28.61-19.33l29.83.49,4.16,12.24C3199.78,3100.45,3201.74,3106.8,3201.74,3107.78Z"/><path class="cls-1" d="M3116.39,3100.2v9.54h-68.47v-26.9h32.77c27.63,0,33,.49,34.24,3.9C3115.66,3089,3116.39,3094.82,3116.39,3100.2Z"/><path class="cls-1" d="M2995.59,3109.74h-35.21l-1-13.45-.74-13.45h69l1.72,9C3032.27,3111,3034.72,3109.74,2995.59,3109.74Z"/><path class="cls-1" d="M2943.26,3109.74h-71.41v-28.13l33.75.74c18.34.49,33.75,1.22,33.75,1.47.24,0,1.22,6.11,2.2,13Z"/><path class="cls-1" d="M2819.28,3109.74h-35.46v-8.07a73.31,73.31,0,0,0-1.47-13.45l-1.47-5.38h70.67l1.72,9C2856.2,3111,2858.65,3109.74,2819.28,3109.74Z"/><path class="cls-1" d="M2765.48,3108.52l-34.73.72-34.48.75-1-13.7-.73-13.45h33.5c18.34,0,34,.73,34.48,2,.73,1,1.71,6.6,2,12.71Z"/><path class="cls-1" d="M2679.15,3109.74h-34.48c-31.3,0-34.48-.5-34.48-4.4,0-2.2-.73-8.32-1.47-13.45l-1.71-9h33.26c18.34,0,33.75.73,34.24,1.71.73,1.23,1.95,7.09,2.93,13.44Z"/><path class="cls-1" d="M2590.63,3099.23v10.51H2415.29l-6.36-14.67-6.11-14.67,91.95,1.71c62.6,1,92.68,2.44,93.9,4.15C2589.65,3087.73,2590.63,3093.6,2590.63,3099.23Z"/><path class="cls-3" d="M2035.51,3119.78c-2.45,4.4-5.87,1.71-36.68-27.64-18.83-17.85-33.26-33-32.28-34,1.46-1.71,8.56-3.42,16.87-4.4a144.53,144.53,0,0,1,14.92,2.2c14.18,3.18,28.12,13.94,34.72,27.14C2038.44,3093.37,2039.42,3112,2035.51,3119.78Z"/><path class="cls-3" d="M2421.14,3592.73h-95.47c-2.2-17.16,5.87-31,21.64-36.7s20.05-4.65,35.7,8.56c8.07,6.84,23,17.85,33,24.7Q2418.71,3591,2421.14,3592.73Z"/><path class="cls-3" d="M2684.65,3592.73H2456.84c-7.12-4.94-16.63-11.49-26.39-18.12-41.32-28.36-46.22-33.5-46.22-48.66,0-17.61,9.54-32.52,25.93-40.59,15.4-7.58,41.32-8.81,59.91-2.45,23.23,7.83,71.16,31.06,107.11,52.09C2630.76,3566.54,2662.35,3583.56,2684.65,3592.73Z"/><path class="cls-3" d="M2971.45,3592.73h-229l-4.35-1.49c-45.24-15.65-88.53-36.19-139.15-66.27-42.3-25.43-45-28.37-45-47.44,0-19.81,10.51-35,28.61-41.33,12.47-4.64,40.35-4.64,57.47,0,7.58,2,30.81,10.27,51.35,18.59s48.42,18.83,61.87,23.47c24.94,8.56,109.06,30.82,127.65,33.75,9.78,1.47,10.76,1.22,13.45-4.89,2.69-5.87,2.44-7.09-1.71-10.27-4.65-3.42-4.4-3.91,8.56-15.65l13.45-12,12,12.71c26.41,28.86,40.59,52.33,45.48,76.3C2974.61,3570.24,2974.58,3576.35,2971.45,3592.73Z"/><path class="cls-3" d="M2049.21,3237.88c-9.78,7.34-41.81,7.09-58.93-.73-21.77-9.79-50.87-31.06-60.89-44.27-11-14.18-23.24-23-41.58-29.34-6.84-2.2-23.47-11.74-36.92-20.79l-24.21-16.63-14.92,1.47c-8.07.73-21.52,3.67-30.08,6.36l-15.4,4.65-54.29-9.79c-29.84-5.38-57-9.78-60.16-10-7.09-.49-12.23,6.36-8.56,12.22,2.69,4.41,18.1,7.59,152.6,32.77,89.5,16.63,99,19.81,115.42,38.89,20.79,24.21,66,109.06,70.67,132.78,6.85,33.5-12.47,67.25-47.19,82.17-20.3,9.05-21.28,8.56-28.62-12-10.75-30.57-33.74-68-52.08-84.86-11.25-10.52-30.57-16.14-122.52-35-85.83-17.61-93.66-18.83-97.57-15.41-5.14,4.65-5.62,9-1.22,12.72,3.42,2.69,45.48,12,135,29.83,57.47,11.5,62.61,13,72.39,21,13,11,37.17,49.16,45.73,72.39,6.85,17.85,7.09,40.59.73,54.29-7.82,17.12-38.15,40.84-47.44,37.17-2-.74-4.4-4.65-5.38-8.81-4.16-18.58-32-51.11-48.66-56.24-4.16-1.47-43.78-8.56-88-15.9-59.91-10.27-81.43-13-83.88-11-3.42,2.93-4.4,13.45-1.22,15.41,1,.73,38.88,7.33,83.63,14.91,45,7.83,84.86,15.41,88.53,17.37,8.07,4.15,19.07,17.36,27.63,33,8.56,15.89,10.27,34,4.89,52.33-5.13,17.85-23,36.44-50.86,53.31l-.86.51H1604l3.81-3.69c15.65-15.4,20.55-17.12,35.46-12.47,3.91,1.22,25.92,2.93,48.91,3.91,36.68,1.23,42.55,1,46-2.44,4.9-4.89,4.9-9.54.49-14.19-2.93-2.69-14.91-3.91-55.75-4.89-28.61-.73-57-2.44-62.85-3.91-11.49-3.18-17.36-.73-17.36,6.85,0,5.38-11.5,15.89-32.53,30.32l-.73.51H1229l.71-10.54c5.87-80.94,33.75-161.88,71.65-207.37,33.5-40.1,61.87-79.23,127.16-175.33,87.31-127.9,116.65-163.85,139.64-170.45,17.12-4.89,136.21-23.23,236.23-36.44,23.72-3.18,40.59-1.71,55.75,5.38,30.81,14.19,181.45,157.49,201.5,191.72C2071.71,3206.82,2067.06,3224.67,2049.21,3237.88Z"/><path class="cls-3" d="M2081.25,775.58c69.69-10.51,143.54,2,171.42,28.86l7.83,7.58V790c-.25-62.36-9.05-133.76-24.7-199.06-14.19-59.18-34-117.38-39.86-117.38-1.71,0-9.54,2.2-17.61,4.89-53.55,18.59-152.35,28.61-255.3,26.17-81.43-2.2-136.21-7.34-270.22-25.19-74.34-10.27-137.19-13-154.8-7.34-29.34,9.54-32.52,24.95-23.72,109.07,7.58,71.41,4.16,81.43-42.55,131.32-75.8,80.7-83.14,96.84-85.1,187.81-1.22,53.06,1,88.52,9.54,152.59l2.93,22.74-7.58,7.1c-10,8.8-21.76,12-45.24,12-20.54,0-27.39-3.42-30.08-15.16-2-8.56-15.16-97.58-19.31-130.34l-3.92-29.1-11.73-12c-6.61-6.84-19.08-15.4-29.35-20.54-15.9-8.07-20.05-9.05-36.68-8.8-25.43,0-43,6.85-59.91,23.47-25.68,25.44-38.64,61.63-38.64,109.31-.25,45.25,9.29,82.66,29.83,118.61,21.52,37.66,46,62.11,81,80.7,26.9,14.18,47.93,19.07,77,17.6,12.22-.49,23.72-.24,25.43.74,2.2,1.46,2.44,9.53,1.22,33.5-2.44,46.46-24.94,272.17-32,322.31-3.18,22.25-3.18,25.18.73,32.28,11.25,21.27,79.48,90,164.33,165.79,18.1,16.14,45.49,40.6,60.65,54.54,33,29.59,129.85,113,176.56,151.86,18.09,15.16,38.15,31.79,44.26,36.92,12.23,10.27,25.43,31.06,46.71,73.86,7.09,14.67,13.45,26.41,14.18,26.41,1.71,0,13.7-23,56.25-107.6,48.42-96.35,61.13-127.41,69.69-168.25,2-9.78,3.67-18.34,3.67-18.58,0-.49-18.34-1.47-40.84-2.2-35.21-1-45.48-2.2-71.41-8.81-94.63-24-181.94-76.29-264.35-159.19-40.1-40.35-79.72-88.77-103.68-127.17a371.31,371.31,0,0,0-28.37-39.12c-44.51-50.62-63.09-87.3-80.7-159-10-41.82-11.25-51.85-6.36-56,2.94-2.45,5.63-2.69,9.54-1,4.65,2.2,6.11,6.84,10.76,30.81,6.6,33.75,22,82.17,33.5,105.15,30.57,60.16,114.69,142.57,210.55,205.91,72.14,47.44,137,75.56,206.64,89.74,36.44,7.34,114.69,8.07,144.28,1.23,62.85-13.94,114.2-60.89,171.67-156.51,60.65-101.24,103.44-212.51,125.45-327,11-56.74,26.9-177,37.9-284.16,6.36-61.63,6.36-64.32,0-64.8-2.69-.25-11.24-4.41-19.07-9.3-26.9-16.38-36.68-19.07-78.74-20.29-27.88-.74-43.78,0-60.65,2.93-28.61,4.89-38.15,4.89-46-.24-8.81-5.63-11-13.45-11.25-35.71C2035,787.32,2041.63,781.45,2081.25,775.58Zm-807.73,356.81a6.53,6.53,0,0,1-.31.66,5.92,5.92,0,0,1-.54.83,8.71,8.71,0,0,1-2.4,2.18,7.32,7.32,0,0,1-1,.59c-4.14,2.1-10,2.2-12.6-.61a1.91,1.91,0,0,1-.27-.35,4.85,4.85,0,0,1-.29-.41c-.1-.15-.2-.32-.32-.52a37,37,0,0,1-1.93-3.69c-.39-.78-.78-1.64-1.2-2.54-1.66-3.72-3.57-8.36-5.28-13-.52-1.39-1-2.74-1.47-4-1-2.61-1.86-5.06-2.69-7.36-.63-1.71-1.25-3.35-1.83-4.89-1.15-3.13-2.23-5.94-3.18-8.46-.49-1.25-1-2.42-1.4-3.52-1-2.52-1.9-4.72-2.73-6.58-.1-.22-.2-.41-.27-.61-.3-.66-.59-1.3-.88-1.88-.18-.39-.35-.76-.54-1.13a22.7,22.7,0,0,0-4-6.11,1.59,1.59,0,0,0-.29-.29,7.43,7.43,0,0,0-3.43-1.91c-.41-.1-.83-.17-1.29-.25s-.93-.14-1.44-.19a26.3,26.3,0,0,0-6.7.12,24.07,24.07,0,0,0-3.65.73c-.61.15-1.2.35-1.78.54s-1.18.42-1.74.64a26.47,26.47,0,0,0-3.37,1.59,33.77,33.77,0,0,0-4.77,3.13c-.52.39-1,.78-1.49,1.22s-1,.83-1.45,1.3-.83.78-1.22,1.19c-.64.67-1.27,1.35-1.86,2.06-.41.49-.83,1-1.22,1.49a10.14,10.14,0,0,0-.76,1,7.63,7.63,0,0,0-.73,1,25.28,25.28,0,0,0-1.47,2.23c-.2.31-.42.66-.61,1a44.51,44.51,0,0,0-2.35,4.5c-.34.73-.66,1.47-1,2.22s-.52,1.3-.74,2-.53,1.61-.78,2.44c-.39,1.25-.71,2.55-1,3.84-.14.54-.24,1.1-.34,1.64s-.2,1.15-.27,1.71l-.15,1a52,52,0,0,0-.39,6.12c0,.83,0,1.63.08,2.47,0,.58.07,1.14.12,1.71,0,.36.05.73.1,1.12a46.69,46.69,0,0,0,2,9.42,26.62,26.62,0,0,1,1.25,5.25c0,.18,0,.35.07.49a10.71,10.71,0,0,1,.08,1.23,6.64,6.64,0,0,1-.35,2.42,3.5,3.5,0,0,1-.24.56c-.08.17-.17.32-.25.49a5.08,5.08,0,0,1-.66.81,6,6,0,0,1-1.12.83,9.13,9.13,0,0,1-1.66.63l-.66.15c-.37.07-.76.12-1.18.17a1.31,1.31,0,0,1-.34,0,29.94,29.94,0,0,1-4.72-.13,8.17,8.17,0,0,1-4.84-2.44c-.27-.27-.52-.54-.76-.83s-.49-.59-.73-.91-.47-.68-.66-1l-.64-1.1v0c-.39-.78-.76-1.63-1.1-2.51-.17-.47-.34-1-.49-1.42s-.29-1-.42-1.45c0,0,0,0,0,0-.14-.51-.26-1-.39-1.54s-.22-1-.34-1.57v0c-.19-1.08-.37-2.21-.51-3.35a75.08,75.08,0,0,1,6.48-38.94c.41-.9.88-1.81,1.37-2.71.32-.56.63-1.15,1-1.71,1-1.74,2.25-3.5,3.52-5.21.31-.39.61-.78.93-1.17s.71-.88,1.07-1.32,1-1.18,1.52-1.74,1.25-1.4,1.91-2.08c1-1.08,2-2.1,3.13-3.08.51-.49,1-1,1.54-1.39s1.15-1,1.73-1.5c.39-.34.81-.66,1.23-1,.83-.66,1.66-1.3,2.51-1.91s1.76-1.22,2.65-1.79a49.22,49.22,0,0,1,5.3-2.91l1.37-.58a24.56,24.56,0,0,1,2.35-.88,18.58,18.58,0,0,1,2.4-.64,9.62,9.62,0,0,1,1.17-.22c1.61-.32,3.18-.69,4.62-1.08,1-.27,1.91-.56,2.74-.85.54-.2,1.05-.39,1.52-.59l.61-.27a4.37,4.37,0,0,0,1.27-.85v0a1,1,0,0,0,.1-.27,2.94,2.94,0,0,0,0-.76c0-.12,0-.24,0-.39s-.14-.58-.24-.95a17.32,17.32,0,0,0-.59-1.76c-.12-.34-.27-.69-.39-1-.29-.71-.64-1.49-1-2.32s-.9-1.93-1.42-3c-1-2.12-2.22-4.52-3.57-7.06l-2.12-3.89c-2.74-5-5.9-10.37-9.2-15.72-.46-.76-.93-1.52-1.42-2.28-3.79-6.09-7.72-12-11.39-17-2.47-3.35-4.77-6.34-7-9-.66-.76-1.24-1.47-1.86-2.18a80.19,80.19,0,0,0-6.65-7c-.71-.64-1.42-1.25-2.1-1.84s-1.35-1.1-2-1.61c-.51-.34-1-.71-1.49-1s-.91-.58-1.37-.85a12.65,12.65,0,0,0-1.57-.86,11.06,11.06,0,0,0-1.15-.56c-.44-.2-.9-.39-1.34-.56a17.24,17.24,0,0,0-2-.64,18.7,18.7,0,0,0-1.93-.47c-.51-.07-1-.14-1.49-.19s-1-.1-1.49-.12a20.54,20.54,0,0,0-2.08,0,25,25,0,0,1-2.74,0c-.76-.05-1.44-.12-2.08-.22-.46-.1-.9-.22-1.32-.34l-.59-.24-.53-.27a2,2,0,0,1-.66-.44,4.27,4.27,0,0,1-.62-.52,6.82,6.82,0,0,1-.68-.73,5.51,5.51,0,0,1-.61-.88,9.09,9.09,0,0,1-.54-.91c-.22-.39-.42-.83-.64-1.29-2.07-4.36-2.25-6.21,0-8.63a6.37,6.37,0,0,1,.73-.74c.57-.54,1.2-1.07,1.93-1.66,5.63-4.65,10.52-4.4,24.21.49.3.12.59.24.91.39s.85.42,1.32.68.95.54,1.44.86c.32.2.66.42,1,.64,1.37.93,2.89,2.07,4.5,3.37.9.71,1.83,1.49,2.81,2.37.49.42,1,.86,1.47,1.3,1,.85,2,1.81,3,2.79.52.49,1,1,1.54,1.49s1,1,1.57,1.56c2.64,2.62,5.33,5.46,8,8.42,1.08,1.17,2.13,2.37,3.21,3.59s2.1,2.45,3.13,3.69c4.15,4.94,8,10,11.34,14.85,1.2,1.76,2.5,3.79,3.84,6,.3.46.59,1,.88,1.49q1.55,2.54,3.16,5.43c.37.63.71,1.27,1.07,1.9.74,1.3,1.47,2.65,2.21,4,.39.68.75,1.37,1.12,2.08,2.27,4.23,4.62,8.78,7,13.55.76,1.51,1.51,3,2.3,4.57,2.32,4.69,4.69,9.58,7,14.55l1.76,3.72a2.7,2.7,0,0,1,.17.34c1.69,3.62,3.37,7.29,5,10.93,1,2.27,2,4.55,3,6.8,2.25,5,4.43,10,6.46,14.82.51,1.2,1,2.39,1.51,3.57,1.5,3.54,2.91,7,4.23,10.27.32.73.62,1.47.89,2.2,2,5,3.74,9.63,5.2,13.74.59,1.64,1.13,3.21,1.62,4.67.63,2,1.2,3.79,1.66,5.38.12.44.25.88.34,1.3.25.93.44,1.76.59,2.52a6.22,6.22,0,0,1,.2,1,7.28,7.28,0,0,1,.14,1A5.41,5.41,0,0,1,1273.52,1132.39ZM2080,995c0-.83.07-1.69.15-2.54,0-.08,0-.15,0-.25,0-.41.08-.83.12-1.27.18-1.88.42-3.74.74-5.58.1-.53.19-1,.29-1.59s.2-1,.32-1.56.22-1.05.34-1.57.25-1,.39-1.56a68.47,68.47,0,0,1,4.06-11.71c.2-.47.44-.93.66-1.4s.47-1,.69-1.39.44-.86.68-1.27a47,47,0,0,1,3.67-5.77c.29-.42.61-.81.9-1.18.69-.85,1.4-1.66,2.13-2.42.12-.12.25-.24.37-.37.34-.36.71-.71,1.05-1a13.47,13.47,0,0,1,1.1-1,9.54,9.54,0,0,1,1.1-.85,13.45,13.45,0,0,1,1.15-.81c.39-.27.78-.51,1.17-.73,4.16-2.3,9.91-3.28,15.73-3a10.45,10.45,0,0,1,1.59.1c.54,0,1.05.07,1.59.14a11.89,11.89,0,0,1,1.56.2c.52.07,1,.15,1.54.24a11.06,11.06,0,0,1,1.54.32,31.92,31.92,0,0,1,4.41,1.25c.46.15.93.32,1.37.51.66.27,1.32.56,1.95.88s1.25.64,1.81,1a10.92,10.92,0,0,1,1.13.73c.22.15.44.32.66.49l.61.49a.81.81,0,0,1,.14.12,3.65,3.65,0,0,1,.57.47v0a29.15,29.15,0,0,1,2.08,2.08c.63.69,1.27,1.37,1.85,2.08s1.15,1.39,1.69,2.13,1.22,1.66,1.79,2.52,1.1,1.71,1.61,2.59a.27.27,0,0,1,.07.12c.42.71.81,1.4,1.18,2.13.14.27.27.51.39.78.27.52.54,1,.76,1.59.39.78.73,1.61,1,2.42.22.54.44,1.08.63,1.64.15.37.27.73.4,1.08s.24.71.36,1.07a.33.33,0,0,1,0,.12c.25.76.49,1.55.69,2.3s.49,1.79.68,2.69c.42,1.72.73,3.45,1,5.21a10.74,10.74,0,0,1,.15,1.1c.12.91.22,1.79.29,2.69.15,1.79.22,3.6.22,5.38v0c0,1,0,1.88-.07,2.81s-.08,1.86-.18,2.79-.14,1.59-.24,2.37l-.07.51c-.1.81-.22,1.62-.37,2.4s-.32,1.78-.51,2.66-.39,1.77-.64,2.62-.46,1.74-.73,2.59c-.54,1.69-1.13,3.35-1.81,5a6.37,6.37,0,0,1-.37.86c-.1.27-.24.56-.37.83a2.12,2.12,0,0,1-.22.49c-.36.78-.75,1.59-1.17,2.37a.82.82,0,0,1-.1.17c-.41.76-.85,1.52-1.29,2.25s-.86,1.37-1.3,2a1.31,1.31,0,0,1-.22.34c-.44.61-.88,1.23-1.34,1.84s-1.06,1.34-1.62,2-1.1,1.25-1.69,1.86-1.07,1.07-1.63,1.59a38.51,38.51,0,0,1-3.5,2.88,33.31,33.31,0,0,1-3.84,2.45,28.32,28.32,0,0,1-4.16,2c-.73.29-1.47.56-2.2.81a24.55,24.55,0,0,1-9.37,1.19c-.51,0-1-.07-1.54-.12s-1-.15-1.56-.24-1-.2-1.57-.32c-1-.25-2-.56-3.08-.91-.41-.14-.83-.31-1.24-.46a16.7,16.7,0,0,1-1.79-.78,23.24,23.24,0,0,1-2.62-1.35,2.59,2.59,0,0,1-.31-.19c-1-.59-1.94-1.2-2.87-1.86a3.62,3.62,0,0,1-.61-.44l-.51-.39a.82.82,0,0,1-.27-.22l-1.27-1a7.61,7.61,0,0,1-.61-.54,1.51,1.51,0,0,1-.2-.17,7.31,7.31,0,0,1-.71-.66.15.15,0,0,1-.09-.1l-1.06-1c-.51-.51-1-1-1.51-1.61a33.88,33.88,0,0,1-2.2-2.69c-.49-.64-1-1.27-1.4-1.93-.8-1.17-1.54-2.4-2.25-3.67-.24-.46-.49-.93-.71-1.39s-.58-1.18-.85-1.79a9.23,9.23,0,0,1-.42-.9,6.14,6.14,0,0,1-.27-.64c-.29-.73-.58-1.47-.85-2.22-.39-1.08-.74-2.21-1.05-3.35-.15-.59-.3-1.18-.44-1.79,0-.17-.08-.34-.1-.51-.15-.66-.27-1.32-.39-2-.17-.9-.3-1.81-.42-2.71s-.19-1.62-.27-2.42c-.17-2-.24-3.94-.24-5.92C2079.88,997.14,2079.9,996.06,2080,995ZM1547.41,848.46a24.2,24.2,0,0,1-6.33-3.21c-.49-.34-1-.71-1.44-1.07s-.93-.76-1.37-1.18l-.44-.41a25.65,25.65,0,0,1-2-2.08c-.32-.37-.61-.74-.91-1.1-.44-.57-.85-1.15-1.27-1.76s-.8-1.2-1.17-1.84a24.53,24.53,0,0,1-1.2-2.2c-.37-.76-.71-1.52-1-2.3s-.61-1.59-.85-2.39c-.17-.54-.32-1.06-.47-1.59s-.29-1.1-.39-1.64c-.14-.69-.27-1.37-.36-2.08a23.58,23.58,0,0,1-.32-3c0-.54-.05-1.08-.05-1.62a28.18,28.18,0,0,1,1.47-9.12,22.05,22.05,0,0,1,2.07-4.45c.18-.32.37-.66.57-1a54.2,54.2,0,0,1,3.44-4.91c.57-.71,1.15-1.42,1.77-2.08v0c.58-.66,1.17-1.32,1.8-1.93l.91-.9c.32-.32.64-.61.93-.88s.81-.69,1.27-1,1-.71,1.47-1.1.93-.66,1.42-1c1.78-1.22,3.84-2.54,6.13-3.93.74-.47,1.47-.91,2.25-1.35,1.54-.9,3.18-1.83,4.87-2.76,1.27-.74,2.59-1.47,3.94-2.15a14.33,14.33,0,0,1,1.34-.71c5.43-2.89,11.35-5.82,17.29-8.59,2-.93,4-1.83,6-2.71s3.94-1.76,5.89-2.57c1-.44,1.93-.86,2.89-1.22,1.56-.64,3.1-1.27,4.59-1.86l1.72-.66c.68-.27,1.37-.54,2-.78,1.76-.69,3.49-1.3,5.13-1.86s3-1,4.45-1.44l.27-.08c1.49-.46,2.91-.85,4.21-1.15.66-.17,1.27-.32,1.86-.44,44.5-9.78,184.87,1.23,209.57,16.14a13,13,0,0,1,1.1.71l.54.37a21.5,21.5,0,0,1,2.44,2,11.35,11.35,0,0,1,1.15,1.15,20.64,20.64,0,0,1,2.13,2.69c.27.39.51.83.76,1.25a15,15,0,0,1,.78,1.49,22.74,22.74,0,0,1,1,2.47c.15.41.3.85.42,1.29.07.22.14.47.19.69a5.69,5.69,0,0,0,.18.68,49.16,49.16,0,0,1,.85,15.41c0,.56-.07,1.15-.12,1.74s-.15,1.41-.25,2.15c-.14,1.34-.34,2.71-.56,4.13-.1.71-.22,1.44-.34,2.18-.1.53-.2,1.05-.29,1.56l-.37,1.88c-.2,1-.42,2-.61,2.89-.12.46-.22.9-.32,1.35a2.85,2.85,0,0,1-.12.46c-.1.46-.22.9-.34,1.34-.25.88-.49,1.72-.76,2.5-.13.39-.25.76-.39,1.12a1.77,1.77,0,0,1-.18.42c-.12.34-.24.68-.39,1-.19.47-.39.91-.61,1.35s-.32.66-.49,1a28.72,28.72,0,0,1-4.47,6.11c-.22.24-.44.49-.69.73a10.12,10.12,0,0,1-.73.74c-10,10-13.21,10-60.89,1.95-84.86-14.43-134.74-13.69-185.61,2.69-17.85,5.87-28.85,8.07-33.26,7.09-.29-.07-.58-.14-.85-.22ZM1706,1030.64a31.71,31.71,0,0,1-7.9.22,21.08,21.08,0,0,1-3-.44c-.51-.1-1-.22-1.51-.34-1-.25-2-.57-3-.91-.36-.12-.71-.27-1.07-.41a.06.06,0,0,1-.1,0,5.37,5.37,0,0,1-.83-.34,21.71,21.71,0,0,1-2.33-1.13c-.24-.12-.49-.26-.71-.39a4.13,4.13,0,0,1-.7-.41c-.47-.27-.93-.57-1.37-.86s-.69-.46-1-.71-.51-.36-.76-.56c-.41-.29-.83-.64-1.25-1s-.63-.54-1-.83-.86-.76-1.27-1.18a6.84,6.84,0,0,1-.66-.66c-.34-.34-.69-.71-1-1.1a1.7,1.7,0,0,1-.19-.19c-.4-.47-.81-.93-1.2-1.45-.27-.32-.52-.63-.76-.95a37,37,0,0,1-2.23-3.28,1.08,1.08,0,0,1-.24-.36s0,0,0-.05a12.8,12.8,0,0,1-.66-1.13c-.36-.56-.68-1.17-1-1.78-3.91-7.34-5.13-14.19-5.13-28.13,0-2.56.09-5.08.29-7.5.05-.47.07-.91.12-1.32,0-.64.1-1.25.2-1.86s.1-1,.17-1.42a1.74,1.74,0,0,1,0-.39c.12-1,.27-1.91.44-2.81.22-1.25.46-2.47.73-3.7.25-1.07.52-2.1.81-3.13.24-.85.49-1.68.78-2.52.1-.29.2-.61.29-.9.2-.56.42-1.13.64-1.69.32-.85.69-1.71,1-2.54s.69-1.47,1.05-2.18c.17-.32.32-.66.52-1,.56-1,1.17-2,1.81-3,.27-.41.53-.83.83-1.22s.61-.88,1-1.3c.44-.58.91-1.15,1.4-1.68.34-.4.68-.76,1-1.13a33.4,33.4,0,0,1,3.72-3.35,21.4,21.4,0,0,1,2.22-1.59c10-6.6,24.94-6.6,35.46-.24a12.86,12.86,0,0,1,1.12.75,7.21,7.21,0,0,1,1.1.81c.52.39,1.06.83,1.55,1.27,0,0,0,.08.09.1.52.49,1,1,1.52,1.49.86.88,1.66,1.84,2.47,2.84l1,1.37c.42.59.83,1.2,1.25,1.83.27.42.51.81.78,1.25.12.22.25.44.39.68s.34.64.52.93c.44.79.85,1.59,1.24,2.4.17.37.37.73.54,1.13.37.78.71,1.56,1,2.34.49,1.18.93,2.38,1.37,3.62.24.71.46,1.4.68,2.11q.78,2.49,1.37,5.08c.17.71.32,1.4.47,2.1s.31,1.64.46,2.47.25,1.52.34,2.25.22,1.52.3,2.28.17,1.51.22,2.27.09,1.52.14,2.28a60.84,60.84,0,0,1-2.83,22.64c-.32,1-.69,1.91-1,2.81-.18.4-.32.79-.49,1.18a48.07,48.07,0,0,1-2.2,4.5c-.37.66-.74,1.32-1.13,1.93-.15.24-.29.49-.46.73-.32.52-.66,1-1,1.54-.51.71-1,1.42-1.57,2.11a38.85,38.85,0,0,1-3.42,3.79c-.37.36-.73.71-1.12,1.07a.54.54,0,0,1-.2.17c-.44.4-.9.79-1.37,1.18s-1.15.9-1.74,1.34-1.19.83-1.81,1.23-1.22.75-1.83,1.1-1.25.66-1.88,1l-.12.08c-.44.22-.91.41-1.37.61a.2.2,0,0,1-.1,0c-.49.22-1,.42-1.49.59A34.18,34.18,0,0,1,1706,1030.64Zm-10.39,305.11c-.54.47-1,1-1.54,1.45-.34.31-.66.63-1,1-.68.66-1.32,1.32-1.93,2-.93,1-1.81,2-2.69,3v0c-.42.49-.83,1-1.22,1.5s-.81,1-1.18,1.46c-.24.32-.49.66-.71,1s-.46.64-.68,1a32.34,32.34,0,0,0-2.25,3.72c-.2.39-.39.76-.61,1.12-.42.71-.86,1.4-1.3,2-.34.44-.68.88-1,1.29a9.25,9.25,0,0,1-1.1,1.15,17.59,17.59,0,0,1-1.91,1.57,4.9,4.9,0,0,1-1,.63,7.91,7.91,0,0,1-1,.52,11.79,11.79,0,0,1-2,.66,8.68,8.68,0,0,1-3.16.14,7.9,7.9,0,0,1-2.2-.68,8.45,8.45,0,0,1-1-.59,5.86,5.86,0,0,1-.66-.51c-.2-.17-.39-.37-.59-.56a12.41,12.41,0,0,1-3-7.24,11.36,11.36,0,0,1,.63-4.53c0-.17.1-.31.17-.49a33.5,33.5,0,0,1,2.84-5.82c.22-.39.47-.75.71-1.14.49-.76,1-1.57,1.59-2.35.29-.44.61-.88,1-1.35.49-.63,1-1.29,1.5-1.95.24-.32.48-.61.73-.91.93-1.15,1.93-2.35,3-3.52.52-.59,1-1.17,1.62-1.76s1.1-1.2,1.68-1.79c.83-.85,1.67-1.68,2.52-2.51,1.13-1.08,2.25-2.16,3.43-3.21.8-.76,1.66-1.46,2.51-2.17l1.57-1.3c1-.88,2.1-1.74,3.18-2.52l1.61-1.22c1.08-.81,2.18-1.59,3.28-2.32,17.12-11.5,16.14-11,22-7.83.29.15.56.32.83.49a4.86,4.86,0,0,1,.78.49,15.16,15.16,0,0,1,2.08,1.59,2.65,2.65,0,0,1,.51.49,9,9,0,0,1,1.77,2.32,8.62,8.62,0,0,1,.44,1,7.27,7.27,0,0,1,.29,1,6.5,6.5,0,0,1,.12.75,6.61,6.61,0,0,1,0,.76,9.2,9.2,0,0,1-2.3,5.77c-.24.32-.51.61-.78.91a15.63,15.63,0,0,1-1.86,1.73,12.14,12.14,0,0,1-1,.79,6,6,0,0,1-.73.53l-.59.4c-.19.14-.41.26-.63.39-.54.34-1.1.66-1.69,1-.78.44-1.61.85-2.49,1.24a3.42,3.42,0,0,0-.4.17c-.31.15-.63.3-1,.49-.64.3-1.32.66-2,1a73.43,73.43,0,0,0-11.64,8.49C1696.61,1334.8,1696.09,1335.26,1695.58,1335.75Zm217.2,192.31c-1.37,1.52-3.81,2.55-8.09,3.89-14.92,5.14-61.87,2.45-81.19-4.16-.47-.17-.93-.31-1.37-.49s-.88-.31-1.32-.49c-1.1-.39-2.13-.8-3.11-1.22l-1.49-.66c-.34-.17-.68-.32-1-.46-.66-.32-1.27-.61-1.83-.91s-1.1-.61-1.62-.93c-.24-.17-.49-.32-.71-.46s-.56-.37-.83-.59a9.14,9.14,0,0,1-1-.81,4.6,4.6,0,0,1-.51-.46,1.36,1.36,0,0,1-.17-.17,5.5,5.5,0,0,1-.52-.59,6.62,6.62,0,0,1-.88-1.37,2.92,2.92,0,0,1-.17-.36,6,6,0,0,1-.39-1.32,1.53,1.53,0,0,1,0-.32,7.78,7.78,0,0,1,.25-2.84c0-.12.07-.24.12-.37a16.46,16.46,0,0,1,1.17-2.76,11.45,11.45,0,0,1,1.86-2.64,5.74,5.74,0,0,1,.71-.61,4.36,4.36,0,0,1,.81-.49,6.36,6.36,0,0,1,1.93-.54,5.53,5.53,0,0,1,.56,0,16.42,16.42,0,0,1,3.16.17c.31.05.63.12,1,.17l1.44.29a5,5,0,0,1,1,.25c.53.12,1.1.27,1.68.44.3.07.59.17.88.24l2.28.66c.9.27,1.86.56,2.88.91l1.57.51c1.07.34,2.22.71,3.42,1.13,14.67,5.13,31.06,5.86,70.18,3.91.45,0,.86,0,1.25,0a.34.34,0,0,0,.2,0c1.37-.07,2.57-.1,3.57-.07.36,0,.71,0,1,0a3.77,3.77,0,0,1,.9,0l.78.07a4.11,4.11,0,0,1,1.74.54,2.14,2.14,0,0,1,.66.56,1.66,1.66,0,0,1,.19.3,2.18,2.18,0,0,1,.32.71,2,2,0,0,1,.15.56,5.15,5.15,0,0,1,.1.66,4.32,4.32,0,0,1,.05.54,4.52,4.52,0,0,1,0,.53,8.7,8.7,0,0,1,0,1.15c0,.42,0,.83,0,1.3C1914.47,1524.61,1914.18,1526.57,1912.78,1528.06Zm79.94-137.43a39.22,39.22,0,0,1-.17,4.6c0,.19-.07.36-.1.53a1.87,1.87,0,0,1-.12.52,3.65,3.65,0,0,1-.61,1.32,1.93,1.93,0,0,1-.46.49,1,1,0,0,1-.3.24h0a6.38,6.38,0,0,1-1,.49l-.61.2c-.22,0-.44.12-.69.17s-.41.07-.61.12-.44.07-.68.1l-1.15.14c-.64.08-1.37.15-2.15.2l-1.37.1c-.32,0-.64,0-1,.05-37.42,2.93-187.81-17.12-237-31.3-4.65-1.23-9-2-9.54-1.23v0a1.05,1.05,0,0,0-.27.44,1.5,1.5,0,0,0-.1.58,2,2,0,0,0,.05.62,3.06,3.06,0,0,0,.15.53,10.56,10.56,0,0,0,1.07,2.47c.2.37.44.79.69,1.18s.51.85.83,1.29c.56.86,1.2,1.79,1.93,2.74s1.62,2.13,2.57,3.28,1.83,2.23,2.86,3.4c1.76,2,3.69,4.16,5.8,6.36.61.66,1.27,1.32,1.9,2,.93,1,1.89,1.93,2.87,2.91,2.78,2.81,5.74,5.62,8.77,8.36.93.86,1.89,1.71,2.82,2.54s1.88,1.67,2.83,2.45l2.84,2.4c1.15,1,2.3,1.88,3.42,2.78.18.15.35.27.52.4,2.61,2,5.16,3.91,7.6,5.6,28.61,19.56,66,30.07,110.54,30.81l29.34.49v0l.73,6.36a10.29,10.29,0,0,1-.53,5.53c-.1.19-.2.39-.32.58a4.1,4.1,0,0,1-.61.86c-.15.17-.3.32-.47.49s-.19.17-.29.24c-.25.2-.51.39-.81.59s-.44.27-.68.39l-.76.34a9,9,0,0,1-1,.39,26.39,26.39,0,0,1-4.14,1c-.46.08-.95.15-1.49.22-.88.1-1.83.2-2.81.27-.39,0-.81.07-1.25.1-.76.05-1.54.1-2.34.12-.54,0-1.13,0-1.72,0-5.87.15-13.35,0-22.84-.42-58-2.2-100-19.31-136.21-55.26-2.64-2.67-5-5.11-7.16-7.44-.47-.46-.88-.93-1.27-1.37-1.69-1.8-3.23-3.54-4.65-5.2-.46-.54-.9-1.06-1.32-1.57-.61-.73-1.2-1.44-1.76-2.15-1.3-1.64-2.52-3.25-3.69-4.89,0,0,0,0,0,0-.59-.8-1.15-1.63-1.74-2.44v0l-1.25-1.88-1.22-1.91c-2.71-4.35-5.31-9.12-8.22-14.84-1.34-2.64-2.51-5-3.54-7.14-.66-1.39-1.3-2.72-1.86-3.91a79.22,79.22,0,0,1-3.13-7.58c-.15-.42-.29-.81-.39-1.2a13.66,13.66,0,0,1-.54-2.08,7,7,0,0,1-.12-.71,4.72,4.72,0,0,1-.1-.64c0-.22,0-.41,0-.63a6.85,6.85,0,0,1,.69-3.74,7.23,7.23,0,0,1,.44-.74c.14-.24.26-.46.41-.68a11.64,11.64,0,0,1,.88-1.13,4.46,4.46,0,0,1,1.42-1.12,3.52,3.52,0,0,1,.71-.3c3.3-1.07,9.29.88,24.5,6.39,3.57,1.29,7.56,2.61,11.94,3.91,3.15,1,6.53,1.91,10.1,2.84,1.34.34,2.71.71,4.08,1,.68.19,1.37.37,2.08.51l2.15.54c1.42.34,2.89.71,4.38,1,2,.47,4,.93,6,1.37l6.28,1.37c3,.64,6.14,1.27,9.32,1.91.32.07.61.14.93.19q6.57,1.29,13.5,2.57l10.93,1.93.46.08c11.59,2,23.8,3.84,36.46,5.62q3.16.48,6.39.88l6,.81c2,.27,4.06.54,6.09.78,3.47.44,7,.88,10.49,1.3s7.06.83,10.63,1.22l10.72,1.17,10.8,1.1q8.67.89,17.39,1.62c11.62,1,23.28,1.88,34.87,2.61l26.9,1.72Zm35.39-158.37c0,.62-.1,1.23-.2,1.84,0,.05,0,.12,0,.17-.08.54-.2,1-.32,1.59a4.35,4.35,0,0,1-.12.56,2.19,2.19,0,0,1-.1.34,11.56,11.56,0,0,1-.42,1.52.26.26,0,0,1,0,.1c-.2.66-.44,1.34-.71,2-.13.34-.25.68-.4,1a8.17,8.17,0,0,1-.44,1c-.24.56-.51,1.12-.8,1.68s-.69,1.35-1.08,2-.76,1.32-1.17,2c-.88,1.42-1.86,2.86-2.91,4.28-.47.64-1,1.27-1.47,1.91s-1.1,1.37-1.69,2c-1.71,2.06-3.59,4.09-5.67,6.14-1.66,1.66-3.45,3.33-5.33,5-.73.66-1.49,1.32-2.28,2-.46.42-1,.81-1.44,1.2-1.29,1.08-2.64,2.13-4,3.16-.61.46-1.22.93-1.86,1.39-1.15.83-2.3,1.66-3.47,2.47q-5.33,3.67-11.13,7.09c-2.56,1.49-5.21,3-7.9,4.36s-5.45,2.71-8.24,4c-.68.32-1.39.61-2.1.93s-1.39.64-2.1.91a170.77,170.77,0,0,1-17.36,6.18c-11.5,3.18-13.21,3.18-16.63,0a17.29,17.29,0,0,1-2.08-2.37c-.2-.24-.37-.49-.52-.71a3.29,3.29,0,0,1-.29-.49c-.1-.17-.19-.32-.27-.49a3.14,3.14,0,0,1-.29-.58,4.08,4.08,0,0,1-.32-.88,5.6,5.6,0,0,1-.2-.86,5,5,0,0,1,0-1.64,8.39,8.39,0,0,1,.22-.9c0-.1.08-.2.13-.32a4.65,4.65,0,0,1,.56-1.08,8.91,8.91,0,0,1,1.1-1.39,8.23,8.23,0,0,1,.9-.86c.35-.29.71-.58,1.11-.88a12.74,12.74,0,0,1,1.27-.85,13.43,13.43,0,0,1,1.46-.88c1.13-.64,2.38-1.28,3.79-1.94.52-.24,1.08-.48,1.64-.7l1.64-.66c.51-.22,1-.45,1.62-.64,1.22-.49,2.49-1,3.86-1.44.88-.32,1.81-.64,2.76-1s2.08-.71,3.13-1.07a3.12,3.12,0,0,0,.39-.15q3.5-1.29,7-2.71c2.27-1,4.55-2,6.75-3s4.4-2.15,6.55-3.27c1-.54,2.1-1.13,3.16-1.72,1.27-.7,2.52-1.44,3.74-2.17s2.42-1.47,3.62-2.23,2.12-1.37,3.15-2c.12-.07.22-.15.32-.22,1.12-.78,2.23-1.54,3.3-2.32.81-.59,1.59-1.18,2.37-1.77.39-.29.79-.58,1.15-.88s.76-.58,1.13-.9,1-.78,1.44-1.17c1.44-1.18,2.81-2.38,4.08-3.57.42-.42.84-.81,1.25-1.2a60.85,60.85,0,0,0,5.77-6.41c.32-.42.64-.83.93-1.25s.66-.93,1-1.39c.41-.64.8-1.27,1.14-1.91a15.33,15.33,0,0,0,1.06-2.1,8.09,8.09,0,0,0,.31-.76c.15-.37.3-.76.42-1.12a.71.71,0,0,0,.07-.18,6.05,6.05,0,0,0,.2-.73.55.55,0,0,0,0-.17,3.63,3.63,0,0,0,.14-.59.16.16,0,0,0,0-.1,7.69,7.69,0,0,0,.17-1.07,9.38,9.38,0,0,0,.1-1.39,16.76,16.76,0,0,0-.17-2.08c0-.27-.08-.57-.1-.88-.07-.54-.17-1.13-.27-1.76,0-.32-.1-.67-.15-1-.66-4.13-1.76-10-3.13-16.77-.44-2.25-.93-4.6-1.44-7-1-4.86-2.13-10-3.3-15.21-8.8-39.37-33-178.76-38.15-221.55-1.71-13.45-2.44-26.41-1.47-28.61a5,5,0,0,1,2.06-2.5,4.64,4.64,0,0,1,1-.58,2.34,2.34,0,0,1,.56-.25,8.07,8.07,0,0,1,.91-.29,1.24,1.24,0,0,1,.31-.1,3.71,3.71,0,0,1,.64-.15,5.48,5.48,0,0,1,.93-.14,13.67,13.67,0,0,1,4,.05,3.9,3.9,0,0,1,.73.17.39.39,0,0,1,.15,0,6.11,6.11,0,0,1,1,.3,1.08,1.08,0,0,1,.29.09c.1,0,.17.08.27.12a4.86,4.86,0,0,1,.76.37,3.47,3.47,0,0,1,.59.34c.14.1.29.2.44.32a6,6,0,0,1,1,1c1.47,1.72,3.18,10.76,4.16,20.3,2.69,25.92,29.35,183.16,39.13,229.38,4.89,22.5,8.8,43.78,8.8,47.2C2028.18,1231.21,2028.16,1231.73,2028.11,1232.26Z"/><path d="M1839.63,812.77c-2.45,13.45-4.4,18.09-10.76,24.45-10,10-13.21,10-60.89,2-84.86-14.43-134.74-13.7-185.61,2.69-17.85,5.87-28.85,8.07-33.26,7.09-15.16-3.67-25.18-23.23-19.8-39.13,1.46-4.64,6.6-11.74,11.49-16.14,12.47-10.76,59.91-33.5,79-37.41,44.5-9.78,184.87,1.22,209.57,16.14C1840.36,779,1843.3,791,1839.63,812.77Z"/><path d="M1736.68,1002c-11.74,34.48-50.38,39.37-66.52,8.32-3.91-7.34-5.13-14.19-5.13-28.13,0-21.76,6.84-38.39,19.07-46.21,10-6.61,24.94-6.61,35.46-.25C1735.94,945.8,1744.5,979.3,1736.68,1002Z"/><path d="M2028.17,1230.69c0,23.72-40.59,57.47-84.85,70.43-11.5,3.18-13.21,3.18-16.63,0-8.56-8.56-3.92-14.19,18.09-21.52,33.5-11.25,63.83-35,63.83-49.64,0-3.92-3.91-24-8.56-44.76-8.8-39.37-33-178.76-38.15-221.55-1.71-13.45-2.44-26.41-1.47-28.61,1.72-4.89,12.23-5.63,15.65-1.23,1.47,1.72,3.18,10.76,4.16,20.3,2.69,25.92,29.35,183.16,39.13,229.38C2024.26,1206,2028.17,1227.27,2028.17,1230.69Z"/><path d="M1273.51,1132.38c-2.2,5.63-13,7.83-16.87,3.67-1.71-2-5.87-11.25-9.29-20.54-16.14-44.26-17.36-46.46-25.43-47.2-25.93-2.69-47,30.57-37.42,59.43,3.43,10.51.74,13.94-9.78,13-12.72-1.47-15.41-34.24-4.4-57.23,6.6-14.42,24.45-30.07,36.68-31.79,5.13-1,10-2.69,10.76-3.66,1.71-3.18-16.87-36.69-31.3-56.49-14.92-20.3-24.21-27.39-35.46-26.9-6.6.24-8.8-1-11-5.87-2.69-5.63-2.2-7.09,2.69-11,5.63-4.64,10.52-4.4,24.21.49,9.3,3.43,32,26.66,45.24,46C1232.19,1023.81,1276.69,1124.31,1273.51,1132.38Z"/><path d="M2124.52,1043.37c-16.87,5.62-36.92-8.31-42.79-29.83-6.12-23.24,3.42-55.27,19.32-64.32,9.78-5.38,28.36-3.42,36.19,3.91C2164.87,979.06,2157.29,1032.61,2124.52,1043.37Z"/><path d="M1711.73,1324.35c-10.27,4.64-24.45,17.85-29.34,27.39-6.36,12.47-19.08,12.22-20.54-.49-1-8.81,15.4-28.61,33.5-40.84,17.12-11.49,16.14-11,22-7.83C1728.36,1308.45,1725.92,1318,1711.73,1324.35Z"/><path d="M1992.71,1382.06v8.56c0,8.31-.24,8.56-11,9.29-37.42,2.94-187.81-17.12-237-31.3-4.65-1.22-9-2-9.54-1.22-4.16,3.91,26.9,37.17,49.15,52.33,28.61,19.56,66,30.08,110.54,30.81l29.34.49.73,6.36c1.23,10.51-5.86,12.23-42.06,10.76-58-2.2-100-19.32-136.21-55.27-16.87-17.12-23-25.43-32.28-43.77s-11-23.72-9-27.63c3.42-6.12,5.38-5.87,28.36,2.44,41.57,15.16,139.39,30.57,232.07,36.44Z"/><path d="M1914.46,1521.45c0,6.36-1.22,7.82-9.78,10.51-14.92,5.14-61.87,2.45-81.19-4.15-15.9-5.63-19.56-9.78-15.41-17.61,3.18-5.87,6.36-5.87,25.19.49,14.67,5.13,31.06,5.87,70.19,3.91C1914.21,1514.11,1914.46,1514.36,1914.46,1521.45Z"/><path d="M1949.84,1396.29,1923,1453.14l-31.63-.54c-48-.8-88.28-12.35-119.12-33.85-24-16.65-57.45-53.19-53-57.49.53-.8,5.27,0,10.28,1.34C1772.35,1375.18,1886.38,1392,1949.84,1396.29Z"/><path class="cls-4" d="M3233.77,3127.84c0,1.21-300.54,297.12-336.24,331.11L2865.74,3489,2834,3481.2c-43.53-10.52-85.59-24.21-132.06-43-21.51-8.8-47.19-17.86-57.22-20.55-59.91-15.4-108.57,9.55-109.06,55.75,0,8.57-.74,15.42-2,15.42-1,0-9.29-3.67-18.34-8.31-32.52-16.14-45.73-19.57-75.08-19.81-24.69,0-27.87.49-39.37,6.6-22.74,12-35.21,31.29-35.21,54.78,0,10-.25,10.26-10.27,11.74-14.92,2.44-32.53,13-40.35,24.21-6.11,8.8-6.85,12-6.85,29.1v5.65h-387.6c13.18-12.79,42.5-40.56,74.59-70.95,154.79-146,180.47-170.2,250.9-237.45,39.61-37.66,93.41-88.52,119.58-113l47.69-44.26h85.83c47.2-.24,86.32.49,87.3,1.23,2.2,2.2-9,23.22-15.89,29.59-2.94,2.93-10.76,7.57-16.88,10-13.45,5.87-15.65,8.56-12,15.17,8.8,16.14,49.4-12.22,60.16-42.06l4.64-13,33.75-.73c38.88-.74,39.62-.25,25.68,20.54-6.12,9-11.74,13.69-22,18.83-14.67,7.08-17.85,12.71-10.52,18.83,11.74,9.78,45.24-16.63,55-43.53l5.62-15.16h68l-1.71,5.38c-2.2,7.58-11.49,21.75-17.12,26.9-2.69,2.2-9.78,6.35-16.14,9-12.47,5.14-15.16,11.5-8.07,17.37,12.23,10.27,46.71-18.1,56.74-46.71l4.4-12h34.72c27.15,0,35,.73,35,3.18,0,5.13-13.45,24.7-20.78,30.57a63.3,63.3,0,0,1-14.92,8.31c-9.78,3.42-13,10.51-7.34,16.13,3.18,3.19,5.14,3.43,13.94.74,17.36-5.13,38.88-30.08,47-54.77,1.47-3.67,5.38-4.16,35.95-4.16,22,0,34.24,1,34.24,2.44,0,11.74-23.23,37.42-36.19,40.35-9.05,2-12.48,9.78-6.85,15.4,10.76,10.77,45.48-15.15,56.49-42.31l5.87-14.66,35.7-.73,35.46-.74-3.67,9.3c-6.36,15.16-15.16,24.45-29.59,31.3-10.76,5.13-13.45,7.33-12.72,11.49,1.47,10,8.07,11.25,22.75,3.41,17.85-9.28,31.54-27.37,38.88-51.09,1.22-3.67,5.13-4.16,35.7-4.16h34.48l-1.46,5.38c-4.9,15.88-19.32,31.3-34.24,36.19-6.36,2.19-8.56,4.16-8.56,8.56,0,14.67,16.14,13,35.21-3.91,7.59-6.61,14.19-15.9,20.06-28.13l8.56-18.09h50.13C3211.28,3126.86,3233.77,3127.35,3233.77,3127.84Z"/><path class="cls-1" d="M2399.15,3113.41l-24.7,24.45c-13.69,13.44-52.82,50.87-87,83.15s-125,118.1-201.75,190.73c-76.54,72.64-154.06,146-172.4,163.12l-18.86,17.88h-41.47l26.34-25.22c22-21,49.39-47.19,60.89-57.95,27.63-25.92,186.09-176.33,288.31-273.89,45.24-42.8,98.55-94.15,118.85-114.2l36.44-35.95,7.82,13.94Z"/><line class="cls-5" x1="1920.58" y1="3592.74" x2="1894.39" y2="3592.74"/><path class="cls-1" d="M1275,3380c0,.49-2.93,5.13-6.36,10.27-27.63,40.35-52.82,123.49-56.49,186.34l-.88,16.17H1050.43l.81-9.57c5.13-61.38,26.41-118.12,57-152.59,13.45-15.16,15.9-15.9,105.65-37.17,28.85-6.86,53.06-13,53.55-13.7C1268.88,3378.49,1275,3378.49,1275,3380Z"/><polyline class="cls-5" points="1211.26 3592.74 1229.04 3592.74 1569.42 3592.74 1604 3592.74 1764.93 3592.74 1852.92 3592.74"/></g></g></svg>