<svg xmlns="http://www.w3.org/2000/svg" viewBox="0 0 3286.26 3684.91"><defs><style>.cls-1{fill:#fff;}.cls-2{fill:#b9b5aa;}.cls-3{fill:#c95b42;}.cls-4{fill:#c98142;}.cls-5{fill:#3b8173;}.cls-6{fill:#f5b4b2;}.cls-7{fill:#3a5173;}.cls-8{fill:none;}</style></defs><g id="Layer_2" data-name="Layer 2"><g id="Layer_1-2" data-name="Layer 1"><path d="M3265.37,2175.26c21.83-49.89,23-54.21,19.19-68.12-3.6-13.19-15.35-25.43-36-37.66-15.35-9.11-29-12.71-241.77-64.52-51.09-12.23-51.33-12.47-54.93-20.15-2.16-4.56-7.19-9.83-11.27-11.75-4.08-2.16-30.7-9.36-59-16.07-28.3-6.48-52.76-12.48-54.44-13-1.92-.72-1-5.76,2.87-17.27,19.19-55.17.24-111.06-45.09-131.45-65.24-29.5-141.75,13-155.67,86.11-1.67,8.64-3.83,15.83-4.79,15.83s-26.15-6-55.89-13.19c-30-7.19-58-13.19-62.36-13.19a25.41,25.41,0,0,0-13.67,4.8c-6,4.55-6,4.55-33.34-2.4-90.19-23.27-204.36-50.37-211.8-50.37-11.51,0-26.14,7.67-33.58,17.27-5,7-29.74,60.2-72.19,156.62-7,15.83-22.55,50.37-34.78,76.76-40.78,89-74.36,164.06-74.36,166.7,0,6.71-4.79,0-17.27-24.71-37.17-73.39-92.82-142.23-153-190-82.51-65.48-197.4-117.53-351.39-159.75-30.22-8.39-44.85-13.43-49.17-17.51-3.35-2.88-8.63-7.19-11.75-9.35l-5.76-3.84,9.36-3.84c5-2.16,29.26-10.79,53.73-19.19,125.92-43.41,151.59-54.2,167.9-71.23,19.66-19.91,20.86-49.65,3.11-69.32a56.16,56.16,0,0,0-19.9-13.43l-11.76-4.32,11-13.19c29.5-35,60.2-91.39,76-139.12,17.27-52,24.47-117,22.07-201.48-2.88-108.41-14.87-234.1-33.82-355.71-3.36-21.1-6-40.53-6-43.41,0-3.12,4.32-15.11,9.84-26.86s13.67-32.62,18.47-46.54c7.43-22.06,8.63-29,9.59-55.16,1.2-31.66-1.68-49.89-11-69.32l-4.56-9.36,12.23-9.35c6.72-5,25-21.35,40.3-36.46,50.37-48.69,83.47-106,87.54-151.35,2.4-26.86-8.63-42.69-27.58-40.05-5.52.72-20.87,8.15-37.66,18-15.83,9.35-29,16.79-29.5,16.31s2.64-7.68,6.72-15.83c45.57-90.43,61.88-193.33,44.13-280.4-8.87-44.13-33.34-101-56.84-132.16C1748.52,23.75,1714,0,1687.36,0c-7.44.24-16.55,1.92-20.63,4.08-10.55,5.51-21.83,16.79-31.66,31.9-53.49,81.07-100.26,118.25-178.21,141.51-54.45,16.07-106,20.87-242.26,22.79-102.66,1.44-157.34,4.08-205.79,9.83C882.64,224.75,784.3,273.2,731.05,346.83c-10.55,14.63-32.14,57.09-32.14,63.56-.24,2.64-.48,2.64-2.16-.24-1.2-1.91-3.36-15.59-5-30-4.56-42.45,1-86.11,18-140.31,9.35-30.23,9.11-36.94-2.64-43.42C681.4,182.77,650,214,633.91,269.12c-7.67,26.38-9.11,85.63-2.64,118.25,2.64,13.19,5.76,26.14,6.72,28.78s-5.28-1.92-14.39-10.07c-34.06-31.18-63.81-46.54-90.67-47.26-15.35-.23-24.7,4.8-30.46,16.56-5,10.31-.24,16.55,26.14,34.77C557.4,430.06,591,462,609.21,486.91c7.67,10.79,14.15,20.39,14.15,21.59S614.72,515,604.17,520a327.87,327.87,0,0,0-38.38,23.26C418,648.81,413.72,844.77,553.8,1076c12.47,20.62,22.78,38.13,22.78,38.61,0,.24-3.59,5.76-8.15,12-25.43,36-36.7,78.44-34.3,130.73,1.44,35.5,7.2,58.52,21.83,89.46,20.15,42.7,43.65,70.52,78.91,93.31,39.82,26.14,69.56,35.26,119.21,36.46l34.78,1,.72,31.91c1.68,68.83-7,185.88-20.63,279.67l-6.48,44.13-54,19.67c-29.75,10.79-81.56,30.22-115.14,42.93-58,22.31-105.77,40.54-201.23,76.76-124,47-181.34,81.55-239.14,143.43-76.28,81.79-125.93,208.2-143.68,365.3-12.47,111.3-12.47,261.69.24,403,8.16,92.11,22.31,190.93,34.78,241.78C86.8,3299.7,160.19,3405.24,278,3462.81c11.76,5.75,25.67,11.75,31,13.19l9.11,2.88-.72,45.81c-.72,35.95-4.8,149.93-2.37,156.07a.28.28,0,0,0,.09.19c4.32,5.28,12.45,5.33,15.09-.19,1.2-2.16,6.62-128.73,7.58-151,.72-22.3,1.92-41,2.4-41.73.72-.48,8.39.72,17.51,2.88,123.28,27.82,255.44-20.15,352.11-128.08,62.36-69.32,89.7-112.74,190.68-302.22,6.69-12.57,12.91-24.23,18.69-35.12,1.67-3.12,3.28-6.14,4.84-9.11,0,0,0,0,0,0,1.49-2.78,2.95-5.51,4.35-8.18,7.86-14.77,14.87-27.92,21.15-39.76l3.36-6.34c.55-1,1.1-2.06,1.63-3.07,1.08-2,2.14-4,3.14-5.92.89-1.61,1.73-3.19,2.57-4.77s1.68-3.17,2.49-4.73c3.65-6.86,7-13.24,10.22-19.21l1.3-2.45,2.2-4.17q2.45-4.61,4.75-8.95c.51-1,1-1.92,1.51-2.85,1.27-2.43,2.55-4.78,3.77-7.1,1.15-2.16,2.25-4.25,3.36-6.31.36-.7.72-1.37,1.08-2,1.08-2.06,2.13-4.05,3.19-6,.55-1,1.1-2.07,1.63-3.1,2.92-5.52,5.75-10.86,8.61-16.24,13.19-25.18,36-67.64,50.37-94.74,27.34-50.85,73.15-137.68,126.64-240.1,17-32.38,30.94-61.16,30.94-64,0-5.27-12-16.79-31.66-29.74-6.23-4.32-11.51-8.39-11.51-9.11s8.87-15.12,19.91-31.91l19.67-30.94,21.1-8.15c44.86-17.27,99.78-48.93,131.68-75.8l15.36-13.19,9.59,5c15.11,7.91,38.86,6.95,58.52-2.4,36-17,83-63.56,101.22-100.5,18-36,13.2-78.43-12.23-107.46-7.43-8.39-7.67-9.11-5-17.5,1.92-5.28,2.64-17.27,1.92-30.71-1.2-27.58-8.39-43.41-26.86-61.16l-13.19-12.23,1.2-16.31a83,83,0,0,0-2.4-29.27c-1.92-7.19-3.12-13.43-2.88-13.67.24-.48,20.87,5.28,45.57,12.48,185.65,54.44,304.38,120.64,385.21,213.95,36.46,42.21,70.76,95.7,92.59,143.91l8.87,19.91-7.44,16.07c-22.78,50.37-48,105.54-66.44,145.83-11.51,24.95-27.58,60.69-36,79.15s-25.67,56.13-38.38,84c-12.71,27.59-30,66-38.38,85.15s-20.15,45.1-26.14,57.57l-10.8,22.79v-40.78c-.48-95.7-13-382.09-17.27-394.08a8.07,8.07,0,0,0-7.91-5.28c-10.79,0-11.51,3.84-8.87,43.65,4.07,59,9.59,202.92,12.23,327.65l2.64,115.85-33.58,73.63c-18.47,40.54-38.62,84.43-44.62,97.62-6.23,13.2-17,36.94-24,52.77s-31.9,71.48-55.17,123.53c-23.51,52-43.89,98.58-45.81,103.14-6.48,17.27-1.68,40.29,10.55,51.33,5,4.31,48.93,21.34,147.27,56.6l49.65,18,1.2,16.79c.72,9.12,1.92,51.33,2.64,93.55,1.2,67.63,1.92,77,5.28,79.87,5.66,4.08,9.42,99.68,12.66,105,.19.31.36.34.55,0,2.4-4.31,2.86-131.13,1.9-198.05-.72-46.77-.72-86.11.24-87.06.72-1.2,7.67,4.79,15.11,13.19,29.5,32.86,75.31,68.6,110.33,86.35,18.71,9.35,48.69,19.66,73.88,24.94,28.06,6.24,86.59,6.24,115.13.24l20.87-4.56,35.5,13.44c19.43,7.19,65.72,24.22,102.66,37.41,36.93,13.43,82.75,30,101.93,37.18,73.64,27.34,200.52,73.88,207.48,75.8a25.62,25.62,0,0,0,7.8,1.12c10.36,0,22.85-5.08,32.5-13.6,10.07-8.63,13.43-15.59,61.64-128.56,28.06-65.72,68.6-160.46,89.94-210.59,21.59-50.13,43.66-102.18,49.18-115.61l10.07-24.23,17-4.32c78.67-18.95,129.28-49.17,148-88.74,6.72-13.92,13.91-53.49,10.55-58.77-.72-1.2,1.92-4.56,5.52-7.43,21.35-18,30.22-28.07,37.42-42.46,7.43-15.35,7.67-17,7.91-47l.24-30.94,11.76-8.88c30-22.06,42.45-62.36,30.7-99.54-3.12-10.31-3.6-14.15-1.44-14.87,8.39-2.64,26.38-17.75,33.34-27.82,30-43.66,13-99.06-39.58-128.57-25.66-14.39-24.22-10.31-12.71-38.61C3106.11,2545.59,3228.68,2259.45,3265.37,2175.26ZM788.86,1806.12c14.87-100,23.5-210.36,22.54-288.55l-.72-45.09,12.72-5.76c11-5.28,12.47-6.71,11.75-12.23-1.2-11-6.72-12.23-26.38-5.76-20.87,7-60.45,9.12-84.67,5-76.28-13.43-137.68-69.8-161-148.23-9.11-30.94-10.79-75.08-3.59-105.06,7.91-33.1,19.42-54,42.21-77,22.55-23,41.49-33.1,71.48-38.62,30.46-5.28,67.4,0,91.38,13.19,11.52,6.48,12,7,24.23,37.66,28.3,70.52,36,82.75,52.53,82.75,17.51,0,72.43-20.39,80.35-29.5,6.71-8.4,5.75-19-4.32-44.38-19.67-49.41-37.9-111-43.41-147.27-4.08-27.1-1.2-37.42,24.46-89.46,29.26-59.25,33.82-73.64,35-109.14,1.2-38.38-5.76-63.56-27.1-94.5l-6.24-9.36,7.92,1.44c154.22,27.35,223.3,34.06,355.7,34.06,77.48,0,103.38-1,134.32-4.32,81.07-9.35,155.91-28.06,207.48-51.8,8.63-3.84,16.31-7.2,17-7.2,1-.24,4.56,6,8.15,13.43,24.47,51.81,39.82,104.82,57.33,198.6,17.51,93.31,29.26,185.17,41.25,321.41,6,66.44,6,182,0,220.67-11.75,76.75-35.73,137.2-74.83,188.77-25,32.86-37.42,45.09-46,45.09-37.9,0-200,40.77-313.74,78.91l-62.36,20.87-15.59-3.12c-28.3-5.76-67.88-20.15-102.18-37.18-34.54-17.51-41.49-18.71-41.49-8.39s25.9,46.53,54.92,77l18.23,18.71-6,4.08c-3.12,2.16-13.67,9.59-23.51,16.31-10.79,7.91-17.75,11.51-18.47,9.59-.48-1.44-3.12-14.87-6-29.26-6.24-32.86-13.92-55.89-27.83-84.91-8.87-18.23-14.63-26.14-30.7-42.45s-23.51-21.83-38.62-28.79c-22.06-10.07-46.53-13.19-65-8.15-14.63,4.08-28.78,18-31.18,30.22-1.68,9.59-1.2,11.75,16.79,60.2,24.23,64.53,24.47,114.18,1.68,210.6-5.28,22.54-10.31,45.33-11.27,50.85-1,5.75-2.16,10.31-3.12,10.31-3.36,0-44.85-35-61.4-51.81-23.75-23.74-40.06-46-51.57-69.32l-9.36-19.18ZM720,1871.36c18-6.72,34.3-12.23,35.74-12.23,1.68-.24,3.84,2.63,4.55,6.23,2.88,12.23,19.91,42.46,35.5,63.08,19.19,25.43,59.73,65,85.63,83,19.19,13.68,19.43,13.68,18,22.31-.72,4.8-2.16,21.83-3.12,37.9-.72,17.27-2.4,29.5-3.83,29.5-3.84,0-44.14-25.66-65.25-41.49-27.34-20.63-70.75-63.81-90.9-90.67-9.6-12.47-24.71-36.94-33.34-54.21l-15.83-31.18Zm468.2,598.92c0,1-7.2,15.11-15.83,31.66-8.88,16.31-32.62,61.64-53.25,100.5-62.12,118-74.84,142-119,225.47-86.11,162.14-95.94,180.85-153.27,286.62-42.93,79.88-55.64,101.7-82,141.52-67.88,103.14-138.4,166.46-223.06,200-70.76,28.06-157.59,27.58-230-1.44-74.35-29.5-135.28-83-178.21-156.15-32.14-54.44-57.09-121.84-71.72-193.08C16,2881.87,7.41,2581.09,41.71,2408.16c26.62-133.84,70.27-222.59,144.15-293.83,29.74-28.78,56.37-48.21,92.1-67.88,34.54-19.18,61.89-30.7,181.1-76,54.68-20.87,122.8-47,151.1-57.81,28.31-11,53.25-19.9,55.17-19.9,2.16-.24,6,6,10.32,16.31,7.43,18.47,26.38,49.65,46.53,77,31.18,41.74,91.38,94,144.87,125l26.38,15.35-1.19,13.91a109.2,109.2,0,0,1-6.72,26.38c-4.56,10.56-26.62,51.09-29.5,54-.48.48-8.16-3.6-17.27-8.88-9.12-5.51-18.71-9.83-21.35-9.83-3.6,0-19.91,19.91-60.92,74.84-81.55,108.89-142.48,189-143.2,188-.48-.48-3.6-19.19-6.71-42-6.48-43.18-16.55-100.74-20.63-115.85-2.64-10.56-12-14.87-18.23-8.4-3.36,3.36-2.88,8.4,5,52.53,9.83,55.41,17,103.86,19.19,126.65l1.43,15.59-38.61,51.57c-53.49,71-121.61,160.7-138.16,182.29-7.67,9.83-16.55,19.18-19.91,20.62-3.36,1.68-16.31,7.68-28.78,13.68-47.25,22.54-93.3,59.48-122.33,97.86-14.63,19.43-16.79,25.18-11.51,30.46,6.48,6.47,13.43,3.12,23.27-11,11.51-17,46.53-51.09,67.4-65.73,18.94-13.19,43.17-27.1,43.17-24.46,0,1-5.76,9.35-12.71,18.71-30.7,41-67.88,104.34-85.87,146.55-11,26.38-12.95,38.62-6.24,42.93,7,4.56,12-1.19,22.31-26.38,23.51-57.57,65.24-125,122.81-198.84,11.27-14.63,27.58-35.5,36.21-46.77s35-45.82,58.77-76.76c47.49-61.88,93.3-122.56,228.58-302.7l89.47-119.2,19.91,12.23C965.63,2315.09,1188.22,2463.8,1188.22,2470.28ZM1506,1995.36c3.84,12,5.51,38.14,2.64,42.94-1,1.68-6.72.24-16.55-4.56-18-8.39-26.39-8.87-31.43-1.68s-.71,13.67,12,17.51c24.94,7.44,45.81,24.47,56.36,45.57,4.56,9.6,5.76,15.6,5.76,30,0,15.59-1.2,20.38-8.63,36.21-11,23.27-34.78,50.13-61.65,70.52-29,21.83-48.45,28.79-64,22.79l-6.48-2.4,19-21.11c10.32-11.51,24.71-27.82,31.9-36.22s16.55-16.79,20.87-18.46c9.84-4.32,13.91-11,10.32-17.75-7-13.2-28.31-1.2-58.53,33.34-34.06,38.85-75.55,77.23-103.62,96.18-30.46,20.39-49.65,30.22-89.7,46.77l-30,12.47L1180.3,2370c-7.67,12.47-17,27.58-20.86,33.82l-7.2,11.51-64-42.69c-55.65-36.94-156.15-102.66-200.28-130.72-7.68-4.8-13.91-9.6-13.91-10.56,0-.72,4.79-9.11,10.55-18.47,25.19-40.77,27.34-48.93,31.42-119.2,3.6-62.85,6.72-84.91,20.63-144.4,17.51-76.51,21.59-113,16.79-155-3.84-32.14-9.6-54.44-23.27-88.26-6-15.11-10.55-29.74-10.07-32.62s4.56-7.68,9.11-10.8c7.44-5,10.32-5.51,25.67-4.79,12,1,20.87,3.11,30.22,7.67,25.66,12.47,48.93,39.1,65,73.88,10.07,21.58,14.63,37.18,23,78l6.47,32.14-19.9,17.27c-10.8,9.36-20.39,19-21.35,21.11-2.16,6,1.2,11.75,7.43,13.19,4.8,1.2,8.88-1.2,21.59-12.47,40.78-36.22,56.61-47.73,104.1-76.28,39.09-23.5,69.08-36.93,126.16-56.6,105.54-36,240.82-70.76,308.94-79.15,29.5-3.84,45.33-1,55.64,9.83,5.76,6,7,9.35,7,18.47,0,25.42-15.83,34.3-133.12,74.83-29.74,10.32-68.84,24-87.07,30.47l-32.86,12-18.71-4.32a164.65,164.65,0,0,0-34.54-4.56c-13.91,0-16.07.72-17.51,4.8-3.11,10.07.48,13.91,15.12,15.59,37.89,3.84,70.75,16.55,88,33.58,12.23,12.47,22.79,35.26,22.79,49.65,0,12.71-.48,13-13,7.92a200.12,200.12,0,0,0-24-7.2c-18.71-4.32-27.82-2.16-27.82,7,0,7.91,3.36,9.83,23.74,14.39C1467.65,1947.15,1497.39,1969.46,1506,1995.36Zm1443.69,21.11c1-2.88,2.88-3.84,5.52-3.12,2.4.72,9.11,2.4,15.11,3.6,6,1.44,66,16.07,133.12,32.62,115.61,28.3,122.81,30.46,129,37.18,3.6,4.08,6.48,8.87,6.48,10.79,0,6.24-12.47,36-80.35,191.89-24.71,56.6-63.08,145.83-85.39,197.88s-42.22,98.1-44.13,102.18l-3.36,7.67-15.11-3.11c-8.4-1.92-21.83-4.08-30-5-8.39-.72-15.11-2.16-15.11-2.64,0-1.44,116.57-272.48,154.71-359.3,18.95-43.66,39.58-94.51,39.58-98.11,0-8.87-9.36-11.51-170.3-50.61-30.94-7.43-57.09-14.39-58.29-15.35-1-1,2.4-10.79,7.44-22.06C2944,2029.9,2948.76,2018.87,2949.72,2016.47Zm-52.29,676.4c7.2,9.35,7.2,10.31.48,10.07-10.07-.48-64.28,9.83-77.95,14.63-18,6.24-30.46,14.87-38.86,26.39-13.91,19.42-15.83,50.13-4.07,71.23,3.35,6,6.23,11.52,6.23,12.48s-5,3.11-11,4.79c-41.74,12.48-58.77,63.09-33.58,100.5l7.67,11.76-9.83,10.79c-21.35,23.74-21.11,57.08.48,81.07,5.76,6.24,10.31,12.47,10.31,13.67,0,4.32-72,174.62-137.67,325.73-57.57,132.4-60.45,139.11-64,138.63-1.92-.24-20.15-6.47-40.54-13.91-93.3-33.82-541.12-194-758.43-271.27-20.86-7.44-37.89-14.64-37.89-16.32,0-1.43,5.51-14.63,12.23-29,6.72-14.63,19.91-44.13,29.74-66,9.6-21.83,28.06-62.84,40.78-91.14,13-28.31,29.5-65.72,37.17-82.75,13-29.51,35-78.2,76-169.1,9.83-21.83,26.86-59.49,37.9-83.95,10.79-24.47,27.34-61.17,36.45-81.55,9.36-20.39,35-77.72,57.09-127.13s48-107.21,57.57-128.32c49.41-109.61,63.8-141,119.2-262.64,10.56-23,24.71-54.93,31.67-70.76,7.19-15.83,18.46-41,25.18-56.13,7-15.11,13.67-30,14.87-33.34,1.44-3.83,3.36-5.27,6-4.31,2.16,1,38.61,10.31,81.07,20.86l77,19.43v19.19c0,18.23.24,19.43,7.2,25.42,8.15,7.44,33.82,14.4,209.87,56.85,57.33,13.91,135.52,33.1,173.66,42.69l69.08,17,4.31-5c2.64-3.36,4.8-11.76,5.76-22.07,1.44-13.43,2.64-17,5.52-17,2.16,0,48.45,10.79,102.42,24,54.2,13.19,101,24.7,104.09,25.18,2.88.72,5.28,2.16,5.28,3.36,0,3.12-65.48,155.67-116.33,271.28-19.43,44.37-73.87,171-76.27,178-.72,2.4-5.28,4.8-10.56,5.76C2887.6,2600,2868.65,2654.49,2897.43,2692.87Zm-396-799.44c5.28-3.36,10.56-2.4,69.8,12.23,75.79,18.47,71.24,19.19,76.75-13.19,6-34.78,22.07-59.49,46.78-73.16,24.46-13.19,47.73-16.07,71.47-8.63,19.19,6,31.42,16.07,41.26,34.29,7.67,14.4,8.15,16.31,8.15,39.1,0,22.31-.72,25.43-9.11,46.53-7.92,18.71-8.88,23-6,25.67,1.68,1.68,30.22,9.59,63.56,17.51s62.85,15.59,65.48,17c6.72,3.59,5.76,7.43-11.27,44.37-8.63,18.71-14.87,35.74-17.27,48.45-2.16,11-4.56,19.91-5.51,19.91-6.48,0-411.84-100.5-419-103.86-5-2.4-6.48-4.8-7-13.43C2468.09,1966.34,2490.88,1900.38,2501.43,1893.43ZM2093.68,3502.14c-8.4,3.36-54.93,2.16-78.2-1.68-42.45-7.43-86.35-26.38-119.69-51.81-23-17.51-43.41-36.45-37.17-34.3,2.63,1,29.74,10.8,60,22.07,54.93,20.15,152.07,54.93,170.3,60.68C2097,3499.74,2097.75,3500.46,2093.68,3502.14Zm485.7,140.08c-14.39,7.43-12.23,7.91-195.48-58.77-67.88-24.7-287.11-104.33-393.36-142.71-31.66-11.51-91.63-33.34-133.12-48.45s-84.19-30.46-94.75-34.3c-68.59-24.23-158.3-57.81-163.34-61.17-8.63-5.51-11.27-14.63-8.39-26.62,1.44-5.28,15.11-37.18,30.46-70.76s36.22-79.87,46.53-102.9c18.71-42.21,36.94-82.75,75.56-166.7,11.51-25.18,30.46-67.16,42-93.54s39.1-88,61.16-136.72c48.45-107,59.25-131,79.64-176.29,8.63-19.19,23.5-52.05,33.1-73.16,9.83-21.11,30-66.44,45.09-100.74,27.82-62.84,57.8-129.28,96.42-213.47,11.51-25.18,28.3-61.88,37.18-81.55,48-106.26,61.64-137,73.4-163.58,7-16.31,14.63-32.38,17-35.74,3.36-5.28,14.64-12.47,20.15-13,1,0,29.51,7,63.56,15.35,34.3,8.63,83.24,20.38,108.9,26.62,25.66,6,48,11.51,49.65,12,3.6,1.2-15.59,51.57-19.43,50.37-1.44-.48-40.77-10.31-87.07-21.82-66.2-16.31-85.39-20.15-88-18-3.12,2.64-13.2,24.46-77.72,166.94-12.47,27.58-36.7,81.07-54,118.73-35,77-77.48,171-134.8,299.82-21.59,48.21-48,107-58.77,130.72s-25.42,56.12-32.38,72-20.15,45.57-29.5,66c-9.12,20.38-26.63,59.24-38.86,86.34s-30.22,66.92-40,88.75-26.63,59-37.18,82.75-35.26,79.15-54.93,123c-27.82,61.64-35.5,80.59-33.58,84,1.44,2.88,24.71,12.23,69.08,27.82,36.7,13.19,101.22,36.22,143.43,51.33,42.22,14.87,100.5,35.74,129.53,46.05s75.55,26.87,103.13,36.7c27.83,10.07,66,23.51,85.15,30.46,19.19,6.72,60.21,21.35,91.15,32.62,242.49,87.79,247.77,89.47,252.57,86.35,2.4-1.44,8.15-11.27,12.71-21.83s14.87-33.82,22.55-51.57,25.42-58.76,39.57-91.14c30.94-71,114.89-267,125.93-294.3,6.47-16.07,8.63-19.19,11.75-17.75,6,3.11,27.1,7.67,43.89,9.35l15.59,1.68L2722.82,3322c-59.25,137.92-112.73,262.4-118.73,277C2589.22,3635,2587.54,3637.9,2579.38,3642.22Zm249-480.91c-54.69,129-201,471.07-205.08,479.71-4.8,9.11-18,19.19-25.43,19.19-4.55,0-4.31-.72,2.4-7.92,5.76-5.75,34.3-70,119.69-269.12,61.64-143.91,116.33-271.51,121.61-283.75,6.95-16.31,10.55-22.06,13.43-21.58,2.4.48,3.6,3.11,3.6,6.71C2858.34,3087.91,2844.67,3122.45,2828.36,3161.31Zm278.71-499.62c19.91,18.22,24.94,28.54,25.18,50.13,0,22.78-7.91,36-30.94,51.56-9.11,6-17.27,12.72-18.47,14.88-1.44,2.39-.24,9.59,3.12,20.14,6.72,21.11,7,44.14.72,57.09-4.56,9.35-15.59,21.35-34.54,37.66l-10.31,8.87,1.92,13.91a234.3,234.3,0,0,1,2.16,29.74c-.24,21.11-11,43.66-27.11,56.85-23.5,18.95-24.46,20.39-24.46,36,0,55.17-21.35,80.83-90.19,108.17-23.27,9.12-51.57,17.75-53.25,16.07-1.2-1.43,26.63-66.2,28.54-66.2,1,0,4.08,3.36,7,7.2,8.4,12,24,7.68,20.63-5.76-1.68-7.19-32.14-35.73-45.09-42.45-7.2-3.6-19-6-39.1-8.16-15.83-1.67-33.1-4.31-38.38-5.75-38.14-10.56-53.73-44.38-32.14-70.52,9.12-11,16.79-13.19,57.57-16.07,65-4.56,107,6.48,135,35.74,7.67,7.91,15.83,9.59,20.62,3.84,5.28-6.48.48-14.64-17.27-28.79-35.26-28.06-55.4-33.1-128.32-31.9l-50.85.72-6.24-6c-18.46-17-19.66-46.78-2.87-63.57,10.31-10.31,29-16.79,61.88-21.58,43.41-6,84.19-7.2,105.3-2.64,23.26,4.79,48.21,17.27,65.24,32.38,13.91,12.47,20.62,14.87,25.9,8.87,5.52-6.71,1.44-14.15-14.39-27.1-18.47-14.87-43.65-28.06-63.56-33.1-21.59-5.52-62.6-6.72-97.14-2.88-34.78,4.08-38.14,3.12-47.25-15.11-13.92-26.86-.25-55.17,31.42-65.72,24.94-8.4,72.43-13.91,108.17-12.71,50.85,1.92,81.31,12.23,109.86,37.89,14.15,12.48,23.74,15.12,27.58,7.44,3.36-6,0-12.71-11.27-22.79-27.35-24.7-54.21-36.45-95.95-42.45s-68.36-34.54-60.2-64.76c4.56-17.27,25.18-30.46,48-30.94,4.8-.24,17.27,1,28.3,2.15C3033.67,2618.51,3080.68,2637.22,3107.07,2661.69Zm-46.53-58.53c-1,3.36-2.88,4.08-6.72,2.64-3.12-.72-6-1.92-6.24-2.4-1.2-1,31.91-79.39,96.91-229.06,29.74-69.08,60.68-140.8,68.59-159.27s21.11-49.41,29.75-68.6c8.39-19.18,15.35-37.17,15.35-39.57.24-4.32.24-4.32,3.6,0a20.67,20.67,0,0,1,3.59,10.55c0,6.24-9.35,28.3-82.75,198.36-27.34,63.32-53.72,124.73-58.76,136.72-5,11.75-20.87,49.65-35.26,83.95C3074,2570.78,3061.5,2600.76,3060.54,2603.16Z"/><path class="cls-1" d="M3135.85,2136.88c0,3.12-65.48,155.67-116.33,271.28-19.43,44.37-73.87,171-76.27,178-.72,2.4-5.28,4.8-10.56,5.76-45.09,8.15-64,62.6-35.26,101,7.2,9.35,7.2,10.31.48,10.07-10.07-.48-64.28,9.83-77.95,14.63-18,6.24-30.46,14.87-38.86,26.39-13.91,19.42-15.83,50.13-4.07,71.23,3.35,6,6.23,11.52,6.23,12.48s-5,3.11-11,4.79c-41.74,12.48-58.77,63.09-33.58,100.5l7.67,11.76-9.83,10.79c-21.35,23.74-21.11,57.08.48,81.07,5.76,6.24,10.31,12.47,10.31,13.67,0,4.32-72,174.62-137.67,325.73-57.57,132.4-60.45,139.11-64,138.63-1.92-.24-20.15-6.47-40.54-13.91-93.3-33.82-541.12-194-758.43-271.27-20.86-7.44-37.89-14.64-37.89-16.32,0-1.43,5.51-14.63,12.23-29,6.72-14.63,19.91-44.13,29.74-66,9.6-21.83,28.06-62.84,40.78-91.14,13-28.31,29.5-65.72,37.17-82.75,13-29.51,35-78.2,76-169.1,9.83-21.83,26.86-59.49,37.9-83.95,10.79-24.47,27.34-61.17,36.45-81.55,9.36-20.39,35-77.72,57.09-127.13s48-107.21,57.57-128.32c49.41-109.61,63.8-141,119.2-262.64,10.56-23,24.71-54.93,31.67-70.76,7.19-15.83,18.46-41,25.18-56.13,7-15.11,13.67-30,14.87-33.34,1.44-3.83,3.36-5.27,6-4.31,2.16,1,38.61,10.31,81.07,20.86l77,19.43v19.19c0,18.23.24,19.43,7.2,25.42,8.15,7.44,33.82,14.4,209.87,56.85,57.33,13.91,135.52,33.1,173.66,42.69l69.08,17,4.31-5c2.64-3.36,4.8-11.76,5.76-22.07,1.44-13.43,2.64-17,5.52-17,2.16,0,48.45,10.79,102.42,24,54.2,13.19,101,24.7,104.09,25.18C3133.45,2134.24,3135.85,2135.68,3135.85,2136.88Z"/><path class="cls-2" d="M2929.57,1990.81c-2.63-1.44-32.14-9.12-65.48-17s-61.88-15.83-63.56-17.51c-2.88-2.64-1.92-7,6-25.67,8.39-21.1,9.11-24.22,9.11-46.53,0-22.79-.48-24.7-8.15-39.1-9.84-18.22-22.07-28.3-41.26-34.29-23.74-7.44-47-4.56-71.47,8.63-24.71,13.67-40.78,38.38-46.78,73.16-5.51,32.38-1,31.66-76.75,13.19-59.24-14.63-64.52-15.59-69.8-12.23-10.55,7-33.34,72.91-31.9,92.82.48,8.63,1.92,11,7,13.43,7.19,3.36,412.55,103.86,419,103.86.95,0,3.35-8.88,5.51-19.91,2.4-12.71,8.64-29.74,17.27-48.45C2935.33,1998.24,2936.29,1994.4,2929.57,1990.81Zm-147-106.5c-4.31,38.38-50.37,60.2-77.23,36.7-28.06-24.71-14.39-75.08,23-83.71C2757.12,1830.82,2785.9,1855.77,2782.54,1884.31Z"/><path class="cls-3" d="M2858.58,3084.55c-.24,3.36-13.91,37.9-30.22,76.76-54.69,129-201,471.07-205.08,479.71-4.8,9.11-18,19.19-25.43,19.19-4.55,0-4.31-.72,2.4-7.92,5.76-5.75,34.3-70,119.69-269.12,61.64-143.91,116.33-271.51,121.61-283.75,6.95-16.31,10.55-22.06,13.43-21.58C2857.38,3078.32,2858.58,3081,2858.58,3084.55Z"/><path class="cls-3" d="M3265.37,2117.45c0,6.24-9.35,28.3-82.75,198.36-27.34,63.32-53.72,124.73-58.76,136.72-5,11.75-20.87,49.65-35.26,83.95-14.63,34.3-27.1,64.28-28.06,66.68-1,3.36-2.88,4.08-6.72,2.64-3.12-.72-6-1.92-6.24-2.4-1.2-1,31.91-79.39,96.91-229.06,29.74-69.08,60.68-140.8,68.59-159.27s21.11-49.41,29.75-68.6c8.39-19.18,15.35-37.17,15.35-39.57.24-4.32.24-4.32,3.6,0A20.67,20.67,0,0,1,3265.37,2117.45Z"/><path class="cls-4" d="M2830.51,3071.36,2722.82,3322c-59.25,137.92-112.73,262.4-118.73,277-14.87,36-16.55,38.86-24.71,43.18-14.39,7.43-12.23,7.91-195.48-58.77-67.88-24.7-287.11-104.33-393.36-142.71-31.66-11.51-91.63-33.34-133.12-48.45s-84.19-30.46-94.75-34.3c-68.59-24.23-158.3-57.81-163.34-61.17-8.63-5.51-11.27-14.63-8.39-26.62,1.44-5.28,15.11-37.18,30.46-70.76s36.22-79.87,46.53-102.9c18.71-42.21,36.94-82.75,75.56-166.7,11.51-25.18,30.46-67.16,42-93.54s39.1-88,61.16-136.72c48.45-107,59.25-131,79.64-176.29,8.63-19.19,23.5-52.05,33.1-73.16,9.83-21.11,30-66.44,45.09-100.74,27.82-62.84,57.8-129.28,96.42-213.47,11.51-25.18,28.3-61.88,37.18-81.55,48-106.26,61.64-137,73.4-163.58,7-16.31,14.63-32.38,17-35.74,3.36-5.28,14.64-12.47,20.15-13,1,0,29.51,7,63.56,15.35,34.3,8.63,83.24,20.38,108.9,26.62,25.66,6,48,11.51,49.65,12,3.6,1.2-15.59,51.57-19.43,50.37-1.44-.48-40.77-10.31-87.07-21.82-66.2-16.31-85.39-20.15-88-18-3.12,2.64-13.2,24.46-77.72,166.94-12.47,27.58-36.7,81.07-54,118.73-35,77-77.48,171-134.8,299.82-21.59,48.21-48,107-58.77,130.72s-25.42,56.12-32.38,72-20.15,45.57-29.5,66c-9.12,20.38-26.63,59.24-38.86,86.34s-30.22,66.92-40,88.75-26.63,59-37.18,82.75-35.26,79.15-54.93,123c-27.82,61.64-35.5,80.59-33.58,84,1.44,2.88,24.71,12.23,69.08,27.82,36.7,13.19,101.22,36.22,143.43,51.33,42.22,14.87,100.5,35.74,129.53,46.05s75.55,26.87,103.13,36.7c27.83,10.07,66,23.51,85.15,30.46,19.19,6.72,60.21,21.35,91.15,32.62,242.49,87.79,247.77,89.47,252.57,86.35,2.4-1.44,8.15-11.27,12.71-21.83s14.87-33.82,22.55-51.57,25.42-58.76,39.57-91.14c30.94-71,114.89-267,125.93-294.3,6.47-16.07,8.63-19.19,11.75-17.75,6,3.11,27.1,7.67,43.89,9.35Z"/><path class="cls-4" d="M3239,2097.54c0,6.24-12.47,36-80.35,191.89-24.71,56.6-63.08,145.83-85.39,197.88s-42.22,98.1-44.13,102.18l-3.36,7.67-15.11-3.11c-8.4-1.92-21.83-4.08-30-5-8.39-.72-15.11-2.16-15.11-2.64,0-1.44,116.57-272.48,154.71-359.3,18.95-43.66,39.58-94.51,39.58-98.11,0-8.87-9.36-11.51-170.3-50.61-30.94-7.43-57.09-14.39-58.29-15.35-1-1,2.4-10.79,7.44-22.06,5.28-11,10.07-22.07,11-24.47,1-2.88,2.88-3.84,5.52-3.12,2.4.72,9.11,2.4,15.11,3.6,6,1.44,66,16.07,133.12,32.62,115.61,28.3,122.81,30.46,129,37.18C3236.11,2090.83,3239,2095.62,3239,2097.54Z"/><path class="cls-5" d="M2093.68,3502.14c-8.4,3.36-54.93,2.16-78.2-1.68-42.45-7.43-86.35-26.38-119.69-51.81-23-17.51-43.41-36.45-37.17-34.3,2.63,1,29.74,10.8,60,22.07,54.93,20.15,152.07,54.93,170.3,60.68C2097,3499.74,2097.75,3500.46,2093.68,3502.14Z"/><path class="cls-6" d="M3132.25,2711.82c0,22.78-7.91,36-30.94,51.56-9.11,6-17.27,12.72-18.47,14.88-1.44,2.39-.24,9.59,3.12,20.14,6.72,21.11,7,44.14.72,57.09-4.56,9.35-15.59,21.35-34.54,37.66l-10.31,8.87,1.92,13.91a234.3,234.3,0,0,1,2.16,29.74c-.24,21.11-11,43.66-27.11,56.85-23.5,18.95-24.46,20.39-24.46,36,0,55.17-21.35,80.83-90.19,108.17-23.27,9.12-51.57,17.75-53.25,16.07-1.2-1.43,26.63-66.2,28.54-66.2,1,0,4.08,3.36,7,7.2,8.4,12,24,7.68,20.63-5.76-1.68-7.19-32.14-35.73-45.09-42.45-7.2-3.6-19-6-39.1-8.16-15.83-1.67-33.1-4.31-38.38-5.75-38.14-10.56-53.73-44.38-32.14-70.52,9.12-11,16.79-13.19,57.57-16.07,65-4.56,107,6.48,135,35.74,7.67,7.91,15.83,9.59,20.62,3.84,5.28-6.48.48-14.64-17.27-28.79-35.26-28.06-55.4-33.1-128.32-31.9l-50.85.72-6.24-6c-18.46-17-19.66-46.78-2.87-63.57,10.31-10.31,29-16.79,61.88-21.58,43.41-6,84.19-7.2,105.3-2.64,23.26,4.79,48.21,17.27,65.24,32.38,13.91,12.47,20.62,14.87,25.9,8.87,5.52-6.71,1.44-14.15-14.39-27.1-18.47-14.87-43.65-28.06-63.56-33.1-21.59-5.52-62.6-6.72-97.14-2.88-34.78,4.08-38.14,3.12-47.25-15.11-13.92-26.86-.25-55.17,31.42-65.72,24.94-8.4,72.43-13.91,108.17-12.71,50.85,1.92,81.31,12.23,109.86,37.89,14.15,12.48,23.74,15.12,27.58,7.44,3.36-6,0-12.71-11.27-22.79-27.35-24.7-54.21-36.45-95.95-42.45s-68.36-34.54-60.2-64.76c4.56-17.27,25.18-30.46,48-30.94,4.8-.24,17.27,1,28.3,2.15,51.81,6.48,98.82,25.19,125.21,49.66C3127,2679.91,3132,2690.23,3132.25,2711.82Z"/><path class="cls-6" d="M1669.13,1704.9c0,25.42-15.83,34.3-133.12,74.83-29.74,10.32-68.84,24-87.07,30.47l-32.86,12-18.71-4.32a164.65,164.65,0,0,0-34.54-4.56c-13.91,0-16.07.72-17.51,4.8-3.11,10.07.48,13.91,15.12,15.59,37.89,3.84,70.75,16.55,88,33.58,12.23,12.47,22.79,35.26,22.79,49.65,0,12.71-.48,13-13,7.92a200.12,200.12,0,0,0-24-7.2c-18.71-4.32-27.82-2.16-27.82,7,0,7.91,3.36,9.83,23.74,14.39,37.42,8.15,67.16,30.46,75.8,56.36,3.84,12,5.51,38.14,2.64,42.94-1,1.68-6.72.24-16.55-4.56-18-8.39-26.39-8.87-31.43-1.68s-.71,13.67,12,17.51c24.94,7.44,45.81,24.47,56.36,45.57,4.56,9.6,5.76,15.6,5.76,30,0,15.59-1.2,20.38-8.63,36.21-11,23.27-34.78,50.13-61.65,70.52-29,21.83-48.45,28.79-64,22.79l-6.48-2.4,19-21.11c10.32-11.51,24.71-27.82,31.9-36.22s16.55-16.79,20.87-18.46c9.84-4.32,13.91-11,10.32-17.75-7-13.2-28.31-1.2-58.53,33.34-34.06,38.85-75.55,77.23-103.62,96.18-30.46,20.39-49.65,30.22-89.7,46.77l-30,12.47L1180.3,2370c-7.67,12.47-17,27.58-20.86,33.82l-7.2,11.51-64-42.69c-55.65-36.94-156.15-102.66-200.28-130.72-7.68-4.8-13.91-9.6-13.91-10.56,0-.72,4.79-9.11,10.55-18.47,25.19-40.77,27.34-48.93,31.42-119.2,3.6-62.85,6.72-84.91,20.63-144.4,17.51-76.51,21.59-113,16.79-155-3.84-32.14-9.6-54.44-23.27-88.26-6-15.11-10.55-29.74-10.07-32.62s4.56-7.68,9.11-10.8c7.44-5,10.32-5.51,25.67-4.79,12,1,20.87,3.11,30.22,7.67,25.66,12.47,48.93,39.1,65,73.88,10.07,21.58,14.63,37.18,23,78l6.47,32.14-19.9,17.27c-10.8,9.36-20.39,19-21.35,21.11-2.16,6,1.2,11.75,7.43,13.19,4.8,1.2,8.88-1.2,21.59-12.47,40.78-36.22,56.61-47.73,104.1-76.28,39.09-23.5,69.08-36.93,126.16-56.6,105.54-36,240.82-70.76,308.94-79.15,29.5-3.84,45.33-1,55.64,9.83C1667.93,1692.43,1669.13,1695.78,1669.13,1704.9Z"/><path class="cls-6" d="M1729.33,1200.48c-12-136.24-23.74-228.1-41.25-321.41-17.51-93.78-32.86-146.79-57.33-198.6-3.59-7.43-7.19-13.67-8.15-13.43-.72,0-8.4,3.36-17,7.2C1554,698,1479.16,716.69,1398.09,726c-30.94,3.36-56.84,4.32-134.32,4.32-132.4,0-201.48-6.71-355.7-34.06l-7.92-1.44,6.24,9.36c21.34,30.94,28.3,56.12,27.1,94.5-1.2,35.5-5.76,49.89-35,109.14-25.66,52-28.54,62.36-24.46,89.46,5.51,36.22,23.74,97.86,43.41,147.27,10.07,25.43,11,36,4.32,44.38-7.92,9.11-62.84,29.5-80.35,29.5-16.55,0-24.23-12.23-52.53-82.75-12.24-30.7-12.71-31.18-24.23-37.66-24-13.19-60.92-18.47-91.38-13.19-30,5.52-48.93,15.59-71.48,38.62-22.79,23-34.3,43.89-42.21,77-7.2,30-5.52,74.12,3.59,105.06,23.27,78.43,84.67,134.8,161,148.23,24.22,4.08,63.8,1.92,84.67-5,19.66-6.47,25.18-5.27,26.38,5.76.72,5.52-.72,7-11.75,12.23l-12.72,5.76.72,45.09c1,78.19-7.67,188.53-22.54,288.55l-8.16,54,9.36,19.18c11.51,23.27,27.82,45.58,51.57,69.32,16.55,16.79,58,51.81,61.4,51.81,1,0,2.16-4.56,3.12-10.31,1-5.52,6-28.31,11.27-50.85,22.79-96.42,22.55-146.07-1.68-210.6-18-48.45-18.47-50.61-16.79-60.2,2.4-12.23,16.55-26.14,31.18-30.22,18.47-5,42.94-1.92,65,8.15,15.11,7,22.55,12.48,38.62,28.79s21.83,24.22,30.7,42.45c13.91,29,21.59,52.05,27.83,84.91,2.87,14.39,5.51,27.82,6,29.26.72,1.92,7.68-1.68,18.47-9.59,9.84-6.72,20.39-14.15,23.51-16.31l6-4.08L1128,1783.09c-29-30.46-54.92-66.68-54.92-77s7-9.12,41.49,8.39c34.3,17,73.88,31.42,102.18,37.18l15.59,3.12,62.36-20.87c113.7-38.14,275.84-78.91,313.74-78.91,8.63,0,21.1-12.23,46-45.09,39.1-51.57,63.08-112,74.83-188.77C1735.33,1382.53,1735.33,1266.92,1729.33,1200.48ZM781.42,1320.17c-7.43,2.88-11.75-1-21.11-19.19-30-58.28-80.35-99.3-122.08-99.3-5.76,0-11.52-1.2-13.19-2.88-4.32-4.32-3.6-13.19,1.43-16.07,5.76-3.36,16.08-3.12,33.58,1,47,11,91.15,51.09,120.17,108.9C788.38,1308.42,788.62,1317.29,781.42,1320.17ZM1097.07,964c-14.87,16.79-23.26,19.19-30.22,8.64-5.52-8.4-1.2-17.75,16.31-35.26a173.73,173.73,0,0,1,84.67-46.53c30.22-7,83.71-1.44,90.43,9.35,3.35,5.28,1.92,12.71-2.88,17.27-4.32,4.08-6.48,4.08-26.39,1.2C1177.42,911.21,1128.49,928,1097.07,964Zm78,159.75c0-18.71,1-23.27,6.71-35.26,4.08-8.16,9.84-15.59,14.39-18.47,24.47-15.83,53.49,7.43,61.65,49.41,3.83,19.19,1.44,37.66-6.72,54C1226.12,1222.31,1175,1189,1175,1123.73ZM1464.82,1517c-3.55,7-11.66,6.82-31.54-.86-57.18-21.54-123.43-28.28-184.11-17.89-12.69,2.09-24.3,3.6-25.67,3.28-4.92-1.17-7.82-9.33-5.25-15.44l2.23-6.29,26.22-4c31.2-4.85,84.14-4.87,116.42-.22,26.75,3.93,70,15.88,88.34,24.27C1464.46,1505.77,1468.06,1510.64,1464.82,1517ZM1549,1279.63c0,12.24-1.44,19.43-5.27,26.63-16.31,31.66-63.57,55.88-109.14,56.12-12.47,0-14.15-.48-16.55-6.23-4.56-10.08-.24-13.91,18.71-16.07,41-5,72.68-19.91,84-39.1,5.28-9.11,6.24-13,5.28-24.7-1-13.2-2.4-16.31-25.43-50.13-38.38-56.85-54.45-95-64-150.15-4.08-24.47-4.8-61.89-1.2-68.84,2.88-5,12-6,16.31-1.68,1.92,1.92,2.88,11.27,2.88,26.14,0,29.26,5,59,15.83,90.67,10.31,31.18,20.15,49.65,45.57,87.07C1546.56,1254.45,1549.2,1259.73,1549,1279.63Zm75.32-179.17c-1.2,19.67-5.28,30.7-15.83,41.74-20.87,22.3-50.37,6-62.13-33.82-8.87-30.47,1.68-70.28,20.87-79.88,10.08-5.27,14.39-5.27,25-1C1612,1035.94,1626.2,1067.84,1624.28,1100.46Zm24.29-246.86c-6.74,12.09-21.29,27.34-35.69,37.66-29.83,21.2-68.69,30.58-100.93,24.44-15-3.09-19.35-6.26-19.76-14.94-.53-10.51,6.31-14.54,20-11.88,38,7.46,80.47-9.66,107-43.7,12.18-15.66,18.49-19.69,24.75-15.35C1651.84,835.23,1653.54,844.34,1648.57,853.6Z"/><path class="cls-7" d="M899.43,2033.74c-.72,4.8-2.16,21.83-3.12,37.9-.72,17.27-2.4,29.5-3.83,29.5-3.84,0-44.14-25.66-65.25-41.49-27.34-20.63-70.75-63.81-90.9-90.67-9.6-12.47-24.71-36.94-33.34-54.21l-15.83-31.18L720,1871.36c18-6.72,34.3-12.23,35.74-12.23,1.68-.24,3.84,2.63,4.55,6.23,2.88,12.23,19.91,42.46,35.5,63.08,19.19,25.43,59.73,65,85.63,83C900.63,2025.11,900.87,2025.11,899.43,2033.74Z"/><path class="cls-5" d="M2010,2251.53c-21.83-48.21-56.13-101.7-92.59-143.91-80.83-93.31-199.56-159.51-385.21-213.95-24.7-7.2-45.33-13-45.57-12.48-.24.24,1,6.48,2.88,13.67a83,83,0,0,1,2.4,29.27l-1.2,16.31,13.19,12.23c18.47,17.75,25.66,33.58,26.86,61.16.72,13.44,0,25.43-1.92,30.71-2.63,8.39-2.39,9.11,5,17.5,25.43,29,30.22,71.48,12.23,107.46-18.23,36.94-65.24,83.47-101.22,100.5-19.66,9.35-43.41,10.31-58.52,2.4l-9.59-5-15.36,13.19c-31.9,26.87-86.82,58.53-131.68,75.8l-21.1,8.15-19.67,30.94c-11,16.79-19.91,31.19-19.91,31.91s5.28,4.79,11.51,9.11c19.67,12.95,31.66,24.47,31.66,29.74,0,2.88-13.91,31.66-30.94,64-53.49,102.42-99.3,189.25-126.64,240.1-14.39,27.1-37.18,69.56-50.37,94.74-2.86,5.38-5.69,10.72-8.61,16.24-.53,1-1.08,2.06-1.63,3.1-1.06,2-2.11,4-3.19,6-.36.67-.72,1.34-1.08,2-1.11,2.06-2.21,4.15-3.36,6.31s-2.47,4.67-3.77,7.1c-.5.93-1,1.89-1.51,2.85q-2.29,4.35-4.75,8.95l-2.2,4.17,205-383.58,16.17-9.06a15.32,15.32,0,0,1,14.65,0l426.16,229.93a15.51,15.51,0,0,1,7.22,8.39,14.17,14.17,0,0,1-9.21,18.42l-39.94,12.62-45.84,14-64.81,20.56a14.07,14.07,0,0,0-10,14l2.35,67.76a14,14,0,0,1-2.28,8.06c-4.39,6.76-13.67,8.56-20.75,4a167.81,167.81,0,0,0-38.4-18.37,173.52,173.52,0,0,0-72.61-8.18,163.7,163.7,0,0,0-68.09,22.35,156.63,156.63,0,0,0-50.2,48.72,6.41,6.41,0,0,1-2.52,2.32,6.14,6.14,0,0,1-3.41.84,6.6,6.6,0,0,1-3.48-.84,7.07,7.07,0,0,1-2.66-2.32,168.66,168.66,0,0,0-52.86-48,172.75,172.75,0,0,0-106.47-22.48c-26.34,2.9-57.74,8.78-79.35,23.27-3.19,6-6.57,12.35-10.22,19.21-.81,1.56-1.65,3.12-2.49,4.73s-1.68,3.16-2.57,4.77c-1,1.94-2.06,3.91-3.14,5.92-.53,1-1.08,2-1.63,3.07l-3.36,6.34c-6.28,11.84-13.29,25-21.15,39.76-1.4,2.67-2.86,5.4-4.35,8.18,0,0,0,0,0,0-1.58,3-3.19,6-4.84,9.11-5.78,10.89-12,22.55-18.69,35.12-101,189.48-128.32,232.9-190.68,302.22C613,3470.72,480.88,3518.69,357.6,3490.87c-9.12-2.16-16.79-3.36-17.51-2.88-.48.72-1.68,19.43-2.4,41.73-1,22.31-6.38,148.88-7.58,151H1802.2c-3.24-5.3-7-100.9-12.66-105-3.36-2.88-4.08-12.24-5.28-79.87-.72-42.22-1.92-84.43-2.64-93.55l-1.2-16.79-49.65-18c-98.34-35.26-142.23-52.29-147.27-56.6-12.23-11-17-34.06-10.55-51.33,1.92-4.56,22.3-51.09,45.81-103.14,23.27-52.05,48.21-107.7,55.17-123.53s17.75-39.57,24-52.77c6-13.19,26.15-57.08,44.62-97.62l33.58-73.63-2.64-115.85c-2.64-124.73-8.16-268.64-12.23-327.65-2.64-39.81-1.92-43.65,8.87-43.65a8.07,8.07,0,0,1,7.91,5.28c4.32,12,16.79,298.38,17.27,394.08V2762l10.8-22.79c6-12.47,17.75-38.38,26.14-57.57s25.67-57.56,38.38-85.15c12.71-27.82,30-65.48,38.38-84s24.46-54.2,36-79.15c18.47-40.29,43.66-95.46,66.44-145.83l7.44-16.07ZM1459.38,3319.61a346.68,346.68,0,0,1-36.73,39.24q-77.82,70.92-162,134.73c-14.2,10.67-34.2,10.67-49.12,0q-88.69-63.75-171.19-134.56a385.24,385.24,0,0,1-39.77-39.5,13.37,13.37,0,0,1-3.31-8.3,12.78,12.78,0,0,1,13-13.22l55.31,0a14.1,14.1,0,0,0,5.85-.65,13.75,13.75,0,0,0,4.8-2.68l1.17-1.42c1.61-3.38,3.24-6.52,4.83-9.69l50.37-102.68a11.54,11.54,0,0,1,8.37-6.26,12.57,12.57,0,0,1,14.41,9.52q19.55,88.11,39.07,176.44a11.11,11.11,0,0,0,2.09,4.82,13.47,13.47,0,0,0,6.84,4.41,12.67,12.67,0,0,0,8.37-.84,9.59,9.59,0,0,0,1.25-.69,14.79,14.79,0,0,0,2.54-2.4,13.23,13.23,0,0,0,1.72-2.5l104.37-187.16a12.46,12.46,0,0,1,7.46-5.87,13.68,13.68,0,0,1,16.62,8.73L1382.93,3290a13.48,13.48,0,0,0,4.75,6.1,12.64,12.64,0,0,0,7.15,1.82c4.51,0,24.27,0,53.18,0a14.29,14.29,0,0,1,8.7,3A13.24,13.24,0,0,1,1459.38,3319.61Zm37.13-111a31,31,0,0,1-28.67,18.09l-44.56,0a27.87,27.87,0,0,1-26.48-19.21c-6.81-21-13.41-42.12-20-63q-12.81-40.41-25.5-80.83a13.77,13.77,0,0,0-2.35-5.47,14,14,0,0,0-4.65-4,12.73,12.73,0,0,0-8.81-.81,11.32,11.32,0,0,0-6.93,5.28l-98.15,177.63a15.78,15.78,0,0,1-11.1,7.87,17.15,17.15,0,0,1-19.67-13l-37.27-169a12.78,12.78,0,0,0-1.35-3.69,13.58,13.58,0,0,0-2.42-3.14,11.27,11.27,0,0,0-5.68-2.86,12.82,12.82,0,0,0-6.22.43,12.06,12.06,0,0,0-6.28,5.47c-4.13,7.2-34.2,69.27-75.2,154a26,26,0,0,1-23.57,14.34l-55.27,0A34.09,34.09,0,0,1,956,3208a207.53,207.53,0,0,1-21.18-76.7l-.36-10.32c-2.54-73.47,63.06-137.29,146.79-137.34a162.79,162.79,0,0,1,83.69,23.77,158.37,158.37,0,0,1,56.89,58.07,144.2,144.2,0,0,1,54.81-59.2,155.87,155.87,0,0,1,80.14-22.54c83.73,0,154,63.68,156.5,137.15l.22,5.15c0,.34,0,.67,0,1C1513.92,3130.92,1516.51,3163.46,1496.51,3208.65Z"/><path class="cls-1" d="M1459.38,3319.61a346.68,346.68,0,0,1-36.73,39.24q-77.82,70.92-162,134.73c-14.2,10.67-34.2,10.67-49.12,0q-88.69-63.75-171.19-134.56a385.24,385.24,0,0,1-39.77-39.5,13.37,13.37,0,0,1-3.31-8.3,12.78,12.78,0,0,1,13-13.22l55.31,0a14.1,14.1,0,0,0,5.85-.65,13.75,13.75,0,0,0,4.8-2.68l1.17-1.42c1.61-3.38,3.24-6.52,4.83-9.69l50.37-102.68a11.54,11.54,0,0,1,8.37-6.26,12.57,12.57,0,0,1,14.41,9.52q19.55,88.11,39.07,176.44a11.11,11.11,0,0,0,2.09,4.82,13.47,13.47,0,0,0,6.84,4.41,12.67,12.67,0,0,0,8.37-.84,9.59,9.59,0,0,0,1.25-.69,14.79,14.79,0,0,0,2.54-2.4,13.23,13.23,0,0,0,1.72-2.5l104.37-187.16a12.46,12.46,0,0,1,7.46-5.87,13.68,13.68,0,0,1,16.62,8.73L1382.93,3290a13.48,13.48,0,0,0,4.75,6.1,12.64,12.64,0,0,0,7.15,1.82c4.51,0,24.27,0,53.18,0a14.29,14.29,0,0,1,8.7,3A13.24,13.24,0,0,1,1459.38,3319.61Z"/><path class="cls-1" d="M1496.51,3208.65a31,31,0,0,1-28.67,18.09l-44.56,0a27.87,27.87,0,0,1-26.48-19.21c-6.81-21-13.41-42.12-20-63q-12.81-40.41-25.5-80.83a13.77,13.77,0,0,0-2.35-5.47,14,14,0,0,0-4.65-4,12.73,12.73,0,0,0-8.81-.81,11.32,11.32,0,0,0-6.93,5.28l-98.15,177.63a15.78,15.78,0,0,1-11.1,7.87,17.15,17.15,0,0,1-19.67-13l-37.27-169a12.78,12.78,0,0,0-1.35-3.69,13.58,13.58,0,0,0-2.42-3.14,11.27,11.27,0,0,0-5.68-2.86,12.82,12.82,0,0,0-6.22.43,12.06,12.06,0,0,0-6.28,5.47c-4.13,7.2-34.2,69.27-75.2,154a26,26,0,0,1-23.57,14.34l-55.27,0A34.09,34.09,0,0,1,956,3208a207.53,207.53,0,0,1-21.18-76.7l-.36-10.32c-2.54-73.47,63.06-137.29,146.79-137.34a162.79,162.79,0,0,1,83.69,23.77,158.37,158.37,0,0,1,56.89,58.07,144.2,144.2,0,0,1,54.81-59.2,155.87,155.87,0,0,1,80.14-22.54c83.73,0,154,63.68,156.5,137.15l.22,5.15c0,.34,0,.67,0,1C1513.92,3130.92,1516.51,3163.46,1496.51,3208.65Z"/><path class="cls-1" d="M1634.14,2786l-39.94,12.62-45.84,14-64.81,20.56a14.07,14.07,0,0,0-10,14l2.35,67.76a14,14,0,0,1-2.28,8.06c-4.39,6.76-13.67,8.56-20.75,4a167.81,167.81,0,0,0-38.4-18.37,173.52,173.52,0,0,0-72.61-8.18,163.7,163.7,0,0,0-68.09,22.35,156.63,156.63,0,0,0-50.2,48.72,6.41,6.41,0,0,1-2.52,2.32,6.14,6.14,0,0,1-3.41.84,6.6,6.6,0,0,1-3.48-.84,7.07,7.07,0,0,1-2.66-2.32,168.66,168.66,0,0,0-52.86-48,172.75,172.75,0,0,0-106.47-22.48c-26.34,2.9-57.74,8.78-79.35,23.27l1.3-2.45,205-383.58,16.17-9.06a15.32,15.32,0,0,1,14.65,0l426.16,229.93a15.51,15.51,0,0,1,7.22,8.39A14.17,14.17,0,0,1,1634.14,2786Z"/><path class="cls-5" d="M1188.22,2470.28c0,1-7.2,15.11-15.83,31.66-8.88,16.31-32.62,61.64-53.25,100.5-62.12,118-74.84,142-119,225.47-86.11,162.14-95.94,180.85-153.27,286.62-42.93,79.88-55.64,101.7-82,141.52-67.88,103.14-138.4,166.46-223.06,200-70.76,28.06-157.59,27.58-230-1.44-74.35-29.5-135.28-83-178.21-156.15-32.14-54.44-57.09-121.84-71.72-193.08C16,2881.87,7.41,2581.09,41.71,2408.16c26.62-133.84,70.27-222.59,144.15-293.83,29.74-28.78,56.37-48.21,92.1-67.88,34.54-19.18,61.89-30.7,181.1-76,54.68-20.87,122.8-47,151.1-57.81,28.31-11,53.25-19.9,55.17-19.9,2.16-.24,6,6,10.32,16.31,7.43,18.47,26.38,49.65,46.53,77,31.18,41.74,91.38,94,144.87,125l26.38,15.35-1.19,13.91a109.2,109.2,0,0,1-6.72,26.38c-4.56,10.56-26.62,51.09-29.5,54-.48.48-8.16-3.6-17.27-8.88-9.12-5.51-18.71-9.83-21.35-9.83-3.6,0-19.91,19.91-60.92,74.84-81.55,108.89-142.48,189-143.2,188-.48-.48-3.6-19.19-6.71-42-6.48-43.18-16.55-100.74-20.63-115.85-2.64-10.56-12-14.87-18.23-8.4-3.36,3.36-2.88,8.4,5,52.53,9.83,55.41,17,103.86,19.19,126.65l1.43,15.59-38.61,51.57c-53.49,71-121.61,160.7-138.16,182.29-7.67,9.83-16.55,19.18-19.91,20.62-3.36,1.68-16.31,7.68-28.78,13.68-47.25,22.54-93.3,59.48-122.33,97.86-14.63,19.43-16.79,25.18-11.51,30.46,6.48,6.47,13.43,3.12,23.27-11,11.51-17,46.53-51.09,67.4-65.73,18.94-13.19,43.17-27.1,43.17-24.46,0,1-5.76,9.35-12.71,18.71-30.7,41-67.88,104.34-85.87,146.55-11,26.38-12.95,38.62-6.24,42.93,7,4.56,12-1.19,22.31-26.38,23.51-57.57,65.24-125,122.81-198.84,11.27-14.63,27.58-35.5,36.21-46.77s35-45.82,58.77-76.76c47.49-61.88,93.3-122.56,228.58-302.7l89.47-119.2,19.91,12.23C965.63,2315.09,1188.22,2463.8,1188.22,2470.28Z"/><path d="M1648.57,853.6c-6.74,12.09-21.29,27.34-35.69,37.66-29.83,21.2-68.69,30.58-100.93,24.44-15-3.09-19.35-6.26-19.76-14.94-.53-10.51,6.31-14.54,20-11.88,38,7.46,80.47-9.66,107-43.7,12.18-15.66,18.49-19.69,24.75-15.35C1651.84,835.23,1653.54,844.34,1648.57,853.6Z"/><path d="M1255.38,917.45c-4.32,4.08-6.48,4.08-26.39,1.2-51.57-7.44-100.5,9.35-131.92,45.33-14.87,16.79-23.26,19.19-30.22,8.64-5.52-8.4-1.2-17.75,16.31-35.26a173.73,173.73,0,0,1,84.67-46.53c30.22-7,83.71-1.44,90.43,9.35C1261.61,905.46,1260.18,912.89,1255.38,917.45Z"/><path d="M1549,1279.63c0,12.24-1.44,19.43-5.27,26.63-16.31,31.66-63.57,55.88-109.14,56.12-12.47,0-14.15-.48-16.55-6.23-4.56-10.08-.24-13.91,18.71-16.07,41-5,72.68-19.91,84-39.1,5.28-9.11,6.24-13,5.28-24.7-1-13.2-2.4-16.31-25.43-50.13-38.38-56.85-54.45-95-64-150.15-4.08-24.47-4.8-61.89-1.2-68.84,2.88-5,12-6,16.31-1.68,1.92,1.92,2.88,11.27,2.88,26.14,0,29.26,5,59,15.83,90.67,10.31,31.18,20.15,49.65,45.57,87.07C1546.56,1254.45,1549.2,1259.73,1549,1279.63Z"/><path d="M1624.28,1100.46c-1.2,19.67-5.28,30.7-15.83,41.74-20.87,22.3-50.37,6-62.13-33.82-8.87-30.47,1.68-70.28,20.87-79.88,10.08-5.27,14.39-5.27,25-1C1612,1035.94,1626.2,1067.84,1624.28,1100.46Z"/><path d="M1251.06,1173.38c-24.94,48.93-76,15.59-76-49.65,0-18.71,1-23.27,6.71-35.26,4.08-8.16,9.84-15.59,14.39-18.47,24.47-15.83,53.49,7.43,61.65,49.41C1261.61,1138.6,1259.22,1157.07,1251.06,1173.38Z"/><path d="M781.42,1320.17c-7.43,2.88-11.75-1-21.11-19.19-30-58.28-80.35-99.3-122.08-99.3-5.76,0-11.52-1.2-13.19-2.88-4.32-4.32-3.6-13.19,1.43-16.07,5.76-3.36,16.08-3.12,33.58,1,47,11,91.15,51.09,120.17,108.9C788.38,1308.42,788.62,1317.29,781.42,1320.17Z"/><path d="M1464.82,1517c-3.55,7-11.66,6.82-31.54-.86-57.18-21.54-123.43-28.28-184.11-17.89-12.69,2.09-24.3,3.6-25.67,3.28-4.92-1.17-7.82-9.33-5.25-15.44l2.23-6.29,26.22-4c31.2-4.85,84.14-4.87,116.42-.22,26.75,3.93,70,15.88,88.34,24.27C1464.46,1505.77,1468.06,1510.64,1464.82,1517Z"/><path d="M2728.34,1837.3c-37.42,8.63-51.09,59-23,83.71,26.86,23.5,72.92,1.68,77.23-36.7C2785.9,1855.77,2757.12,1830.82,2728.34,1837.3Zm32.62,45.09c-3.12,28.55-42,38.86-49.89,12.95-2.4-8.63-2.16-10.79,2.39-20.38,9.12-19,30.71-23.75,43.18-9.84C2761.2,1870.64,2761.92,1873.52,2761,1882.39Z"/><path d="M2474.28,31.86a246.58,246.58,0,0,0-39.14,4.86C2362.06,51.8,2293.32,100.53,2248,169.39c-14.23,21.62-26.71,47.64-23.3,73.55s30.11,46.69,50.21,32.46c16.41-11.63,18.76-36.86,24.31-57.78,11-41.57,40.92-74.8,74.43-96,68.59-43.46,156-40.86,219,5.86,27.57,20.45,51,49.59,61,85.68s4.8,79.46-17.85,109.13c-31,40.67-82.89,45.8-126.56,65.23-36.4,16.2-79.65,66-103.77,101.56-25.44,37.5-21.5,119.27,20.74,83.65,15-12.69,52-75,64-91.44,46-62.84,134.46-53.39,190.08-105.06,39.47-36.67,55-100.41,45.12-155.38s-42.15-101.12-81.79-133A252.53,252.53,0,0,0,2474.28,31.86Z"/><path d="M2353.08,632c-14.45,8-25.91,32.88-20.92,46.34,15.94,44.84,80.21,39.36,89.18-7.48,2.49-13.45.5-18.43-12-31.39C2392.44,623,2374.51,620.53,2353.08,632Z"/><line class="cls-8" x1="330.11" y1="3680.76" x2="314.93" y2="3680.76"/><line class="cls-8" x1="1802.75" y1="3680.76" x2="1802.2" y2="3680.76"/></g></g></svg>