<svg width="815" height="945" viewBox="0 0 815 945" fill="none" xmlns="http://www.w3.org/2000/svg">
<g opacity="0.54">
<path d="M556.617 745.679C554.641 744.183 553.16 742.119 552.367 739.759L515.556 613.604C515.33 612.825 514.881 612.13 514.267 611.605C513.652 611.08 512.898 610.749 512.098 610.652C511.298 610.555 510.488 610.697 509.767 611.06C509.046 611.422 508.447 611.991 508.044 612.694L393.011 812.779L392.91 812.914C391.748 814.311 390.32 815.458 388.71 816.288C386.252 817.475 383.461 817.767 380.813 817.114C378.322 816.396 376.124 814.895 374.538 812.83C373.55 811.44 372.923 809.822 372.715 808.124C360.924 742.992 349.122 677.933 337.309 612.947C337.193 612.295 336.877 611.696 336.406 611.235C335.934 610.773 335.332 610.472 334.682 610.374C334.033 610.275 333.369 610.384 332.784 610.685C332.198 610.986 331.722 611.464 331.42 612.053L269.628 733.4C267.955 736.453 266.382 739.523 264.759 742.795L263.605 744.161L263.487 744.262C262.145 745.439 260.58 746.329 258.886 746.877C257.128 747.477 255.261 747.684 253.415 747.484H184.579C183.771 747.487 182.979 747.713 182.29 748.137C181.601 748.562 181.04 749.169 180.669 749.893C180.298 750.616 180.131 751.429 180.186 752.241C180.241 753.054 180.516 753.835 180.982 754.501C194.747 773.459 210.4 790.946 227.698 806.69C277.894 852.492 330.131 896.005 384.41 937.23C391.075 942.275 399.183 945.002 407.517 945.002C415.851 945.002 423.96 942.275 430.624 937.23C484.792 896.005 537.052 852.514 587.404 806.758C604.643 791.068 620.245 773.643 633.969 754.754C634.446 754.073 634.727 753.274 634.782 752.443C634.837 751.611 634.664 750.781 634.282 750.042C633.9 749.304 633.324 748.685 632.617 748.255C631.909 747.825 631.098 747.599 630.272 747.602C593.98 747.754 568.363 747.754 563.343 747.754C560.939 747.804 558.582 747.077 556.617 745.679Z" fill="#4ED0A4" fill-opacity="0.2"/>
<path d="M680.468 575.822C680.468 504.573 616.468 442.701 537.693 442.701C510.802 442.915 484.475 450.494 461.529 464.63C438.823 478.434 420.327 498.277 408.069 521.98C396.179 498.831 378.325 479.336 356.384 465.54C333.069 450.598 306.04 442.599 278.412 442.465C199.621 442.465 135.822 504.32 135.822 575.586V585.589C137.026 616.199 145.22 646.117 159.765 673.014C160.664 674.611 161.969 675.938 163.545 676.857C165.121 677.776 166.913 678.255 168.734 678.243H242.606C244.5 678.235 246.355 677.7 247.967 676.697C249.579 675.694 250.885 674.262 251.742 672.559C295.245 586.196 327.354 522.166 331.704 514.98C333.064 512.552 335.216 510.675 337.795 509.667C339.685 509.022 341.708 508.883 343.668 509.262C345.642 509.597 347.471 510.519 348.922 511.91C349.798 512.802 350.532 513.827 351.097 514.946C351.65 516.075 352.034 517.28 352.234 518.522L386.719 709.668C386.939 710.784 387.491 711.806 388.302 712.597C389.114 713.387 390.145 713.909 391.259 714.093C392.373 714.276 393.515 714.112 394.534 713.623C395.553 713.134 396.399 712.342 396.959 711.355L508.73 515.098C510.24 512.613 512.634 510.803 515.423 510.038C518.217 509.26 521.197 509.555 523.789 510.864C525.482 511.818 526.94 513.144 528.055 514.744C529.106 516.345 529.797 518.159 530.08 520.057C537.174 546.191 544.297 572.325 551.447 598.459C557.989 622.394 564.648 646.734 571.258 670.737C571.847 672.894 573.122 674.796 574.887 676.152C576.652 677.508 578.81 678.243 581.029 678.243C602.965 678.328 624.917 678.092 646.853 678.243C648.699 678.255 650.514 677.763 652.105 676.818C653.696 675.874 655.003 674.513 655.889 672.88C682.493 622.833 680.886 585.673 680.585 581.54C680.585 581.22 680.585 580.899 680.585 580.562L680.468 575.822Z" fill="#4ED0A4" fill-opacity="0.2"/>
<path d="M767.124 263.211L805.106 251.016C807.732 250.175 810.057 248.578 811.795 246.423C813.533 244.268 814.608 241.648 814.889 238.885C815.17 236.122 814.644 233.336 813.375 230.87C812.107 228.405 810.152 226.366 807.75 225.006L414.228 1.8279C412.112 0.629489 409.727 0 407.301 0C404.874 0 402.489 0.629489 400.373 1.8279L7.16927 224.652C4.77891 226.019 2.83512 228.058 1.57514 230.521C0.315167 232.983 -0.206494 235.762 0.0738322 238.518C0.354158 241.274 1.42434 243.889 3.15377 246.042C4.8832 248.196 7.19706 249.795 9.81294 250.645L152.253 296.694C155.093 297.612 157.572 299.411 159.336 301.835C161.1 304.258 162.059 307.182 162.075 310.188V376.141C162.08 378.717 162.778 381.243 164.095 383.45C165.412 385.658 167.299 387.464 169.553 388.675C171.808 389.887 174.346 390.459 176.898 390.332C179.45 390.204 181.92 389.38 184.044 387.949C208.965 371.242 238.082 362.02 268.002 361.357C297.923 360.694 327.414 368.617 353.038 384.204C372.328 395.933 388.793 411.834 401.244 430.759C401.842 431.709 402.679 432.483 403.67 433.003C404.667 433.544 405.783 433.828 406.916 433.828C408.049 433.828 409.164 433.544 410.162 433.003C411.149 432.479 411.985 431.706 412.588 430.759C425.258 411.496 442.031 395.324 461.685 383.422C481.339 371.519 503.378 364.186 526.199 361.955C549.187 359.56 572.416 362.278 594.248 369.917C606.853 374.267 618.831 380.28 629.871 387.797C631.998 389.259 634.48 390.107 637.05 390.252C639.62 390.396 642.181 389.83 644.455 388.615C646.73 387.4 648.632 385.582 649.957 383.357C651.282 381.132 651.98 378.584 651.974 375.989V310.357C651.992 307.349 652.953 304.423 654.72 301.999C656.487 299.576 658.97 297.777 661.812 296.863L723.453 276.992L767.124 263.211Z" fill="#4ED0A4" fill-opacity="0.2"/>
</g>
</svg>
