<svg width="806" height="928" viewBox="0 0 806 928" fill="none" xmlns="http://www.w3.org/2000/svg">
<path d="M550.344 731.735C548.392 730.268 546.928 728.246 546.145 725.933L509.778 602.285C509.549 601.523 509.102 600.845 508.492 600.334C507.882 599.823 507.137 599.501 506.346 599.408C505.556 599.315 504.756 599.454 504.044 599.81C503.332 600.166 502.74 600.721 502.34 601.409L388.71 797.477L388.61 797.625C387.457 798.988 386.047 800.111 384.461 800.932C382.028 802.083 379.274 802.363 376.659 801.725C374.195 801.028 372.022 799.555 370.46 797.526C369.493 796.164 368.875 794.587 368.658 792.931C357.01 729.09 345.356 665.327 333.696 601.641C333.583 600.998 333.27 600.407 332.802 599.952C332.334 599.497 331.734 599.201 331.089 599.106C330.443 599.011 329.784 599.121 329.204 599.422C328.625 599.723 328.155 600.198 327.861 600.781L266.814 719.717C265.161 722.726 263.607 725.718 262.004 728.925L260.863 730.264L260.764 730.363C259.434 731.519 257.881 732.391 256.202 732.925C254.472 733.522 252.631 733.725 250.813 733.52H182.806C182.007 733.52 181.223 733.739 180.539 734.154C179.856 734.569 179.299 735.164 178.931 735.873C178.562 736.583 178.396 737.38 178.45 738.178C178.504 738.976 178.775 739.743 179.236 740.397C192.814 758.977 208.256 776.121 225.323 791.559C274.914 836.444 326.528 879.082 380.163 919.471C386.747 924.415 394.758 927.088 402.992 927.088C411.225 927.088 419.236 924.415 425.82 919.471C479.335 879.071 530.959 836.455 580.694 791.625C597.726 776.245 613.146 759.169 626.715 740.662C627.184 739.993 627.46 739.208 627.514 738.394C627.568 737.579 627.397 736.765 627.02 736.04C626.643 735.316 626.075 734.708 625.377 734.285C624.679 733.861 623.878 733.636 623.061 733.636C587.19 733.801 561.899 733.801 556.94 733.801C554.579 733.822 552.271 733.1 550.344 731.735Z" fill="#3B8173"/>
<path d="M672.719 565.257C672.719 495.433 609.49 434.799 531.648 434.799C505.094 434.981 479.09 442.381 456.418 456.206C433.96 469.729 415.659 489.174 403.521 512.409C391.797 489.784 374.214 470.723 352.607 457.214C329.575 442.566 302.871 434.727 275.575 434.601C197.75 434.601 134.719 495.234 134.719 565.059V574.861C135.895 604.845 143.973 634.153 158.325 660.505C159.209 662.075 160.497 663.379 162.055 664.283C163.613 665.187 165.384 665.657 167.185 665.646H240.2C242.07 665.642 243.903 665.121 245.495 664.141C247.088 663.161 248.379 661.76 249.226 660.092C292.205 575.456 323.927 512.707 328.241 505.648C329.567 503.265 331.692 501.427 334.242 500.458C336.106 499.813 338.107 499.671 340.044 500.045C342 500.38 343.812 501.289 345.251 502.656C346.106 503.53 346.825 504.527 347.383 505.615C347.93 506.721 348.309 507.902 348.507 509.12L382.593 696.443C382.79 697.548 383.322 698.566 384.118 699.357C384.914 700.149 385.935 700.675 387.042 700.865C388.148 701.055 389.286 700.899 390.3 700.418C391.315 699.937 392.156 699.155 392.71 698.178L503.034 505.83C504.523 503.393 506.889 501.618 509.646 500.871C512.404 500.104 515.349 500.387 517.911 501.665C519.578 502.575 521.008 503.865 522.085 505.43C523.162 506.995 523.855 508.791 524.11 510.674C531.119 536.296 538.156 561.907 545.22 587.507C551.699 610.98 558.262 634.817 564.792 658.357C565.379 660.467 566.64 662.328 568.383 663.656C570.125 664.984 572.254 665.706 574.445 665.713C596.117 665.713 617.805 665.547 639.476 665.713C641.301 665.721 643.095 665.235 644.666 664.306C646.238 663.378 647.529 662.042 648.403 660.439C674.686 611.394 673.099 574.977 672.818 570.944C672.801 570.619 672.801 570.293 672.818 569.968L672.719 565.257Z" fill="#3B8173"/>
<path d="M758.313 258.915L795.854 246.947C798.447 246.121 800.743 244.555 802.458 242.442C804.173 240.329 805.234 237.761 805.51 235.053C805.785 232.345 805.264 229.616 804.01 227.201C802.755 224.785 800.823 222.789 798.449 221.457L409.687 2.74277C407.595 1.56378 405.235 0.944336 402.835 0.944336C400.434 0.944336 398.074 1.56378 395.983 2.74277L7.51754 221.11C5.12902 222.437 3.18232 224.436 1.91849 226.859C0.654652 229.282 0.1292 232.022 0.407199 234.74C0.685199 237.459 1.75444 240.036 3.48252 242.153C5.21059 244.269 7.52159 245.833 10.1293 246.649L150.82 291.777C153.639 292.681 156.097 294.457 157.841 296.849C159.585 299.24 160.524 302.124 160.523 305.084V369.636C160.524 372.171 161.214 374.658 162.521 376.831C163.827 379.003 165.701 380.779 167.94 381.969C170.179 383.158 172.699 383.715 175.231 383.581C177.762 383.447 180.21 382.626 182.31 381.207C206.924 364.819 235.693 355.772 265.256 355.123C294.819 354.473 323.957 362.247 349.268 377.537C368.32 389.031 384.586 404.607 396.892 423.145C397.493 424.072 398.317 424.833 399.289 425.36C400.277 425.881 401.378 426.153 402.496 426.153C403.613 426.153 404.714 425.881 405.703 425.36C406.679 424.84 407.504 424.077 408.1 423.145C420.618 404.264 437.191 388.414 456.611 376.749C476.032 365.085 497.809 357.9 520.358 355.717C543.069 353.37 566.018 356.033 587.587 363.52C600.033 367.786 611.861 373.678 622.764 381.042C624.867 382.473 627.32 383.303 629.859 383.444C632.399 383.585 634.929 383.03 637.177 381.84C639.424 380.65 641.305 378.869 642.616 376.689C643.927 374.51 644.619 372.014 644.617 369.47V305.002C644.616 302.042 645.555 299.158 647.299 296.766C649.043 294.374 651.502 292.599 654.32 291.695L715.219 272.222L758.313 258.915Z" fill="#3B8173"/>
</svg>
