<svg width="1086" height="1086" viewBox="0 0 1086 1086" fill="none" xmlns="http://www.w3.org/2000/svg">
<g clip-path="url(#clip0_219_647)">
<path d="M1060.38 0H25.6222C11.4714 0 0 11.4714 0 25.6222V1060.38C0 1074.53 11.4714 1086 25.6222 1086H1060.38C1074.53 1086 1086 1074.53 1086 1060.38V25.6222C1086 11.4714 1074.53 0 1060.38 0Z" fill="url(#paint0_linear_219_647)"/>
<path d="M690.344 810.735C688.392 809.268 686.928 807.246 686.145 804.933L649.778 681.285C649.549 680.523 649.102 679.845 648.492 679.334C647.882 678.823 647.137 678.501 646.346 678.408C645.556 678.315 644.756 678.454 644.044 678.81C643.332 679.166 642.74 679.721 642.34 680.409L528.709 876.477L528.61 876.625C527.457 877.988 526.047 879.111 524.461 879.932C522.028 881.083 519.274 881.363 516.659 880.725C514.195 880.028 512.021 878.555 510.46 876.526C509.493 875.164 508.875 873.587 508.658 871.931C497.01 808.09 485.356 744.327 473.696 680.641C473.583 679.998 473.27 679.407 472.802 678.952C472.334 678.497 471.734 678.201 471.089 678.106C470.443 678.011 469.784 678.121 469.204 678.422C468.625 678.723 468.155 679.198 467.861 679.781L406.814 798.717C405.161 801.726 403.607 804.718 402.004 807.925L400.863 809.264L400.764 809.363C399.434 810.519 397.881 811.391 396.201 811.925C394.472 812.522 392.631 812.725 390.813 812.52H322.806C322.007 812.52 321.222 812.739 320.539 813.154C319.856 813.569 319.299 814.164 318.931 814.873C318.562 815.583 318.396 816.38 318.45 817.178C318.504 817.976 318.775 818.743 319.236 819.397C332.814 837.977 348.256 855.121 365.323 870.559C414.914 915.444 466.527 958.082 520.163 998.471C526.747 1003.41 534.758 1006.09 542.992 1006.09C551.225 1006.09 559.236 1003.41 565.82 998.471C619.335 958.071 670.959 915.455 720.694 870.625C737.726 855.245 753.146 838.169 766.715 819.662C767.183 818.993 767.46 818.208 767.514 817.394C767.567 816.579 767.397 815.765 767.02 815.04C766.643 814.316 766.075 813.708 765.377 813.285C764.679 812.861 763.878 812.636 763.061 812.636C727.19 812.801 701.899 812.801 696.94 812.801C694.579 812.822 692.271 812.1 690.344 810.735Z" fill="white"/>
<path d="M812.719 644.257C812.719 574.433 749.49 513.799 671.648 513.799C645.094 513.981 619.09 521.381 596.418 535.206C573.96 548.729 555.659 568.174 543.521 591.409C531.797 568.784 514.214 549.723 492.607 536.214C469.575 521.566 442.871 513.727 415.575 513.601C337.75 513.601 274.719 574.234 274.719 644.059V653.861C275.896 683.845 283.974 713.153 298.325 739.505C299.209 741.075 300.497 742.379 302.055 743.283C303.613 744.187 305.384 744.657 307.185 744.646H380.2C382.07 744.642 383.903 744.121 385.495 743.141C387.088 742.161 388.379 740.76 389.226 739.092C432.205 654.456 463.927 591.707 468.241 584.648C469.567 582.265 471.692 580.427 474.242 579.458C476.106 578.813 478.107 578.671 480.044 579.045C482 579.38 483.812 580.289 485.251 581.656C486.107 582.53 486.826 583.527 487.383 584.615C487.93 585.721 488.309 586.902 488.507 588.12L522.593 775.443C522.79 776.548 523.322 777.566 524.118 778.357C524.914 779.149 525.935 779.675 527.042 779.865C528.148 780.055 529.286 779.899 530.301 779.418C531.315 778.937 532.156 778.155 532.71 777.178L643.034 584.83C644.523 582.393 646.889 580.618 649.646 579.871C652.405 579.104 655.349 579.387 657.911 580.665C659.579 581.575 661.008 582.865 662.085 584.43C663.162 585.995 663.856 587.791 664.11 589.674C671.119 615.296 678.156 640.907 685.22 666.507C691.7 689.98 698.262 713.817 704.792 737.357C705.379 739.467 706.64 741.328 708.383 742.656C710.126 743.984 712.255 744.706 714.446 744.713C736.117 744.713 757.805 744.547 779.476 744.713C781.301 744.721 783.095 744.235 784.666 743.306C786.238 742.378 787.529 741.042 788.403 739.439C814.686 690.394 813.099 653.977 812.818 649.944C812.802 649.619 812.802 649.293 812.818 648.968L812.719 644.257Z" fill="white"/>
<path d="M898.313 337.915L935.854 325.947C938.447 325.121 940.743 323.555 942.458 321.442C944.173 319.329 945.234 316.761 945.51 314.053C945.785 311.345 945.264 308.616 944.01 306.201C942.755 303.785 940.823 301.789 938.449 300.457L549.687 81.7428C547.595 80.5638 545.235 79.9443 542.835 79.9443C540.434 79.9443 538.074 80.5638 535.983 81.7428L147.518 300.11C145.129 301.437 143.182 303.436 141.919 305.859C140.655 308.282 140.129 311.022 140.407 313.74C140.685 316.459 141.755 319.036 143.483 321.153C145.211 323.269 147.522 324.833 150.129 325.649L290.82 370.777C293.639 371.681 296.097 373.457 297.841 375.849C299.585 378.24 300.525 381.124 300.523 384.084V448.636C300.524 451.171 301.215 453.658 302.521 455.831C303.828 458.003 305.701 459.779 307.94 460.969C310.179 462.158 312.699 462.715 315.231 462.581C317.762 462.447 320.21 461.626 322.31 460.207C346.924 443.819 375.693 434.772 405.256 434.123C434.819 433.473 463.958 441.247 489.268 456.537C508.32 468.031 524.586 483.607 536.892 502.145C537.493 503.072 538.317 503.833 539.289 504.36C540.278 504.881 541.378 505.153 542.496 505.153C543.613 505.153 544.714 504.881 545.703 504.36C546.679 503.84 547.504 503.077 548.1 502.145C560.618 483.264 577.192 467.414 596.612 455.749C616.032 444.085 637.809 436.9 660.358 434.717C683.069 432.37 706.018 435.033 727.587 442.52C740.033 446.786 751.861 452.678 762.764 460.042C764.867 461.473 767.32 462.303 769.859 462.444C772.399 462.585 774.929 462.03 777.177 460.84C779.424 459.65 781.305 457.869 782.616 455.689C783.927 453.51 784.619 451.014 784.617 448.47V384.002C784.616 381.042 785.555 378.158 787.299 375.766C789.043 373.374 791.502 371.599 794.321 370.695L855.219 351.222L898.313 337.915Z" fill="white"/>
</g>
<defs>
<linearGradient id="paint0_linear_219_647" x1="0" y1="543.008" x2="1086" y2="543.008" gradientUnits="userSpaceOnUse">
<stop stop-color="#50B1AC"/>
<stop offset="1" stop-color="#66C499"/>
</linearGradient>
<clipPath id="clip0_219_647">
<rect width="1086" height="1086" fill="white"/>
</clipPath>
</defs>
</svg>
