<svg xmlns="http://www.w3.org/2000/svg" viewBox="0 0 4099.05 3544.79"><defs><style>.cls-1{fill:none;}.cls-2{fill:#dfaa8b;}.cls-3{fill:#fff;}.cls-4{fill:#9baba6;}.cls-5{fill:#e97600;}.cls-6{fill:#e95300;}.cls-7{fill:#3d2314;}</style></defs><g id="Layer_2" data-name="Layer 2"><g id="Layer_1-2" data-name="Layer 1"><path class="cls-1" d="M7.46,1586.47c-2.5,3.52-5,7-7.46,10.54,7.09,1.3,14.13,2.62,21.13,3.91v-12.25Zm2364-1382.32a26.62,26.62,0,0,0-7-8.85,4.61,4.61,0,0,0-.85,1c-6.73,9.32-3.5,26.93,4.64,30.62a13,13,0,0,0,4.77-4.79C2376.63,215.54,2372.77,207,2371.47,204.15Zm80.21,455.56,1.39,1.68A8.62,8.62,0,0,0,2451.68,659.71Zm4.28,5.18c1.37,1.64,2.71,3.3,4.08,4.94,3.79,4.62,7.63,9.1,11.52,13.38C2471.71,679.81,2461.34,670.56,2456,664.89Zm474.53,315.88a5.57,5.57,0,0,0,1.08.44c7.36,1.76,17.07-9.81,17.07-16.9C2943.58,959.88,2934.68,971.89,2930.49,980.77Zm177.13-547.63a1.06,1.06,0,0,0,.14.39c3.25.59,6.43.44,8.15-.83,1.17-.83,4.54-3.43,8.68-6.63C3118.25,426.07,3107.62,427.32,3107.62,433.14Zm441.05,3100.08c.56.3,1,.3,1.3,0Z"/><path d="M3433.17,1925.88c-5.08,22-8.63,40.49-8.11,41,1,1,40.59-42.28,76.88-83.78,60.67-69.59,142.15-180.17,202-274.59,124.13-195.37,209.16-394,251-588.15,2.55-11.15,4.58-15.45,9.15-17.46,7.6-3.3,16.51,3.79,14.72,11.88-44.16,201.7-123.86,394.06-243.15,585.88-72.6,116.94-143.91,213.88-228.69,310.3-64.22,72.87-77.67,87.06-85,87.81-6.09.76-6.85,2-8.63,16-2.55,17.7-6.34,22.76-15.48,20.49-8.64-2-8.64-6.58,1.27-56.68,16-82.27,31.23-139,63.19-233.86,69-204.73,163.21-388,285.79-556.26,62.71-86.05,146.22-181,211.19-239.68,14.45-12.91,27.41-23.55,28.69-23.55,1.51,0,4.81,1.28,7.6,2.55,10.15,5.57,5.58,13.15-25.14,41.77-105.84,99.45-208.37,227.49-296.7,370.75C3571.49,1506.27,3476.83,1736.58,3433.17,1925.88Z"/><path d="M3253,409.15c-1.86,5.75-11.74,5.82-17,5.06-6.87-.95-9.41-4.2-15.5-7.31-8-4.06-14.87-4.25-26.36-4.57-11.08-.29-41.11,1.74-62.7,18.46-2.35,1.81-4.68,3.65-6.8,5.28-4.14,3.21-7.51,5.8-8.68,6.63-1.72,1.27-4.9,1.42-8.15.83-4.47-.83-9.09-3.1-10.12-5.89-.78-2.27,1-11.15,3.79-19.73,10.93-31.4,9.39-61-4.06-89.85l-6.6-14.18-1.52,25.31c-2.79,44.53-18.54,77.2-37.56,77.2-8.39,0-7.61.76-32.75-32.92-61.91-83.26-169.8-146-301.52-175.9-49.49-11.12-91.89-14.67-158.63-13.15-36.85.8-60.3,2.08-83.1,5.6-35.92,5.57-54.41,7.14-71.23,16.92-18.85,11-27.93,23.7-36.22,19.95-8.14-3.69-11.37-21.29-4.64-30.61a4.62,4.62,0,0,1,.85-1c2.06-1.88,8.12-4.82,32.65-8.61,12.86-2,17.83-2.17,33.5-4.45,0,0,9.78-1.42,22.6-3.62,29.51-5.11,60.06-17.34,71.31-17.48,55.75-.66,83.6-1,93.92-.25,59.57,4.36,196.93,18.05,328.69,110.85,27.66,19.49,77.91,67.82,94.67,91.1l11.42,16.21,3.81-7.34c11.42-21.76,11.66-61,.76-92.39-6.09-17.46-6.09-17.7-1.27-22.52,6.6-6.58,9.9-6.06,21.56,2.28,34.78,25.31,52.8,63,52.56,109.58v24.06l14.72-5.82c28.41-11.4,64-10.13,92.9,3.28C3251.7,396.51,3255.49,401.33,3253,409.15Z"/><path d="M2693.85,782.27l0,0c-19.64-12.08-84.4-33.87-102.81-41.82-28.86-12.42-88.6-58.13-115.2-88.92,0,0-51.14-59.2-57.91-175.53-1.76-30.35,2.49-49.59,2.49-49.59.81-5.11,1.89-10.05,3.35-15.73,6.61-26.55,6.85-28.07-5.38-36.92a41.24,41.24,0,0,0-9.09,4.55c-47.22,31.4-27.83,159,19.56,247.5,5.16,9.68,9.76,17.17,12.18,21,3.54,4.31,7.11,8.61,10.66,12.92l1.39,1.68s0,.05,0,.08c1,1.15,1.91,2.27,2.84,3.42,1.37,1.64,2.71,3.3,4.08,4.94,3.79,4.62,7.63,9.1,11.52,13.38,32.11,35.65,67.28,60.2,112.34,78.5,19,7.58,112.4,33.08,115.45,26.75C2700.16,787,2698,784.86,2693.85,782.27Z"/><path d="M2813.87,853.58c-3.3,9.1-20.81,5.06-35-2-27.19-13.89-54.85-36.16-79.48-63.09-1.86-2-3.71-4.11-5.5-6.19l0,0c-22-25.11-41.23-53.82-55.1-83.32-30.44-64.26-45.95-147.53-39.84-211.82,3.55-36.43,9.88-64.78,15.73-70.62,2.79-2.77,6.85-4,9.9-3.28,10.4,2.79,11.18,6.58,4.82,34.16-5.09,22.28-5.84,32.89-5.58,72.9,0,32.89,1.28,53.9,4.31,70.85,11.66,65,39.86,127.7,65.73,155.65,6.29,6.77,24.06,24.28,44.85,46.22a97,97,0,0,0,7.95,7.94,333.8,333.8,0,0,0,30.47,22.77c12.91,8.53,22.72,13.74,29,17.88C2812.67,845.9,2815.41,849,2813.87,853.58Z"/><path d="M2948.64,964.31c0,7.09-9.71,18.66-17.07,16.9a5,5,0,0,1-1.08-.44c-12.93-6.68-79.62-76.62-97.08-101.12-8.39-11.91-17.26-23.55-19.54-26.07-1.83-2.08-4.55-6.31-7.8-12-13.38-23.41-35.73-71.19-42.45-92.78C2742.54,682,2732.15,593.9,2743.81,580c4.06-4.82,13.21-5.31,17.51-1,2,2,3.06,13.91,3.06,36.43,0,49.6,9.39,94.67,30.71,149.08,25.63,65,75.37,134.37,122.83,170.81C2925.53,941.13,2948.64,961.79,2948.64,964.31Z"/><path d="M2310.56,691.6c-58.65-16.7-110.17-24.55-173.61-26.31-37.58-1-51-2.28-53.06-4.82-4.3-5.31-.49-15.7,6.09-17,28.95-5.57,129.19,3.55,190.11,17.46,33.25,7.58,38.83,9.61,41.13,15.19C2323.49,682,2315.89,693.11,2310.56,691.6Z"/><path d="M3160.83,864.46c0,95.91-29.44,193.34-83,276.36-12.69,19.74-15.23,22.28-21.84,22.28-5.57,0-8.12-1.79-10.39-6.33-2.54-5.58-1.27-8.61,12.69-29.62,31.21-47.32,57.86-111.85,68.52-166.53,15-75.15,13.45-138.44-4.82-216.89-4.57-19-4.81-24-2.27-27.34,4.82-5.55,14.45-4.54,18.51,1.79C3149.16,735.37,3160.83,812.33,3160.83,864.46Z"/><path d="M2822.75,1011.26c0,5.24-7.07,13.5-11.62,13.5-2.3,0-8.68-8.8-16.41-22.89-24.62-44.67-62.92-88.79-111.24-127.67-23-18.49-29.39-24.82-29.39-29.79,0-3.3,1.15-7.43,2.74-9.36,4.55-5.53,8.43-3.87,33.5,15.16,31.45,24.26,65,58.17,89.11,90.19C2799.27,966.59,2822.75,1004.91,2822.75,1011.26Z"/><path d="M2316.13,984.93c-22.33,45.8-49,70.35-96.18,89.33-32,12.91-37.83,20.76-37.58,52.13,0,19.25,2.3,27.34,15,55.93,2,4.3-6.61,11.4-12.69,10.64-3.82-.52-7.88-5.82-14.21-18.49-8.64-17.19-8.9-18.22-8.9-48.08,0-26.58.75-31.64,5.6-40.74,7.85-14.67,17.24-21.76,41.62-31.37,31.2-12.42,53-27.61,68.27-47.59,16.75-22,31.72-52.65,37-76.44,2.54-10.37,5.6-20.5,7.12-22.26,1.27-1.78,5.33-3,8.87-2.54,5.58.76,6.61,2.27,7.36,9.88C2338.73,930.25,2331.12,954.55,2316.13,984.93Z"/><path d="M2127.15,989.74c-15.75,5.07-23.35,6.07-50.25,6.07-27.66-.25-34-1-50.26-6.82-26.14-9.37-34.26-18-25.14-27.08,3.57-3.54,6.36-3,32.23,6.31,16.27,6.09,23.11,7.1,45.71,7.1,23.84,0,28.68-.76,46.44-7.85,11.17-4.55,21.57-7.34,23.6-6.58s4.32,4.3,5.33,7.85C2156.84,977.35,2150.75,982.16,2127.15,989.74Z"/><path d="M2597.92,1208.27c-5.09,13.91-36.29-.27-66-29.62-15.23-14.94-21.56-23.55-29.93-40.76-11.93-24.8-13.2-34.17-4.57-37.71a34.54,34.54,0,0,1,6.85-2.28c4.06-.48,8.12,5.58,12.42,18.22,10.66,30.64,35.8,58.72,64.73,72.39C2598.67,1196.63,2601.22,1199.66,2597.92,1208.27Z"/><path d="M2257.25,1426c-12.43-23-39.6-50.86-66-67.81-24.38-15.43-46.2-21.52-80.21-22-31-.51-34.26-1.78-34.53-11.66,0-2.28,2-5.56,4.57-6.83,2.3-1.51,15.24-2.78,28.69-2.78,50,0,94.93,19,131.73,55.68,15.24,15.18,33.5,40.25,36.54,50.1C2282.63,1434.64,2264.36,1439.21,2257.25,1426Z"/><path d="M2965.15,1426.3c-18.3-6.09-32-6.33-52.29-1.27-26.92,7.09-41.64,15.7-64,38.47-21.57,21.76-28.93,25.06-33.75,15.69-2.54-4.3-1.78-6.84,4.06-15.18,17.24-25.07,53.8-50.11,84.76-58.47,35.29-9.61,81.48-2.28,83.27,13.42C2988.5,1430.34,2982.65,1432.36,2965.15,1426.3Z"/><path d="M2944.92,3544.67c-1.73.88-4.74-3.3-9.36-11.45-21.69-38.24-78.82-164-205.71-264.49-48.91-38.74-31.3-12.94-156.68-91.93-114.47-72.11-224.78-153.11-344.34-252-43.92-36.19-76.66-63.77-203-171.35q-123-104.4-203.07-166.78c-215-167.8-406.87-276.87-625.91-355.59-49-17.7-169.78-54.65-220.3-67.32-14.21-3.52-48.23-12.64-75.89-20.22l-50.25-13.67-17,3.79a649.43,649.43,0,0,1-144.16,23c-101.51,4.57-184.68-15.9-184.26-20,.37-3.72,69.57,8.93,174.36-1.51,33-3.31,111.93-14.68,118-16.95.15-.1.22-.17.24-.27.39-1.66-15.92-6.55-21.83-8.34-28.08-8.46-535-95.22-754.61-136.62v-17.73c377.35,48.37,675.86,113.76,885.34,167,173.23,44,244.3,69.82,269,78.21,238.6,81,458.39,206.27,699.27,398.6,43.4,34.68,125.64,103.52,219.55,184,49.49,42.25,102.53,87.3,118,99.72,15.24,12.64,38.08,31.37,50.77,41.74,150.76,125.8,349.25,259.41,502.8,338.89,4.5,2.32,12.21,7.85,22.09,15.43,25.06,19.2,56.36,49.4,93.58,114,30.59,53.09,57,115.15,63,140.41C2946.22,3539.83,2946.41,3543.93,2944.92,3544.67Z"/><path d="M2589.24,1119.06c-17.76-5-26.83-28.61-19.3-50.45,8.34-23.43,35.24-45.29,54.17-43.77,11.52,1.1,26.31,13.62,28.76,24.45C2661.42,1087.56,2623.62,1128.94,2589.24,1119.06Z"/><path d="M2124.92,924c-18.29-2.55-30.49-24.7-26-47.35,5.07-24.35,28.71-49.64,47.67-50.71,11.56-.49,27.95,9.87,31.83,20.27C2192.12,883,2160.36,929.1,2124.92,924Z"/><path d="M4054.24,815.36c-52.77-30.62-148.46-58.47-266.5-77.45l-31.48-4.82-43.38-26.55c-57.37-34.44-94.42-54.41-159.9-86.3-61.95-29.89-124.13-57.47-176.93-78.48-35-13.91-149-52.38-190.87-64.53-16.23-4.79-20.81-7.34-27.41-15.43-5.06-6.33-29.37-35.73-33.18-35.73-4.14,3.2-7.51,5.8-8.68,6.63-1.72,1.27-4.9,1.42-8.15.83,2.13,4.72,30.86,44.11,40.89,54.58,57.35,59.74,97,146.8,116,254.11,5.08,27.82,5.84,41,5.84,95.66.25,68.84-2.54,89.6-19.05,155.9-22.84,91.87-65.49,175.63-128.92,254.1-13.72,16.95-83.27,87.3-86.3,87.3-2,0-1.76-2.74-7.87-10.12s-11.52-12.18-17.71-17.68a175.59,175.59,0,0,0-19.56-15.19l-.05,0c-5.58-3.7-25.26-10.28-46.95-7.85-10,1.12-18.74,4.84-36.27,12a288,288,0,0,0-26.68,12.52q-7.23,5.31-14.45,10.61l-8.14-5.06c-4.31-2.76-7.85-5.55-7.85-6.31s6.08-10.64,13.69-22c2.76-4.14,6.9-11.57,14.6-26.83,34.75-68.81,62.7-212,70.7-246.5,0,0,7.43-35.7.36-46.73a6.45,6.45,0,0,0-1.39-1.71c0,7.09-9.71,18.66-17.07,16.9a5.57,5.57,0,0,1-1.08-.44,29.1,29.1,0,0,0-2.15,5.91c-.76,3-1.78,21-2.54,39.74-.51,18.73-3.06,45-5.33,58.2-10.42,58.23-35,124-64,171.6-9.13,14.94-20.55,33.67-25.39,41.5-5.82,9.63-8.12,15.7-6.58,18.24,3,5.55,35.78,29.34,40.35,29.34,2.28,0,11.18-5.06,19.79-11.39,24.62-17.46,40.62-24,59.15-24,21.57,0,40.6,7.61,57.35,22.79,53.06,48.32,43.16,143-21.57,203.73q-46.82,44.41-117.5,44.29c-38.08,0-74.37-11.4-95.69-30.13-5.09-4.31-9.91-7.85-10.93-7.85s-8.37,6.09-16.49,13.67c-66.76,61.5-169,116.18-261.93,139.46-52.3,13.4-81.23,17-144.69,18.22-66.74,1.52-99.24-.76-149.22-10.88-91.63-18.22-165.75-55.93-227.94-116.16-56.1-53.92-91.36-111.61-118.53-192.6-15.48-46.32-19.81-77.45-20-139,0-71.87,7.87-115.15,37.56-203.73,25.9-78.2,104.57-250.56,159.66-350.52C2069.17,600.75,2139,522,2218.41,469.89c25.39-16.45,81.73-45.8,88.33-45.8,3.06,0,3.57,2,2.54,9.37-2,16.94,3.06,67.05,9.64,91.87,12.42,46.63,38.49,92.39,74.76,124.67,3.69,3.27,8,5.5,12.47,7.73,51.23,25.65,65.24,29.39,65.41,25.48-3.89-4.28-7.73-8.76-11.52-13.38-1.37-1.64-2.71-3.3-4.08-4.94a23.16,23.16,0,0,1-2.84-3.42s0-.05,0-.08l-1.39-1.68c-7.48-7.41-35.8-21.47-41-26.29-17.32-16-27.07-32.67-40.13-47.54-4.53-5.19-8.1-9.42-10.15-11.91a301.24,301.24,0,0,1-24.94-80.41c-4.24-26.11-6.24-60-.25-95,1.76-10.4,5.82-29.37,9.64-42.53,7.36-25.82,6.6-31.37-5.09-32.65-4.55-.51-7.61,1-10.39,5.07-3.31,5.3-12.94,36.7-18.27,61.23-2.3,9.36-3.06,9.88-22.35,17-134.16,49.28-229.19,164.6-297.22,285.48-24.26,43.14-44.85,88.52-66.86,132.83-2.25,4.5-21.86-30.15-22.69-33.47-4.33-17.22-2.13-34.41.1-51.7C1908.77,688,1918.7,636.3,1932.93,586c5-17.83,16.41-47.07,36.17-83.29,20.05-36.73,20-25.7,64.41-92.36,17.54-26.29,31-42,45.42-53.85,12.86-10.59,20.12-14.8,22.27-15.33s10.05-2.13,12.91-8.05a.5.5,0,0,1,.08-.15c4.45-9.53,34.58-18.85,53.77-38,1.91-1.89,1.42-2.23,3.74-4,8.91-6.82,47.23-25.31,72.36-34.67,64.81-24.14,100.68-25.12,105.08-25.31,3.87-.15,12.94-.37,19.1-4.09-8.14-3.69-11.37-21.3-4.64-30.62a4.61,4.61,0,0,1,.85-1c-23-19.81-86.91-29.18-125.47-41.5-89.6-28.59-175.9-49.35-265-63.78-14.74-2.4-28.34-6.21-33.82-7.51C1860.43,63.29,1742.58-7.75,1721.7.69a82.58,82.58,0,0,0-9,4.4c-5.38,3.16-10,7-15.57,12-23.87,21.77-37.59,48.86-66,131.1-7.88,22.79-16,44.56-18,48.59s-18.78,23.28-37.31,43.29c-131.71,141.46-214.47,260.17-290.86,417.33C1221.44,787.26,1182.36,911,1159,1054l-6.36,38.73-25.12,38.47c-26.14,39.47-45.68,77.44-50.76,98.18-4.06,17.46-3.55,32.4,2.54,51.62,4.57,15,7.61,19.49,22.33,33.92,25.38,25.07,55.85,38.74,127.16,57.2,33.75,8.85,34.77,9.37,67.27,31.13,69.28,46.83,152.28,93.15,232.22,129.58,122.1,55.42,253.83,94.15,406.87,120,5.09.76,9.39,1.79,9.39,2.3,0,7.83-50.5,112.1-60.4,125-3.55,4.82-7.61,6.07-22.08,7.09-37,3-95.18-8.36-206.86-40.49-138.83-39.74-199.26-50.62-284.28-50.38-81.22,0-142.38,12.91-210.16,44l-21.3,9.88-8.39-8.85c-16.75-17.73-39.59-21.28-65.22-9.64l-15,6.58-7.09-7.58c-21.84-24-59.16-24.79-86.06-2l-8.36,7.09-9.39-9.12c-24.38-23.52-59.91-20.73-82.51,6.34l-9.12,10.88-5.84-5.58c-23.6-22.25-60.41-15.43-76.4,14.19-3.54,6.33-7.12,15.43-8.12,19.73-1.54,8.09-1.78,8.36-9.66,4.82-54.41-24.51-113.42-38.81-166-67.08-43.14-23.21-179.64-60-561.2-121.32v12.25c207.42,38.57,367.89,74.71,451.81,98.46,55.2,15.6,103.13,32.28,103.13,32.28,43.67,15.23,87,32.42,133.93,53l43.41,19.24,1.52,43.29c1,24,3.3,52.13,5.6,62.5,2,10.37,3.79,19.74,3.79,20.74,0,3.55-14.46,2-48.74-4.55-39.32-7.58-82.49-21.49-122.08-39-15.48-7.07-30.2-12.64-32.74-12.64s-5.85,2.79-7.61,6.33c-3.81,8.61-.51,12.13,25.12,24,44.43,21,112.19,41,169.05,49.59,24.11,3.82,30,5.58,37.81,11.91,23.11,18.47,51,8.34,62.94-22.52,2.81-7.6,5.09-10.88,5.85-8.61.75,2,3.3,10.13,5.57,17.71,8.9,28.61,19.3,40.74,38.59,45,21.57,4.82,39.59-5.3,50.25-28.07l5.85-12.42,3,9.88c8.9,28.09,24.38,41.25,47.74,41.25,20.29,0,37.56-15.19,43.89-39,4.06-15.43,4.57-15.43,11.69-1.52,11.15,22.28,36.29,31.38,58.37,21,16.51-7.85,28.93-34.92,34-74.66,2.52-18.73,3.54-22.28,7.09-21.25,2.3.76,11.42,2.52,20.57,4,32.23,5.57,118.77,25.31,153.54,35.19,229.7,64.77,418.05,162,644.69,332.55,37.07,28.1,111.17,87.06,194.17,154.89,88.32,72.12,116,93.88,177.68,139.44,158.88,117.67,268.78,184,519,313.58q209.78,108.54,365.49,238.13c39.86,32.92,135,127.06,162.18,160.47,26.22,32,135.9,254.18,151.3,261.95h1.3c4.84-4.79.93-51.91-114-248.79-2.17-3.72-12.93-17.73-24.62-30.89-120.05-138.19-280.71-263.71-464.49-363.41l-34.5-18.74,4.57-23.55c16-81,20.54-187.78,11.42-254.83-11.93-88.33-37.07-159-79.45-222.73-25.14-38-43.92-60.23-79.94-94.91-40.86-39.71-73.36-64.53-149.24-114.37-99-65.56-125.65-84-154.34-107.06-22.59-18-28.41-24-34.77-36.44-7.09-13.94-7.6-17.21-7.6-40.49.24-29.1,5.84-54.42,22.08-99,5.57-15.43,10.66-28.34,11.15-28.86.27-.24,13,6.34,28.19,15.19,45.42,26.07,161.43,83.78,210.92,104.54,133,55.93,277.17,100.73,444.68,138.17,44.16,9.88,49,11.64,83.75,29.1,38.59,19.49,78.43,34.43,107.36,40.76,59.64,12.4,99.5-6.84,185.53-90.11,117-113.13,243.93-283.18,340.89-456.81,18.78-33.64,60.92-118.18,82-164.5,26.66-59,57.37-138.19,80.73-208.79,23.6-71.38,27.9-86,48.47-168.56,19.53-78.45,28.17-129.32,30-175.63C4101,854.07,4093.85,838.39,4054.24,815.36ZM834.13,1887.92c-4.08,33.16-11.69,58.2-19.29,63-7.63,4.55-16.75,0-22.35-11.4-16.75-34.67-23.36-132.61-11.42-167,8.38-24.82,30.2-32.4,48.22-16.7,5.09,4.28,10.15,10.37,11.18,13.4C843,1775.8,839.44,1842.87,834.13,1887.92Zm104.57-45.8c-1.79,90.09-6.09,117.67-19.81,130.58-15.23,14.16-33,.25-40.1-31.4-6.61-29.34-12.43-98.43-13.18-156.14-.52-42.52,24.6-64.78,54.31-47.83,4.06,2.27,9.88,9.88,13.69,17.46l6.61,13.43Zm103-9.64c-.78,119.22-21.84,178.17-52.8,147.31-12.18-12.15-15.75-32.4-20.81-117.43-5.84-99.72-5.84-104,1-113.63,10.67-14.7,31.23-20.25,46.2-12.4C1037.18,1747.45,1042.24,1765.67,1041.75,1832.48Zm72.58,131.86c-8.12,8.61-22.84,8.36-30-.49-10.39-13.18-13.18-29.88-15.48-93.39-1.51-33.67-3.54-67.08-5.06-74.42-3.81-20.76-3.3-34.16,2-39,13.45-12.12,32.48-14.15,45.93-4.54,15.74,11.12,22.84,42.25,23.11,99C1134.9,1907.9,1127,1950.67,1114.33,1964.34ZM1903.17,844.46c12.69-.25,13.21,0,11.18,5.3-1.27,3.31-11.18,25.07-21.84,48.86-24.87,54.66-60.13,146-70.79,182.73-4.58,15.7-8.91,29.1-9.66,29.85-2,2-16.24-31.13-21.57-49.59-3.3-12.15-4.58-25.58-4.58-52.89,0-31.65.76-39.23,6.09-55.69,9.91-31.88,22.09-54.41,38.84-72.38C1854.46,855.85,1876.27,844.7,1903.17,844.46Zm-7.09,779.23c-74.12-13.4-172.6-39.74-248.75-66.81-115.74-40.74-269.29-120.21-353.8-182.72-16.51-12.15-20.32-13.67-55.59-22.52-99-24.31-137.31-50.38-140.61-95.42a74.11,74.11,0,0,1,3.3-27.83c6.34-19.25,26.15-56.2,46.2-86.3,27.9-41.25,27.9-41,32.47-72.65,31.75-218.92,121.32-434.53,263.47-633.71,41.36-58.2,83-108.58,152.79-184.75,17.76-19.49,33.75-37.71,35.78-40.74,15.09-22.57,17.75-43.87,20.05-54.41,7.34-33.58,35.14-125.11,79.36-134.4,24.25-5.09,28.88,19.73,102.48,47.73,12.28,4.67,29.94,10,65.27,20.74,32.87,9.95,60.09,17.7,78.79,22.89a1765.12,1765.12,0,0,1,236.3,56c40.87,12.64,114.23,38.47,114.23,40.23,0,.75-8.39,3-18.29,4.81C2220.2,230.22,2124,281.86,2050.39,353c-69.55,66.81-125.38,163.74-150.52,259.65-15.72,60.23-19.78,90.36-19.78,147l-.25,50.62-9.9-13.92c-12.18-17.46-34.77-44.55-54.07-65.29C1776,688.32,1690,626.55,1670.44,626.55c-3,0-6.36,2.54-8.12,6.57-3.81,8.12-1.78,10.13,28.66,27.1,44.68,25,99,71.87,135.31,116.67,19.78,24.55,37,48.84,37,52.38,0,1-6.85,5.58-15.48,10.13-21.33,11.39-46.71,39.22-60.4,66.05-16.51,32.91-23.63,64.29-23.87,106.54-.27,33.92-.52,34.92-5.58,33.68-2.81-1-15.23-3.55-27.92-5.82-46.71-8.88-164.73-3.82-171.57,7.33-2.3,3.28-.79,11.89,2.78,15.43,1,1.28,14.21.52,28.93-1.76,48.23-7.09,115.74-4.3,166.51,6.83l13.45,3,9.12,23c5.09,12.65,13.21,28.86,17.78,36l8.36,12.89-4.3,24.82c-23.87,138.92,11.18,280.15,96.2,389.24,6.34,8.34,22.84,26.07,36,39.47,20.06,20,24.14,25.55,22.6,29.86C1953.7,1633.06,1946.85,1633.06,1896.08,1623.69ZM1227.8,1883.61c-1,1-59.4-8.09-66.76-10.63-6.61-2.28,11.66-51.11,21.32-56.69,7.36-4.3,18.27-3,23.84,2.52,7.88,7.85,16.75,29.13,20.06,47.59C1227.8,1875,1228.55,1882.86,1227.8,1883.61Zm1217.52,185.51c1,0,13.21,8.86,27.68,20,23.6,18,52.53,37.47,145.43,97.7C2802.18,2306,2883.66,2424.44,2907,2605.65c3.81,30.62,3.81,120.46,0,151.86-5.6,42.77-14,94.91-15.75,96.91-1.52,1.79-91.88-43.53-144.67-72.87-13.21-7.34-43.41-23.79-67.25-36.71-46.95-25.55-109.65-62-115.23-67.32-3.06-2.76-2.3-4.55,4.31-12.4,8.87-10.12,10.14-16.7,4.05-22.52-6.6-6.58-12.69-4.55-23.59,7.61l-10.42,11.88-17-11.13c-92.63-59.47-212.7-148.82-318-236.13-206.35-171.35-334-264.22-470.33-341.67-96.94-54.9-197.2-99.7-307.61-137.41-36-12.15-158.88-46.31-166.75-46.31-5.34,0-5.34.24-10.42-26.59-5.33-28.09-13.45-47.83-24.11-59.47-17-17.46-40.87-18.46-57.86-2-9.15,8.61-9.91,8.12-12.45-9.1-.76-6.84-2.27-13.91-3-15.7-1-2.51,7.09-7.58,27.41-17.21,46.44-22,93.91-34.65,147.46-39.23,32.23-3,92.63-1.24,131.47,3.82,46,5.82,93.92,17.46,227.18,55.41,22.32,6.34,53.79,14.43,69.79,18s29.44,6.82,29.69,7.09c.51.24-1.77,8.58-4.58,18.22-6.58,22.25-9.12,75.41-5.06,102.24,7.61,48.83,32,96.42,67.52,132.61,104.81,105.52,292.64,134.65,473.36,73.15,35.26-12.16,87.06-35.44,110.14-49.87C2435.69,2074.43,2444.56,2069.12,2445.32,2069.12Zm-43.13-98.45c-1.55,34.68,2,50.11,15.47,69.35,6.09,8.34,8.12,13.4,6.61,15.43-4.33,5.07-60.92,32.9-91.39,45.05-95.69,37.71-209.89,49.1-303,29.61-70.82-14.94-125.65-42.77-169.3-86.05-35-35.17-52.55-67.32-61.94-113.88-6.09-28.86-4.31-74.66,3.54-103.25,5.33-18.73,6.36-20.76,11.45-19.76,2.78.51,14.45,1.79,25.36,2.54l20,1.77-9.12,8.36c-10.42,9.61-10.42,9.61-6.85,16.7a11.12,11.12,0,0,0,9.39,4.82c12.69,0,46.44-40.77,70.8-85,12.69-23.28,41.13-86.55,47.73-106.8,3-8.85,5.33-12.66,7.36-11.39,1.76,1.27,12.94,8.61,25.12,16.7,25.89,17,75.12,41.26,106.35,51.89,51,17.71,112.68,28.1,181.47,30.11,60.92,1.78,108.14-1.76,157.36-11.64,19.54-4,35.8-6.83,36.05-6.31.51.24-8.39,22.25-19.54,48.59C2421.21,1870.19,2404,1925.36,2402.19,1970.67ZM4076.83,923.18c-12.93,142.47-81.72,369.74-168.53,556.26C3840,1627,3766.44,1748.21,3660.57,1888.16a1635.6,1635.6,0,0,1-162.93,184.76c-72.09,70.35-101.27,87.32-144.43,84-32.23-2.52-90.36-23.53-135.79-49.35-17.76-10.12-25.36-12.4-60.9-19.73-93.17-19-174.62-41.26-297-81.24-88.33-28.86-170.3-62.53-260.41-107.06-54.31-26.58-134.28-70.62-134.28-73.66,0-1,6.87-18.22,15.24-38.19,8.63-20,19.54-45.83,24.38-57.72l9.12-21.52,23.87-8.33c34.5-11.65,75.88-30.65,109.65-50.38,28.93-16.7,79.18-52.38,99.48-70.6,9.39-8.61,10.66-8.85,14.72-5.33,6.85,6.09,35.53,18.73,53.82,23.79,12.18,3.3,25.63,4.31,50.75,4.31,30.47-.25,36.8-1,55.85-7.09,11.93-4,25.63-9.37,31-11.89l9.14-4.55,15.48,16.19c31,33.16,59.13,75.66,77.91,117.67,10.42,23.55,10.94,24.07,19.05,24.07,13.7,0,12.94-8.88-4.05-43.8-17.27-35.92-45.44-78.45-69.55-105-9.91-10.88-18-20.74-18-22s3-4.3,6.61-6.85c11.91-7.58,36.53-39.47,46.95-60.23,18.78-38,25.11-84.27,16.48-117.67-2-7.58-3.54-13.92-3.28-14.18,4.06-2,57.35-9.35,83.25-11.38,55.83-4.57,123.1,3.28,177.41,20.5l24.11,7.58,4.58-5.31c9.39-11.39,4.3-15.43-32.5-25.8a511.18,511.18,0,0,0-82.49-16.72c-31.22-4-101-3.28-130.46,1-14,2-25.63,3.28-26.14,2.79s7.11-8.09,17-17c22.09-19.74,63.22-67.32,88.09-102,10.15-14.18,27.17-41.25,37.8-60.25,74.64-133.86,101.29-288.76,74.39-434.77-13-71.14-40.37-143.25-73.6-194.88-7.63-11.91-14.72-22.79-15.75-24.55-2.54-3.79,23.11,3.28,83.24,23.79,151,51.36,315,128.8,448,211.58,18.27,11.37,20.81,12.13,57.86,18.22,108.63,17.71,214.73,48.84,259.66,75.91C4075.83,854.83,4081.65,870.53,4076.83,923.18Z"/><path class="cls-2" d="M834.13,1887.92c-4.08,33.16-11.69,58.2-19.29,63-7.63,4.55-16.75,0-22.35-11.39-16.75-34.68-23.36-132.62-11.42-167,8.38-24.82,30.2-32.4,48.22-16.7,5.09,4.28,10.15,10.37,11.18,13.4C843,1775.8,839.44,1842.88,834.13,1887.92Z"/><path class="cls-2" d="M940.21,1768.22l-1.51,73.9c-1.79,90.09-6.09,117.67-19.81,130.58-15.23,14.16-33,.25-40.1-31.39-6.61-29.35-12.43-98.43-13.18-156.14-.52-42.53,24.6-64.78,54.31-47.84,4.06,2.28,9.88,9.88,13.69,17.46Z"/><path class="cls-2" d="M1041.75,1832.48c-.78,119.22-21.84,178.18-52.8,147.32-12.18-12.16-15.75-32.41-20.81-117.43-5.84-99.73-5.84-104,1-113.64,10.67-14.7,31.23-20.25,46.2-12.4C1037.18,1747.46,1042.24,1765.68,1041.75,1832.48Z"/><path class="cls-2" d="M1134.9,1851.49c0,56.41-7.88,99.18-20.57,112.85-8.12,8.61-22.84,8.36-30-.49-10.39-13.18-13.18-29.88-15.48-93.39-1.51-33.67-3.54-67.08-5.06-74.41-3.81-20.76-3.3-34.16,2-39,13.45-12.13,32.48-14.16,45.93-4.55C1127.53,1763.65,1134.63,1794.78,1134.9,1851.49Z"/><path class="cls-2" d="M1227.8,1883.62c-1,1-59.4-8.1-66.76-10.64-6.61-2.27,11.66-51.11,21.32-56.68,7.36-4.31,18.27-3,23.84,2.51,7.88,7.85,16.75,29.13,20.06,47.59C1227.8,1875,1228.55,1882.86,1227.8,1883.62Z"/><path class="cls-2" d="M1914.35,849.77c-1.27,3.3-11.18,25.06-21.84,48.86-24.87,54.65-60.13,146-70.79,182.72-4.58,15.7-8.91,29.1-9.66,29.86-2,2-16.24-31.13-21.57-49.6-3.3-12.15-4.58-25.57-4.58-52.89,0-31.64.76-39.22,6.09-55.68,9.91-31.89,22.09-54.41,38.84-72.39,23.62-24.79,45.43-35.94,72.33-36.19C1915.86,844.22,1916.38,844.46,1914.35,849.77Z"/><path class="cls-3" d="M2327.82,209c0,.76-8.39,3-18.29,4.82C2220.2,230.22,2124,281.87,2050.39,353c-69.55,66.81-125.38,163.75-150.52,259.66-15.72,60.23-19.78,90.35-19.78,147l-.25,50.62-9.9-13.92c-12.18-17.46-34.77-44.55-54.07-65.29C1776,688.32,1690,626.55,1670.44,626.55c-3,0-6.36,2.54-8.12,6.58-3.81,8.12-1.78,10.12,28.66,27.09,44.68,25,99,71.87,135.31,116.67,19.78,24.56,37,48.84,37,52.39,0,1-6.85,5.57-15.48,10.12-21.33,11.39-46.71,39.22-60.4,66.05-16.51,32.92-23.63,64.29-23.87,106.55-.27,33.92-.52,34.92-5.58,33.67-2.81-1-15.23-3.55-27.92-5.82-46.71-8.88-164.73-3.81-171.57,7.34-2.3,3.27-.79,11.88,2.78,15.43,1,1.27,14.21.51,28.93-1.76,48.23-7.1,115.74-4.31,166.51,6.82l13.45,3,9.12,23c5.09,12.64,13.21,28.85,17.78,36l8.36,12.88-4.3,24.82c-23.87,138.93,11.18,280.15,96.2,389.24,6.34,8.34,22.84,26.07,36,39.47,20.06,20,24.14,25.55,22.6,29.86-2.27,7.09-9.12,7.09-59.89-2.28-74.12-13.4-172.6-39.73-248.75-66.8-115.74-40.74-269.29-120.22-353.8-182.73-16.51-12.15-20.32-13.67-55.59-22.52-99-24.31-137.31-50.37-140.61-95.42a74.11,74.11,0,0,1,3.3-27.83c6.34-19.24,26.15-56.19,46.2-86.3,27.9-41.25,27.9-41,32.47-72.65,31.75-218.91,121.32-434.53,263.47-633.71,41.36-58.2,83-108.57,152.79-184.75,17.76-19.49,33.75-37.71,35.78-40.74,15.09-22.57,17.75-43.87,20.05-54.41,7.34-33.57,35.14-125.11,79.36-134.4,24.25-5.09,28.88,19.74,102.48,47.74,12.28,4.67,29.94,10,65.27,20.73,32.87,10,60.09,17.71,78.79,22.89a1766.66,1766.66,0,0,1,236.3,56C2254.46,181.39,2327.82,207.21,2327.82,209Z"/><path class="cls-2" d="M2402.19,1970.68c-1.55,34.67,2,50.1,15.47,69.35,6.09,8.34,8.12,13.4,6.61,15.43-4.33,5.06-60.92,32.89-91.39,45-95.69,37.71-209.89,49.11-303,29.62-70.82-14.94-125.65-42.77-169.3-86.06-35-35.16-52.55-67.32-61.94-113.88-6.09-28.86-4.31-74.66,3.54-103.25,5.33-18.73,6.36-20.76,11.45-19.76,2.78.52,14.45,1.79,25.36,2.55l20,1.76-9.12,8.36c-10.42,9.61-10.42,9.61-6.85,16.7a11.12,11.12,0,0,0,9.39,4.82c12.69,0,46.44-40.76,70.8-85,12.69-23.28,41.13-86.54,47.73-106.79,3-8.85,5.33-12.67,7.36-11.4,1.76,1.27,12.94,8.61,25.12,16.7,25.89,17,75.12,41.26,106.35,51.9,51,17.7,112.68,28.09,181.47,30.1,60.92,1.78,108.14-1.76,157.36-11.64,19.54-4,35.8-6.82,36.05-6.31.51.24-8.39,22.25-19.54,48.59C2421.21,1870.19,2404,1925.36,2402.19,1970.68Z"/><path class="cls-4" d="M2907,2757.51c-5.6,42.77-14,94.91-15.75,96.92-1.52,1.78-91.88-43.53-144.67-72.88-13.21-7.33-43.41-23.79-67.25-36.7-46.95-25.56-109.65-62-115.23-67.33-3.06-2.76-2.3-4.54,4.31-12.39,8.87-10.13,10.14-16.71,4.05-22.53-6.6-6.57-12.69-4.55-23.59,7.61l-10.42,11.88-17-11.12c-92.63-59.48-212.7-148.83-318-236.13-206.35-171.35-334-264.23-470.33-341.68-96.94-54.9-197.2-99.7-307.61-137.41-36-12.15-158.88-46.31-166.75-46.31-5.34,0-5.34.24-10.42-26.58-5.33-28.1-13.45-47.84-24.11-59.48-17-17.46-40.87-18.46-57.86-2-9.15,8.61-9.91,8.12-12.45-9.09-.76-6.85-2.27-13.92-3-15.7-1-2.52,7.09-7.58,27.41-17.22,46.44-22,93.91-34.65,147.46-39.22,32.23-3,92.63-1.25,131.47,3.81,46,5.82,93.92,17.46,227.18,55.42,22.32,6.33,53.79,14.42,69.79,18s29.44,6.82,29.69,7.09c.51.25-1.77,8.58-4.58,18.22-6.58,22.25-9.12,75.42-5.06,102.24,7.61,48.84,32,96.43,67.52,132.62,104.81,105.52,292.64,134.64,473.36,73.14,35.26-12.15,87.06-35.43,110.14-49.86,10.42-6.34,19.29-11.64,20.05-11.64,1,0,13.21,8.85,27.68,20,23.6,18,52.53,37.46,145.43,97.69C2802.18,2306,2883.66,2424.45,2907,2605.65,2910.83,2636.27,2910.83,2726.11,2907,2757.51Z"/><path class="cls-5" d="M3548.67,3533.23H2944.6c-6.06-25.27-32.45-87.33-63-140.42-37.22-64.56-68.52-94.76-93.58-114-9.88-7.58-17.59-13.1-22.09-15.43-153.55-79.47-352-213.09-502.8-338.88-12.69-10.37-35.53-29.1-50.77-41.75-15.48-12.42-68.52-57.46-118-99.72-93.91-80.48-176.15-149.32-219.55-184-240.88-192.33-460.67-317.61-699.27-398.6-24.72-8.39-95.79-34.16-269-78.2-209.48-53.24-508-118.63-885.34-167V1600.93c207.42,38.56,367.89,74.71,451.81,98.45,55.2,15.6,103.13,32.28,103.13,32.28,43.67,15.23,87,32.43,133.93,53l43.41,19.25,1.52,43.28c1,24,3.3,52.14,5.6,62.51,2,10.37,3.79,19.73,3.79,20.73,0,3.55-14.46,2-48.74-4.54-39.32-7.59-82.49-21.5-122.08-39-15.48-7.07-30.2-12.65-32.74-12.65s-5.85,2.79-7.61,6.34c-3.81,8.6-.51,12.13,25.12,24,44.43,21,112.19,41,169.05,49.6,24.11,3.81,30,5.57,37.81,11.91,23.11,18.46,51,8.34,62.94-22.53,2.81-7.6,5.09-10.88,5.85-8.6.75,2,3.3,10.12,5.57,17.7,8.9,28.61,19.3,40.74,38.59,45,21.57,4.81,39.59-5.31,50.25-28.08l5.85-12.42,3,9.88c8.9,28.1,24.38,41.25,47.74,41.25,20.29,0,37.56-15.18,43.89-39,4.06-15.43,4.57-15.43,11.69-1.51,11.15,22.28,36.29,31.37,58.37,21,16.51-7.85,28.93-34.92,34-74.66,2.52-18.73,3.54-22.27,7.09-21.25,2.3.76,11.42,2.52,20.57,4,32.23,5.57,118.77,25.31,153.54,35.19,229.7,64.78,418.05,162,644.69,332.55,37.07,28.1,111.17,87.06,194.17,154.89,88.32,72.12,116,93.88,177.68,139.44,158.88,117.68,268.78,184,519,313.58q209.78,108.54,365.49,238.13c39.86,32.92,135,127.07,162.18,160.47C3423.59,3303.26,3533.27,3525.45,3548.67,3533.23Z"/><path class="cls-6" d="M2935.56,3533.23H21.13V1973c219.65,41.4,726.53,128.16,754.61,136.62,5.91,1.79,22.22,6.68,21.83,8.34,0,.1-.09.17-.24.27-6.11,2.28-85,13.65-118,16.95-104.79,10.44-174-2.2-174.36,1.51-.42,4.11,82.75,24.58,184.26,20a649.43,649.43,0,0,0,144.16-23l17-3.79,50.25,13.67c27.66,7.58,61.68,16.7,75.89,20.23,50.52,12.66,171.32,49.61,220.3,67.32,219,78.72,410.93,187.78,625.91,355.59q80,62.25,203.07,166.77c126.38,107.58,159.12,135.16,203,171.36,119.56,98.89,229.87,179.88,344.34,252,125.38,79,107.77,53.18,156.68,91.92C2856.74,3369.21,2913.87,3495,2935.56,3533.23Z"/><path class="cls-1" d="M2944.6,3533.22h-9c-21.69-38.24-78.82-164-205.71-264.49-48.91-38.74-31.3-12.94-156.68-91.93-114.47-72.11-224.78-153.11-344.34-252-43.92-36.19-76.66-63.77-203-171.35q-123-104.4-203.07-166.78c-215-167.8-406.87-276.87-625.91-355.59-49-17.7-169.78-54.65-220.3-67.32-14.21-3.52-48.23-12.64-75.89-20.22l-50.25-13.67-17,3.79a649.43,649.43,0,0,1-144.16,23c-101.51,4.57-184.68-15.9-184.26-20,.37-3.72,69.57,8.93,174.36-1.51,33-3.31,111.93-14.68,118-16.95.15-.1.22-.17.24-.27.39-1.66-15.92-6.55-21.83-8.34-28.08-8.46-535-95.22-754.61-136.62v-17.73c377.35,48.37,675.86,113.76,885.34,167,173.23,44,244.3,69.82,269,78.21,238.6,81,458.39,206.27,699.27,398.6,43.4,34.68,125.64,103.52,219.55,184,49.49,42.25,102.53,87.3,118,99.72,15.24,12.64,38.08,31.37,50.77,41.74,150.76,125.8,349.25,259.41,502.8,338.89,4.5,2.32,12.21,7.85,22.09,15.43,25.06,19.2,56.36,49.4,93.58,114C2912.15,3445.9,2938.54,3508,2944.6,3533.22Z"/><path class="cls-3" d="M4043.85,835.34c-44.93-27.07-151-58.2-259.66-75.91-37.05-6.09-39.59-6.85-57.86-18.22-133-82.78-297-160.22-448-211.58-60.13-20.51-85.78-27.58-83.24-23.79,1,1.76,8.12,12.64,15.75,24.55,33.23,51.63,60.64,123.74,73.6,194.88,26.9,146,.25,300.91-74.39,434.77-10.63,19-27.65,46.07-37.8,60.25-24.87,34.66-66,82.24-88.09,102-9.88,8.88-17.5,16.46-17,17s12.18-.76,26.14-2.79c29.44-4.3,99.24-5.06,130.46-1a511.18,511.18,0,0,1,82.49,16.72c36.8,10.37,41.89,14.41,32.5,25.8l-4.58,5.31-24.11-7.58c-54.31-17.22-121.58-25.07-177.41-20.5-25.9,2-79.19,9.37-83.25,11.38-.26.26,1.25,6.6,3.28,14.18,8.63,33.4,2.3,79.72-16.48,117.67-10.42,20.76-35,52.65-46.95,60.23-3.57,2.55-6.61,5.58-6.61,6.85s8.12,11.13,18,22c24.11,26.58,52.28,69.11,69.55,105,17,34.92,17.75,43.8,4.05,43.8-8.11,0-8.63-.52-19.05-24.07-18.78-42-46.95-84.51-77.91-117.67l-15.48-16.19-9.14,4.55c-5.33,2.52-19,7.85-31,11.89-19,6.08-25.38,6.84-55.85,7.09-25.12,0-38.57-1-50.75-4.31-18.29-5.06-47-17.7-53.82-23.79-4.06-3.52-5.33-3.28-14.72,5.33-20.3,18.22-70.55,53.9-99.48,70.6-33.77,19.73-75.15,38.73-109.65,50.38l-23.87,8.33-9.12,21.52c-4.84,11.89-15.75,37.71-24.38,57.72-8.37,20-15.24,37.19-15.24,38.19,0,3,80,47.08,134.28,73.66,90.11,44.53,172.08,78.2,260.41,107.06,122.35,40,203.8,62.24,297,81.24,35.54,7.33,43.14,9.61,60.9,19.73,45.43,25.82,103.56,46.83,135.79,49.35,43.16,3.3,72.34-13.67,144.43-84a1635.6,1635.6,0,0,0,162.93-184.76c105.87-140,179.45-261.17,247.73-408.72,86.81-186.52,155.6-413.79,168.53-556.26C4081.65,870.53,4075.83,854.83,4043.85,835.34Zm-73.37,134.15c-105.84,99.46-208.37,227.5-296.7,370.75-102.29,166-197,396.33-240.61,585.63-5.08,22-8.63,40.5-8.11,41,1,1,40.59-42.28,76.88-83.78,60.67-69.6,142.15-180.18,202-274.59,124.13-195.37,209.16-394,251-588.15,2.55-11.15,4.58-15.46,9.15-17.46,7.6-3.3,16.51,3.79,14.72,11.88-44.16,201.7-123.86,394.06-243.15,585.88C3663.12,1717.6,3591.81,1814.53,3507,1911c-64.22,72.88-77.67,87.06-85,87.82-6.09.76-6.85,2-8.63,15.94-2.55,17.71-6.34,22.77-15.48,20.5-8.64-2-8.64-6.58,1.27-56.69,16-82.26,31.23-139,63.19-233.85,69-204.73,163.21-388,285.79-556.26,62.71-86.06,146.22-181,211.19-239.68,14.45-12.91,27.41-23.55,28.69-23.55,1.51,0,4.81,1.27,7.6,2.54C4005.77,933.3,4001.2,940.88,3970.48,969.49Z"/><path class="cls-1" d="M3433.17,1925.88c-5.08,22-8.63,40.49-8.11,41,1,1,40.59-42.28,76.88-83.78,60.67-69.59,142.15-180.17,202-274.59,124.13-195.37,209.16-394,251-588.15,2.55-11.15,4.58-15.45,9.15-17.46,7.6-3.3,16.51,3.79,14.72,11.88-44.16,201.7-123.86,394.06-243.15,585.88-72.6,116.94-143.91,213.88-228.69,310.3-64.22,72.87-77.67,87.06-85,87.81-6.09.76-6.85,2-8.63,16-2.55,17.7-6.34,22.76-15.48,20.49-8.64-2-8.64-6.58,1.27-56.68,16-82.27,31.23-139,63.19-233.86,69-204.73,163.21-388,285.79-556.26,62.71-86.05,146.22-181,211.19-239.68,14.45-12.91,27.41-23.55,28.69-23.55,1.51,0,4.81,1.28,7.6,2.55,10.15,5.57,5.58,13.15-25.14,41.77-105.84,99.45-208.37,227.49-296.7,370.75C3571.49,1506.27,3476.83,1736.58,3433.17,1925.88Z"/><path class="cls-2" d="M3001.17,1332.66c-16.75-15.18-35.78-22.79-57.35-22.79-18.53,0-34.53,6.58-59.15,24-8.61,6.33-17.51,11.39-19.79,11.39-4.57,0-37.31-23.79-40.35-29.34-1.54-2.54.76-8.61,6.58-18.24,4.84-7.83,16.26-26.56,25.39-41.5,28.95-47.57,53.55-113.37,64-171.6,2.27-13.15,4.82-39.47,5.33-58.2.76-18.73,1.78-36.7,2.54-39.74a29.1,29.1,0,0,1,2.15-5.91c-12.93-6.68-79.62-76.62-97.08-101.12-8.39-11.91-17.26-23.55-19.54-26.07-3.3,9.1-20.81,5.06-35-2-27.19-13.89-54.85-36.17-79.48-63.09-3,6.33-96.4-19.17-115.45-26.75-45.06-18.3-80.23-42.85-112.34-78.5-.17,3.91-14.18.17-65.41-25.48-4.43-2.23-8.78-4.46-12.47-7.73-36.27-32.28-62.34-78-74.76-124.67-6.58-24.82-11.67-74.93-9.64-91.87,1-7.34.52-9.37-2.54-9.37-6.6,0-62.94,29.35-88.33,45.8C2139,522,2069.17,600.75,2013.85,701.21c-55.09,100-133.76,272.32-159.66,350.52-29.69,88.58-37.56,131.86-37.56,203.73.24,61.5,4.57,92.63,20,139,27.17,81,62.43,138.68,118.53,192.6,62.19,60.23,136.31,97.94,227.94,116.16,50,10.12,82.48,12.4,149.22,10.88,63.46-1.27,92.39-4.82,144.69-18.22,92.88-23.28,195.17-78,261.93-139.46,8.12-7.58,15.48-13.67,16.49-13.67s5.84,3.54,10.93,7.85c21.32,18.73,57.61,30.13,95.69,30.13q70.79,0,117.5-44.29C3044.33,1475.65,3054.23,1381,3001.17,1332.66ZM2090,643.52c28.95-5.58,129.19,3.54,190.11,17.46,33.25,7.58,38.83,9.61,41.13,15.18,2.27,5.82-5.33,17-10.66,15.43-58.65-16.7-110.17-24.55-173.61-26.31-37.58-1-51-2.27-53.06-4.82C2079.59,655.16,2083.4,644.76,2090,643.52ZM2124.92,924c-18.29-2.54-30.49-24.7-26-47.34,5.07-24.36,28.71-49.64,47.67-50.72,11.56-.49,27.95,9.88,31.83,20.27C2192.12,883,2160.36,929.09,2124.92,924ZM2001.5,961.91c3.57-3.54,6.36-3.06,32.23,6.31,16.27,6.09,23.11,7.09,45.71,7.09,23.84,0,28.68-.76,46.44-7.85,11.17-4.55,21.57-7.33,23.6-6.58s4.32,4.31,5.33,7.85c2,8.61-4.06,13.43-27.66,21-15.75,5.06-23.35,6.07-50.25,6.07-27.66-.25-34-1-50.26-6.83C2000.5,979.62,1992.38,971,2001.5,961.91ZM2257.25,1426c-12.43-23-39.6-50.87-66-67.81-24.38-15.43-46.2-21.52-80.21-22-31-.52-34.26-1.79-34.53-11.67,0-2.27,2-5.55,4.57-6.82,2.3-1.52,15.24-2.79,28.69-2.79,50,0,94.93,19,131.73,55.68,15.24,15.19,33.5,40.26,36.54,50.11C2282.63,1434.64,2264.36,1439.21,2257.25,1426Zm58.88-441.11c-22.33,45.81-49,70.36-96.18,89.33-32,12.92-37.83,20.77-37.58,52.14,0,19.25,2.3,27.34,15,55.93,2,4.3-6.61,11.39-12.69,10.63-3.82-.51-7.88-5.82-14.21-18.48-8.64-17.19-8.9-18.22-8.9-48.08,0-26.58.75-31.64,5.6-40.74,7.85-14.67,17.24-21.76,41.62-31.38,31.2-12.42,53-27.6,68.27-47.58,16.75-22,31.72-52.65,37-76.45,2.54-10.37,5.6-20.49,7.12-22.25,1.27-1.79,5.33-3.06,8.87-2.54,5.58.75,6.61,2.27,7.36,9.88C2338.73,930.24,2331.12,954.55,2316.13,984.92Zm281.79,223.34c-5.09,13.92-36.29-.27-66-29.61-15.23-14.94-21.56-23.55-29.93-40.77-11.93-24.79-13.2-34.16-4.57-37.7a34.54,34.54,0,0,1,6.85-2.28c4.06-.49,8.12,5.58,12.42,18.22,10.66,30.64,35.8,58.71,64.73,72.38C2598.67,1196.62,2601.22,1199.66,2597.92,1208.26Zm-8.68-89.21c-17.76-5-26.83-28.61-19.3-50.44,8.34-23.43,35.24-45.29,54.17-43.78,11.52,1.1,26.31,13.62,28.76,24.46C2661.42,1087.56,2623.62,1128.93,2589.24,1119.05Zm205.48-117.18c-24.62-44.68-62.92-88.79-111.24-127.68-23-18.48-29.39-24.82-29.39-29.78,0-3.3,1.15-7.43,2.74-9.37,4.55-5.52,8.43-3.86,33.5,15.16,31.45,24.26,65,58.18,89.11,90.19,19.83,26.19,43.31,64.51,43.31,70.87,0,5.23-7.07,13.5-11.62,13.5C2808.83,1024.76,2802.45,1016,2794.72,1001.87Zm170.43,424.43c-18.3-6.09-32-6.34-52.29-1.27-26.92,7.09-41.64,15.69-64,38.46-21.57,21.77-28.93,25.07-33.75,15.7-2.54-4.3-1.78-6.85,4.06-15.18,17.24-25.07,53.8-50.11,84.76-58.47,35.29-9.62,81.48-2.28,83.27,13.42C2988.5,1430.33,2982.65,1432.36,2965.15,1426.3Z"/><path class="cls-1" d="M2127.15,989.74c-15.75,5.07-23.35,6.07-50.25,6.07-27.66-.25-34-1-50.26-6.82-26.14-9.37-34.26-18-25.14-27.08,3.57-3.54,6.36-3,32.23,6.31,16.27,6.09,23.11,7.1,45.71,7.1,23.84,0,28.68-.76,46.44-7.85,11.17-4.55,21.57-7.34,23.6-6.58s4.32,4.3,5.33,7.85C2156.84,977.35,2150.75,982.16,2127.15,989.74Z"/><path class="cls-1" d="M2124.92,924c-18.29-2.55-30.49-24.7-26-47.35,5.07-24.35,28.71-49.64,47.67-50.71,11.56-.49,27.95,9.87,31.83,20.27C2192.12,883,2160.36,929.1,2124.92,924Z"/><path class="cls-1" d="M2257.25,1426c-12.43-23-39.6-50.86-66-67.81-24.38-15.43-46.2-21.52-80.21-22-31-.51-34.26-1.78-34.53-11.66,0-2.28,2-5.56,4.57-6.83,2.3-1.51,15.24-2.78,28.69-2.78,50,0,94.93,19,131.73,55.68,15.24,15.18,33.5,40.25,36.54,50.1C2282.63,1434.64,2264.36,1439.21,2257.25,1426Z"/><path class="cls-1" d="M2310.56,691.6c-58.65-16.7-110.17-24.55-173.61-26.31-37.58-1-51-2.28-53.06-4.82-4.3-5.31-.49-15.7,6.09-17,28.95-5.57,129.19,3.55,190.11,17.46,33.25,7.58,38.83,9.61,41.13,15.19C2323.49,682,2315.89,693.11,2310.56,691.6Z"/><path class="cls-1" d="M2316.13,984.93c-22.33,45.8-49,70.35-96.18,89.33-32,12.91-37.83,20.76-37.58,52.13,0,19.25,2.3,27.34,15,55.93,2,4.3-6.61,11.4-12.69,10.64-3.82-.52-7.88-5.82-14.21-18.49-8.64-17.19-8.9-18.22-8.9-48.08,0-26.58.75-31.64,5.6-40.74,7.85-14.67,17.24-21.76,41.62-31.37,31.2-12.42,53-27.61,68.27-47.59,16.75-22,31.72-52.65,37-76.44,2.54-10.37,5.6-20.5,7.12-22.26,1.27-1.78,5.33-3,8.87-2.54,5.58.76,6.61,2.27,7.36,9.88C2338.73,930.25,2331.12,954.55,2316.13,984.93Z"/><path class="cls-1" d="M2597.92,1208.27c-5.09,13.91-36.29-.27-66-29.62-15.23-14.94-21.56-23.55-29.93-40.76-11.93-24.8-13.2-34.17-4.57-37.71a34.54,34.54,0,0,1,6.85-2.28c4.06-.48,8.12,5.58,12.42,18.22,10.66,30.64,35.8,58.72,64.73,72.39C2598.67,1196.63,2601.22,1199.66,2597.92,1208.27Z"/><path class="cls-1" d="M2589.24,1119.06c-17.76-5-26.83-28.61-19.3-50.45,8.34-23.43,35.24-45.29,54.17-43.77,11.52,1.1,26.31,13.62,28.76,24.45C2661.42,1087.56,2623.62,1128.94,2589.24,1119.06Z"/><path class="cls-1" d="M2822.75,1011.26c0,5.24-7.07,13.5-11.62,13.5-2.3,0-8.68-8.8-16.41-22.89-24.62-44.67-62.92-88.79-111.24-127.67-23-18.49-29.39-24.82-29.39-29.79,0-3.3,1.15-7.43,2.74-9.36,4.55-5.53,8.43-3.87,33.5,15.16,31.45,24.26,65,58.17,89.11,90.19C2799.27,966.59,2822.75,1004.91,2822.75,1011.26Z"/><path class="cls-1" d="M2965.15,1426.3c-18.3-6.09-32-6.33-52.29-1.27-26.92,7.09-41.64,15.7-64,38.47-21.57,21.76-28.93,25.06-33.75,15.69-2.54-4.3-1.78-6.84,4.06-15.18,17.24-25.07,53.8-50.11,84.76-58.47,35.29-9.61,81.48-2.28,83.27,13.42C2988.5,1430.34,2982.65,1432.36,2965.15,1426.3Z"/><path class="cls-7" d="M3270.48,837.88c0-54.68-.76-67.84-5.84-95.66-19-107.31-58.64-194.37-116-254.11-10-10.47-38.76-49.86-40.89-54.58-4.47-.83-9.09-3.11-10.12-5.89-.78-2.28,1-11.16,3.79-19.74,10.93-31.4,9.39-61-4.06-89.84l-6.6-14.19-1.52,25.31c-2.79,44.53-18.54,77.21-37.56,77.21-8.39,0-7.61.75-32.75-32.92-61.91-83.27-169.8-146-301.52-175.9-49.49-11.13-91.89-14.67-158.63-13.16-36.85.81-60.3,2.08-83.1,5.6-35.92,5.58-54.41,7.14-71.23,16.93-18.85,11-27.93,23.69-36.22,19.95-6.16,3.72-15.23,3.94-19.1,4.09-4.4.19-40.27,1.17-105.08,25.31-25.13,9.36-63.45,27.85-72.36,34.67-2.32,1.81-1.83,2.15-3.74,4-19.19,19.12-49.32,28.44-53.77,38a.5.5,0,0,0-.08.15c-2.86,5.92-10.76,7.53-12.91,8.05s-9.41,4.74-22.27,15.33c-14.41,11.86-27.88,27.56-45.42,53.85-44.45,66.66-44.36,55.63-64.41,92.36-19.76,36.22-31.13,65.46-36.17,83.29-14.23,50.3-24.16,102-30.88,153.77-2.23,17.29-4.43,34.48-.1,51.7.83,3.32,20.44,38,22.69,33.47,22-44.31,42.6-89.69,66.86-132.83,68-120.88,163.06-236.2,297.22-285.48,19.29-7.09,20.05-7.61,22.35-17,5.33-24.53,15-55.93,18.27-61.23,2.78-4.06,5.84-5.58,10.39-5.07,11.69,1.28,12.45,6.83,5.09,32.65-3.82,13.16-7.88,32.13-9.64,42.53-6,35-4,68.91.25,95A301.24,301.24,0,0,0,2360.37,574c2.05,2.49,5.62,6.72,10.15,11.91,13.06,14.87,22.81,31.52,40.13,47.54,5.23,4.82,33.55,18.88,41,26.29-3.55-4.31-7.12-8.61-10.66-12.92-2.42-3.83-7-11.32-12.18-21-47.39-88.5-66.78-216.1-19.56-247.5a41.24,41.24,0,0,1,9.09-4.55c12.23,8.85,12,10.37,5.38,36.92-1.46,5.68-2.54,10.62-3.35,15.73,0,0-4.25,19.24-2.49,49.59,6.77,116.33,57.91,175.53,57.91,175.53,26.6,30.79,86.34,76.5,115.2,88.92,18.41,8,83.17,29.74,102.81,41.82-22-25.12-41.23-53.83-55.1-83.32-30.44-64.26-45.95-147.53-39.84-211.82,3.55-36.44,9.88-64.78,15.73-70.63,2.79-2.76,6.85-4,9.9-3.27,10.4,2.79,11.18,6.58,4.82,34.16-5.09,22.28-5.84,32.89-5.58,72.9,0,32.89,1.28,53.9,4.31,70.84,11.66,65,39.86,127.7,65.73,155.65,6.29,6.78,24.06,24.29,44.85,46.22a96.71,96.71,0,0,0,7.95,7.95,335.66,335.66,0,0,0,30.47,22.77c12.91,8.53,22.72,13.74,29,17.87-13.38-23.4-35.73-71.18-42.45-92.78C2742.54,682,2732.15,593.9,2743.81,580c4.06-4.82,13.21-5.31,17.51-1,2,2,3.06,13.92,3.06,36.44,0,49.59,9.39,94.66,30.71,149.07,25.63,65,75.37,134.38,122.83,170.82,7.61,5.82,30.72,26.48,30.72,29A6.45,6.45,0,0,1,2950,966c7.07,11-.36,46.73-.36,46.73-8,34.48-36,177.69-70.7,246.5-7.7,15.26-11.84,22.69-14.6,26.83-7.61,11.39-13.69,21.27-13.69,22s3.54,3.55,7.85,6.31l8.14,5.06q7.23-5.28,14.45-10.61a288,288,0,0,1,26.68-12.52c17.53-7.19,26.24-10.91,36.27-12,21.69-2.43,41.37,4.15,46.95,7.85l.05,0a175.59,175.59,0,0,1,19.56,15.19c6.19,5.5,11.57,10.27,17.71,17.68s5.86,10.12,7.87,10.12c3,0,72.58-70.35,86.3-87.3,63.43-78.47,106.08-162.23,128.92-254.1C3267.94,927.48,3270.73,906.72,3270.48,837.88Zm-192.65,302.94c-12.69,19.73-15.23,22.28-21.84,22.28-5.57,0-8.12-1.79-10.39-6.34-2.54-5.57-1.27-8.61,12.69-29.61,31.21-47.32,57.86-111.85,68.52-166.53,15-75.15,13.45-138.44-4.82-216.89-4.57-19-4.81-24-2.27-27.34,4.82-5.55,14.45-4.55,18.51,1.79,10.93,17.19,22.6,94.15,22.6,146.28C3160.83,960.37,3131.39,1057.8,3077.83,1140.82Z"/><path class="cls-1" d="M2420.4,426.39s-4.25,19.25-2.49,49.6c6.77,116.32,57.91,175.53,57.91,175.53,26.6,30.79,86.34,76.49,115.2,88.91,18.41,8,83.17,29.74,102.81,41.82-22-25.11-41.23-53.82-55.1-83.32-30.44-64.26-45.95-147.53-39.84-211.82,3.55-36.43,9.88-64.78,15.73-70.62,2.79-2.77,6.85-4,9.9-3.28,10.4,2.79,11.18,6.58,4.82,34.16-5.09,22.28-5.84,32.89-5.58,72.9,0,32.89,1.28,53.9,4.31,70.85,11.66,65,39.86,127.7,65.73,155.65,6.29,6.77,24.06,24.28,44.85,46.22a97,97,0,0,0,7.95,7.94,333.8,333.8,0,0,0,30.47,22.77c12.91,8.53,22.72,13.74,29,17.88-13.38-23.41-35.73-71.19-42.45-92.78C2742.54,682,2732.15,593.9,2743.81,580c4.06-4.82,13.21-5.31,17.51-1,2,2,3.06,13.91,3.06,36.43,0,49.6,9.39,94.67,30.71,149.08,25.63,65,75.37,134.37,122.83,170.81,7.61,5.82,30.72,26.48,30.72,29,0,7.09-9.71,18.66-17.07,16.9a5,5,0,0,1-1.08-.44c-12.93-6.68-79.62-76.62-97.08-101.12-8.39-11.91-17.26-23.55-19.54-26.07-3.3,9.1-20.81,5.06-35-2-27.19-13.89-54.85-36.16-79.48-63.09-3,6.33-96.4-19.17-115.45-26.75-45.06-18.29-80.23-42.85-112.34-78.5q-5.83-6.42-11.52-13.38c-1.37-1.63-2.71-3.3-4.08-4.94a22.65,22.65,0,0,1-2.84-3.42.1.1,0,0,0,0-.07c-.46-.57-.92-1.13-1.39-1.69-3.55-4.3-7.12-8.61-10.66-12.91-2.42-3.84-7-11.32-12.18-21-47.39-88.5-66.78-216.1-19.56-247.5a41.24,41.24,0,0,1,9.09-4.55c12.23,8.85,12,10.37,5.38,36.93C2422.29,416.34,2421.21,421.28,2420.4,426.39Z"/><path class="cls-1" d="M3126.81,960.62c15-75.15,13.45-138.44-4.82-216.89-4.57-19-4.81-24-2.27-27.34,4.82-5.55,14.45-4.54,18.51,1.79,10.93,17.19,22.6,94.15,22.6,146.28,0,95.91-29.44,193.34-83,276.36-12.69,19.74-15.23,22.28-21.84,22.28-5.57,0-8.12-1.79-10.39-6.33-2.54-5.58-1.27-8.61,12.69-29.62C3089.5,1079.83,3116.15,1015.3,3126.81,960.62Z"/></g></g></svg>