<svg xmlns="http://www.w3.org/2000/svg" viewBox="0 0 511.75 511.75"><defs><style>.cls-1{fill:#fff;}</style></defs><g id="Layer_2" data-name="Layer 2"><g id="Layer_1-2" data-name="Layer 1"><path d="M255.88,0C114.56,0,0,114.56,0,255.87S114.56,511.75,255.88,511.75,511.75,397.19,511.75,255.87,397.19,0,255.88,0Zm0,489.4c-129,0-233.53-104.56-233.53-233.53S126.9,22.35,255.88,22.35,489.4,126.9,489.4,255.87,384.85,489.4,255.88,489.4Z"/><path class="cls-1" d="M489.4,255.87c0,129-104.55,233.53-233.52,233.53S22.35,384.84,22.35,255.87,126.9,22.35,255.88,22.35,489.4,126.9,489.4,255.87Z"/><ellipse cx="179.45" cy="201.14" rx="16.45" ry="27.46"/><ellipse cx="339.45" cy="201.14" rx="16.45" ry="27.46"/><path d="M341.26,380c-37.14-74.29-133.68-74.2-170.77,0L153,372.73c43.89-89.4,162-89.4,205.85,0Z"/></g></g></svg>