<svg xmlns="http://www.w3.org/2000/svg" viewBox="0 0 3621.38 3911.56"><defs><style>.cls-1{fill:#3970ba;}.cls-2{fill:#3955a5;}.cls-3{fill:#f40014;}.cls-4{fill:#f4000d;}.cls-5{fill:#ffb979;}.cls-6{fill:#dd0014;}.cls-7{fill:#ba0000;}.cls-8{fill:#fc9;}.cls-9{fill:#669bff;}.cls-10{fill:#fff;}.cls-11{fill:none;}</style></defs><g id="Layer_2" data-name="Layer 2"><g id="Layer_1-2" data-name="Layer 1"><path d="M3615.42,1930.28c-10.43-24-30.84-37.64-66.22-44.9-48.54-9.53-109.32,8.16-186.88,54.88l-23.13,14.07-.46-13.16c-.45-18.14-11.79-38.1-26.76-48.08-10.88-7.26-22.68-8.62-83-8.62-81.65-.46-93.9-4.08-153.77-47.17-19.06-14.07-47.63-31.3-64-39-25.86-12.25-34.47-14.06-68-14.06-34,0-42.18,1.81-69.4,14.51-36.74,17.69-75.74,53.07-106.59,98-50.8,73.93-186,338.38-274.42,537.5-28.13,62.6-44,93.89-45.36,88.45-1.36-4.53-14.07-47.17-27.67-94.8-46.72-160.12-80.28-249.93-125.65-337-56.69-108-128.36-192.78-205.93-243.59-67.58-44-276.68-137-395.53-176-36.28-12.25-37.64-13.15-50.79-36.74-22.23-39.46-44-57.6-88-74.38-11.34-4.54-12.25-6.81-12.25-28.58v-24l33.11-7.71c44.91-10.89,109.77-44,150.59-76.66,34.93-28.13,82.56-83.91,107.5-124.74,11.35-19,18.15-24.49,34.93-30.84,34.48-12.25,91.17-51.26,123.83-85.28,74.84-77.11,101.6-191.87,72.12-308.44-11.79-45.81-28.58-83.91-70.31-160.11-49.43-90.27-49-89.36-50.34-240.41-.91-140.61-2.72-152.86-31.75-210.46-32.21-64.87-84.37-112.95-163.75-151.95-51.71-25.86-200-75.3-269.43-90.72C1399.64,3,1302.57-4.28,1237.7,2.53,1117.51,14.78,996.4,57,902.5,119.1L871.2,140l-29.93-20.42C795.91,89.16,757.35,78.73,693.4,79.19,649,79.19,636.24,81,608.12,91c-49.44,17.69-80.28,38.1-121.1,78.47-61.24,61.23-88.46,120.2-92.08,199.58-2.27,55.79,5.89,93.89,30.84,145.15,33.11,68.49,90.27,123.83,157.85,152L614,679.28l3.63,33.12c7.26,67.13,2.27,103.87-23.59,173.27-31.3,83.91-38.1,113.4-38.1,170.54-.45,93,34,172.37,107,245.85,79.37,80.74,175.53,117.48,273.06,103.87,19.5-2.72,36.28-4.08,37.64-2.72,2.27,2.27-6.35,80.29-10.88,99.79-1.36,5-7.71,12.25-15,16.33-13.61,8.17-54,76.66-86.63,147.42L842.17,1708l-50.34,17.24c-83.47,28.12-239,88.45-277.6,108C363.64,1908.51,276.09,2036,228,2249.61c-6.35,28.57-13.16,53.52-15,55.34s-50.34,34.47-107.49,73L1.67,2447.37.31,3070.15c-.9,495.32,0,623.69,4.54,626.86,3.17,1.82,120.65,3.63,260.36,3.63H519.67l2.73,29.94c2.72,38.1,23.58,81.65,49.89,103.87,21.06,18.09,51.46,33.79,89.72,46.12q9.25,3,19.09,5.68h0c1.33.37,2.69.73,4.07,1.09l4.14,1.09c6.85,1.83,13.4,3.52,19.75,5.08,2.12.52,4.21,1,6.29,1.51l3.1.73q3.09.72,6.13,1.39c3,.68,6.06,1.32,9.06,1.94,2,.41,4,.8,6,1.19s4,.76,6,1.12c4,.72,7.92,1.4,11.91,2,2,.31,4,.62,6,.91,8,1.16,16.24,2.15,24.83,3l3.24.31,3.28.29c2.75.24,5.54.46,8.39.67q3.4.26,6.92.48l3.55.22,3.59.21,1.83.1,3.47.18h0l2.06.1,3.78.17,5.8.24h0l4,.15,6.08.2,4.15.12,4.23.11,6.5.15,4.44.09c7.48.14,15.34.24,23.63.31l5,0c10.16.08,21,.11,32.47.11,51.45,0,82.14-.38,103.88-1.79h0c19.66-1.27,32-3.38,45.79-6.83q78.78-19.79,135.2-78.06,3-3.08,5.88-6.25,4.38-4.76,8.61-9.76,2.82-3.35,5.58-6.79,1.38-1.71,2.75-3.47,4.1-5.24,8.06-10.73,2.64-3.66,5.22-7.43t5.1-7.64c1.15-1.77,2.3-3.57,3.44-5.38s2.26-3.63,3.38-5.47,2.23-3.71,3.32-5.58l1.64-2.83q3.27-5.68,6.42-11.57c.52-1,1-2,1.57-2.95q3.12-5.94,6.14-12.08c.17-.35.34-.7.5-1,.34-.69.66-1.36,1-2l.94-1.9q1.15-2.33,2.2-4.33c.42-.8.83-1.56,1.23-2.29s.78-1.43,1.17-2.09l.75-1.28c.12-.21.24-.41.37-.61.37-.59.73-1.16,1.08-1.69.47-.72.93-1.37,1.39-2q.53-.69,1-1.29c.11-.14.23-.27.34-.4s.45-.5.67-.73c3.57-3.74,7.08-4.65,12.3-4.65,6.8,0,17.69-1.81,23.59-4.08,4.31-1.81,34-20,71.62-43.73,33.1-20.87,72.28-46,105.5-67.8l2.66-1.75,5.23-3.44,2.57-1.7,1.7-1.12,1.68-1.12,13.15-8.61-3.63,39.46-3.08,38.15,3.6,264.87h19.43c.54-89.59.75-234.6.87-266.37,0-3.86,0-6,0-6.26.08-.94.18-1.92.29-2.92s.23-2,.36-3c0-.41.11-.82.16-1.21.19-1.4.37-2.71.55-3.83,0-.28.09-.55.13-.8l.06-.37c.1-.6.19-1.11.27-1.5,0-.13,0-.28.06-.47.07-.55.15-1.35.23-2.37.48-5.9,1.15-19.07,1.52-33.44l.45-31.76,49-32.2q3.76-2.55,7.42-5.06l4.79-3.3,4.64-3.22,1.42-1,2.78-1.94c2.28-1.6,4.48-3.16,6.59-4.66,11.8-8.4,20.53-15,23.27-17.59.07-.08.15-.15.22-.22a5.22,5.22,0,0,0,.58-.67c1.81-2.72,2.27-214.09.91-469.92-.16-30.18-.3-60.11-.41-89.49q0-7.28-.05-14.52c0-1.66,0-3.32,0-5q0-4.79,0-9.54,0-9.75-.06-19.37,0-4.7,0-9.36v-.17q0-7,0-14c0-1.64,0-3.27,0-4.9,0-2.1,0-4.2,0-6.29-.31-131.9-.14-245.19.38-308.34v-.18q0-4.54.08-8.76v-.15c0-1.37,0-2.72,0-4v-.15c0-1.32,0-2.6,0-3.86v-.12q0-1.23,0-2.43V2515q0-1.2,0-2.37v-.09c0-.77,0-1.54,0-2.29v-.09q0-1.12,0-2.22v-.06c0-.73,0-1.44,0-2.14v-.06c0-.7,0-1.39,0-2.06,0-.37,0-.73,0-1.08q0-1,0-1.92c.11-6.46.23-11.39.35-14.65,2-40.41,3-55.68,5.92-61.18a4.33,4.33,0,0,1,.36-.6,7,7,0,0,1,.48-.66,5.17,5.17,0,0,1,1-.84,2.53,2.53,0,0,1,.51-.28,2.63,2.63,0,0,1,.55-.22,8.84,8.84,0,0,1,3.26-.27l1.12.1c5,0,62.14.45,126.55,0l116.58-.46v-93.44c0-16.66,0-30.37-.14-41.67l0-2.67c0-.87,0-1.72,0-2.57s0-1.67,0-2.49q-.06-4.26-.14-8c0-.71,0-1.4-.05-2.08v-.05c0-.68,0-1.35,0-2l0-1c0-.8,0-1.59-.07-2.35s0-1.51-.08-2.23l0-.94c0-.54,0-1.08-.07-1.61v-.07c0-.81-.08-1.59-.11-2.35,0-.53-.05-1-.08-1.55-.07-1.19-.14-2.31-.22-3.37V2251c-.14-1.9-.29-3.59-.46-5.1,0-.39-.09-.76-.13-1.12q-.18-1.47-.39-2.7c-.09-.55-.19-1.06-.29-1.55-.15-.73-.31-1.38-.48-2a14.72,14.72,0,0,0-.73-2.06,9.07,9.07,0,0,0-.61-1.17,0,0,0,0,0,0,0l-.17-.25a4.78,4.78,0,0,0-.51-.64,5.42,5.42,0,0,0-2.77-1.59c-3-.89-29.2-2-66-2.88l-5.26-.13c-9.92-.23-20.53-.45-31.6-.64-6-.11-12.1-.21-18.31-.3a.14.14,0,0,0-.09,0l-9.39-.13c-10.08-.13-20.48-.29-31-.47l-4.51-.07h-.11l-6.47-.11h-.11L1722,2228l-3.35-.06-9.8-.17-25.91-.48-6.25-.11c-36.57-.7-68.75-1.35-86.12-1.6l-57.61-1.36-5-38.56c-6.8-49.44-29.48-164.65-40.82-208.65-4.54-18.59-7.71-34.47-6.8-35.38,3.17-3.17,112,15.88,203.2,35.84,58.52,12.7,87.09,17.23,90.27,14.06s0-19-10-49.44c-20.87-62.6-56.7-159.21-78-209.56-4.16-10.1-8-19.59-10.83-27.16-.14-.36-.27-.72-.41-1.07-1.12-3-2.08-5.67-2.85-7.92l-.18-.54c-.07-.23-.15-.46-.22-.68-.27-.8-.5-1.52-.69-2.19,0,0,0,0,0,0-.25-.85-.45-1.59-.59-2.2v0q0-.17-.06-.3c-.06-.3-.11-.57-.14-.8a1.62,1.62,0,0,1,.05-1l.06-.07h0c5-5,111.81,37.63,214.09,82.35l8,3.53,8,3.54,8,3.53,7.93,3.53,3.94,1.76,7.83,3.51c7.78,3.5,15.45,7,22.93,10.4l7.43,3.4c8.59,4,16.92,7.83,24.89,11.59l5.09,2.4,5,2.37,3.26,1.56,4.8,2.31,1.58.76,2.34,1.13c2.33,1.12,4.61,2.24,6.84,3.34l4.41,2.17c6.75,3.34,13,6.51,18.76,9.49l3.75,2q2.76,1.44,5.31,2.82l3.31,1.8c4.84,2.64,9,5.06,12.55,7.21q3.29,2,6.54,4.1c2.17,1.39,4.34,2.8,6.49,4.22q5.44,3.6,10.82,7.38A488.22,488.22,0,0,1,2129,1906.6l3,2.69q4.45,4.05,8.86,8.26c2,1.87,3.91,3.75,5.84,5.66l2.91,2.88c95.55,95.4,170,241.21,229.33,446.44,2.64,8.7-30.32,48-62.12,76.56q-1.74,1.56-3.46,3.07c-5.17,4.53-10.28,8.74-15.16,12.45-48.54,36.29-124.29,70.31-192.32,85.73l-27.67,6.35-5.44-53.07c-3.12-30.76-8.05-63.51-14.59-97.22l-1-5.06q-1.87-9.51-3.93-19.11l-1.38-6.4q-1.12-5.11-2.29-10.27-1.74-7.72-3.6-15.47a1393.89,1393.89,0,0,0-51.7-169c-9.7-25.86-15.39-39.56-20.23-46.62l-.59-.84c-.31-.42-.61-.81-.91-1.17s-.49-.58-.73-.85-.6-.64-.91-.93a12,12,0,0,0-2.79-2,10.32,10.32,0,0,0-2.9-1,3.11,3.11,0,0,0-.44-.07l-.44-.05c-.71-.09-1.37-.17-2-.23-2.95-.25-5,0-6.16,1.34a3.43,3.43,0,0,0-.51.77,3.85,3.85,0,0,0-.19.47,6.82,6.82,0,0,0-.35,2.13,16.84,16.84,0,0,0,.22,2.92q0,.09,0,.21c.08.49.18,1,.29,1.58s.24,1.14.4,1.76.31,1.24.5,1.91.39,1.36.61,2.09c.06.21.13.42.2.64.17.54.34,1.1.53,1.68.08.24.15.48.24.73.25.76.51,1.55.79,2.36.81,2.34,1.74,4.93,2.8,7.79.43,1.15.87,2.33,1.34,3.57,2.11,5.55,4.64,12,7.62,19.53,3.06,7.74,6.14,15.92,9.2,24.47,1.53,4.27,3.07,8.64,4.59,13.09s3,9,4.57,13.58,3,9.28,4.53,14q1.5,4.74,3,9.56t3,9.72c1.36,4.52,2.72,9.09,4,13.7.22.75.43,1.5.65,2.25.5,1.72,1,3.45,1.49,5.18,6.43,22.49,12.54,45.74,18.12,68.9q1.29,5.34,2.54,10.68.75,3.19,1.49,6.37,1.78,7.73,3.47,15.4,1.13,5.1,2.21,10.19l1,4.81c.62,2.93,1.23,5.85,1.81,8.75q.57,2.79,1.13,5.55c.46,2.32.92,4.63,1.36,6.93q1.27,6.48,2.44,12.84.54,2.88,1.05,5.73.87,4.8,1.68,9.54c.81,4.72,1.58,9.39,2.31,14q.68,4.23,1.3,8.39c.7,4.72,1.36,9.36,2,13.89,10.43,78.47,2.72,181.44-18.6,247.66-20.41,64-57.15,122.47-107.5,171.46-26.31,24.95-33.11,34-29,38.56.13.15.29.31.48.49a2,2,0,0,0,.21.19c.21.19.46.4.74.62l.29.23.63.48.35.26.75.54c.66.46,1.4,1,2.2,1.49l1.53,1a341.33,341.33,0,0,0,33.65,18.29l35.83,17.69,3.63,193.23c1.81,106.14,5,249.48,6.35,318l2.58,119.29,7.36,293.95h19.73l-5.36-295.31L2002.91,3482c-1.82-78-5.44-248.57-8.17-379.2l-5-237.23,22.68-39.46c12.7-21.77,25.4-45.35,28.12-52.62s5.44-12.24,6.35-11.33,13.61,28.12,27.67,60.78c56.69,131.09,98.88,199.58,156.48,256.27,74.85,73.49,147,103.43,238.14,98.43,78-4.08,131.54-41.27,195.05-137,93-139.25,157.39-314.34,183.24-496.68,5-36.29,17.7-125.19,27.67-197.31,19.06-134.72,36.74-240.4,41.73-244.94,1.36-1.81,10.43.91,20.42,5.9,45.81,23.58,129.27,41.72,190.5,41.72,42.19,0,118.84-12.24,161.93-25.85,20.42-6.35,78.48-29.48,129.73-51.25,51.26-21.32,109.32-45.81,129.73-54C3614.51,1992.43,3632.21,1968.84,3615.42,1930.28ZM958.75,1159.18c-33.57,1.81-45.81.45-66.68-6.8-36.29-12.7-64.86-34-87.54-64.87-31.76-43.09-40.37-70.3-40.37-129.27-.46-47.17.45-51.71,13.15-76.66,23.59-46.26,69.86-73,122.92-71.66,41.73.9,57.61,14.51,93.9,79.37,12.24,21.32,30.84,48.54,41.73,60.79l20,22.22.45-45.81c.45-133.81,25.4-230.43,73-284.85,10.43-11.8,45.81-41.28,78.47-65.77C1294,511,1335.68,465.64,1369.24,398.51c16.34-32.65,36.3-87.54,36.3-100.7,0-15.42,8.16-8.16,17.68,15.43,12.25,30.39,25.86,95.25,30.39,141.52l3.18,35.38,23.59-2.73c37.64-4.08,81.64-20,102.51-35.83,32.66-24.95,53.52-80.28,54-143.79l.46-20.41,6.8,15.43c3.63,8.61,10.89,37.19,15.88,63.49s11.33,56.7,14.06,67.59c9.07,34.92,32.66,46.27,111.58,53.52,21.78,1.82,32.66,5,32.66,8.62,0,15.88,14.51,140.62,24.5,208.66,23.58,164.2,27.21,204.56,27.21,319.77,0,105.23-.46,113.4-11.8,154.68-40.36,148.32-159.21,268.07-298.46,301.63-73,17.24-180.07,4.09-265.8-32.65-28.12-11.8-40.37-15-44-11.34-10.43,10.43,21.77,51.25,68.49,86.18,43.09,31.75,90.27,53.07,152.86,68.49,29,7.26,54,13.61,54.43,14.52,5.45,5.44-45.81,233.14-64,284.39-1.36,4.54-13.61-4.53-39.46-29.47-44.45-43.55-162.84-151.05-232.24-210.93-104.78-90.26-140.61-115.21-182.8-128.82-18.14-5.89-23.13-9.52-21.77-15.42,10-34.47,20.86-171.45,20.86-261.26v-69.4l13.61-4.54c10-3.63,12.7-6.8,10.43-12.25-1.81-5.89-5.89-6.8-16.78-4.53C1005.92,1155.1,981,1157.82,958.75,1159.18ZM857.6,1727.07l18.59-39.46c10-21.77,23.14-48.53,29.49-59.87.37-.71.76-1.46,1.18-2.25s.85-1.62,1.31-2.48c.91-1.72,1.91-3.59,3-5.55.4-.74.81-1.49,1.22-2.26s.83-1.54,1.26-2.33c.58-1,1.16-2.13,1.75-3.22l.89-1.64,1.83-3.35c1.54-2.82,3.12-5.69,4.7-8.57l2.85-5.16,3.72-6.73,1.8-3.23c.58-1.07,1.16-2.11,1.73-3.13,3.44-6.51,6.94-12.94,10.09-18.53.52-.93,1-1.83,1.54-2.71s1-1.74,1.47-2.56l1.31-2.24c1.21-2.07,2.31-3.88,3.26-5.37l.36-.57.67-1,.41-.61c.26-.38.51-.72.72-1l.31-.41.28-.33.15-.18a3.4,3.4,0,0,1,.25-.31l.16-.17a8.07,8.07,0,0,1,1.14-1c.17-.14.35-.28.54-.41l.56-.38c.2-.13.41-.25.63-.37a17.9,17.9,0,0,1,3.82-1.52h0a19,19,0,0,1,1.94-.45c.64-.12,1.31-.22,2-.31l1.32-.13,1-.07c.91,0,1.84-.07,2.81-.06.55,0,1.12,0,1.7,0l1.75.09h0q1.77.13,3.63.36l1.93.26h0q2.91.43,6,1.11,2.55.54,5.23,1.25l1.87.51,1.89.54c1.28.38,2.57.78,3.88,1.2l2,.66q2.31.78,4.69,1.67l1.73.65c1,.37,1.91.74,2.87,1.13l1.49.61.61.25,1.64.69q4.71,2,9.58,4.37c4.42,2,9.27,4.48,14.25,7.14,1.24.66,2.49,1.34,3.75,2,5,2.75,10.09,5.69,14.91,8.62l1.8,1.1c1.19.73,2.37,1.46,3.52,2.19,2.3,1.45,4.52,2.88,6.6,4.28,1.05.69,2.06,1.38,3,2.06,2.43,1.69,4.65,3.3,6.56,4.79,12,9.24,29.12,23.33,49.48,40.55l2.56,2.17c10.3,8.73,21.4,18.23,33,28.3l2.93,2.53c11.82,10.22,24.18,21,36.83,32.08l7,6.16c31.7,27.86,64.91,57.48,95.9,85.52l3.44,3.11q10.27,9.3,20.15,18.32l3.28,3c12,10.92,23.35,21.41,33.94,31.25l2.87,2.67q8.16,7.59,15.59,14.59l2,1.89,7,6.63,1.63,1.56.52.49,1.83,1.75c5.85,5.59,11.19,10.75,15.94,15.42l1.78,1.75,2.66,2.64.86.86c.57.56,1.12,1.11,1.66,1.67l.81.81,2.13,2.16,1.66,1.69L1426,1896l2.19,2.3.1.11c.77.81,1.49,1.59,2.17,2.33s1.36,1.5,2,2.19l.44.5.82,1,16.79,19-39.92,19.5a902.65,902.65,0,0,0-150.14,93l-36.74,27.67L1171,2016.92l-5.69-5-5.68-5q-25.5-22.63-50.13-44.72-5.46-4.89-10.85-9.73l-10.73-9.65-7.73-7c-22.51-20.29-44-39.82-64-58.12l-8.09-7.41-4.57-4.19q-4.15-3.79-8.2-7.53l-4-3.7q-4-3.67-7.89-7.28c-1.3-1.2-2.59-2.4-3.87-3.57-15.34-14.19-29.37-27.28-41.78-39q-6.21-5.85-11.86-11.23c-6.59-6.27-12.59-12-17.95-17.25h0l-50.34-49.44Zm404.6,1977.66c-.63,1.34-1.26,2.67-1.9,4-.35.74-.7,1.47-1.06,2.2-.52,1.07-1,2.14-1.57,3.2-.2.41-.4.83-.61,1.24-.65,1.31-1.3,2.61-2,3.89s-1.32,2.59-2,3.87l-1.33,2.54q-1.69,3.26-3.44,6.45l-1.23,2.25v0c-.63,1.15-1.27,2.29-1.91,3.43-.83,1.49-1.68,3-2.52,4.44s-1.68,2.89-2.53,4.32c-.55.93-1.1,1.85-1.66,2.77s-1.09,1.82-1.65,2.72q-2.36,3.87-4.78,7.63c-.79,1.23-1.58,2.44-2.37,3.65l0,.07c-.83,1.27-1.67,2.52-2.52,3.77l-.3.45c-.86,1.26-1.72,2.52-2.58,3.76s-1.81,2.58-2.72,3.85-1.86,2.58-2.8,3.85-1.85,2.51-2.79,3.75-1.88,2.46-2.83,3.68-1.86,2.37-2.8,3.54l-.1.13q-1.41,1.77-2.83,3.49-2.89,3.51-5.85,6.88c-.94,1.07-1.89,2.14-2.83,3.19-.13.13-.26.27-.38.41-.92,1-1.84,2-2.76,3-1.92,2.07-3.86,4.09-5.82,6.08q-2.41,2.45-4.87,4.82c-1.31,1.26-2.63,2.51-3.95,3.73-.56.53-1.13,1-1.71,1.57-.85.78-1.71,1.56-2.57,2.32l-2.89,2.53c-1.07.92-2.15,1.84-3.24,2.74s-2,1.66-3,2.47c-.15.12-.29.23-.43.36-1,.82-2.08,1.65-3.12,2.46s-2.15,1.66-3.24,2.47l-.33.24c-1,.73-1.93,1.45-2.9,2.14l-.31.23c-1.09.8-2.19,1.59-3.3,2.36l-3.43,2.35q-3.43,2.33-6.94,4.51c-2.34,1.46-4.69,2.88-7.07,4.25-1.19.69-2.39,1.37-3.59,2s-2.4,1.33-3.62,2-2.43,1.28-3.65,1.9-2.45,1.24-3.68,1.84-2.47,1.2-3.72,1.78q-7.47,3.49-15.2,6.48c-2.58,1-5.19,2-7.81,2.87-1.31.46-2.63.91-4,1.34s-2.65.87-4,1.28-2.68.83-4,1.22c-2.52.75-5.07,1.45-7.63,2.12l-2.34.6-1,.26-2.69.65q-2.76.66-5.56,1.25c-.63.15-1.27.28-1.91.41-1.24.26-2.48.51-3.73.75-1.42.28-2.85.54-4.28.8-43.54,7.71-169.19,8.61-240,2.26-99.79-9.52-188.69-35.83-224.52-66.22-37.65-32.66-55.34-94.8-41.28-145.15,9.07-32.2,55.79-99.33,99.34-143.33,41.27-41.28,59.42-50.8,83.91-44,39.46,11.34,35.83,65.32-8.62,141.52-27.21,46.27-26.76,56.7,4.54,68,36.74,12.7,68.94,8.62,100.24-12.7,33.11-23.14,72.12-73,107.05-139.26,47.17-89.35,72.57-115.66,114.3-120.2,17.69-2.26,21.77-.9,32.66,10s11.79,14.52,9.53,38.1c-2.27,28.13-40.37,135.63-64,179.63-.39.74-.8,1.5-1.24,2.27-.28.51-.57,1-.88,1.56-1.88,3.27-4.06,6.74-6.52,10.36l-1.5,2.19c-1.53,2.21-3.16,4.47-4.87,6.78l-1.74,2.32c-3.61,4.78-7.58,9.74-11.84,14.81-.59.71-1.2,1.43-1.82,2.15q-2.18,2.57-4.45,5.17l-2.1,2.38c-.75.85-1.51,1.69-2.27,2.54-3,3.36-6.13,6.73-9.31,10.12l-.12.12q-4.86,5.14-10,10.28c-.83.86-1.68,1.71-2.55,2.56l-2.17,2.16q-4.35,4.29-8.82,8.54l-2.23,2.11c-1.12,1.06-2.25,2.1-3.38,3.15s-2.26,2.09-3.4,3.12c-1.7,1.56-3.4,3.09-5.12,4.61l-2.16,1.91c-1,.88-2,1.74-3,2.59l-1.93,1.66c-.81.71-1.63,1.41-2.45,2.1l-2.45,2.07c-1.63,1.37-3.26,2.73-4.9,4.06-5.72,4.69-11.43,9.15-17.07,13.31-36.74,27.67-41.28,33.57-30.85,42.18a4.84,4.84,0,0,0,3.79.72l.51-.07a19.2,19.2,0,0,0,2.94-.79l.69-.24c.57-.21,1.15-.45,1.76-.71l.72-.32,1.91-.9c.57-.29,1.16-.59,1.77-.92.33-.18.66-.35,1-.54l.89-.49c.82-.46,1.65-1,2.51-1.46l.8-.49c1.1-.67,2.24-1.39,3.4-2.14l2.37-1.56,1.22-.82,1.24-.85q1.88-1.29,3.83-2.69l2.28-1.65.53-.39,2.43-1.8q2.25-1.7,4.58-3.48l3.15-2.45q3.36-2.64,6.84-5.48l2.94-2.41q2.52-2.08,5.07-4.23c.92-.77,1.85-1.56,2.78-2.36s2.1-1.79,3.16-2.71c11.09-9.57,22.65-20.13,33.85-31q1.61-1.55,3.2-3.1,2.38-2.32,4.74-4.67l1.57-1.56c3.92-3.9,7.76-7.81,11.48-11.69.74-.77,1.48-1.55,2.23-2.32l2.19-2.33c.73-.76,1.45-1.53,2.17-2.3,3.59-3.84,7-7.64,10.33-11.36l2-2.22s0,0,0,0c.65-.73,1.28-1.47,1.91-2.2l1.87-2.17h0c1.23-1.44,2.42-2.87,3.6-4.28l1.72-2.11,1.68-2.08a174,174,0,0,0,15.52-22.17c.84-1.49,1.81-3.3,2.87-5.39.31-.59.62-1.21.94-1.85s.65-1.3,1-2l.51-1c1.54-3.17,3.23-6.75,5-10.65.78-1.69,1.57-3.43,2.39-5.23,4.84-10.69,10.3-23.27,15.73-36.24q1.41-3.36,2.81-6.75c1.4-3.39,2.79-6.79,4.16-10.16s2.73-6.74,4-10.06q5.28-13.32,10.23-25.55,1.43-3.49,2.8-6.9l1.38-3.38c1-2.51,2-5,3-7.43l1-2.43q1.33-3.21,2.63-6.33c.87-2.09,1.72-4.14,2.57-6.16l2.51-5.95,2.45-5.77q5.44-12.77,10.26-23.52l2.11-4.67q5.7-12.57,10.39-22c.57-1.14,1.13-2.24,1.67-3.31q2.46-4.8,4.58-8.63l1.39-2.43c1.44-2.47,2.75-4.57,3.94-6.27.29-.43.58-.83.86-1.2s.69-.9,1-1.3c.16-.2.32-.38.48-.56,21.77-24.49,49-30.84,76.2-18.14q.85.41,1.68.84c.39.2.78.4,1.16.63.75.4,1.48.83,2.19,1.28q.69.41,1.35.87l.16.1c.39.26.78.53,1.16.81.21.14.43.3.64.47s.58.42.87.65c.48.37,1,.74,1.41,1.13.28.22.55.46.82.7s.5.43.75.66a49.28,49.28,0,0,1,3.8,3.85c.36.4.7.81,1,1.22s.83,1,1.21,1.51l.59.79q.32.42.6.84c.27.37.52.74.77,1.11.41.61.81,1.24,1.18,1.87.21.35.42.7.62,1.06,0,.08.1.16.14.24.14.24.27.48.4.73s.4.74.59,1.11.44.88.65,1.32c.61,1.28,1.17,2.59,1.67,3.92q.21.53.39,1.05c.27.76.53,1.53.76,2.31q.24.76.45,1.53c.13.46.25.93.36,1.39.06.24.11.48.17.73s.16.68.23,1,.11.56.17.84l.24,1.31c0,.14,0,.29.07.43.06.37.12.75.17,1.13q.13,1,.24,2c0,.29.06.58.09.87,0,.48.08,1,.11,1.44s.08,1.25.1,1.88v.12c0,.62,0,1.25,0,1.88,0,15-41.27,122.46-72.57,187.78-21.32,45.81-52.62,89.81-97.52,137.44-.68.72-1.35,1.44-2,2.15l-1.94,2.1q-3.81,4.14-7.1,7.9-1.85,2.12-3.54,4.1c-.88,1-1.72,2-2.53,3s-1.81,2.21-2.65,3.27-1.63,2.09-2.39,3.08a85.67,85.67,0,0,0-7.48,11.3l-.36.68a28.43,28.43,0,0,0-1.46,3.37c-.08.21-.15.42-.21.62a5.74,5.74,0,0,0-.19.64,2.62,2.62,0,0,0-.11.42c0,.18-.09.36-.12.53s-.09.46-.12.68a4,4,0,0,0-.07.58c0,.23,0,.44,0,.65a4.77,4.77,0,0,0,1.68,3.94,5,5,0,0,0,1.09.7,13.42,13.42,0,0,0,5.94,1.07,3.29,3.29,0,0,0,1.09-.22l.35-.13c.34-.14.71-.32,1.11-.53l.49-.28c.37-.22.76-.46,1.18-.74s1.05-.7,1.61-1.12l1.11-.83c1.32-1,2.79-2.23,4.38-3.61.51-.45,1-.91,1.57-1.39l1-.85,1-.89.1-.09.9-.84c.47-.42.94-.87,1.42-1.32l1.62-1.54.1-.1q2-1.92,4.15-4l.89-.88c.3-.3.59-.6.89-.89l.91-.92,1.84-1.86c3.11-3.16,6.37-6.57,9.74-10.17l2-2.18,1-1.11,4.17-4.53c.09-.1.18-.19.26-.29,1.84-2,3.71-4.09,5.59-6.19,2.69-3,5.41-6.07,8.13-9.19l4.37-5c.73-.85,1.46-1.69,2.18-2.54l4.36-5.13,2.17-2.58,2.16-2.59c2.16-2.58,4.3-5.18,6.4-7.76q2.12-2.6,4.18-5.17c1.38-1.72,2.75-3.43,4.09-5.13s2.67-3.4,4-5.08c5.39-6.94,10.41-13.67,14.85-19.95l1.19-1.7c.53-.76,1-1.5,1.55-2.24l1.5-2.19c16.33-24.49,31.3-55.79,62.14-131.09,29-72.12,27.67-69.85,39-59.42C1303.48,3561.39,1300.75,3623.08,1262.2,3704.73Zm39-174.64-15.42-15c-.77-.74-1.49-1.45-2.18-2.13l-.67-.67-.87-.87c-10.94-11.07-11.5-15.15-9.44-34.89.14-1.45.24-2.9.31-4.33s.1-2.72.1-4.06a77.25,77.25,0,0,0-3.94-24.81c-.32-1-.66-1.92-1-2.86-.3-.78-.61-1.56-1-2.33s-.76-1.75-1.17-2.61a67.79,67.79,0,0,0-13.07-18.68c-.62-.64-1.26-1.26-1.91-1.87s-1.28-1.18-1.94-1.75q-1.33-1.16-2.73-2.25-2.37-1.86-4.92-3.51c-.61-.41-1.23-.8-1.86-1.18s-1.42-.85-2.15-1.27-1.75-1-2.65-1.42c-11.47-5.85-25.06-9-40.11-8.72-29.48.46-49.44,10.89-67.13,36.29L1113,3451.62l-3.17-12.25a52.24,52.24,0,0,0-1.87-5.9c-.43-1.12-.89-2.2-1.39-3.25s-.91-1.84-1.42-2.71a37.16,37.16,0,0,0-3.37-5c-.63-.77-1.29-1.51-2-2.24-6.21-6.5-15.13-11-27.63-14.06-28.92-7.17-55.71-.48-81.34,21q-3,2.49-5.9,5.22-1,.92-1.95,1.86c-.66.63-1.31,1.27-2,1.92-19.51,19.45-38.42,47.72-57.17,85.22-27.21,54-55.79,95.71-84.82,125.2-4.62,4.62-9,8.73-13.19,12.37-.69.6-1.39,1.2-2.08,1.77q-3.62,3-7.1,5.6c-.66.49-1.32,1-2,1.43l-2,1.35c-.65.44-1.3.86-1.95,1.27s-1.3.81-2,1.2-1.28.76-1.93,1.13l-1.44.8c-1.45.78-2.88,1.5-4.32,2.15q-1,.44-1.92.84c-.64.27-1.28.52-1.92.77-1.28.5-2.56.94-3.85,1.34-.65.2-1.29.39-1.94.57l-1,.26c-1,.25-2,.47-2.94.68h0a71.6,71.6,0,0,1-21.66.86l-1.78-.19c-.93-.11-1.88-.23-2.84-.37-3.56-.51-7.26-1.2-11.15-2.08-8.93-2.09-16.89-4.37-21.3-5.94l-1.67-.63-.45-.19-.74-.34-.5-.29-.16-.13a.28.28,0,0,1-.13-.19c0-1.37,8.16-16.33,17.69-33.12,33.56-57.15,44.45-109.31,30.39-143.33-12.25-29-54.43-38.1-91.63-20-11.35,5.36-26.61,17.92-43.13,34.43q-.69.67-1.38,1.38l-1.39,1.4c-.47.47-.93.95-1.39,1.42q-2.09,2.15-4.2,4.36l-2.82,3q-3.52,3.76-7.09,7.71-1.43,1.58-2.85,3.18l-1.43,1.6-2.85,3.25-2.85,3.29-2.85,3.33c-7.11,8.37-14.16,17.07-21,25.87q-3.39,4.41-6.7,8.83-2,2.64-3.92,5.3c-.87,1.18-1.72,2.35-2.57,3.53-1.28,1.77-2.53,3.53-3.77,5.29q-1.25,1.76-2.46,3.51-1.82,2.63-3.6,5.23t-3.48,5.19c-1.9,2.87-3.74,5.72-5.52,8.52l-2.1,3.36c-1.37,2.22-2.71,4.42-4,6.59s-2.53,4.31-3.72,6.42c-.3.52-.59,1-.88,1.57q-1.31,2.36-2.53,4.64l-1,1.9c-.65,1.26-1.29,2.5-1.9,3.72q-.46.93-.9,1.83c-2.36,4.83-4.34,9.39-5.9,13.61L523.76,3678h0l-249.93-.91L24.35,3675.7l-1.36-601c-.45-330.67,0-603.73,1.36-606.9,1.36-4.09,133.81-5.45,639.56-5.45h637.3Zm349.26-1276.4h235.87v149.69H1771.12c-100.69,0-115.66-.91-117.93-7.26-1.36-4.08-2.72-37.65-2.72-74.85Zm-18.14,614.62v605.08l-39.92,27.22c-22.22,15-62.59,40.82-89.81,58.06-149.68,95.25-173.72,110.22-176,110.22-1.36,0-2.72-272.61-2.72-605.54V2457.81l58.06-37.65,8.9-5.74,2.7-1.74,3.72-2.41,1.92-1.24,14.48-9.4c2.92-1.89,5.92-3.85,9-5.85l4.65-3,3.55-2.32,3.61-2.35,4.88-3.18,10-6.51,7.61-5c11.92-7.81,24.16-15.84,36.17-23.75l5.13-3.38,5.1-3.37c9.3-6.13,18.38-12.13,27-17.82,49.9-32.66,93.44-59.87,96.61-59.87C1631,2262.76,1632.33,2386.59,1632.33,2868.31Zm-24-621.42-57.14,36.74-28,18.25-2.75,1.79-5.16,3.36-2.25,1.47-7.07,4.62-4.59,3-2.54,1.66-4.73,3.08-3.63,2.37-6.33,4.12-6.58,4.29-3.6,2.34q-3.84,2.52-7.73,5l-5.19,3.38c-14.72,9.59-29.59,19.27-43.66,28.41l-4.93,3.2-9.62,6.24-91.17,59.42H51.57l43.09-28.57,17.83-11.64,8.62-5.62,4.23-2.76q4.22-2.73,8.32-5.42l12.1-7.89,7.83-5.1,7.64-5L176,2358.1l7.08-4.6q22.71-14.77,41.69-27.06l5.77-3.74,5.61-3.62q12.68-8.19,23.66-15.26l3.78-2.42,4-2.58,2.76-1.77q12.69-8.13,23.06-14.68l2.87-1.81,2.78-1.76,2.7-1.7q2.73-1.72,5.28-3.3l2.34-1.47,5.8-3.59,1.1-.68q4.38-2.7,8.15-5l.94-.57c2.48-1.5,4.76-2.86,6.87-4.1l1.93-1.13q2.83-1.65,5.2-3l1.54-.85.74-.41c.72-.4,1.41-.77,2.06-1.11l1.87-1c.39-.21.78-.4,1.14-.57s.71-.35,1.05-.51l1.43-.66c.15-.07.3-.14.44-.19l.42-.18q.62-.27,1.14-.45l.67-.24a9.66,9.66,0,0,1,1.38-.37c2.36-.41,4.6-.77,6.75-1.07.54-.08,1.07-.16,1.59-.22,1.06-.14,2.09-.27,3.1-.38s2-.22,3-.31l1.47-.12c1-.08,1.91-.14,2.85-.19H372c.91-.05,1.81-.09,2.71-.11h.06c.89,0,1.78,0,2.67,0a116.08,116.08,0,0,1,20.67,2c22.23,4.54,19.05,20-5.44,30.39-30.39,12.25-48.54,29.94-51.71,49.9-2.27,15.42-.91,18.59,15.42,34,.57.55,1.15,1.09,1.73,1.62s1.48,1.34,2.23,2,1.34,1.15,2,1.7,1.36,1.11,2,1.64,1.11.86,1.67,1.27l.72.53c.6.44,1.2.86,1.8,1.28s1.43,1,2.16,1.45,1.45.94,2.2,1.39,1.42.86,2.15,1.27l.2.12c.72.41,1.46.82,2.2,1.21,1.54.82,3.11,1.61,4.74,2.36l.05,0c.7.33,1.42.65,2.14,1l.58.25c.68.29,1.38.58,2.08.85l.62.25c.73.29,1.46.57,2.21.84s1.56.56,2.36.83l1.85.63,1.25.39,1.42.43c1.47.44,3,.86,4.52,1.27l1.36.34q1.67.42,3.36.81l2.89.63c3.76.78,7.71,1.48,11.9,2.1l1.81.26c3.64.52,7.46,1,11.46,1.38l3.94.38,2.95.26,3.52.28h.1c1.41.11,2.85.22,4.31.31a227,227,0,0,0,30.41.44l.45,0c1.88-.1,3.75-.24,5.61-.4l2.86-.26c.87-.08,1.73-.18,2.59-.27q2.71-.3,5.38-.68l1.75-.27c.5-.07,1-.14,1.49-.23.9-.14,1.8-.29,2.69-.45s1.85-.33,2.77-.51l2.48-.49q.92-.18,1.8-.39c.66-.13,1.32-.28,2-.44l1.47-.35c1-.23,1.93-.47,2.89-.72l2.37-.63c1.05-.29,2.1-.59,3.13-.91l1.74-.53c.78-.24,1.55-.48,2.32-.74.6-.19,1.19-.39,1.78-.6l1.32-.45,2.45-.89,2.42-.93c.81-.32,1.61-.64,2.4-1s1.58-.66,2.37-1c.58-.26,1.17-.51,1.75-.78s1.17-.52,1.74-.8c1.16-.54,2.3-1.09,3.44-1.66,1.51-.75,3-1.54,4.47-2.35q1.1-.6,2.19-1.23c1.33-.77,2.61-1.52,3.83-2.28.31-.18.61-.37.91-.56q2.93-1.83,5.43-3.64l1.09-.8c.36-.26.71-.53,1.05-.8s.69-.53,1-.8c1.2-1,2.32-1.92,3.35-2.9l.59-.56c.59-.56,1.15-1.13,1.68-1.7.36-.38.71-.76,1-1.14.51-.57,1-1.15,1.43-1.74l.44-.58.43-.59c.28-.39.55-.79.81-1.19s.51-.8.75-1.2.47-.81.68-1.22.43-.83.63-1.24.4-.84.58-1.26.35-.86.51-1.29.32-.87.46-1.31.28-.88.41-1.33a36.84,36.84,0,0,0,1-4.42l.12-.86c0-.19,0-.38.07-.57.05-.41.1-.84.13-1.26s.08-1,.11-1.53q.09-1.53.09-3.15c0-1.08,0-2.14-.07-3.18l-.06-1c0-.57-.08-1.12-.13-1.67,0-.31-.06-.63-.1-.94s-.07-.61-.11-.92c-.08-.61-.17-1.22-.27-1.81,0-.3-.1-.6-.16-.89l-.12-.61c-.05-.27-.11-.54-.17-.81,0-.11,0-.22-.08-.33-.12-.54-.26-1.07-.4-1.6a36,36,0,0,0-1.78-5c-.11-.27-.23-.53-.35-.79s-.18-.39-.28-.58a36.45,36.45,0,0,0-2.37-4.14l-.39-.57a44.2,44.2,0,0,0-6.28-7.24c-.27-.25-.54-.51-.83-.76s-.73-.66-1.11-1l-1-.85-.16-.13c-.39-.32-.79-.65-1.21-1-1.71-1.34-3.56-2.68-5.57-4-.41-.28-.83-.56-1.26-.83s-.83-.54-1.26-.8l-1.09-.68c-1.84-1.13-3.78-2.26-5.85-3.4q-1.86-1-3.84-2.07c-.89-.47-1.79-.93-2.71-1.4l-1-.5c-1-.5-1.92-1-2.83-1.46l-4.3-2.25a0,0,0,0,1,0,0l-1.58-.83c-1.3-.69-2.51-1.35-3.65-2l-1.32-.73c-.65-.37-1.28-.72-1.87-1.07l-1-.61-.11-.06-.88-.54c-.6-.36-1.17-.72-1.71-1.07l-.92-.61a23.86,23.86,0,0,1-5.17-4.4l-.32-.42a8.8,8.8,0,0,1-.84-1.36,3.73,3.73,0,0,1-.16-.35c-.11-.27-.21-.54-.29-.8s-.07-.28-.1-.43a4.21,4.21,0,0,1-.09-.49.88.88,0,0,1,0-.17,1.84,1.84,0,0,1,0-.33,7.56,7.56,0,0,1,.05-1.57,4.5,4.5,0,0,1,.08-.51.09.09,0,0,1,0-.05,9.42,9.42,0,0,1,.25-1.09,38.54,38.54,0,0,1,2.92-6.79c.13-.27.27-.53.41-.81s.22-.38.34-.56.15-.24.23-.36a2.88,2.88,0,0,1,.26-.35,6,6,0,0,1,1-1,5.06,5.06,0,0,1,.63-.45,15.3,15.3,0,0,1,4.94-1.85l.52-.12.54-.11c.92-.19,2-.37,3.12-.53l1.46-.2.78-.1.81-.09c.28,0,.56-.07.85-.09s.57-.07.87-.09c1.8-.18,3.8-.35,6.05-.51l2.13-.14h.2c2-.13,4.18-.24,6.56-.35l.6,0,2.34-.1L556,2246l2.79-.1h.13c3.24-.1,6.73-.19,10.51-.28q4.79-.1,10.18-.2l4.32-.07,4.74-.07,11.08-.14,6.87-.07,4.92,0,4.49,0,8.25-.06,7,0c3.51,0,7.13,0,10.86-.06h2l7.15,0h.42l12.14,0h8.51l18.82,0h1.46l9.64,0c32.48,0,70.75-.06,115.87-.06,253.56,0,297.11.91,297.11,6.35,0,3.63,1.36,9.53,2.72,13.61a8,8,0,0,1,.62,3,5.44,5.44,0,0,1,0,.57,4.26,4.26,0,0,1-.06.5,6.43,6.43,0,0,1-1.92,3.5,8.87,8.87,0,0,1-.79.69l0,0c-.15.11-.29.22-.45.32s-.32.21-.49.31l-.34.2-.41.21a15.31,15.31,0,0,1-1.53.66c-27.66,9.07-55.33,25.85-59.87,35.83-3.71,8.19-5.35,16-5,23.33,0,.38,0,.76.06,1.13a33,33,0,0,0,.37,3.32c0,.41.12.81.2,1.22s.18,1,.29,1.43.24,1.07.39,1.6.23.81.35,1.22.29.93.45,1.39.32.91.5,1.37.36.91.55,1.36.39.89.6,1.34.43.88.66,1.32.39.76.61,1.14a44.83,44.83,0,0,0,4.13,6.2l.49.6q.36.45.75.9t1,1.2q.92,1,1.92,2c.2.2.41.41.63.61s.59.57.9.86c.81.76,1.66,1.5,2.54,2.23.44.37.89.73,1.34,1.09s.92.72,1.39,1.07c.94.71,1.91,1.41,2.92,2.09s2,1.35,3.11,2,2.16,1.3,3.29,1.93c.57.31,1.14.63,1.72.93s1.16.61,1.75.92l1.82.9c1.21.59,2.46,1.17,3.74,1.73l1.94.83c1.31.55,2.65,1.09,4,1.61,2.05.78,4.16,1.53,6.35,2.24l2,.64.35.12c.67.2,1.34.41,2,.6.9.28,1.81.54,2.73.79,1.18.34,2.37.66,3.58,1q2.92.75,6,1.43a247.63,247.63,0,0,0,32.34,4.89c6.23.52,12.59.73,19,.64.72,0,1.43,0,2.15,0l1.33,0c1.3,0,2.6-.08,3.9-.14l.61,0,2.16-.12.72,0c1.23-.08,2.45-.16,3.68-.26,1.5-.11,3-.25,4.49-.4,1.15-.11,2.3-.23,3.44-.36l1.27-.14,2.1-.26,2.63-.35c1.69-.23,3.38-.49,5.07-.75h0l3.27-.55c1.43-.25,2.86-.52,4.28-.79,1.25-.24,2.49-.5,3.73-.76s2.47-.53,3.69-.81q5.24-1.2,10.27-2.61c1.35-.37,2.69-.76,4-1.16q1.74-.53,3.45-1.08l1.09-.35c1-.33,2-.66,3-1q4.92-1.7,9.52-3.59c.77-.31,1.53-.64,2.28-1q2.87-1.23,5.57-2.53c1.24-.6,2.45-1.2,3.64-1.82l1.23-.65c.39-.2.78-.42,1.17-.63l1.75-1q3.46-2,6.53-4.07c.52-.35,1-.7,1.51-1.05s1-.71,1.46-1.06c1-.71,1.87-1.43,2.75-2.16s1.73-1.47,2.53-2.21c.41-.38.8-.75,1.18-1.13s.83-.82,1.22-1.24.55-.58.81-.87a41.07,41.07,0,0,0,3.1-3.84c.23-.33.45-.66.66-1s.44-.69.65-1l.15-.25c.21-.35.4-.7.59-1a.43.43,0,0,1,0-.07c.19-.37.38-.73.55-1.1,0-.09.09-.19.13-.29q.2-.41.36-.81c.2-.47.38-.93.54-1.4a42.51,42.51,0,0,0,2.47-14.1q0-1.1-.06-2.19l-.06-.89-.06-.68c0-.47-.1-.95-.16-1.42l-.12-.86c-.09-.56-.19-1.12-.3-1.69-.06-.31-.12-.61-.19-.92s-.16-.71-.25-1.07-.15-.59-.24-.89-.23-.81-.35-1.22-.22-.69-.34-1c-.25-.74-.52-1.48-.8-2.21-.39-1-.82-1.94-1.27-2.89l-.54-1.06c-.17-.34-.35-.67-.53-1-.37-.67-.75-1.33-1.15-2l-.57-.92a1.4,1.4,0,0,1-.1-.16l-.59-.87c-.19-.3-.4-.59-.6-.88a54.3,54.3,0,0,0-4.64-5.72c-.28-.31-.56-.61-.85-.91l-.88-.9-.85-.84c-1.44-1.38-3-2.74-4.6-4.05-.49-.39-1-.79-1.49-1.17l-1.54-1.15-1-.75c-.62-.44-1.25-.86-1.89-1.29s-1.26-.82-1.9-1.22l-.13-.08-1.67-1-.32-.19-2.06-1.17c-1.62-.9-3.29-1.76-5-2.6-.86-.41-1.74-.82-2.63-1.22s-1.79-.79-2.71-1.18-1.85-.76-2.79-1.12c-.47-.19-.95-.37-1.43-.54q-1.44-.54-2.91-1.05c-15-5-17.69-7.71-17.69-19v-12.7Zm-1055.12-125,.93-.12c3.92-.5,8.55-.94,14.24-1.31l.68,0,5.87-.33H575l4.76-.21,5.19-.2,2-.06,1.93-.06,2.53-.07,2.51-.07,1.48,0,2.72-.07,1.45,0,3-.06,1.52,0,1.86,0,3-.05,1.8,0,3,0,2.08,0,1.81,0c3.66-.05,7.51-.08,11.55-.12l2,0,3,0h1.2l2.91,0h1.4l11-.06h10.09l10.35,0c16.2,0,34.55,0,55.39,0l11.37,0c1.54,0,3.11,0,4.69,0l7.87,0,22.56.06,8.94,0,9.83,0,10.9,0,8.92,0,15.57,0,133.81.46h.22l133.58.46,20,10.43c2.2,1.18,4.45,2.5,6.71,3.93l1.43.93c1.1.72,2.2,1.46,3.31,2.24l1.5,1.06c.65.46,1.3.94,2,1.43s1,.77,1.54,1.16c1.06.8,2.12,1.63,3.18,2.48l.86.7c1.1.88,2.2,1.79,3.29,2.72.54.45,1.07.91,1.61,1.39q3,2.59,5.95,5.38l1.62,1.54a207,207,0,0,1,24,27.41c.62.85,1.22,1.7,1.81,2.55q1.79,2.57,3.4,5.1c.54.84,1.06,1.69,1.57,2.53,1.27,2.09,2.45,4.17,3.53,6.22.43.81.85,1.63,1.25,2.44.27.55.54,1.12.8,1.72s.53,1.22.8,1.86.53,1.3.79,2c.13.34.27.69.39,1.05q.6,1.59,1.17,3.3c.39,1.14.77,2.32,1.15,3.54.25.81.5,1.63.75,2.48s.49,1.69.73,2.56c.85,3,1.66,6.23,2.44,9.53q.18.71.33,1.41c.46,2,.9,4,1.33,6l.54,2.65c.77,3.83,1.47,7.7,2.1,11.54.08.47.15.94.23,1.41.17,1.09.34,2.17.5,3.25.19,1.26.37,2.52.53,3.76.45,3.3.84,6.53,1.14,9.62.07.67.13,1.33.19,2s.12,1.37.17,2.05.1,1.21.14,1.81c.1,1.4.18,2.77.24,4.08,0,.65,0,1.28.07,1.9.09,3.1.06,5.89-.11,8.29,0,.46-.07.9-.11,1.33q0,.39-.09.75-.07.68-.18,1.29c-.06.41-.14.8-.22,1.17a15.33,15.33,0,0,1-.4,1.53c-1.82,6.81-7.26,8.17-28.58,8.17h-26.31l-3.18-32.66c-.16-1.67-.32-3.32-.5-4.94-.3-2.7-.63-5.34-1-7.9-.07-.5-.15-1-.23-1.5-.11-.77-.23-1.54-.36-2.3q-.73-4.48-1.63-8.69c-.6-2.8-1.26-5.5-2-8.12-.36-1.31-.73-2.6-1.11-3.86-.19-.63-.39-1.25-.59-1.87-.4-1.24-.81-2.46-1.24-3.65q-1-2.91-2.21-5.65c-.24-.58-.49-1.15-.74-1.71l-.42-.92-.3-.64c-.19-.42-.39-.84-.6-1.25s-.52-1.06-.79-1.58c-.36-.7-.73-1.39-1.1-2.07l-.27-.49c-.37-.68-.76-1.34-1.15-2s-.63-1-1-1.55-.64-1-1-1.51-.66-1-1-1.48-.68-1-1-1.45-.86-1.17-1.31-1.74c-.27-.36-.55-.71-.83-1.06-.44-.55-.89-1.1-1.35-1.63-.3-.35-.6-.7-.91-1-.77-.87-1.56-1.71-2.37-2.54-.4-.41-.81-.82-1.23-1.22s-.66-.64-1-.94a71.33,71.33,0,0,0-10.17-7.92l-1.28-.81c-.53-.33-1.07-.66-1.62-1s-1-.58-1.49-.86l-1.34-.74-1.2-.63-1.47-.74c-.45-.22-.89-.44-1.35-.65l-1.26-.59c-.54-.25-1.09-.49-1.64-.72-1.19-.52-2.4-1-3.64-1.5l-1.52-.58-.74-.27c-1.1-.4-2.21-.79-3.35-1.16-10.88-4.08-88.9-5.44-266.71-5.44-266.71,0-269,0-293.47,21.77a55.69,55.69,0,0,0-9.52,11.82c-.38.6-.74,1.21-1.11,1.83s-.73,1.25-1.09,1.89c-1.69,3-3.29,6.26-4.75,9.61-.24.55-.48,1.11-.71,1.66s-.53,1.29-.79,1.94a1.17,1.17,0,0,0-.09.24c-.26.63-.5,1.27-.74,1.91s-.52,1.38-.76,2.07-.49,1.39-.72,2.08a4.11,4.11,0,0,0-.15.46c-.33,1-.64,2-.93,2.93,0,0,0,0,0,0-.15.51-.3,1-.44,1.52s-.3,1.05-.44,1.58-.28,1.05-.41,1.57c-.09.36-.19.73-.27,1.09-.32,1.28-.6,2.56-.86,3.82-.14.67-.26,1.34-.38,2-.09.46-.17.92-.23,1.38-.12.68-.22,1.36-.31,2,0,.2-.06.4-.09.6-.05.36-.09.73-.13,1.1a2.58,2.58,0,0,0,0,.39c-.06.44-.1.88-.14,1.32s-.09,1-.12,1.45c0,.23,0,.45,0,.67,0,.51-.06,1-.08,1.51a.57.57,0,0,0,0,.13c0,.65,0,1.29,0,1.92a232.76,232.76,0,0,1-2.72,33.12c-2.72,13.6-3.18,14.06-29.49,14.06H434.85v-34c0-69.4,36.74-121.11,101.15-143.79.79-.26,1.57-.52,2.37-.76.26-.08.53-.17.8-.24.81-.24,1.63-.47,2.47-.7l1.51-.38.77-.18.8-.18c1.53-.34,3.17-.66,5-1l.83-.13C551.37,2122.11,552.24,2122,553.16,2121.86Zm542.57,236.61c-12.25-5.9-23.13-13.61-24.49-16.78a23.13,23.13,0,0,1-1.61-8.36c0-.34,0-.69,0-1s0-.55.06-.83a10.27,10.27,0,0,1,.12-1.1c0-.16,0-.32.07-.49s.07-.43.11-.64a.43.43,0,0,0,0,0l.15-.69c.11-.49.24-1,.39-1.48.08-.29.18-.57.27-.85.23-.68.5-1.36.8-2,.13-.29.27-.59.42-.88a1.17,1.17,0,0,1,0-.11c.15-.31.31-.62.48-.92s.36-.65.56-1c.38-.64.79-1.27,1.24-1.9.22-.31.45-.63.7-.94s.38-.5.59-.76l.2-.24q.34-.42.72-.84c.26-.3.52-.59.8-.88s.59-.62.9-.92.52-.52.8-.78.71-.65,1.08-1l1-.84,1-.84,1.09-.82c.37-.28.74-.55,1.13-.81l1.16-.8c.8-.52,1.62-1,2.46-1.54q2.55-1.5,5.41-2.87c21.32-10,26.31-9.07,26.31,3.63,0,.26,0,.51,0,.76s0,.59.06.88,0,.38.07.57a11.41,11.41,0,0,0,.27,1.46c0,.21.11.42.17.62s.14.44.22.66.16.42.25.63a12.28,12.28,0,0,0,.65,1.31c.09.15.18.29.28.43a15.38,15.38,0,0,0,6.1,5.21l.73.36.77.35.8.34c.27.11.55.22.84.32.57.22,1.16.42,1.78.61l1,.29,1,.27c1,.27,2,.52,3.16.75.73.15,1.48.29,2.26.43l1,.17.8.13.64.09,1.2.17c1.08.15,2.22.28,3.39.4l2,.19c1.66.15,3.41.27,5.24.37l1.38.07,3,.13,3.47.1q1.77,0,3.63.06h7.65q1.88,0,3.66-.06l3.5-.1,3-.13,1.39-.07c1.84-.1,3.59-.22,5.27-.37l2.18-.21c1.09-.11,2.14-.23,3.16-.37l1.28-.18.72-.1.72-.12,1-.17c.77-.14,1.53-.28,2.25-.43,1.48-.31,2.85-.65,4.12-1,1-.28,1.86-.58,2.71-.9.29-.1.56-.21.83-.32l.8-.34a1.89,1.89,0,0,0,.21-.09c.45-.2.87-.41,1.28-.62s.8-.43,1.18-.66.74-.46,1.08-.7l.74-.55c.24-.19.47-.38.69-.58l.53-.5c.17-.16.33-.34.49-.51a11.92,11.92,0,0,0,2.42-4c0-.17.11-.33.16-.5a3.81,3.81,0,0,0,.13-.45,13.81,13.81,0,0,0,.51-3.35c0-.25,0-.5,0-.76,0-10.88,9.07-11.34,27.22-2.27l1.21.64c.79.44,1.55.87,2.29,1.31l1.09.67c.36.22.71.44,1.05.67s.68.44,1,.67c1,.68,1.93,1.37,2.81,2.06l.86.7c.57.47,1.11.95,1.62,1.43l.63.59a29.47,29.47,0,0,1,3.24,3.73c.18.25.35.49.51.73.34.5.65,1,.94,1.53l.35.65a18,18,0,0,1,.91,2.08c.06.15.11.3.16.45a16.1,16.1,0,0,1,.7,2.92c0,.22.06.45.08.67s0,.51.06.77,0,.51,0,.77,0,.57,0,.85,0,.64-.08,1a2.23,2.23,0,0,1,0,.36c0,.25-.07.49-.11.73s-.13.65-.21,1-.17.65-.27,1a20.22,20.22,0,0,1-1.7,3.93c-.17.31-.35.61-.54.92s-.3.47-.45.71l-.3.45c-.19.26-.37.52-.56.77s-.48.64-.74,1l-.1.13c-.22.26-.44.53-.68.8l-.89,1-.93,1c-.32.32-.64.64-1,.95s-.68.64-1,1c-.72.63-1.47,1.26-2.26,1.88s-1.63,1.25-2.5,1.86-1.78,1.23-2.73,1.84-1.94,1.22-3,1.82-2.09,1.19-3.2,1.78q-3.32,1.79-7.11,3.49c-1.79.81-3.5,1.56-5.19,2.24s-3.35,1.33-5,1.92c-1.1.39-2.19.76-3.29,1.1-2.24.7-4.51,1.31-6.87,1.85l-1.54.33-.55.11c-.9.19-1.81.35-2.74.51l-.59.1-1.78.28c-1,.15-1.95.28-3,.4-1.19.15-2.41.29-3.68.41s-2.78.25-4.25.35q-.86.07-1.74.12c-.31,0-.62,0-.94.06l-.89.05-.29,0-1.42.07c-2.94.15-6.09.26-9.5.34l-2.26,0-1.16,0-1.18,0h-.79l-1.62,0c-3.28,0-6.78.05-10.52.05C1123.85,2369.36,1114.33,2368,1095.73,2358.47ZM903.41,2222.85c-111.58.91-242.67.45-291.21-.91-83-2.26-87.08-2.72-78.92-10,4.54-4.08,13.61-9.52,19.51-12.24,6.8-2.73,108-4.54,262.17-4.54,200-.45,253.55.91,265.35,5.44,8.16,3.63,17.24,9.53,20.41,13.61C1106.16,2220.58,1088,2221.48,903.41,2222.85ZM436,2325l1.16.15c1,.12,2,.23,3,.33s2.34.21,3.58.29q3.21.22,6.79.35l1.53.05h.42l2,.06,1.54,0,2.92,0h6.88q1.88,0,3.66-.06l3.5-.1,3-.13,1.39-.07c1.84-.1,3.59-.22,5.27-.37l2.18-.21c1.09-.11,2.14-.23,3.16-.37l1.28-.18.72-.1.72-.12,1-.17c.77-.14,1.53-.28,2.25-.43,1.48-.31,2.85-.65,4.12-1,1-.28,1.86-.58,2.71-.9.29-.1.56-.21.83-.32l.8-.34a1.89,1.89,0,0,0,.21-.09c.45-.2.87-.41,1.28-.62s.8-.43,1.18-.66.74-.46,1.08-.7l.74-.55c.24-.19.47-.38.69-.58l.53-.5c.17-.16.33-.34.49-.51a11.92,11.92,0,0,0,2.42-4c.05-.17.11-.33.16-.5a3.81,3.81,0,0,0,.13-.45,13.81,13.81,0,0,0,.51-3.35c0-.25,0-.5,0-.76,0-11.79,10.89-11.34,30.39.46q1.8,1.11,3.33,2.13c.3.2.6.39.88.59.63.43,1.23.85,1.79,1.26a29.1,29.1,0,0,1,4.91,4.34l.53.66a7.9,7.9,0,0,1,.5.68s0,0,0,0c.16.23.31.46.45.7l0,.06c.12.21.25.43.36.66s.21.41.31.62l.09.21c.09.22.18.44.26.66s.18.51.26.78.18.63.25,1,.1.45.14.68.06.37.08.56.05.39.08.59l.06.6a.27.27,0,0,0,0,.09c0,.28,0,.58,0,.88s0,.65,0,1a48.74,48.74,0,0,1-.35,5.32c0,.28-.07.55-.1.82s-.07.53-.11.79a22.57,22.57,0,0,1-3,9.1,17,17,0,0,1-1,1.44c-.18.24-.37.47-.58.7a7.88,7.88,0,0,1-.55.62,21.3,21.3,0,0,1-1.86,1.79c-.26.23-.53.46-.81.68a59.61,59.61,0,0,1-8.63,5.58l-1.7.93-1.78.94c-.71.37-1.44.75-2.2,1.13l-1.74.88c-20,10-28.57,11.34-70.3,11.34S411.72,2368,392.21,2358q-3.16-1.59-6-3.13c-.46-.25-.92-.5-1.37-.76-.66-.37-1.31-.73-1.94-1.1l-1.35-.8c-1.12-.67-2.2-1.33-3.22-2-.42-.27-.83-.54-1.22-.81l-1.15-.78q-2.76-1.92-4.95-3.79l-1-.9a34.32,34.32,0,0,1-2.49-2.48q-.71-.78-1.32-1.56c-.4-.53-.78-1.05-1.12-1.56a15,15,0,0,1-2.44-6.2,11.42,11.42,0,0,1-.1-1.85c0-.24,0-.48,0-.72s.05-.48.09-.72.08-.48.13-.72.11-.49.17-.73a16,16,0,0,1,1.91-4.26c.1-.17.2-.33.31-.49s.39-.58.6-.87.33-.45.5-.67a29.57,29.57,0,0,1,2.16-2.47c.13-.14.25-.27.39-.4,4.2-4.25,10.49-8.64,18.86-13.31,11.67-6.91,17.84-10.07,21.07-9.53a2.3,2.3,0,0,1,.28.06,3.11,3.11,0,0,1,.59.21l.26.14a2.2,2.2,0,0,1,.25.17,3.33,3.33,0,0,1,.91,1.1,1.47,1.47,0,0,1,.14.28c.05.1.09.2.14.31a5.34,5.34,0,0,1,.21.64,1.61,1.61,0,0,1,.1.36,22.38,22.38,0,0,1,.51,4.71c0,.76,0,1.58,0,2.45a20.64,20.64,0,0,0,.87,6.26,14.39,14.39,0,0,0,.95,2.28,13.78,13.78,0,0,0,2.43,3.3l.62.59a4.23,4.23,0,0,0,.4.34,15.12,15.12,0,0,0,1.68,1.23,19.54,19.54,0,0,0,1.81,1.05c.21.12.43.22.66.33a37,37,0,0,0,7.19,2.43h0c.61.14,1.25.29,1.91.42l1,.2,2.09.36C434.53,2324.76,435.28,2324.86,436,2325Zm1044.73-276.28c.8,4,1.61,8,2.4,12l.48,2.42c.8,4,1.59,8,2.37,12.06l.93,4.83c.16.81.32,1.61.47,2.42l.93,4.85c.31,1.61.62,3.23.92,4.85s.61,3.23.91,4.84q.69,3.63,1.35,7.25,1.58,8.45,3.06,16.75c.57,3.16,1.12,6.29,1.68,9.4.07.39.14.78.2,1.16.2,1.17.41,2.32.61,3.48.27,1.54.54,3.07.8,4.59s.53,3,.78,4.54.51,3,.76,4.48c1.75,10.38,3.35,20.24,4.73,29.31.2,1.3.39,2.58.58,3.84,1.13,7.57,2.09,14.53,2.86,20.7l3.18,23.58-106.14-.45c-58.06,0-124.29-1.36-147-2.27l-41.27-2.26h0l-10.44-25.4c-.22-.53-.44-1.06-.68-1.59s-.47-1.07-.72-1.6c-.44-1-.9-1.91-1.38-2.87l-.79-1.55-.82-1.55c-.41-.76-.83-1.51-1.26-2.27-.28-.51-.58-1-.87-1.53l-.76-1.28c-.25-.42-.51-.84-.77-1.26s-.65-1.07-1-1.6l-1-1.61c-.42-.65-.85-1.31-1.29-2-.64-1-1.29-1.91-2-2.87q-2.82-4-6-8.11c-.41-.54-.84-1.08-1.26-1.62q-3.56-4.48-7.43-8.92l-1.49-1.68-1.24-1.38c-1.18-1.31-2.38-2.6-3.59-3.89-1-1-1.9-2-2.86-3-2-2.06-4-4.08-6.12-6.06s-4.09-3.84-6.16-5.68-4.16-3.63-6.25-5.35c-1-.87-2.09-1.71-3.14-2.54-2.62-2.07-5.23-4-7.83-5.88-1-.73-2.08-1.45-3.11-2.14s-2.06-1.37-3.09-2q-.77-.49-1.53-1c-1.82-1.13-3.63-2.18-5.41-3.15-.46-.25-.91-.5-1.36-.73l-1.35-.7c-.78-.39-1.55-.77-2.31-1.13-21.77-10-24-10-291.2-11.34-237.68-.9-272.16-.45-294.84,6.35-49.44,14.52-93.89,54-112,99.79l-7.26,18.6-39.46,2.27-39.46,2.27-45.36,30.39c-24.5,16.33-45.36,28.12-46.27,25.85a4.38,4.38,0,0,1-.13-1.51c0-.11,0-.22,0-.33v-.12c0-.1,0-.2,0-.31,0-.6.11-1.3.2-2.09.06-.49.13-1,.21-1.58.06-.39.12-.79.19-1.21s.12-.79.19-1.21c0-.21.07-.44.11-.66.13-.71.26-1.46.4-2.24s.3-1.59.46-2.43.34-1.71.52-2.61.38-1.82.58-2.76c.1-.48.2-1,.31-1.45.22-1,.43-2,.66-3,.11-.51.23-1,.35-1.54s.23-1,.36-1.57.24-1.06.37-1.6c.26-1.07.52-2.16.78-3.26h0c.27-1.1.54-2.22.82-3.35.56-2.26,1.15-4.57,1.76-6.91l1.2-4.74,1-3.75q3.84-14.91,7.91-29.17c.36-1.27.72-2.54,1.09-3.8q3.26-11.31,6.68-22.2.87-2.79,1.75-5.54,2.57-8.05,5.23-15.89c.41-1.21.82-2.41,1.24-3.61l.21-.62q.68-1.95,1.35-3.87,1-2.88,2-5.73.81-2.28,1.64-4.53c.28-.79.57-1.59.87-2.37.53-1.47,1.08-2.93,1.62-4.38s1.08-2.87,1.62-4.29c.3-.79.61-1.58.91-2.36q1.9-5,3.86-9.83c.64-1.59,1.28-3.18,1.93-4.75,1-2.38,1.94-4.73,2.93-7.07l1.62-3.8q2.31-5.41,4.7-10.72c.51-1.14,1-2.27,1.54-3.4.59-1.3,1.18-2.6,1.79-3.89q3.67-7.93,7.5-15.61c.52-1.05,1-2.09,1.57-3.13q4.89-9.69,10-18.95,1-1.82,2-3.6,1.26-2.25,2.54-4.47c.72-1.25,1.45-2.49,2.17-3.73l1.59-2.68,1.6-2.68c.73-1.21,1.47-2.43,2.21-3.63.65-1,1.3-2.11,2-3.16s1.19-1.9,1.79-2.85q1.29-2,2.59-4c.73-1.13,1.46-2.25,2.2-3.37q6.78-10.28,13.93-20l1.74-2.34q2.64-3.54,5.35-7c.87-1.13,1.75-2.24,2.63-3.35q1.88-2.36,3.76-4.68c.81-1,1.61-2,2.43-3l2.44-2.91q2.1-2.48,4.21-4.91l2-2.22c.5-.57,1-1.14,1.51-1.7q3-3.37,6.12-6.7c.89-1,1.79-1.91,2.69-2.86q2.17-2.29,4.39-4.54c.93-1,1.87-1.91,2.82-2.86s2-2,3-2.94l.63-.62q1.63-1.6,3.29-3.18t3.5-3.31q2.49-2.34,5-4.63c1.69-1.53,3.4-3,5.11-4.55q2.81-2.45,5.66-4.86c.63-.54,1.27-1.08,1.91-1.6q4.29-3.59,8.69-7.06c.67-.54,1.34-1.07,2-1.59,2.07-1.62,4.15-3.22,6.26-4.79.65-.51,1.31-1,2-1.48l3-2.19q2.78-2,5.61-4c2.87-2,5.76-4,8.7-6,.92-.62,1.84-1.24,2.76-1.84l2.92-1.92q2.93-1.9,5.89-3.77c1.2-.75,2.4-1.5,3.61-2.24.79-.5,1.58-1,2.37-1.45l3-1.82c1-.62,2-1.22,3-1.81q3.54-2.09,7.16-4.13c1.73-1,3.46-2,5.21-2.91,1-.59,2.09-1.16,3.14-1.72l3.17-1.7c1.06-.58,2.12-1.14,3.19-1.69,2-1.08,4.11-2.15,6.19-3.19l.83-.42,2.67-1.35,1.33-.65,1.39-.68,2.88-1.39,3.31-1.55c1.66-.78,3.42-1.58,5.25-2.41l2.08-.94,2.56-1.14,1.11-.49c6-2.67,12.65-5.55,19.89-8.61l4.9-2.07,5.06-2.12c8.56-3.57,17.73-7.34,27.33-11.23l2.89-1.17,2.92-1.18,5.9-2.37c5.95-2.39,12-4.81,18.19-7.25l3.09-1.22c7.22-2.85,14.55-5.72,21.93-8.59l6.33-2.46c4.22-1.64,8.46-3.28,12.69-4.9l6.35-2.44q9.51-3.65,18.92-7.2l5.46-2.07.78-.29,6.18-2.32c2.05-.78,4.1-1.54,6.13-2.3l8.19-3,2.19-.81c1.56-.58,3.1-1.16,4.64-1.72,3-1.09,5.86-2.17,8.74-3.22l.27-.1,5.44-2c12.73-4.64,24.61-8.89,35.18-12.56l2.87-1c5.65-2,10.9-3.73,15.67-5.3l4.6-1.5c4.44-1.42,8.37-2.64,11.72-3.61l1.27-.36,2.6-.72,1-.26q1.63-.42,3-.72l.85-.18h0l.72-.14.22,0c.59-.11,1.11-.18,1.54-.22H829l.47,0c4.09-.45,20.42,13.16,36.29,29.49,61.69,62.59,350.17,323.86,357.88,323.86a1.24,1.24,0,0,0,.3,0l.23-.06.23-.08.27-.11a18.63,18.63,0,0,0,2.24-1.15l.86-.51,1-.6.8-.51,1.73-1.14,1.53-1,1.37-1c4.42-3.09,9.82-7.11,15.46-11.55l2.61-2.08q.66-.51,1.32-1.05,2.12-1.73,4.32-3.5l1.49-1.18,3-2.38q4.6-3.58,9.53-7.28l1.65-1.23c1.1-.83,2.22-1.66,3.34-2.48q3.38-2.47,6.87-5l3.51-2.52c1.18-.84,2.37-1.69,3.57-2.53q5.38-3.81,11-7.62c.92-.64,1.85-1.28,2.79-1.91s1.87-1.28,2.81-1.91l2.83-1.91c9.76-6.58,19.79-13.11,29.81-19.44l1.94-1.22c16.79-10.58,33.5-20.56,48.79-29.17l2-1.11c3.55-2,7-3.9,10.38-5.73l2.94-1.57c3.94-2.12,7.74-4.1,11.36-5.93l4-2c2.4-1.19,4.71-2.31,6.93-3.34l1.32-.62c.63-.3,1.26-.59,1.88-.86l1.92-.87c2.11-.94,4.11-1.79,6-2.55l1.78-.71,1.23-.47c.67-.26,1.33-.5,2-.72a52.41,52.41,0,0,1,7-2l.72-.14c3.11-.54,5-.21,5.5,1.12.17.47.34,1,.52,1.49s.45,1.35.69,2.1c.11.33.21.67.32,1l.43,1.4.66,2.25.55,1.93c2.09,7.45,4.54,17.31,7.22,28.86l.42,1.82c.21.92.43,1.84.64,2.78.15.64.29,1.27.44,1.92q.75,3.32,1.52,6.78c.23,1,.47,2.12.71,3.19q1,4.49,2,9.2c.26,1.16.51,2.34.76,3.52.05.23.1.45.14.67.27,1.23.53,2.48.8,3.73.82,3.84,1.64,7.77,2.46,11.76l.87,4.16c.18.89.37,1.79.55,2.7C1479.86,2044.19,1480.31,2046.43,1480.77,2048.68Zm190-296.08q1,2.54,2.07,5.11.9,2.2,1.8,4.46l.78,1.94q1.85,4.61,3.71,9.32c8.07,20.39,16.37,42.15,24.73,64.92l3.1,8.45,1.74,4.8c.54,1.48,1.07,3,1.61,4.46q1.77,4.9,3.54,9.86c.73,2.06,1.47,4.11,2.2,6.18l.87,2.46c.49,1.38,1,2.76,1.46,4.14q3.24,9.16,6.45,18.47l25.4,71.67-12.7-2.27c-130.18-27.67-173.72-36.29-211.37-41.73l-7.36-1.11-2.63-.4-4.16-.65-2.66-.42c-3.62-.58-7-1.13-10.15-1.66l-1.74-.29-3.31-.58-2.25-.4-.72-.13c-1.2-.22-2.31-.42-3.33-.62l-1.19-.23-1.11-.22-1-.21-.48-.1-.88-.19-.4-.09-.73-.17c-.62-.15-1.11-.28-1.47-.4l-.38-.13a1,1,0,0,1-.25-.12l-.06,0s0,0-.05-.07a1.89,1.89,0,0,1-.06-.59,61.76,61.76,0,0,1,1.36-8.41c.71-3.51,1.68-8,2.89-13.17.25-1.1.51-2.24.78-3.41q.62-2.62,1.29-5.48c.29-1.21.59-2.44.89-3.71,1.78-7.43,3.84-15.79,6.11-24.82q1.2-4.79,2.47-9.8c.1-.36.19-.72.28-1.08l.81-3.19c.1-.37.19-.73.28-1.1q.69-2.68,1.39-5.42c1.37-5.33,2.79-10.8,4.24-16.36,32.66-123.38,43.55-174.63,43.55-209.56,0-32.66,3.17-34.47,30.39-15.87.94.65,1.9,1.34,2.88,2.06,2.09,1.53,4.26,3.2,6.44,5,.71.57,1.43,1.15,2.14,1.74,2.22,1.83,4.43,3.74,6.54,5.65l1.44,1.32c.77.7,1.52,1.41,2.25,2.11s1.24,1.2,1.84,1.8l.89.89.86.88h0c.84.88,1.64,1.74,2.39,2.57l.74.84c.71.82,1.37,1.62,2,2.38.35.42.7.86,1.07,1.32l.27.35c.45.59.92,1.21,1.39,1.86.29.39.57.79.86,1.21.49.69,1,1.41,1.49,2.17.41.6.82,1.22,1.23,1.87,6,9.29,13.24,22.7,21.38,39.5l1,2c4,8.39,8.29,17.6,12.72,27.53.44,1,.87,2,1.31,2.93q3.89,8.76,7.94,18.23l2.54,6,.93,2.2q1.18,2.79,2.37,5.64,2.65,6.36,5.36,13Q1669.78,1750.07,1670.8,1752.6ZM3144.14,1899c29.94,10,37.65,10.88,86.64,8.61,13-.67,24.11-1,33.54-.87l1.48,0c1.15,0,2.27,0,3.37.09l2.09.08c1.08,0,2.14.1,3.17.16l1.05.07c3.56.23,6.82.57,9.8,1l1.1.17c.47.08.93.15,1.38.24q3,.53,5.54,1.23l1.19.34,1,.29.85.29,1.06.38a32.74,32.74,0,0,1,4.76,2.2c.29.16.57.33.84.5s.46.28.68.43l.22.15.69.49c.22.15.44.32.66.49a21.58,21.58,0,0,1,3.33,3.21c.26.31.5.62.75,1,0,.07.11.14.16.22.23.32.46.65.68,1,.33.51.63,1,.92,1.56.19.36.38.72.56,1.1a30.35,30.35,0,0,1,2.11,6.14c.07.31.14.64.22,1,0,0,0,0,0,0,.07.34.14.68.2,1,.26,1.4.47,2.88.62,4.42q.15,1.53.24,3.15.15,2.7.15,5.67c0,24-32.65,40.82-79.83,41.27-20.41,0-32.66-2.72-47.62-10.43-19.05-10-51.71-45.36-68.5-74.39l-7.71-13.15Zm435.9,80.28c-6.8,4.54-46.26,21.77-87.54,39-41.28,16.78-103,41.73-137,55.79-98.42,40.82-137.43,49.44-224.07,49.9-8.19,0-15.84,0-23-.16l-3.24-.06c-2.91-.06-5.74-.13-8.51-.21l-2.93-.1-3.58-.13-3.12-.13-2-.09-3.36-.17-.85-.05-2.44-.14-3-.19-2-.14-2.87-.22c-4.71-.37-9.23-.81-13.62-1.33l-.16,0-2.4-.3-.65-.08-2.2-.3a2.9,2.9,0,0,1-.41-.06l-2.82-.4-.64-.1-2.55-.4c-3.56-.58-7.06-1.22-10.53-1.94l-2.69-.57c-2.6-.57-5.19-1.18-7.79-1.84l-2.43-.63c-4.06-1.07-8.12-2.26-12.23-3.57-.81-.25-1.63-.51-2.45-.79-2.47-.81-5-1.66-7.5-2.58-1.68-.59-3.39-1.22-5.11-1.87l-2.59-1q-2.59-1-5.27-2.06l-2.68-1.09q-4-1.65-8.27-3.46c-1.88-.8-3.78-1.63-5.72-2.49q-4.35-1.92-8.94-4c-2-.93-4.12-1.88-6.23-2.87l-6.47-3c-2.42-1.15-4.83-2.28-7.21-3.38q-2.37-1.11-4.7-2.17c-3.88-1.77-7.64-3.46-11.22-5-2.14-.95-4.22-1.85-6.2-2.71l-2-.84-3.74-1.58-.89-.37-1.74-.72-.84-.34-1.63-.66c-.53-.22-1.05-.43-1.56-.62l-1.47-.58c-1.67-.66-3.17-1.22-4.47-1.68l-2-.7-.44-.15-.67-.2-.64-.18-.29-.08-.51-.12a4.16,4.16,0,0,0-.58-.1h-.26a5.64,5.64,0,0,0-.93.08,4.72,4.72,0,0,0-.86.23,3.51,3.51,0,0,0-.48.22c-.15.08-.31.16-.45.25a5.09,5.09,0,0,0-.84.66,3.51,3.51,0,0,0-.33.34l-.26.31a1.09,1.09,0,0,0-.13.17c-.15.2-.29.41-.43.63a7.37,7.37,0,0,0-.39.74,2.3,2.3,0,0,0-.15.32,12.25,12.25,0,0,0-.8,2.65c0,.2-.07.39-.1.59s-.09.68-.12,1c0,.16,0,.31,0,.47s0,.32,0,.48a18.49,18.49,0,0,0,.75,5.72,16.88,16.88,0,0,0,1.14,2.86c.23.45.49.89.76,1.32s.58.83.9,1.22c.16.2.33.39.5.57,1.37,1.14,1.82,4.58,1.41,9.68-.06.75-.13,1.53-.23,2.35-.15,1.28-.35,2.64-.59,4.07q-.24,1.44-.54,3c-.15.76-.31,1.55-.48,2.35l-.27,1.21c-.09.41-.18.82-.28,1.23-.12.56-.26,1.12-.4,1.69-.28,1.13-.57,2.29-.89,3.48q-.9,3.45-1.92,8c-.83,3.71-1.74,8-2.7,12.72-.15.73-.3,1.47-.45,2.23-1.08,5.4-2.22,11.4-3.44,17.94-.22,1.22-.45,2.45-.68,3.7q-1.54,8.46-3.2,18c-.25,1.41-.5,2.83-.75,4.27h0c-.25,1.44-.5,2.9-.75,4.37-.13.73-.25,1.47-.38,2.22-.26,1.49-.52,3-.77,4.51q-1,5.7-2,11.67c-.38,2.3-.77,4.62-1.15,7-.29,1.73-.58,3.49-.87,5.26q-.6,3.66-1.21,7.43l-.42,2.65c-.49,3-1,6-1.46,9.09-.2,1.23-.39,2.47-.59,3.72q-1.92,12.07-3.89,24.83l-.09.57c-4.8,31-9.78,64.76-14.67,99.43-.08.62-.17,1.24-.26,1.86q-1,7.39-2.08,14.84l-1.44,10.38c-.34,2.51-.69,5-1,7.52-.23,1.72-.47,3.44-.7,5.17q-.87,6.35-1.73,12.7c-.28,2.12-.57,4.24-.85,6.36s-.54,4.08-.81,6.09-.54,4-.8,6q-2.18,16.13-4.19,30.86-.43,3.11-.85,6.15-1,7.62-2.07,14.89c-.21,1.53-.43,3.05-.64,4.56q-.54,3.83-1.07,7.56c-.23,1.63-.46,3.25-.69,4.85l-1.56,10.8c-1.53,10.6-3,20.61-4.48,30.11q-.92,5.94-1.8,11.62-.93,6-1.86,11.66-.48,3-1,5.91c-.46,2.83-.93,5.61-1.39,8.35q-.34,2.05-.69,4.08-.72,4.23-1.44,8.33c-.18,1.07-.37,2.15-.56,3.21-5.15,29.09-10.2,53.28-15.9,76.78-.36,1.49-.72,3-1.09,4.46-.07.3-.14.59-.22.89-.26,1.09-.53,2.17-.81,3.25q-2,8.13-4.2,16.29c-41.73,156.49-133.81,336.56-208.65,405.51-38.1,35.83-69.4,49-119.75,51.71-7.44.4-14.53.57-21.37.47l-1.27,0c-1.15,0-2.29-.05-3.43-.09h-.09c-1.4,0-2.78-.1-4.16-.17s-2.71-.14-4.06-.23l-.19,0c-1.18-.08-2.37-.17-3.54-.27l-.59,0c-1-.08-2-.18-3-.28l-.41,0-1.21-.13-.18,0c-.87-.09-1.74-.19-2.6-.3l-1-.12c-1.19-.15-2.38-.31-3.56-.48l-1.78-.27-1.77-.28c-1.77-.28-3.54-.6-5.31-.92-1.17-.22-2.34-.46-3.52-.7h0c-1.17-.24-2.35-.5-3.53-.76l-3.53-.83c-1.18-.28-2.37-.58-3.55-.89-5.32-1.39-10.7-3-16.18-4.85l-1.84-.62-3.69-1.3c-1.24-.44-2.48-.9-3.73-1.37-1.88-.7-3.77-1.43-5.69-2.2l-1.92-.77-1.93-.78c-1.29-.53-2.6-1.07-3.91-1.63l-4-1.7-4-1.78q-3-1.37-6.18-2.82-2.09-1-4.21-2c-2.13-1-4.28-2-6.47-3.11-30.39-15-46.27-26.76-79.83-59.87-23.14-23.14-50.81-54.89-61.24-71.22-3.34-5.08-7.52-12.09-12.28-20.55-.49-.87-1-1.75-1.49-2.65-.62-1.11-1.26-2.26-1.9-3.43l-2.26-4.11-1.31-2.41-1.22-2.24-1.24-2.32q-.63-1.15-1.26-2.34c-5.48-10.24-11.39-21.59-17.49-33.58l-1.41-2.78q-3.95-7.76-8-15.79l-1-2.07c-6.6-13.25-13.27-26.9-19.74-40.4l-1.86-3.9q-2.52-5.26-5-10.49c-.33-.69-.66-1.39-1-2.08q-3.44-7.28-6.72-14.36c-.63-1.34-1.24-2.68-1.86-4l-2-4.29c-.56-1.22-1.12-2.44-1.66-3.64l-1.49-3.27-1.15-2.53c-.48-1.08-1-2.15-1.44-3.21q-.57-1.24-1.11-2.46c-.38-.85-.76-1.7-1.14-2.53q-3.15-7.07-6-13.6l-1.46-3.38q-2-4.59-3.75-8.84l-1-2.29h0l-1-2.54q-.6-1.43-1.14-2.79c-.25-.64-.51-1.27-.76-1.9l-16.79-43.09,7.26-42.64c.17-.94.33-1.87.49-2.8l.48-2.66c.74-4.11,1.47-8.08,2.18-11.82.24-1.25.47-2.48.71-3.68,1.21-6.31,2.34-11.77,3.3-15.84.15-.66.3-1.28.44-1.86.09-.39.18-.76.28-1.11s.18-.68.26-1,.24-.85.35-1.22.28-.89.4-1.24a.69.69,0,0,1,.05-.13,3.58,3.58,0,0,1,.52-1,.17.17,0,0,1,.06-.06c1.36-1.36,19.05-4.08,39.92-6.35,100.7-10.89,184.16-33.11,260.81-70.31,28.13-13.61,52.17-24.49,53.07-24.49a.4.4,0,0,1,.15,0,.76.76,0,0,1,.18.09.87.87,0,0,1,.15.13l.15.15a4.64,4.64,0,0,1,.4.55c.09.16.19.34.29.54a21.19,21.19,0,0,1,1,2.43c.06.16.11.33.17.5.22.68.45,1.43.67,2.22.06.2.12.4.17.61.11.37.21.76.3,1.15.17.69.34,1.41.5,2.15.11.46.21.94.3,1.43.2,1,.39,2,.56,3l.09.56a41.53,41.53,0,0,1,.33,8.51c0,.35,0,.69-.06,1.05-.13,2.18-.36,4.55-.71,7.11-.07.57-.15,1.16-.24,1.75-.15,1-.32,2.12-.51,3.23-.14.88-.3,1.78-.47,2.7-.09.49-.18,1-.28,1.5s-.19,1-.3,1.53q-.48,2.49-1.07,5.14c-.21,1-.43,2-.66,3,0,0,0,0,0,0-.22,1-.46,2-.71,3q-1.11,4.58-2.43,9.54c-.51,1.9-1,3.83-1.6,5.81-1.57,5.31-3.06,10.72-4.45,16.18-.35,1.36-.69,2.73-1,4.1-.68,2.75-1.33,5.5-2,8.26-.47,2.08-.93,4.15-1.38,6.23-.3,1.38-.6,2.77-.88,4.16-.36,1.73-.71,3.47-1,5.2s-.68,3.47-1,5.2c-.51,2.78-1,5.55-1.48,8.31-.23,1.38-.46,2.76-.68,4.13l-.45,2.84c-.07.43-.13.86-.2,1.29-.17,1.11-.33,2.22-.5,3.33l-.33,2.31c-.12.85-.24,1.7-.35,2.55-.17,1.25-.34,2.5-.5,3.75,0,.28-.07.56-.11.84-.14,1.17-.29,2.34-.43,3.5-1,8.21-1.72,16.22-2.21,23.92l-.18,3c-.14,2.57-.26,5.1-.34,7.58,0,.75-.05,1.5-.07,2.24,0,.15,0,.31,0,.46,0,.63,0,1.25-.05,1.86s0,1.43,0,2.12,0,1.14,0,1.7a217.24,217.24,0,0,0,1.11,25c2.72,26.76,4.08,29.93,12.7,29.93,9.52,0,10-1.36,10-55.34,0-76.2,10.43-116.11,59.87-230.42,8.71-20,18.08-41.06,28-62.85.75-1.68,1.52-3.36,2.29-5.05q9.2-20.27,18.92-41.26,1.18-2.56,2.39-5.14,7.29-15.75,14.82-31.74,1.24-2.65,2.5-5.33l2.52-5.35q2.52-5.34,5.07-10.71c1.9-4,3.82-8.07,5.73-12.1,1.28-2.69,2.57-5.38,3.85-8.08,10.28-21.55,20.72-43.2,31.18-64.68l2.87-5.88q9.36-19.17,18.72-38.1c1.3-2.64,2.61-5.28,3.91-7.91q3.92-7.89,7.8-15.7,3.24-6.49,6.47-12.94l2.58-5.15q1.27-2.57,2.57-5.12h0q1.28-2.55,2.56-5.09l5.11-10.14q4.77-9.45,9.48-18.7c.22-.41.42-.82.63-1.23q1.56-3.09,3.13-6.14c1.24-2.45,2.49-4.88,3.73-7.31.21-.4.42-.8.62-1.2q2.48-4.84,4.93-9.61,3.67-7.16,7.3-14.15h0q4.52-8.74,9-17.22l.59-1.12q1.46-2.82,2.93-5.61,2-3.9,4.06-7.73l2.87-5.45c1.14-2.17,2.27-4.31,3.4-6.44l3.37-6.34q1.67-3.15,3.32-6.24c.19-.34.37-.68.55-1,.73-1.37,1.46-2.74,2.19-4.09q3.8-7.1,7.48-13.89l1.05-1.93,3.11-5.72,3.06-5.59q3.54-6.45,6.93-12.56l1.92-3.45c1.08-1.93,2.14-3.83,3.2-5.7l1.27-2.26q5.9-10.46,11.23-19.59l1.24-2.13q1.65-2.8,3.24-5.48c.53-.89,1.05-1.77,1.57-2.63s1.13-1.89,1.69-2.81c.71-1.18,1.41-2.33,2.1-3.46.49-.81,1-1.6,1.46-2.38s.95-1.55,1.42-2.3q2.11-3.4,4.08-6.45l.65-1,1.27-1.95c3.94-5.87,8.28-11.87,12.89-17.87.47-.61.95-1.24,1.44-1.85,2.46-3.19,5-6.36,7.6-9.51.88-1.06,1.76-2.12,2.65-3.17.59-.71,1.18-1.41,1.78-2.11s1.42-1.67,2.14-2.49c.14-.18.29-.35.44-.51.63-.74,1.27-1.47,1.92-2.21l2.15-2.43c1.62-1.82,3.25-3.63,4.89-5.41.7-.76,1.4-1.52,2.1-2.26s1.53-1.64,2.3-2.45l2.3-2.41.36-.38,1.94-2c.72-.74,1.45-1.48,2.18-2.21,3-3.05,6-6,9-8.76,1-.91,1.91-1.79,2.86-2.65,1.33-1.22,2.65-2.41,3.95-3.55.72-.64,1.44-1.26,2.16-1.88,1.07-.93,2.14-1.83,3.19-2.7a150.7,150.7,0,0,1,13.08-9.83l1.07-.69c.76-.5,1.51-1,2.25-1.4,44.45-25.86,95.25-29,140.61-8.17q3.12,1.41,6.18,3l1.53.8c1,.53,2,1.08,3,1.65l1.52.86c2,1.16,4.06,2.39,6.08,3.68l1.46,1,1.5,1q1.5,1,3,2.07l1.34,1q5.31,3.84,10.63,8.35l1.5,1.28,1.5,1.31q4.89,4.29,9.82,9.2l.73.73c.94.93,1.87,1.87,2.79,2.83,4.54,4.67,9.13,9.73,13.82,15.24.52.6,1,1.21,1.55,1.83l1.56,1.86,1,1.26c6.44,7.8,13.1,16.42,20.06,26,.57.77,1.13,1.55,1.7,2.34q2.55,3.52,5.17,7.23c54.88,77.11,77.56,93.44,131.08,93.89,39,0,68-10.43,139.71-49.89,73.48-40.37,102.51-50.8,143.33-51.71,1.45,0,2.89,0,4.31,0,.61,0,1.21,0,1.81,0l2.33.08c.93,0,1.85.08,2.76.14l1.06.07c.83,0,1.66.11,2.48.19.21,0,.41,0,.62,0,.91.08,1.82.16,2.72.26l.1,0c.94.09,1.86.2,2.78.32l.55.08c.86.11,1.71.23,2.55.37l.17,0c1,.14,1.92.3,2.86.47,2.57.45,5.08,1,7.51,1.57,1.21.29,2.41.61,3.59.93l1.75.5c1.16.34,2.29.7,3.41,1.07l1.66.57c1.1.38,2.18.78,3.23,1.19.66.26,1.32.52,2,.8l.83.35c.61.25,1.22.52,1.82.8,1,.45,2,.91,2.91,1.39l1.4.72c.92.49,1.83,1,2.7,1.5s1.91,1.13,2.81,1.73q.45.27.87.57,1.89,1.24,3.6,2.58a49.47,49.47,0,0,1,4.1,3.54q.8.75,1.53,1.53l.57.61c.2.21.39.42.58.64s.55.63.81,1,.5.6.73.9l0,.06c.26.32.5.64.74,1s.42.59.63.88.57.86.84,1.3c.17.26.32.52.47.78s.33.56.49.85.44.83.65,1.26c.28.58.54,1.16.78,1.75a2.52,2.52,0,0,1,.13.33c.12.29.23.59.34.89s.19.54.27.81.15.45.21.68a23.65,23.65,0,0,1,.64,2.74c.06.31.11.61.15.92.09.64.15,1.29.18,1.94,0,.16,0,.32,0,.48C3599.39,1960.24,3593.55,1970.45,3580,1979.27Z"/><path class="cls-1" d="M903.41,2222.85c-111.58.91-242.67.45-291.2-.91-83-2.26-87.09-2.72-78.92-10,4.53-4.09,13.6-9.53,19.5-12.25,6.8-2.73,108-4.54,262.17-4.54,200-.45,253.56.91,265.35,5.45,8.16,3.63,17.24,9.52,20.41,13.6C1106.17,2220.58,1088,2221.49,903.41,2222.85Z"/><path class="cls-2" d="M1886.34,2253.69v149.69H1771.13c-100.7,0-115.66-.91-117.93-7.25-1.36-4.09-2.73-37.66-2.73-74.85v-67.59Z"/><path class="cls-3" d="M663.91,2462.34c-505.75,0-638.2,1.36-639.56,5.45C23,2471,22.54,2744,23,3074.69l1.36,601,249.48,1.36,249.93.9,7.71-20.41c1.56-4.22,3.54-8.78,5.9-13.61q.43-.9.9-1.83c.61-1.22,1.24-2.46,1.9-3.72l1-1.9q1.22-2.28,2.53-4.64c.29-.52.58-1,.88-1.57q1.78-3.17,3.72-6.42c1.28-2.17,2.62-4.37,4-6.59l2.1-3.36c1.77-2.8,3.62-5.65,5.52-8.52q1.71-2.58,3.48-5.19T567,3595q1.21-1.75,2.46-3.51c1.24-1.76,2.49-3.52,3.77-5.29.85-1.18,1.7-2.35,2.57-3.53q1.94-2.66,3.92-5.3,3.3-4.43,6.7-8.83c6.79-8.8,13.84-17.5,21-25.87l2.85-3.33,2.85-3.29,2.85-3.25,1.43-1.6q1.42-1.61,2.85-3.18,3.56-3.94,7.09-7.71c.94-1,1.88-2,2.82-3q2.1-2.22,4.2-4.36c.46-.47.92-.95,1.39-1.42l1.39-1.4q.69-.71,1.38-1.38c16.52-16.51,31.78-29.07,43.13-34.43,37.2-18.14,79.38-9.07,91.63,20,14.06,34,3.17,86.18-30.39,143.33-9.53,16.79-17.69,31.75-17.69,33.12a.28.28,0,0,0,.13.19l.16.13c.13.09.3.18.5.29l.74.34.45.19c.48.19,1,.41,1.67.63,4.41,1.57,12.37,3.85,21.3,5.94,3.89.88,7.59,1.57,11.15,2.08,1,.14,1.91.26,2.84.37l1.78.19a71.6,71.6,0,0,0,21.66-.86h0c1-.21,2-.43,2.94-.68l1-.26c.65-.18,1.29-.37,1.94-.57,1.29-.4,2.57-.85,3.85-1.34.64-.25,1.28-.5,1.92-.77s1.28-.55,1.92-.84c1.44-.66,2.87-1.38,4.32-2.15l1.44-.8c.65-.37,1.29-.74,1.93-1.13s1.3-.79,2-1.2,1.3-.84,1.95-1.27l2-1.35c.65-.47,1.32-.94,2-1.43q3.48-2.57,7.1-5.6c.69-.58,1.39-1.17,2.08-1.77,4.2-3.64,8.57-7.75,13.19-12.37,29-29.49,57.61-71.22,84.82-125.2,18.75-37.5,37.66-65.77,57.17-85.22.65-.65,1.3-1.29,2-1.92s1.3-1.25,1.95-1.86q2.94-2.73,5.9-5.22c25.63-21.47,52.42-28.16,81.34-21,12.5,3.07,21.42,7.56,27.63,14.06.69.73,1.35,1.47,2,2.24a37.16,37.16,0,0,1,3.37,5c.5.88,1,1.78,1.42,2.71s1,2.13,1.39,3.25a54.54,54.54,0,0,1,1.86,5.91l3.18,12.24,14.51-20.41c17.69-25.4,37.65-35.83,67.13-36.29,15.05-.28,28.64,2.87,40.11,8.72.9.46,1.78.94,2.65,1.42s1.45.84,2.15,1.27,1.25.77,1.86,1.18q2.55,1.65,4.92,3.51,1.4,1.08,2.73,2.25c.66.57,1.31,1.15,1.94,1.75s1.29,1.23,1.91,1.87a67.79,67.79,0,0,1,13.07,18.68q.63,1.29,1.17,2.61c.34.77.65,1.55,1,2.33.37.94.71,1.9,1,2.86a77.25,77.25,0,0,1,3.94,24.81c0,1.34,0,2.7-.1,4.06s-.17,2.88-.31,4.33c-2.06,19.74-1.5,23.82,9.44,34.89l.87.87.67.67,2.18,2.12,15.42,15V2462.34ZM945,3134.47c-5,5-36,7.58-97.88,7.58H756.76v82.73c0,45.5-3.13,87.82-6.3,94.76-6.31,10.75-13.88,12-90.36,12-56.83,0-86.54-2.54-91.58-7.58S561,3288.6,561,3229.23v-87.18H473.77c-59.38,0-89.72-2.54-94.76-7.58-10.75-10.75-10.75-176.26,0-187,5-5,35.38-7.58,94.76-7.58H561v-84.64c0-46.76,1.9-89.08,3.76-94.75,3.18-8.85,17.06-10.12,90.36-10.12,58.74,0,89.08,2.54,94.12,7.58s7.57,35.38,7.57,94.75v87.18h90.36c61.91,0,92.85,2.54,97.88,7.58C955.75,2958.21,955.75,3123.72,945,3134.47Z"/><path d="M556.42,2332.62c-1.36,11.79-5,15.88-24,25.4-20,10-28.58,11.34-70.31,11.34S411.72,2368,392.22,2358c-38.1-19.05-39.46-33.56-4.54-53.07,22.23-13.15,24.5-12.7,24.5.91,0,15.42,12.24,20.41,49.89,20.41,36.29,0,49.9-5,49.9-18.14,0-11.8,10.88-11.34,30.39.45C555.51,2316.74,557.78,2320.37,556.42,2332.62Z"/><path d="M1235.89,2358.93c-19.05,8.62-30.84,10.43-70.76,10.43-41.27,0-50.8-1.36-69.4-10.89-12.24-5.89-23.13-13.6-24.49-16.78-5.44-14.06,3.18-28.12,22.23-37.19,21.32-10,26.3-9.07,26.3,3.63,0,13.15,14.07,18.14,49.9,18.14,36.29,0,49.89-5,49.89-18.14,0-10.89,9.08-11.34,27.22-2.27C1276.26,2321.28,1272.18,2342.6,1235.89,2358.93Z"/><path class="cls-4" d="M1198.7,2295.43c-1.81,6.8-7.26,8.16-28.58,8.16h-26.3l-3.18-32.66c-5-53.52-22.68-80.74-61.23-93.44-10.89-4.08-88.91-5.44-266.72-5.44-266.71,0-269,0-293.47,21.77-13.15,11.8-25.4,41.73-25.4,62.6a232.61,232.61,0,0,1-2.72,33.11c-2.72,13.61-3.18,14.06-29.48,14.06H434.85v-34c0-69.4,36.75-121.11,101.16-143.79,21.77-7.25,43.09-7.71,291.2-6.8l267.62.91,20,10.43c25.4,13.61,55.79,45.36,68.49,71.21C1193.71,2222.85,1203.24,2281.36,1198.7,2295.43Z"/><path class="cls-5" d="M3315.15,1944.8c0,24-32.66,40.82-79.83,41.28-20.42,0-32.66-2.72-47.63-10.43-19.05-10-51.71-45.36-68.49-74.39l-7.71-13.16,32.65,10.89c29.94,10,37.65,10.88,86.64,8.62C3301.09,1904,3315.15,1910.33,3315.15,1944.8Z"/><path class="cls-6" d="M1632.33,2868.31V3473.4l-39.91,27.21c-22.23,15-62.6,40.83-89.82,58.06-149.68,95.26-173.72,110.22-176,110.22-1.36,0-2.72-272.6-2.72-605.54V2457.81l58.06-37.65c31.75-20.41,98.43-63.95,148.32-97.07,49.9-32.65,93.44-59.87,96.62-59.87C1631,2262.77,1632.33,2386.6,1632.33,2868.31Z"/><path class="cls-7" d="M1608.29,2246.89l-57.15,36.74c-31.3,20.41-98,64-148.33,96.62l-91.17,59.42H51.57l43.09-28.58c194.59-127,248.57-161.48,258.55-163.29,18.14-3.18,29.48-3.18,44.9-.45,22.23,4.53,19.05,20-5.44,30.39-30.39,12.24-48.53,29.93-51.71,49.89-2.27,15.42-.91,18.6,15.42,34,20.87,20,44.91,28.12,92.54,31.3,39.91,3.17,74.84-3.63,102.51-19.51,21.32-12.24,28.57-22.68,28.57-39.91,0-21.78-9.52-34-39-49-30.84-15.88-31.75-17.24-24.49-31.3,4.54-8.16,12.7-8.62,301.64-8.62,253.55,0,297.1.91,297.1,6.35,0,3.63,1.36,9.53,2.72,13.61,1.81,4.54-.45,8.17-5.44,10-27.67,9.07-55.34,25.86-59.88,35.83-19.5,43.1,18.15,75.75,94.8,82.56,59.42,5,129.28-18.6,139.26-47.18,9.52-27.21-9.08-54-47.18-67.13-15-5-17.69-7.71-17.69-19v-12.7Z"/><path class="cls-8" d="M1842.8,704.69c-10-68-24.5-192.78-24.5-208.66,0-3.63-10.88-6.8-32.66-8.62-78.92-7.25-102.51-18.6-111.58-53.52C1671.33,423,1665,392.61,1660,366.3s-12.25-54.88-15.88-63.49l-6.8-15.43-.46,20.41c-.45,63.51-21.31,118.84-54,143.79-20.87,15.87-64.87,31.75-102.51,35.83l-23.59,2.73-3.18-35.38c-4.53-46.27-18.14-111.13-30.39-141.52-9.52-23.59-17.68-30.85-17.68-15.43,0,13.16-20,68.05-36.3,100.7C1335.68,465.64,1294,511,1207.77,575.87c-32.66,24.49-68,54-78.47,65.77-47.63,54.42-72.58,151-73,284.85l-.45,45.81-20-22.22c-10.89-12.25-29.49-39.47-41.73-60.79-36.29-64.86-52.17-78.47-93.9-79.37-53.06-1.36-99.33,25.4-122.92,71.66-12.7,24.95-13.61,29.49-13.15,76.66,0,59,8.61,86.18,40.37,129.27,22.68,30.85,51.25,52.17,87.54,64.87,20.87,7.25,33.11,8.61,66.68,6.8,22.23-1.36,47.17-4.08,54.88-5.44,10.89-2.27,15-1.36,16.78,4.53,2.27,5.45-.45,8.62-10.43,12.25l-13.61,4.54v69.4c0,89.81-10.88,226.79-20.86,261.26-1.36,5.9,3.63,9.53,21.77,15.42,42.19,13.61,78,38.56,182.8,128.82,69.4,59.88,187.79,167.38,232.24,210.93,25.85,24.94,38.1,34,39.46,29.47,18.14-51.25,69.4-278.95,64-284.39-.45-.91-25.4-7.26-54.43-14.52-62.59-15.42-109.77-36.74-152.86-68.49-46.72-34.93-78.92-75.75-68.49-86.18,3.63-3.63,15.88-.46,44,11.34,85.73,36.74,192.78,49.89,265.8,32.65,139.25-33.56,258.1-153.31,298.46-301.63,11.34-41.28,11.8-49.45,11.8-154.68C1870,909.25,1866.38,868.89,1842.8,704.69ZM980.07,1025.37c-8.17,8.17-17.24.91-31.3-24.49-24-42.64-68-76.21-108.86-83-15-2.27-19.51-5-19.51-11.79,0-7.26,3.18-8.62,19.51-8.62,27.67,0,64,19.5,93.89,49.89C962.83,976.84,987.32,1018.11,980.07,1025.37Zm354.61-390.24-2.34.62c-.78.21-1.54.43-2.29.66s-1.5.45-2.23.69c-1.06.34-2.11.7-3.13,1.07-1.65.6-3.24,1.23-4.75,1.9l-1,.45-1.38.66c-.37.17-.74.36-1.13.56l-1,.52-1.09.59c-3.1,1.73-6.71,4-10.54,6.68l-1.43,1-1.45,1-1.47,1.06c-1,.72-2,1.45-3,2.19l-2.64,2c-1.31,1-2.62,2-3.92,3.09l-1.45,1.18c-.48.39-1,.78-1.43,1.18l-2.19,1.83-2.43,2.1-2.19,1.95-.14.12-1.12,1-2.52,2.41h0Q1274,674,1271.94,676h0l-2,1.87q-1.44,1.35-2.73,2.49c-.58.51-1.13,1-1.66,1.45-.79.68-1.53,1.31-2.24,1.87q-.7.57-1.35,1a27.18,27.18,0,0,1-2.94,2l-.59.32-.56.27c-.37.16-.72.3-1.06.41a6.82,6.82,0,0,1-1.45.3,4.74,4.74,0,0,1-1.31,0l-.42-.09-.4-.13-.4-.16-.4-.2a8.52,8.52,0,0,1-1.12-.73,11.45,11.45,0,0,1-.89-.75l-.38-.36c-.86-.84-1.77-1.87-2.79-3.07a14.29,14.29,0,0,1-1.59-2.26c-.17-.31-.33-.62-.47-.94a9.56,9.56,0,0,1-.38-1,11.55,11.55,0,0,1-.19-6.64h0a18,18,0,0,1,.82-2.48,24.28,24.28,0,0,1,1.66-3.3q.2-.35.42-.69c.57-.92,1.22-1.88,2-2.86.18-.24.36-.49.56-.73q1.82-2.36,4.24-4.93c.68-.72,1.4-1.46,2.15-2.21q2.11-2.12,4.6-4.37l.84-.76c.56-.51,1.14-1,1.74-1.54l.9-.78c1.83-1.58,3.78-3.22,5.87-4.91,23.14-18.6,42.64-29,65.77-34.93,32.21-7.71,92.08,1.36,92.08,14.52,0,.48,0,1-.06,1.41s-.05.67-.08,1,0,.57-.08.84c0,.47-.11.92-.18,1.36s-.09.58-.14.86-.07.34-.11.5-.09.42-.14.63-.15.62-.24.91a15.91,15.91,0,0,1-.64,1.77q-.19.46-.42.9a.43.43,0,0,1,0,.07c-.13.24-.26.47-.4.69l-.12.19c-.15.23-.31.44-.47.65l0,.07c-.19.23-.38.45-.58.65s-.27.27-.41.4-.29.25-.44.37a5.09,5.09,0,0,1-.47.34,4.08,4.08,0,0,1-.44.28,8.62,8.62,0,0,1-1.68.79,5.22,5.22,0,0,1-.56.18,10.37,10.37,0,0,1-1.33.3,5.21,5.21,0,0,1-.57.09c-.34.05-.7.08-1.07.1l-.47,0a27.33,27.33,0,0,1-6.49-.67l-1-.21-1-.24-1-.27c-1.33-.36-2.74-.79-4.22-1.28h0c-8.38-2.79-19.72-4-31.77-3.89l-1.86,0-1.88.06-1.89.08q-3.7.15-7.43.51l-.22,0c-1,.08-2,.18-3,.3-1.5.17-3,.35-4.49.56l-1.8.26c-4.19.62-8.3,1.4-12.23,2.33Zm71.85,252c-.77.77-1.56,1.49-2.36,2.17l-.1.08c-.4.33-.8.65-1.21,1s-1,.73-1.45,1.06-.77.52-1.16.77l-.22.14c-.39.24-.78.47-1.18.69s-.77.42-1.16.62c-.57.3-1.15.57-1.73.81-.39.17-.77.33-1.16.48s-1,.38-1.54.54-.77.24-1.15.34l-.38.1c-.39.11-.79.2-1.18.28h0c-.37.08-.75.16-1.12.22l-.13,0-.45.07-.9.12-.36,0q-.63.06-1.26.09a.59.59,0,0,1-.23,0c-.42,0-.85,0-1.28,0s-1,0-1.44,0-.87,0-1.3-.1c-.61-.06-1.22-.14-1.83-.25-.4-.06-.79-.14-1.19-.22-.85-.18-1.7-.4-2.55-.67l-.58-.18c-.46-.15-.92-.32-1.38-.5s-.79-.32-1.18-.49h0c-.47-.21-.93-.42-1.39-.65l-1-.52c-.59-.31-1.18-.65-1.76-1s-.91-.58-1.36-.89-.75-.52-1.12-.8c-.14-.1-.28-.2-.41-.31-.38-.29-.76-.59-1.13-.9s-.75-.63-1.12-1a2.05,2.05,0,0,1-.27-.25c-.4-.35-.8-.73-1.19-1.11s-.72-.72-1.08-1.1-.71-.76-1.06-1.15c-.82-.91-1.61-1.88-2.39-2.91-.33-.44-.67-.89-1-1.35-.66-.91-1.29-1.87-1.91-2.87-.26-.41-.52-.83-.77-1.26l-.45-.78c-.2-.35-.4-.7-.59-1.06s-.39-.72-.58-1.09-.38-.74-.57-1.11c-.37-.75-.74-1.52-1.1-2.31-.72-1.57-1.39-3.21-2-4.93-.28-.75-.55-1.51-.82-2.29l-.39-1.18c-.13-.39-.26-.79-.38-1.19s-.25-.81-.37-1.22c-.51-1.69-1-3.45-1.4-5.26-.12-.5-.24-1-.35-1.52q-.86-3.81-1.48-8c-.21-1.47-.4-2.92-.56-4.36-.06-.51-.11-1-.16-1.52,0-.32-.07-.65-.09-1-.08-.9-.16-1.79-.22-2.67q-.35-4.86-.27-9.45c0-.54,0-1.08,0-1.63s0-1.07.07-1.61,0-1,.09-1.57v-.06l.12-1.54c0-.53.09-1,.14-1.57s.11-1,.17-1.54.12-1,.2-1.53c.33-2.31.74-4.57,1.24-6.76s1.11-4.32,1.79-6.38c.26-.77.53-1.54.82-2.29s.58-1.5.89-2.24c.41-1,.85-2,1.31-2.9.31-.65.64-1.29,1-1.93.06-.13.13-.26.2-.38.33-.62.68-1.24,1-1.84s.61-1,.93-1.52c.17-.28.34-.55.53-.82.34-.53.7-1.06,1.07-1.58s.78-1.08,1.19-1.61a6.54,6.54,0,0,1,.4-.52c.4-.53.82-1,1.25-1.55s.93-1.08,1.42-1.6a3.65,3.65,0,0,1,.27-.3c.47-.52,1-1,1.46-1.53,1.28-1.28,2.57-2.46,3.85-3.54.51-.43,1-.85,1.54-1.25a40.34,40.34,0,0,1,8.48-5.15c.51-.22,1-.43,1.52-.61.26-.1.51-.2.77-.28a25.19,25.19,0,0,1,8.38-1.45c.4,0,.79,0,1.18,0s.82.06,1.23.1c.73.08,1.45.19,2.18.34a2.21,2.21,0,0,1,.37.08c.36.08.73.17,1.09.27l1.2.36c.4.13.8.27,1.19.43s.79.31,1.19.49.78.36,1.17.56.73.37,1.09.58a1,1,0,0,1,.2.11c.35.2.69.4,1,.62s.75.48,1.12.73l.09.07q.54.38,1.08.78c.37.28.75.57,1.12.88a37.42,37.42,0,0,1,3.38,3.13c1.64,1.82,3.18,3.68,4.6,5.6.27.36.53.72.78,1.09s.39.55.58.82A65.51,65.51,0,0,1,1414,789a67.48,67.48,0,0,1,3.13,6.52c.23.57.46,1.14.68,1.71.44,1.15.85,2.33,1.24,3.52.2.6.39,1.21.57,1.82.27.92.53,1.85.77,2.8s.48,1.9.7,2.87q.64,2.93,1.13,6c.1.7.2,1.39.3,2.1s.15,1.17.22,1.76c.1.84.2,1.7.28,2.57s.13,1.48.19,2.23.1,1.34.14,2c.12,1.76.19,3.57.24,5.43,0,.65,0,1.31,0,2,0,.82,0,1.64,0,2.48q0,1.9-.06,3.75c0,.16,0,.33,0,.5,0,.62,0,1.23-.07,1.84s0,1-.08,1.5c0,.34,0,.68-.07,1s-.06.83-.1,1.24l-.12,1.37c0,.36-.07.73-.11,1.08,0,.52-.11,1-.17,1.55s-.11.86-.17,1.29c-.18,1.36-.39,2.68-.62,4-.1.56-.2,1.12-.31,1.67q-.3,1.56-.66,3.06c-.09.4-.18.79-.28,1.18s-.13.52-.2.77c-.14.54-.28,1.07-.43,1.59-.1.36-.2.72-.31,1.07s-.23.78-.36,1.17c-.3.95-.61,1.89-.94,2.8-.14.42-.3.83-.45,1.23-.67,1.74-1.38,3.39-2.14,5-.12.26-.25.52-.38.78-.26.52-.52,1-.79,1.53-.16.31-.32.6-.49.9l-.75,1.29c-.19.33-.39.65-.59,1a46.65,46.65,0,0,1-5.71,7.41C1407,886.63,1406.79,886.9,1406.53,887.14Zm258.91,302.43c-2.27,101.6-124.73,156.94-205.48,93-51.25-40.83-69.85-133.81-29.93-152.87,13.61-6.8,13.61-6.8,49.44,9.08,29,12.7,37.19,14.51,73.48,14.06,22.68,0,53.07-1.81,68-3.63,24.49-2.72,28.12-2.27,36.29,6.8C1663.62,1163.27,1665.89,1171.43,1665.44,1189.57Zm26.31-205.48c-9.53,32.21-54.43,55.8-99.34,53.08-15.42-.91-21.77-3.63-22.68-8.62,0,0,0,0,0-.08a7.09,7.09,0,0,1-.09-1.1,6,6,0,0,1,.07-1,1.42,1.42,0,0,1,0-.2,2.82,2.82,0,0,1,.07-.31c0-.08,0-.16.07-.23a4.6,4.6,0,0,1,.25-.61c.07-.13.13-.24.21-.36a5.62,5.62,0,0,1,.48-.64c.11-.12.22-.24.34-.35a9.31,9.31,0,0,1,2.41-1.58l.63-.29c.45-.19.93-.37,1.45-.55l.8-.27c.84-.26,1.77-.52,2.79-.76l1-.25c2.63-.59,5.83-1.14,9.7-1.71l1.22-.17c1.1-.16,2.26-.31,3.47-.47,42.18-5,75.75-23.59,78.47-43.09,2.27-16.78-1.36-27.67-19.05-54.88-1-1.6-2.06-3.19-3.07-4.79-.63-1-1.25-2-1.87-3q-1.23-1.93-2.41-3.89-2.4-3.88-4.71-7.79-1.17-1.95-2.29-3.89c-.75-1.3-1.51-2.6-2.25-3.9q-2.22-3.88-4.35-7.76c-4.09-7.43-7.93-14.8-11.47-22.05-.41-.83-.81-1.65-1.21-2.48q-2.35-4.87-4.53-9.68c-.56-1.23-1.11-2.46-1.65-3.68-3.25-7.34-6.15-14.48-8.69-21.35-.84-2.29-1.65-4.55-2.41-6.77-.29-.87-.58-1.73-.86-2.58q-.27-.78-.51-1.56c-.33-1-.65-2-1-3q-.3-.93-.57-1.86c-.12-.39-.24-.79-.35-1.18q-.89-3-1.64-5.84c-7.26-29.48-10.43-81.65-5-90.72a12.32,12.32,0,0,1,9.07-5,1.73,1.73,0,0,1,.32,0l.13,0a1.11,1.11,0,0,1,.3.08,1.89,1.89,0,0,1,.36.16l.3.18a1.09,1.09,0,0,1,.17.13,5,5,0,0,1,.58.56,5.36,5.36,0,0,1,.33.43,4.65,4.65,0,0,1,.33.49c.13.21.27.45.4.7a12.78,12.78,0,0,1,.54,1.17q.31.72.6,1.59c.1.29.2.59.29.9a.56.56,0,0,0,0,.12q.7,2.29,1.33,5.43c.17.86.34,1.76.51,2.72s.34,2,.5,3c.08.52.16,1.06.24,1.61.16,1.1.32,2.25.47,3.45s.31,2.45.45,3.75c.08.64.16,1.3.23,2q.33,3,.65,6.42c.14,1.54.29,3.06.44,4.57.27,2.67.55,5.3.86,7.9.15,1.35.32,2.7.49,4q.49,4,1.07,7.93c.11.76.22,1.53.34,2.28s.2,1.36.31,2c.21,1.35.43,2.68.65,4,.13.79.26,1.57.4,2.35.1.6.21,1.19.32,1.78.2,1.11.4,2.22.61,3.31s.41,2.17.63,3.24c.12.61.25,1.22.37,1.82.33,1.6.67,3.19,1,4.76q.65,2.88,1.32,5.7c.36,1.5.74,3,1.13,4.48.21.84.43,1.67.66,2.51s.45,1.66.68,2.49q.75,2.7,1.55,5.37c.21.68.41,1.36.62,2,.39,1.27.79,2.53,1.2,3.79q.38,1.18.78,2.37c.26.79.53,1.57.8,2.35l.42,1.2a277.22,277.22,0,0,0,10.71,26.2c.3.64.61,1.29.92,1.93,3,6.26,6.25,12.52,9.81,18.87.56,1,1.13,2,1.7,3q1.38,2.4,2.82,4.83,4.32,7.26,9.17,14.72l1.63,2.5q1.65,2.5,3.36,5l1.72,2.54,1.31,1.91q1.92,2.84,3.69,5.55c.77,1.18,1.51,2.34,2.24,3.49q3.33,5.29,6,10.16l.87,1.61.83,1.58.8,1.56c.27.52.52,1,.77,1.55.61,1.26,1.19,2.51,1.74,3.73.27.62.54,1.23.79,1.83s.51,1.21.74,1.8a74.42,74.42,0,0,1,4.3,14.64c.07.36.14.73.19,1.09s.09.57.13.85q.12.78.21,1.56c.07.53.12,1,.17,1.58s.08.87.11,1.3,0,.57.05.85c0,.5.06,1,.07,1.51s0,1.22,0,1.83A69.09,69.09,0,0,1,1691.75,984.09Zm75.41-176.9c-.17,1.58-.38,3.15-.63,4.69s-.55,3.06-.89,4.55-.72,3-1.16,4.38a58.63,58.63,0,0,1-2.25,6.18q-.86,2-1.86,3.81c-.34.61-.68,1.21-1,1.8-12.7,20.86-24,25.85-40.37,17.69-33.56-17.69-37.19-96.62-5.44-113.85,14.52-7.72,11.34-7.72,25.4-2.27a23.94,23.94,0,0,1,3.2,1.52c.37.21.74.43,1.1.67l.11.06c.37.24.73.48,1.09.74s.6.43.89.66.35.26.52.41l.81.66c.72.63,1.43,1.29,2.11,2l.24.24c.61.63,1.21,1.28,1.79,2,.33.38.65.78,1,1.18l1,1.24h0c.62.84,1.23,1.72,1.82,2.62.4.6.78,1.22,1.16,1.85s.75,1.28,1.11,1.94.72,1.32,1.06,2c0,0,0,0,0,0,.69,1.36,1.35,2.77,2,4.21a96.34,96.34,0,0,1,6.51,23q.18,1.11.33,2.22.39,2.86.62,5.74c0,.39.07.77.09,1.16A96.09,96.09,0,0,1,1767.16,807.19Zm37.5-187.73c0,.36,0,.71-.08,1a2.7,2.7,0,0,1,0,.28c0,.28-.08.54-.13.8s-.1.45-.16.67-.07.25-.11.37-.15.45-.23.66a7.45,7.45,0,0,1-.32.7l0,.09q-.12.23-.27.45a.33.33,0,0,1-.06.1,2.2,2.2,0,0,1-.17.25c-.1.14-.21.28-.32.41l-.09.1a5,5,0,0,1-.46.46l0,0a6.26,6.26,0,0,1-.57.45,6.37,6.37,0,0,1-1.37.72,11.7,11.7,0,0,1-5.89.38c-.35,0-.7-.11-1.06-.19a49.27,49.27,0,0,1-12.09-4.5c-.62-.31-1.26-.63-1.9-1h0c-.65-.34-1.31-.69-2-1.06-1.35-.74-2.74-1.55-4.19-2.41-.72-.43-1.45-.87-2.2-1.34l-1.13-.7c-.58-.37-1.16-.72-1.74-1.07s-1.44-.86-2.16-1.27l-1.34-.76c-.43-.24-.86-.48-1.29-.7l-1-.53c-1.77-.93-3.56-1.79-5.35-2.59l-1.24-.55c-.87-.38-1.75-.75-2.62-1.09s-1.55-.61-2.33-.89-1.56-.56-2.34-.83l-1.57-.52c-1-.33-2.09-.65-3.14-.94l-1.63-.44-1.32-.33-1.78-.42a88.06,88.06,0,0,0-12.76-1.88l-1.68-.1c-1-.07-2.06-.1-3.09-.12h-.06c-1,0-2,0-3,0l-1.38,0c-.92,0-1.84.07-2.75.13s-1.84.13-2.76.22-1.83.18-2.75.29l-2.76.39q-1.54.24-3.09.54l-1,.19c-1,.19-1.91.4-2.87.63-.39.08-.77.17-1.16.27l-1.53.39c-.92.24-1.83.5-2.75.77q-2.05.62-4.11,1.32l-1,.34-1.59.58-1.54.59-.68.27c-.69.27-1.37.55-2,.84l-.16.07c-.74.32-1.48.64-2.21,1-.57.25-1.14.51-1.7.78l-.19.09-1.06.52c-.49.23-1,.47-1.46.72-15,7.26-22.22,9.07-25.85,5.44-11.8-11.79,4.53-27.21,41.27-39.46.64-.2,1.32-.39,2-.56,1.08-.27,2.24-.5,3.47-.7l1.25-.19q1.28-.2,2.64-.33c.91-.1,1.85-.18,2.81-.26s2-.13,3-.18c3.39-.16,7-.18,10.78-.07l1.53,0,.81,0,1.71.08,1.76.1c.59,0,1.18.07,1.77.12a161,161,0,0,1,33.34,5.65c.87.26,1.72.53,2.54.8,23.14,7.71,44,25,44,35.83Q1804.69,619,1804.66,619.46Z"/><path class="cls-8" d="M1262.2,3704.73c-49.89,106.14-116.57,163.29-208.2,179.62-43.54,7.71-169.18,8.62-239.94,2.27-99.79-9.53-188.7-35.84-224.53-66.23-37.65-32.65-55.34-94.8-41.28-145.14,9.07-32.21,55.79-99.34,99.34-143.34,41.27-41.28,59.42-50.8,83.91-44,39.46,11.34,35.84,65.32-8.62,141.52-27.21,46.27-26.76,56.7,4.54,68,36.74,12.7,69,8.62,100.24-12.7,33.12-23.13,72.12-73,107.05-139.25,47.17-89.36,72.57-115.67,114.31-120.2,17.68-2.27,21.77-.91,32.65,10s11.8,14.51,9.53,38.1c-2.27,28.12-40.37,135.62-64,179.62-17.69,33.56-71.66,91.17-120.2,127-36.74,27.67-41.28,33.57-30.84,42.19,13.61,11.34,138.34-101.15,165.1-148.78,7.72-13.61,25.4-54,39.47-89.36,32.2-81.19,55.33-132.44,65.31-143.78,21.78-24.5,49-30.85,76.21-18.15,18.14,8.62,29,26.76,29,47.63,0,15-41.28,122.47-72.58,187.78-21.32,45.82-52.61,89.82-97.52,137.44-33.11,35.38-40.37,50.8-23.59,50.8,10,0,80.29-77.56,111.59-123.83,16.33-24.49,31.29-55.79,62.14-131.08,29-72.12,27.67-69.86,39-59.42C1303.48,3561.39,1300.76,3623.08,1262.2,3704.73Z"/><path class="cls-8" d="M3580,1979.27c-6.8,4.54-46.26,21.78-87.54,39-41.27,16.79-103,41.73-137,55.79-98.43,40.83-137.44,49.45-224.08,49.9-86.18,0-112.94-5.44-183.25-38.56-25.85-12.24-49.89-22.22-53.07-22.22-7.25,0-8.61,14.06-2.26,20.86,2.72,2.27,1.81,13.61-2.27,29-9.53,36.74-31.3,172.82-49.44,308.44-20,149.69-30.39,210-48.08,276.69-41.73,156.49-133.81,336.57-208.65,405.51-38.11,35.84-69.4,49-119.75,51.71s-84.37-5.44-137.44-31.3c-30.39-15-46.27-26.76-79.83-59.87-23.13-23.13-50.8-54.88-61.24-71.21-23.58-35.84-88.45-167.83-112-226.8l-16.79-43.09,7.26-42.64c4.08-23.13,8.17-43.54,9.53-44.45,1.36-1.36,19-4.08,39.91-6.35,100.7-10.88,184.16-33.11,260.82-70.31,28.12-13.6,52.16-24.49,53.07-24.49,1.36,0,3.63,6.8,5,15,1.81,9.52-1.36,28.58-8.62,54.43-15.42,52.16-22.68,112.94-18.6,150.14,2.72,26.76,4.08,29.94,12.7,29.94,9.53,0,10-1.37,10-55.34,0-76.21,10.43-116.12,59.87-230.43,85.73-196.85,236.32-497.58,289.85-579.23,24-35.83,63.05-76.66,86.63-90.72,44.46-25.85,95.26-29,140.62-8.16,32.2,14.51,60.32,41.73,97.52,94.34,54.88,77.11,77.56,93.44,131.09,93.9,39,0,68-10.44,139.7-49.9,73.48-40.37,102.51-50.8,143.34-51.71C3585.94,1906.25,3624.5,1950.24,3580,1979.27Z"/><path class="cls-9" d="M1450.44,1923.48,1410.53,1943a901.93,901.93,0,0,0-150.14,93l-36.74,27.67L1171,2016.92c-111.13-98.43-214.09-192.77-263.08-240.4l-50.35-49.44,18.6-39.46c10-21.78,23.13-48.54,29.48-59.88,5.9-11.34,18.14-33.56,27.22-49.89,8.61-16.33,17.69-32.21,20.41-35.38,7.71-10,36.28-5.9,68.94,10,17.69,8.16,42.19,22.68,54.43,32.2,71.22,54.89,323.41,280.32,357,319.78Z"/><path class="cls-9" d="M1750.26,1968.84l-12.7-2.27c-130.18-27.67-173.72-36.28-211.37-41.73-24.49-3.63-45.36-7.25-46.26-8.16-1.37-.91,9.07-44.45,22.67-96.62,32.66-123.37,43.55-174.63,43.55-209.55,0-32.66,3.17-34.48,30.39-15.88,10.43,7.26,24,19,30.39,27.22,22.23,26.76,71.21,140.15,117.93,275.32Z"/><path class="cls-1" d="M1510.77,2226l-106.14-.46c-58.06,0-124.28-1.36-147-2.27l-41.28-2.26-10.43-25.4c-13.16-31.76-54-73.94-84.82-88.45-21.78-10-24-10-291.21-11.34-237.68-.91-272.15-.46-294.83,6.35-49.44,14.51-93.89,54-112,99.79l-7.26,18.59-39.46,2.27-39.46,2.27-45.36,30.39c-24.49,16.33-45.36,28.12-46.27,25.85s2.73-20.86,8.17-41.73c50.8-202.75,130.63-316.6,269.88-386,55.34-27.67,287.58-116.12,306.18-116.57,4.08-.46,20.41,13.15,36.28,29.48,61.69,62.6,350.18,323.86,357.89,323.86,2.27,0,15.87-9.52,29.93-20.86,64.87-53.07,199.58-131.54,204.12-118.84,10.89,29.93,41.73,186,49.89,251.74Z"/><path d="M1804.7,618.51c0,12.7-11.8,12.24-34.93-2.27-29.48-18.6-62.6-20-93.89-4.09-15,7.26-22.23,9.08-25.86,5.45-11.79-11.8,4.54-27.22,41.28-39.46,14.51-4.54,49-2.27,69.4,4.53C1783.83,590.38,1804.7,607.62,1804.7,618.51Z"/><path d="M1428.22,621.68c-.46,15-7.26,18.6-25,12.7-21.77-7.26-63.5-4.08-85.73,6.8-9.53,4.54-26.76,17.24-38.56,28.13-22.67,21.77-24,22.22-31.75,13.15s-.9-20.86,23.14-40.37c23.13-18.6,42.63-29,65.77-34.92C1368.34,599.45,1428.22,608.53,1428.22,621.68Z"/><path d="M1691.75,984.1c-9.52,32.2-54.43,55.79-99.33,53.07-15.43-.91-21.78-3.63-22.68-8.62-.91-5.9,4.08-8.16,24.94-10.89,42.19-5,75.75-23.58,78.47-43.09,2.27-16.78-1.36-27.67-19.05-54.88-26.76-41.28-47.17-84.37-55.79-117-7.26-29.48-10.43-81.64-5-90.72a12.33,12.33,0,0,1,9.07-5c4.09,0,6.81,10.88,9.08,34.92,5.89,64.41,21.31,107.5,58.51,161.93C1694,938.74,1699.46,958.7,1691.75,984.1Z"/><path d="M1759.34,832.6c-12.7,20.86-24,25.85-40.37,17.69-33.57-17.69-37.2-96.62-5.45-113.85,14.52-7.71,11.34-7.71,25.4-2.27C1764.78,744.15,1777,803.57,1759.34,832.6Z"/><path d="M1423.68,834.87c0,76.65-68.49,84.82-79.83,9.52-4.08-28.12,1.36-50.8,16.33-65.77,15.42-15.42,31.3-16.33,44.45-2.72C1417.78,790.42,1423.68,808.11,1423.68,834.87Z"/><path d="M980.07,1025.38c-8.17,8.16-17.24.9-31.3-24.5-24-42.64-68-76.2-108.86-83-15-2.26-19.5-5-19.5-11.79,0-7.26,3.17-8.62,19.5-8.62,27.67,0,64,19.51,93.89,49.9C962.83,976.84,987.33,1018.12,980.07,1025.38Z"/><path d="M1657.28,1156c-8.17-9.07-11.8-9.52-36.29-6.8-15,1.82-45.36,3.63-68,3.63-36.29.45-44.45-1.36-73.48-14.06-35.83-15.88-35.83-15.88-49.44-9.08-39.92,19.06-21.32,112,29.93,152.87,80.75,64,203.21,8.61,205.48-93C1665.89,1171.43,1663.62,1163.27,1657.28,1156ZM1601,1215c-24,6.8-77.11,5.44-103.42-2.27-31.3-9.07-66.68-33.56-68.49-46.71-1.36-8.17,5.44-23.59,10-23.59.46,0,17.24,5.89,37.2,13.15,50.79,18.6,79.37,21.32,123.82,11.8,30.39-6.81,37.65-7.26,43.55-2.27C1660.45,1178.68,1638.22,1204.54,1601,1215Z"/><path class="cls-10" d="M1601,1215c-24,6.8-77.11,5.44-103.41-2.27-31.3-9.08-66.68-33.57-68.5-46.72-1.36-8.17,5.45-23.59,10-23.59.46,0,17.24,5.9,37.2,13.16,50.8,18.59,79.38,21.32,123.83,11.79,30.39-6.81,37.64-7.26,43.54-2.27C1660.45,1178.69,1638.23,1204.55,1601,1215Z"/><path class="cls-10" d="M945,3134.48c-5,5-36,7.57-97.89,7.57H756.77v82.74c0,45.49-3.13,87.81-6.31,94.75-6.3,10.75-13.88,12-90.35,12-56.84,0-86.55-2.54-91.58-7.57s-7.58-35.38-7.58-94.76v-87.18H473.77c-59.37,0-89.72-2.54-94.75-7.57-10.75-10.75-10.75-176.27,0-187,5-5,35.38-7.57,94.75-7.57H561v-84.64c0-46.77,1.91-89.09,3.77-94.76,3.17-8.84,17-10.11,90.35-10.11,58.74,0,89.09,2.54,94.12,7.57s7.58,35.38,7.58,94.76v87.18h90.35c61.92,0,92.85,2.54,97.89,7.57C955.76,2958.21,955.76,3123.73,945,3134.48Z"/><path class="cls-1" d="M2316.82,2449.09q-1.74,1.56-3.46,3.07c-5.17,4.53-10.28,8.74-15.16,12.45-48.54,36.29-124.29,70.31-192.32,85.73l-27.67,6.35-5.45-53.07c-3.12-30.76-8.05-63.51-14.58-97.22l-1-5.06q-2.52-12.68-5.31-25.51-1.12-5.11-2.29-10.27-1.74-7.72-3.6-15.47a1393.89,1393.89,0,0,0-51.7-169c-9.7-25.86-15.39-39.56-20.23-46.62l-.59-.84c-.31-.42-.61-.81-.91-1.17s-.49-.58-.73-.85-.6-.64-.91-.93a10.68,10.68,0,0,0-6.56-3.12c-.71-.09-1.38-.17-2-.22-2.95-.25-5,0-6.16,1.34a3.43,3.43,0,0,0-.51.77,3.85,3.85,0,0,0-.19.47,7.18,7.18,0,0,0-.35,2.13,16.84,16.84,0,0,0,.22,2.92q0,.09,0,.21c.16,1,.39,2.1.69,3.34s.67,2.54,1.11,4c.06.21.13.42.2.64.17.54.34,1.1.53,1.68.08.24.15.48.24.73.25.76.51,1.55.79,2.36.81,2.34,1.74,4.93,2.8,7.79.43,1.15.87,2.33,1.34,3.57,2.11,5.55,4.64,12,7.62,19.53,3.06,7.74,6.14,15.92,9.2,24.47,1.53,4.27,3.07,8.64,4.59,13.09s3,9,4.57,13.58,3,9.28,4.53,14q1.5,4.74,3,9.56t3,9.72q2,6.78,4,13.7c.22.75.43,1.5.65,2.25,8,27.53,15.48,56.31,22.15,84.76q.75,3.19,1.49,6.37,1.77,7.73,3.47,15.4,1.13,5.1,2.21,10.19,2.06,9.63,4,19.11c.46,2.32.92,4.63,1.36,6.93q1.27,6.48,2.44,12.84.54,2.88,1.05,5.73.87,4.8,1.68,9.54c.81,4.72,1.58,9.39,2.31,14q.68,4.23,1.3,8.39c.7,4.72,1.36,9.36,2,13.89,10.43,78.47,2.72,181.44-18.6,247.66-20.41,64-57.15,122.47-107.5,171.46-26.31,24.95-33.11,34-29,38.56.13.15.29.31.48.49s.58.52,1,.81l.29.23.63.48.35.26.75.54c.66.46,1.4,1,2.2,1.49l1.53,1a341.33,341.33,0,0,0,33.65,18.29l35.83,17.69,3.63,193.23c1.81,106.14,5,249.48,6.35,318l2.58,119.29,7.36,293.95h-445.4c.54-89.59.75-234.6.87-266.37,0-3.86,0-6,0-6.26.08-.94.18-1.92.29-2.92s.23-2,.36-3c.06-.41.11-.81.16-1.21.38-2.79.76-5.25,1-6.5.09-.51.19-1.48.3-2.84.48-5.9,1.15-19.07,1.52-33.44l.45-31.76,49-32.2q3.76-2.55,7.42-5.06l4.79-3.3,4.64-3.22c3.81-2.64,7.42-5.19,10.79-7.59,11.8-8.4,20.53-15,23.27-17.59.07-.08.15-.15.22-.22a5.22,5.22,0,0,0,.58-.67c1.81-2.72,2.27-214.09.91-469.92-.16-30.18-.3-60.11-.41-89.49q0-7.28-.05-14.52c0-1.66,0-3.32,0-5q0-4.79,0-9.54,0-9.75-.06-19.37,0-4.7,0-9.36v-.17q0-7,0-14c0-1.64,0-3.27,0-4.9,0-2.1,0-4.2,0-6.29-.32-131.9-.15-245.19.37-308.34v-.18q0-4.54.08-8.76v-.15c0-1.37,0-2.72,0-4v-.15c0-1.32,0-2.6,0-3.86v-.12q0-1.23,0-2.43V2515q0-1.2,0-2.37v-.09c0-.77,0-1.54,0-2.29v-.09q0-1.12,0-2.22v-.06c0-.73,0-1.44,0-2.14v-.06c0-.7,0-1.39,0-2.06,0-.37,0-.73,0-1.08q0-1,0-1.92c.11-6.46.23-11.39.35-14.65,2-40.41,3-55.68,5.92-61.18a4.33,4.33,0,0,1,.36-.6,7,7,0,0,1,.48-.66,5.17,5.17,0,0,1,1-.84,2.53,2.53,0,0,1,.51-.28,2.63,2.63,0,0,1,.55-.22,11,11,0,0,1,4.38-.18c5,0,62.15.46,126.55,0l116.58-.45v-93.44c0-16.66,0-30.37-.14-41.67l0-2.67c0-.87,0-1.72,0-2.57s0-1.67,0-2.49q-.06-4.26-.14-8c0-.71,0-1.4-.05-2.08v-.05c0-.68,0-1.35,0-2l0-1c0-1.61-.09-3.13-.15-4.58l0-.94c0-.55,0-1.09-.07-1.61v-.07c0-.81-.07-1.59-.11-2.35,0-.53-.05-1-.08-1.55-.07-1.19-.14-2.31-.22-3.37V2251c-.14-1.9-.29-3.59-.46-5.1,0-.39-.09-.76-.13-1.12q-.18-1.47-.39-2.7c-.09-.55-.19-1.06-.29-1.55-.15-.73-.31-1.38-.48-2a14.72,14.72,0,0,0-.73-2.06,9.07,9.07,0,0,0-.61-1.17,0,0,0,0,0,0,0,5.06,5.06,0,0,0-.68-.89,5.42,5.42,0,0,0-2.77-1.59c-3-.89-29.2-2-66-2.88l-5.26-.13c-9.92-.23-20.53-.45-31.6-.64-6-.11-12.1-.21-18.31-.3a.14.14,0,0,0-.09,0l-9.4-.14c-11.52-.15-23.45-.34-35.48-.53h-.11l-6.47-.11h-.11L1722,2228l-3.35-.06-9.8-.17-25.91-.48-6.25-.11c-36.57-.7-68.75-1.35-86.12-1.6l-57.61-1.36-5-38.56c-6.8-49.44-29.48-164.65-40.82-208.65-4.54-18.59-7.71-34.47-6.8-35.38,3.17-3.17,112,15.88,203.2,35.84,58.52,12.7,87.09,17.23,90.27,14.06s0-19-10-49.44c-20.87-62.6-56.7-159.21-78-209.56-4.16-10.1-8-19.59-10.83-27.16-.14-.36-.27-.72-.41-1.07-1.12-3-2.08-5.67-2.85-7.92l-.18-.54c-.07-.23-.15-.46-.22-.68q-.39-1.2-.69-2.19s0,0,0,0c-.25-.85-.45-1.59-.59-2.2v0q0-.17-.06-.3a3.41,3.41,0,0,1-.09-1.83l.07-.07c5-5,111.81,37.63,214.09,82.35l8,3.53,8,3.54,8,3.53,7.93,3.53,3.94,1.76,7.83,3.51c7.78,3.5,15.45,7,22.93,10.4l7.43,3.4c8.59,4,16.92,7.83,24.89,11.59l5.09,2.4,5,2.37,3.26,1.56,4.8,2.31,1.58.76,9.18,4.47,4.41,2.17c6.75,3.35,13,6.52,18.76,9.49,10.23,5.31,18.69,10,24.92,13.8q6.57,4,13,8.31a484.3,484.3,0,0,1,55.93,43.3l3,2.69q4.45,4.07,8.86,8.26c2,1.87,3.91,3.75,5.84,5.66l2.91,2.88c95.55,95.4,170,241.21,229.33,446.44C2381.58,2381.23,2348.62,2420.5,2316.82,2449.09Z"/><path class="cls-1" d="M1546.6,3637.14c0,.23,0,2.41,0,6.26l-2.27.14C1545.74,3642.13,1546.42,3640.05,1546.6,3637.14Z"/><line class="cls-11" x1="1396.87" y1="3652.84" x2="1389.57" y2="3653.29"/><path class="cls-1" d="M819.11,3909.59l3.47.18H681.11v-23.52c1.33.37,2.69.73,4.07,1.09l4.14,1.09c6.85,1.83,13.4,3.52,19.75,5.08,2.12.52,4.21,1,6.29,1.51l3.1.73q3.09.72,6.13,1.39c3,.68,6.06,1.32,9.06,1.94,2,.41,4,.8,6,1.19s4,.76,6,1.12c4,.72,7.92,1.39,11.91,2,2,.31,4,.62,6,.91,8,1.16,16.24,2.15,24.83,3l3.24.31,3.28.29c2.75.24,5.54.46,8.39.67q3.4.26,6.92.48l3.55.22,3.59.21Z"/><path class="cls-1" d="M838.21,3910.43l6.08.2Z"/><path class="cls-1" d="M1522.65,3644.9l3.6,264.87H1028.62c19.66-1.27,32-3.38,45.79-6.83q78.78-19.79,135.2-78.06,3-3.08,5.88-6.25,4.38-4.76,8.61-9.76,2.82-3.35,5.58-6.79,1.38-1.71,2.75-3.47,4.1-5.24,8.06-10.73,2.64-3.66,5.22-7.43t5.1-7.64a436.26,436.26,0,0,0,25.9-45.86l.51-1c.34-.69.66-1.36,1-2l.94-1.9q1.15-2.33,2.2-4.33c.42-.8.83-1.56,1.23-2.29s.78-1.43,1.17-2.09l.75-1.28c.12-.21.24-.41.37-.61.36-.59.72-1.16,1.08-1.69.47-.72.93-1.37,1.39-2q.53-.69,1-1.29c.11-.14.23-.27.34-.4s.45-.5.67-.73c3.57-3.74,7.08-4.65,12.3-4.65,6.8,0,17.69-1.81,23.59-4.08,4.31-1.81,34-20,71.62-43.73,33.1-20.87,72.28-46,105.5-67.8q5.34-3.51,10.46-6.89l3.38-2.23,13.15-8.62-3.63,39.46Z"/><polygon points="681.11 3886.25 681.11 3909.77 662.01 3909.77 662.01 3880.56 681.1 3886.25 681.11 3886.25"/><polyline class="cls-11" points="662.01 3909.77 681.11 3909.77 822.58 3909.77 822.61 3909.77 1028.61 3909.77 1028.62 3909.77 1526.25 3909.77 1545.68 3909.77 1991.08 3909.77 2010.81 3909.77"/></g></g></svg>