<svg xmlns="http://www.w3.org/2000/svg" viewBox="0 0 2932.8 3592.72"><defs><style>.cls-1{fill:#ffaacb;}.cls-2{fill:#72baff;}.cls-3{fill:#9fe0ff;}.cls-4{fill:#c3c1bf;}.cls-5{fill:#932b00;}.cls-6{fill:#b44700;}.cls-7{fill:pink;}.cls-8{fill:#d8daff;}.cls-9{fill:#f4ad26;}.cls-10{fill:#f4d03f;}.cls-11{fill:#ffe0bd;}.cls-12{fill:#946400;}</style></defs><g id="Layer_2" data-name="Layer 2"><g id="Layer_1-2" data-name="Layer 1"><path d="M1569.84,3458.36c-6.6-2.44-10,1-15.9,15.16-7.82,19.32-27.63,54.78-41.08,73.86s-37.17,47.68-37.17,44.5c0-1,2.69-8.56,5.87-16.87,21.76-55.51,50.86-190.74,43-200-7.09-8.56-17.12-.49-17.12,13.45,0,27.39-33.26,161.65-46.71,188.3-.09.2-.19.49-.34.81s-.24.56-.37.88-.29.68-.44,1.07-.19.49-.29.76-.29.74-.46,1.13-.37,1-.59,1.49l-2.32,6q-.7,1.8-1.47,3.81h46.07c2.76-3.25,5.55-6.67,8.34-10.22.71-.88,1.42-1.78,2.1-2.69.93-1.17,1.84-2.37,2.74-3.57s1.81-2.39,2.72-3.62c1.29-1.76,2.61-3.54,3.91-5.33,1.17-1.61,2.32-3.25,3.47-4.89s2.32-3.32,3.47-5c.17-.22.32-.44.47-.66,1.25-1.84,2.49-3.72,3.74-5.6,4.4-6.63,8.71-13.45,12.84-20.35,1.37-2.32,2.74-4.64,4.08-7,.12-.22.25-.41.37-.63,1.22-2.13,2.42-4.26,3.59-6.36l2.79-5.11c.12-.22.22-.44.34-.66,1-1.91,2.06-3.84,3-5.75.44-.83.85-1.66,1.27-2.47,1.07-2.13,2.13-4.21,3.15-6.31C1576.2,3469.37,1577.66,3461.54,1569.84,3458.36Zm367.86,87.89-7.11-4.79c-2.4-1.64-4.84-3.28-7.34-5-19.86-13.4-42-28.34-67.3-45.36-124.22-83.88-265.08-176.8-295.16-195.14-40.1-24-61.13-30.08-86.08-24.95-26.9,5.63-43,24.46-48.17,56.25-2.69,16.87-9,29.34-14.67,29.34-1.72,0-26.42,11-31.79,13.94-.74.49-4.9-8.07-9.3-18.58-9.53-23-12.47-26.17-19.81-22.26-6.11,3.18-5.38,6.36,5.38,27.64,13,25.92,13,25.43,2,32.52-13.45,8.8-17.61,16.63-31.55,57.47-1.58,4.67-3.27,9.51-5.11,14.74-.36,1-.73,2.08-1.12,3.16v0c-.59,1.62-1.15,3.26-1.76,4.94s-1.22,3.43-1.86,5.19c-1,2.66-1.93,5.43-3,8.31-.71,1.91-1.42,3.89-2.16,5.92-1.12,3-2.27,6.21-3.49,9.54-.81,2.2-1.64,4.47-2.52,6.82-1.74,4.69-3.57,9.66-5.55,14.94-.49,1.32-1,2.67-1.49,4q-1.8,4.76-3.7,9.85c-.73,2-1.46,3.94-2.22,5.94s-1.54,4.11-2.35,6.21c-1.1,3-2.27,6.07-3.47,9.25-1,2.76-2.13,5.6-3.21,8.48-.56,1.45-1.1,2.91-1.66,4.41-1.12,3-2.27,6-3.45,9.12s-2.39,6.28-3.62,9.53c-.63,1.62-1.24,3.28-1.88,4.94h16.9c.39-1,.78-2.05,1.15-3.05.56-1.47,1.12-2.91,1.66-4.36,1.27-3.32,2.52-6.57,3.74-9.8.88-2.3,1.74-4.55,2.59-6.8,1.13-3,2.23-5.92,3.33-8.8.64-1.62,1.25-3.23,1.83-4.85q1.55-4,3-7.87,3.17-8.29,6.12-16.11c1-2.6,2-5.16,2.91-7.68,1.07-2.84,2.12-5.63,3.15-8.34.51-1.35,1-2.69,1.52-4l7.16-19c.78-2.13,1.57-4.21,2.35-6.24.2-.54.42-1.08.59-1.59.29-.73.56-1.47.83-2.2,1-2.74,2-5.38,3-7.92.64-1.69,1.25-3.35,1.86-5,2.37-6.28,4.48-12,6.36-17,.27-.71.51-1.4.78-2.08a2.08,2.08,0,0,1,.12-.32c.47-1.25.91-2.47,1.35-3.62,2.32-6.28,4.18-11.32,5.52-15,.27-.74.52-1.42.74-2.06.12-.32.22-.61.32-.9s.24-.69.36-1,.3-.85.42-1.22a5.3,5.3,0,0,0,.19-.56,4.27,4.27,0,0,0,.18-.49c2.93-9.05,19.07-27.39,22.25-25.43,1.22.73,20.78,49.4,34.72,87.54,2.2,5.38,3.92,6.61,9,6.12,3.67-.49,6.6-2.45,7.09-4.89,1-4.65-7.33-27.15-26.65-72.88l-12-28.12,5.62-4.16c2.93-2.44,11.49-6.6,18.83-9.53,7.34-2.69,14.92-6.36,16.87-7.83,5.14-4.4,12.48-21.52,12.48-29.83a53.93,53.93,0,0,1,13-34.73c11-12.47,19.31-15.65,39.61-14.67,14.18.49,20.54,2.2,36.19,10,1.69.85,4,2.1,6.88,3.79,1.14.66,2.39,1.39,3.74,2.2.68.39,1.37.8,2.08,1.24l2.2,1.32,3.1,1.91,1.45.88,1.49.93c1,.61,2,1.27,3.1,1.93l2.74,1.72,9,5.64c2.1,1.37,4.3,2.77,6.57,4.21,5.48,3.52,11.47,7.36,17.93,11.57,1.61,1,3.28,2.1,4.94,3.2,4.28,2.79,8.78,5.7,13.45,8.76,3.15,2,6.41,4.2,9.73,6.38s6.75,4.42,10.27,6.75,6.92,4.55,10.52,6.92q15,9.9,32.06,21.22c2.54,1.69,5.13,3.43,7.75,5.16q2,1.29,4,2.65l14.84,9.85.42.29,13.08,8.73q10,6.67,20.59,13.77c5.75,3.87,11.62,7.78,17.61,11.79q44.9,30.08,98.65,66.34c3.57,2.42,7.19,4.84,10.83,7.31s7.29,4.92,11,7.44q7.36,5,14.91,10,15.12,10.23,30.86,20.88c3.94,2.67,7.9,5.33,11.89,8.05q23.91,16.17,49.25,33.35h29.32C1986.42,3579.17,1964.21,3564.15,1937.7,3546.25Zm957.56-722.72C2862.24,2625.7,2801.35,2388,2738,2211c-102-284.64-176.07-382.7-356.3-470.74-21.52-10.52-47.44-22-57.47-25.43-10-3.67-20.05-7.09-21.76-7.83-2.45-.73,2.69-4.89,13.45-11.25,22.5-13.45,64.8-55.75,82.41-82.65,50.13-76.3,58.2-165.56,24.45-270.22-16.38-51.11-37.41-93.17-87.54-174.85-65.3-106.37-90.73-165.8-110.05-256.28-32.77-152.1-67.49-257.75-113-341.62-18.58-34.48-47.19-78.26-64.8-99.53-9.54-11.5-9.54-11.5-4.4-14.67,16.14-9.79,44.75-61.14,53.8-96.35,6.6-25.19,9.05-74.1,4.89-101.49-8.07-55-38.39-115.91-78.74-156.75-43.78-44.51-106.87-79.23-169.72-93.91C1832.18,2.54,1806.53,0,1783.84,0a204.79,204.79,0,0,0-34.26,2.49C1657.63,18.88,1586.47,71,1548.81,149.71c-15.16,31.79-20,57-18.59,95.37l1,32-28.37,5.63c-94.14,18.34-177,55-236.71,105.15-15.16,12.72-18.78,20.15-25.43,27.83-5.14,0-85.35,85.15-102.22,107.89-22.5,30.08-29.35,41.58-46.47,77-26.9,56-41.57,111.27-47,178-4.64,58.45,3.43,129.61,21.28,186.83,12.71,40.6,40.59,91.22,65.78,119.09,14.43,15.65,15.41,21,15.65,74.83.24,57.47-8.07,104.91-30.32,174.61-38.4,120.55-45,151.37-45.24,210.79,0,87.3,31,152.84,95.37,200.28,28.12,20.54,73.61,39.62,103.93,43,11.74,1.47,13,1.22,14.67-3.91,1.22-3.92-.49-8.56-6.85-17.85-4.4-7.1-10.27-16.63-12.71-21.28-3.92-7.58-2.45-6.85,12.47,7.58,9.29,8.81,20.54,18.1,24.94,20.54,4.16,2.69,7.83,5.38,7.83,6.12-.25.73-9.78,5.62-21.52,11-108.82,50.13-183.41,106.62-237.21,179.25-42.79,58-87.54,147.46-115.18,230.85l-10.27,30.81-21.27-9.78c-32.28-15.16-74.83-30.08-117.38-40.84-59.67-15.16-157.49-33.5-162.13-30.57-1.47.74-3.43,4.16-4.65,7.34-1.71,4.4-4.16,5.87-9.78,5.87-4.16,0-16.39,2.93-27.15,6.6l-19.8,6.36L540.07,2166c-14.18-5.63-27.39-10-29.83-9.54-8.32,1.47-5.63,13,13.94,57,26.16,59.18,104.91,240.63,136,313,13.94,32.28,28.61,66.27,32.77,75.32,8.56,19.32,9.05,21.28,3.91,21.28-6.84,0-27.38,11.73-33.74,19.32-3.43,4.15-7.58,11.49-9.05,16.38-4.16,12-1.71,38.39,4.4,52.33,4.65,10.76,4.65,11.5.25,22-2.69,6.85-4.41,17.61-4.41,28.61-.24,15.41.74,19.57,8.56,34.24,12.23,23.47,11.5,37.17-4.4,70.43-27.39,58-35.46,126.91-21.27,181.45,2.69,10.27,6.6,21.76,8.56,25.67,2.2,4.16,3.42,7.83,2.69,8.32-.49.49-15.66-3.91-33.75-9.78-41.33-13.7-103.44-29.35-136.7-34.48-35.7-5.63-105.89-7.59-136-3.92C156.88,3056.34,38.27,3175.43,4.53,3372.53c-5.87,33.75-6.12,109.06-.25,139.63a348.16,348.16,0,0,0,25.41,80.55H48.81q-4.37-9.32-8.07-18.7c-.22-.54-.41-1.1-.63-1.64-1.79-4.57-3.43-9.15-5-13.75-.54-1.58-1.07-3.17-1.56-4.79-1.54-4.86-3-9.73-4.23-14.65-.25-.88-.47-1.78-.69-2.69a2.85,2.85,0,0,1-.14-.63c-.27-1-.52-2-.74-2.94s-.49-2-.68-2.93c-.27-1.15-.52-2.3-.79-3.45-.29-1.37-.58-2.76-.88-4.16-.53-2.64-1.05-5.28-1.51-7.94-.61-3.35-1.15-6.75-1.66-10.18,0-.07,0-.12,0-.19-.29-2.06-.56-4.14-.83-6.21-.37-2.69-.69-5.38-.95-8.12-.1-.88-.2-1.76-.27-2.64q-.59-5.91-1-12c-.12-1.62-.22-3.23-.29-4.87-.13-2.05-.23-4.13-.3-6.21s-.17-4.21-.22-6.31-.1-4.25-.12-6.38-.05-4.31-.05-6.46c.24-76.29,14.18-138.16,46.46-204.43C118,3131.65,219.23,3064.41,349.57,3051c26.17-2.45,84.86-1.23,112.49,2.44,55,7.58,144,32.53,215,59.91,39.37,15.17,138.41,58.69,138.41,60.89,0,.49-4.4,10.52-10,22.5-12.23,26.41-39.61,94.64-53.8,134.26-5.62,16.14-10.76,29.83-11,30.32-.49.24-12.47-8.56-27.15-19.81-30.81-23.72-58.44-44-65.78-47.93-2.93-1.47-11.49-15.65-20-33-23.23-47.2-56.25-93.66-65.78-91.71a11.32,11.32,0,0,0-6.36,4.9c-2.2,3.17-.73,6.11,6.36,14.67,17.36,20.05,57,82.65,52.33,82.65-.49,0-13-6.84-27.63-15.16-45-25.43-118.36-58.2-130.59-58.2-6.36,0-10.51,7.83-6.6,12.72,1.71,1.95,13.2,7.33,25.67,11.74,50.63,17.85,134.75,65,194.9,109.31,55.27,40.34,64.81,48.17,63.34,52.08-.76,1.93-1.74,4.5-2.88,7.66-.32.88-.66,1.78-1,2.76-.19.49-.36,1-.53,1.49-.35.91-.69,1.84-1,2.81a2,2,0,0,0-.12.37c-.42,1.13-.84,2.28-1.25,3.47-.64,1.79-1.32,3.67-2,5.65-.34.93-.68,1.91-1,2.91-1.13,3.16-2.3,6.56-3.57,10.13-.49,1.44-1,2.91-1.52,4.42-2.57,7.34-5.36,15.43-8.39,24.21-.56,1.64-1.12,3.3-1.71,5-.88,2.54-1.79,5.13-2.69,7.8-1,2.91-2,5.91-3.06,8.95-.41,1.22-.83,2.47-1.27,3.71s-.85,2.52-1.29,3.82-.88,2.57-1.32,3.89q-4.74,13.86-9.86,29c-.88,2.52-1.74,5-2.59,7.61q-3.82,11.19-7.78,23c-1.05,3.13-2.1,6.29-3.18,9.47-4.47,13.27-9.09,27-13.81,41.05h19.07l8.61-25.45q2.13-6.32,4.25-12.55c8.81-26,17.37-51.06,25.46-74.63q1.68-4.92,3.35-9.76c4.57-13.33,9-26.14,13.23-38.34,1-2.79,1.93-5.53,2.86-8.24,2.84-8.17,5.6-16,8.24-23.58.76-2.17,1.52-4.33,2.25-6.43,1-2.76,1.93-5.48,2.86-8.12.83-2.35,1.64-4.67,2.45-6.94,1-2.82,2-5.58,3-8.27.36-1.05.73-2.08,1.1-3.1,1.34-3.82,2.66-7.51,3.93-11,.71-2,1.42-3.94,2.11-5.85.49-1.34,1-2.69,1.47-4,.75-2.1,1.51-4.18,2.25-6.16.36-1.08.75-2.13,1.14-3.18,57.23-156.26,107.85-253.83,165.8-318.88,69-77.77,142.57-122.52,227.18-138.17,34.24-6.36,37.17-6.85,78.26-7.09a570.74,570.74,0,0,1,63.58,3.18c102,13.45,203.7,53.55,352.87,138.9,65,37.17,171.67,105.64,254.57,163.35l30.81,21.52,1.47,14.67c2.69,29.84,18.1,51.6,64.56,90.73,12.47,10.51,27.39,22.5,33.26,26.9,9.53,6.85,11.25,9.29,13.69,21,3.67,19.32,17.61,49.64,33,72.63q2.51,3.73,5.21,7.51c.74,1,1.49,2.07,2.28,3.13,2.57,3.47,5.25,7,8.09,10.44.71.9,1.44,1.78,2.15,2.66q9.51,11.52,20.69,23c1.47,1.52,3,3.06,4.48,4.57q10.56,10.57,22.32,21c1.08,1,2.16,1.93,3.26,2.89l4,3.47c1.66,1.42,3.35,2.86,5,4.26,1.84,1.56,3.67,3.1,5.56,4.62s3.93,3.2,5.91,4.79c1.49,1.2,3,2.4,4.5,3.57,1.69,1.32,3.38,2.64,5.09,3.94,1.42,1.1,2.84,2.2,4.28,3.28s3,2.29,4.55,3.42,3.05,2.27,4.59,3.37c1.79,1.32,3.57,2.62,5.38,3.92,12.7,9.12,25.95,18,39.62,26.58,1,.63,2,1.25,2.93,1.83s2,1.22,2.94,1.81c2.15,1.35,4.28,2.64,6.46,3.94q16.09,9.75,32.86,18.8H2328c-3.45-1.71-6.89-3.44-10.34-5.25-2.69-1.4-5.38-2.79-8.07-4.26-1.76-.9-3.5-1.86-5.24-2.81s-3.64-2-5.45-3c-2.42-1.32-4.84-2.69-7.26-4.09s-4.87-2.79-7.31-4.23-4.87-2.84-7.31-4.33c-1.67-1-3.33-2-5-3l-1.25-.78-2.3-1.4-.61-.36c-4.33-2.67-8.66-5.38-13-8.2-2.47-1.56-5-3.17-7.46-4.81s-5-3.3-7.53-5c-81.19-54-129.12-103-155-158.22-15.65-33-16.13-30.81,8.81-30.56,48.91.24,97.33-23.24,139.14-67.5,20.54-21.52,32.28-38.88,46.47-68.71,35.21-74.34,32.76-170-5.63-221.07-3.18-4.4-11.49-11.74-18.34-16.14l-12.47-8.56,14.43-4.4c19.81-6.11,64.07-5.87,87.79.24,71.89,19.08,182.43,74.83,247.72,125.45,26.65,20.55,80.45,73.12,98.31,95.86,10.75,13.94,14.67,17.12,19.56,16.63,3.91-.24,6.36-2.2,6.85-5.38,1.71-12-73.12-90.23-118.12-123.73-13.2-9.79-36.68-25.93-52.33-36s-26.17-17.61-23.48-16.88c2.69,1,12.23,2.69,21.28,4.16,51.11,7.83,121.29,33.75,155.77,57.22,14.19,9.79,17.85,10.52,22.26,5.14,5.62-6.6-.25-12.72-26.42-27.63-30.56-17.61-60.4-29.35-102.21-40.84-30.33-8.32-87.79-18.34-105.16-18.34q-9.17,0-35.21-12.47c-50.13-24.46-97.33-40.11-136.46-45-10.51-1.47-13-2.69-13.69-6.85-1.47-6.6-5.87-77-8.8-133.52l-2-42.55,22.25-24.21c80-86.08,205.42-171.42,317.66-215.68,54.54-21.52,116.65-35.71,152.11-35l19.56.49,9.3,36.68c57.46,228.4,90.72,434.55,100.26,620.4,6.11,121.54-7.83,235.74-38.4,314.48-1,2.45-1.93,4.89-2.93,7.29-.71,1.78-1.47,3.54-2.23,5.31-.58,1.39-1.19,2.78-1.81,4.15-1.85,4.21-3.76,8.32-5.77,12.38-.9,1.88-1.83,3.71-2.76,5.57q-2.79,5.5-5.77,10.84c-1.17,2.12-2.37,4.23-3.57,6.3-.42.74-.83,1.45-1.27,2.16-1.13,1.93-2.28,3.81-3.45,5.69-.66,1.1-1.35,2.18-2,3.23-1.49,2.37-3,4.72-4.6,7-1,1.47-2,3-3,4.4-.46.69-.95,1.35-1.41,2-.81,1.13-1.62,2.25-2.43,3.35a292.2,292.2,0,0,1-22.71,27.51c-1.27,1.4-2.6,2.77-3.92,4.11s-2.64,2.69-4,4c-.88.88-1.79,1.76-2.69,2.62s-1.81,1.74-2.72,2.59c-1.37,1.27-2.74,2.54-4.13,3.79q-2.74,2.46-5.53,4.82l-2.32,2-3.3,2.71h26.43c26.9-25.94,52.9-59.64,68.16-89.84,9-17.85,24.21-57.47,31.3-82.17C2944.9,3290.85,2941,3099.37,2895.26,2823.53Zm-817-2466.94c-7.82,29.59-22.5,59.67-37.41,75.81l-11.74,13L2002,419.44c-14.92-14.18-33.51-30.81-41.58-36.93l-14.67-11,24.7-1.47c36.44-2.44,74.1-13.2,99.53-29.1,6.11-3.67,11.74-6.85,12.71-6.85S2081.67,344.36,2078.24,356.59Zm-50.13-223.75c11.25,11.49,34.24,52.57,42.8,76.78,9,25.43,16.14,61.63,16.14,83.15,0,13.93,0,14.18-11.5,23-29.59,22.5-69.69,35.46-110,35.46-32,0-52.82-4.89-77.77-17.85-22.49-11.74-22.74-12.23-23-44.51-.25-26.9,3.91-45,16.63-70.91,26.9-54.54,77.52-90.73,128.14-91.46C2019.31,126.23,2022.49,127.46,2028.11,132.84Zm-154.3-102c44,14.67,88.52,39.37,118.84,66.27l12,10.52-14.43,2.93c-57.23,11.74-103.69,51.36-127.9,109.8-10.76,25.68-15.4,49.64-14.43,74.1.49,12.71-.24,19.81-1.71,19.07-25.19-11.49-73.12-26.16-109.55-33.26-16.39-3.18-18.1-5.62-26.41-35.94-7.09-25.19-7.09-60.16,0-87.06,15.4-59.42,59.66-108.82,114.44-127.65C1846.17,22.06,1847.88,22.06,1873.81,30.86Zm-271,97.08c3.18-27.38,8.81-37.9,28.37-54,42.55-35.21,101.48-56.24,161.15-57.47l14.68-.24-19.08,11c-46.71,27.39-81.68,75.08-94.64,129.12-8.31,34.48-5.62,82.41,6.12,112.49,1.71,3.91.24,4.16-22.26,2.69-24-1.47-24.21-1.47-32.52-10.27C1613.61,227.47,1597.47,176.12,1602.85,127.94Zm-55.51,99.78c1.47-29.35,6.85-50.62,19.32-75.81,7.58-15.16,16.14-28.12,18.1-28.12.73,0,.49,4.89-.25,10.76-2.44,16.14,2.94,52.57,11.25,76.54,7.58,21.27,20.79,46.22,27.88,52.09,2,1.71,3.67,3.91,3.67,4.89s-15.16,2.44-33.51,3.18c-18.58,1-35.94,1.95-38.39,2.2C1548.56,274.43,1545.87,260.24,1547.34,227.72ZM1121.1,1039.6c-33-52.09-52.08-113.47-58.93-189.52-11.74-134.75,43.77-283.43,137.19-367.06,9.29-8.56,51.16-58.59,51.16-60.3,4.32-1.72,11.64-7.66,26.6-20.15,59.38-49.62,152.6-91.22,265.09-109.32,36.68-5.86,133.27-5.86,168.24,0,39.62,6.61,62.6,12.72,96.84,25.19,128.38,46.47,222.78,132.3,293.94,267.53,41.08,77.77,71.16,168.25,100.75,302,26.41,119.09,46.95,171.43,105.4,267.77,14.92,25,32,52.83,37.66,62.36,92.68,154.55,105.4,284.16,38.39,386.38-29.83,45.48-84.12,86.57-141.83,107.35-19.32,6.85-53.8,13.7-69.7,13.7h-9.54l15.66-16.63c30.81-32.77,51.59-72.39,64.07-122.52,28.36-113.22,1.46-248.94-77.52-389.06l-15.65-28.13,4.15-8.55c17.12-34.24,24-87.55,16.14-125.94-5.13-25.93-21-57.72-35.7-72.14-29.59-28.61-73.12-36.68-114-20.55-14.18,5.63-20.29,10-38.15,27.88-20.78,21-29.34,35-47.93,78.26l-2.69,6.11v-5.87c-.24-9.29-14.42-48.91-24.45-68-9.78-18.83-9.54-20.3,3.91-20.3,9.78,0,55.27-9.78,58.69-12.72a10.61,10.61,0,0,0,3.18-7.09c0-8.07-7.33-9.29-26.9-4.4-58.69,14.92-150.15,8.07-227.42-17.36q-119.22-39.25-208.6-131.81c-73.85-76.54-117.38-163.6-122.27-244.3-1-17.6-3.67-21.27-13-19.07l-6.6,1.71,1.71,22.25c5.14,67,40.11,147.46,92,211,7.58,9.3,18.58,26.9,24,38.89,5.63,12,16.63,31,24.21,42.79,16.88,25.19,56.49,65.78,81,82.66L1608,935.18l-16.14,1.71c-31.79,3.42-87.3-3.67-124-15.9-110.78-37.17-192.46-131.07-218.62-251.14-2.45-11-4.65-36.44-5.63-60.65-1.47-41.57-1.47-41.57-7.34-42.3-3.17-.49-6.84.49-8.07,2.44-1.22,1.71-2,20.3-1.46,41.33.49,37.42.49,38.39-5.63,46.46-68.47,92.44-95.12,253.35-65.53,398.12,2.44,13,5.62,26.41,7.09,30.08,1.22,3.91,1.46,6.84.49,6.6C1159.74,1091.68,1133.09,1058.43,1121.1,1039.6Zm480.29-71.41c37.41-25.19,104.17-30.08,145.74-10.27,18.83,8.8,24,9.05,25.92,1,1.72-7.09,1.23-7.09,26.66-2.69,10.76,1.95,32.52,4.16,48.42,5.13,27.88,1.72,28.85,2,33.75,8.81,10,14.18,24.21,48.42,29.34,70.91,9.78,43.29,12.47,49.89,19.81,50.62,7.82,1,9.29-1.46,16.38-27.38,11-40.11,38.4-81.44,65.78-98.8,15.41-10,39.38-16.14,55.52-14.18,23.23,2.69,35.7,8.56,51.59,24.45,16.88,17.12,26.17,34.73,31.55,60.16,18.1,86.08-29.1,173.38-111.76,207.37-12.22,4.89-19.56,6.36-36.19,6.36-11.49,0-24.7-.73-29.34-2l-8.81-2-9.29,28.61c-5.38,15.65-14.92,39.12-21.52,52.09l-12,23.72,1.47,26.9c4.89,93.17,26.65,211.28,46.46,255,3.42,7.34,9.29,17.36,13.45,22.5l7.33,9.29-9.53,12c-13.94,17.36-31.3,33.25-47.2,43.28-15.41,9.78-17.85,16.14-8.56,22,13.21,8.56,69.45,21,94.15,21,6.36,0,10.27,1,9.78,2.44-2.2,7.1-40.35,47-62.85,66.28-89.25,76-185.11,110.28-262.88,93.9-73.12-15.41-131.56-87.79-150.64-185.85-2.44-13.45-4.15-24.7-3.91-25.19.49-.24,8.07-2.69,16.88-5.14l15.89-4.64c6.31-2.3,18.1-6.73,32.52-13,0,0,131.76-30.13,228.16-181.94,19.57-30.81,28.61-49.4,26.66-54-2.69-7.33-11.74-2.93-31.06,15.65-58.69,56.49-125.94,96.84-188.79,113.47-27.14,7.34-32,7.83-70.67,7.83-38.15.24-43.77-.49-68.47-6.85-105.89-27.39-190.5-92.19-234-178.76-18.58-36.93-26.9-60.4-44.5-125.94-8.56-33-23-85.83-31.79-117.38-9-31.55-18.83-69.69-22.26-84.37-27.39-122.76-21.27-244.54,17.36-338.44,9.79-23.72,26.17-55.51,32.28-62.12,3.92-4.4,4.16-3.91,7.34,8.56,1.71,7.09,6.11,21.77,9.54,32.53,28.12,86.32,93.41,161.64,175.09,201.5,27.63,13.45,53.8,22.5,80.7,28.12,23,4.89,68.23,9,77,7.34,6.6-1.47,7.09-1,5.87,5.87C1582.07,973.57,1589.65,976.26,1601.39,968.19Zm38.14-41.57c-19.56-3.91-40.83-17.61-68.22-43.77-22.5-21.52-44.75-47.45-40.84-47.45.73,0,11.49,7.83,23.72,17.37,12.47,9.29,32.52,23.23,44.75,30.81,24,14.92,73.85,39.86,79.48,39.86,2.44,0,2.69.73,1.22,2.2C1676.7,928.82,1653.47,929.06,1639.53,926.62Zm374.89,371.46c21.76,59.42,29.83,111.26,27.87,180.47-.73,33.5-2.44,51.84-6.35,70.92-9,42.55-29.1,96.84-35.22,94.88-5.13-1.71-18.58-31.55-26.16-57.71-13.94-48.91-25.92-123.74-31.79-198.08l-2.45-32.53,12-24.94c6.61-13.69,15.16-34,18.83-45.24,4.89-14.67,7.58-19.81,10.27-18.83,1.72.74,7.58,1.22,12.72,1.22h9.29ZM1453,1586.15c1.22,0,11.25,3.18,22.25,7.33,18.59,6.85,54.78,14.92,81.68,18.35l11.25,1.46,1.71,12.72c1,7.09,3.91,23,6.36,35.7,2.69,12.72,4.4,23.23,4.15,23.48-.48.49-11.24,3.42-24,7.09-12.72,3.42-32,9-42.79,12.47l-19.57,6.12-4.64-5.63c-8.32-9.78-23.73-45.48-29.59-68.47C1453,1609.62,1449.77,1586.15,1453,1586.15Zm26.16,149.9c1.23-1.22,48.91-17.36,51.6-17.6,1.47-.25,3.92,8.55,5.63,19.31,5.87,40.6,29.59,97.82,54.29,130.1,53.31,70.67,128.38,93.91,221.8,69.21,78.74-20.79,173.38-85.35,225.71-153.58l15.89-20.78,19.32-2.94c17.12-2.44,37.17-8.31,59.43-17.36,4.4-1.71,8.55-2.44,9.53-1.71,4.16,4.4-40.1,65.78-76.54,105.89-115.67,127.65-272.42,188.29-390.29,151.37-39.86-12.72-68-30.33-100.75-63.09-45-45.24-77.27-106.87-91.7-175.59C1480.58,1746.81,1478.63,1736.3,1479.11,1736.05Zm611.12,2.2c-27.39,8.07-84.62,7.83-117.39-.24-12.47-2.94-22.74-6.36-22.74-7.09.25-1,5.63-5.63,12.47-10.27,22.75-15.9,52.09-55.27,66.76-89.75,41.09-96.11,43-216.42,5.38-325.73-5.86-17.12-11.24-32.52-12.22-34.73-1.47-3.17.24-4.4,8.31-5.62,29.1-4.65,73.85-33.75,97.08-63.34l11-14.18,5.13,8.07c2.69,4.4,13,24,23,43.53,72.39,142.08,88,277.07,44.75,385.4C2188,1684.21,2147.94,1721.62,2090.23,1738.25Zm-835.36,27.88c-2.2,2.45-44.51-14.92-62.85-25.92-24.45-14.18-57.22-47-70.92-70.92-23.47-40.35-31.79-72.87-31.79-124,0-53.31,5.87-82.41,36.69-179.25,30.81-97.33,39.37-141.83,39.37-207.13,0-22,1-39.86,2-39.86s11.25,33.26,23,73.85c11.49,40.84,25.19,90,30.08,109.56,9,35.46,18.58,65.54,27.39,85.1l4.64,10.52-7.09,17.6c-20,48.91-32.28,112-32.28,168,0,66,17.12,144.77,38.15,174.36C1253.89,1762,1255.6,1765.4,1254.87,1766.13Zm32.28-30.08c-24-24.94-40.84-55.26-50.13-90-7.09-26.65-6.6-107.84,1-143.06,7.33-33.25,21-80.69,23.72-80.69.49,0,7.82,10.76,16.63,23.72a353.51,353.51,0,0,0,70.91,78c20.79,16.39,54.78,38.64,73.85,47.94,10.76,5.37,11,5.62,11,17.36,0,28.12,15.16,82.9,30.57,111.26,4.89,8.56,8.31,16.14,7.82,16.63s-18.83,7.34-41.08,15.41c-22,7.82-52.82,19.32-68.23,25.68-15.4,6.11-29.34,11.25-31.3,11.25C1326.28,1769.56,1301.33,1751,1287.15,1736.05ZM692.91,2177c57.47,10.27,132.3,29.1,163.85,41.33,63.09,24,124.47,60.16,167.75,98.79,22.5,20.06,56.25,56.74,63.34,69.21,7.09,11.74-1.23,8.31-19.32-8.07-9-8.07-26.66-22.25-38.88-31.55C950.17,2287.74,868,2249.1,712.48,2197,616.37,2165,613.92,2162.53,692.91,2177ZM610,2182.1c3.43.73,12.23,2.69,19.57,4.64,27.87,6.85,172.4,57,211.52,73.12,54.29,22.5,115.92,55,150.4,79.23,26.16,18.34,62.11,45.73,65.78,50.13,3.18,3.92,2.93,4.16-3.67,2.69-16.63-3.66-33.75-10.27-71.89-27.63-91-40.84-116.41-52.33-171.18-77.52-58.2-26.65-152.6-68.71-196.13-87.54-13.2-5.63-24-11-24-12C590.45,2184.3,603.65,2180.87,610,2182.1Zm265.82,884c-10,15.16-22.5,35.21-27.39,44.75-5.13,9.29-13,24-17.36,32.28l-8.32,14.91-43.28-20c-24-11.25-56.49-25.67-72.38-32-28.37-11.5-28.86-11.74-36.93-25.43-14.18-23.48-19.07-43.29-20.3-83.39-1-29.59-.24-39.62,3.92-60.65,5.37-25.92,19.07-67.25,22-66,.74.49,6.85,6.36,13.21,13.21,10.51,11.49,11.49,13.45,11.49,24.7,0,20.78,6.36,34.48,24.21,52.33,27.15,26.9,92.19,58.93,144.77,70.92,12.72,2.93,23.48,5.62,24,6.11S886.1,3051,875.83,3066.12Zm44-58.45-12.72,14.19-22-4.9c-39.37-8.55-93.66-30.32-124-49.88-32.53-20.79-44-37.42-44.51-64.32-.24-14.18-1-15.65-10.51-26.16-16.63-17.85-18.59-24-17.37-48.67,1.23-21.27,1.23-21.52-7.33-35.46-11.5-18.09-13.21-35.94-5.63-53.31,6.61-14.91,6.36-18.83-1-36.68-7.59-18.83-7.83-32.28-.49-43,6.35-9.29,26.9-20.78,43.28-24,17.61-3.42,53.07-2.94,77.52,1,60.4,9.78,90.73,29.83,69.21,45.48-8.07,6.12-24.7,8.81-71.17,12-41.81,2.69-76.78,8.07-81.92,12.48a9.36,9.36,0,0,0,.25,14.42c2.69,2.2,7.58,2.2,20.54.25,24.21-3.91,83.14-3.18,109.06,1,48.42,7.82,104.91,30.08,124.23,48.9,11.5,11.25,12,22,1.22,27.88-5.86,3.43-9,3.43-31.79-.73-62.11-11-97.08-13.21-149.66-8.8-29.83,2.44-35.7,4.64-35.7,12.47,0,4.15,7.83,10.76,10,8.31.73-.49,17.12-1.95,36.43-3.18,74.34-4.64,154.8,7.58,175.34,26.9,6.85,6.6,7.34,17.36,1,23.72-8.07,8.07-21,9.54-77.28,9.54-49.15,0-109.06,4.65-116.15,9.05-3.67,2.2-2.94,13.45.73,14.92,1.71.48,16.87-.49,33.5-2.69,34-4.16,115.91-4.9,125.7-1.23,9.29,3.43,8.56,12.72-1.47,20.54-4.4,3.18-15.41,8.81-24.7,12.23-19.07,7.09-75.32,21.52-102,25.92-10,1.71-19.81,4.4-21.28,5.63-4.4,3.18-3.91,13.69.49,15.4,2,.74,17.61-1.46,34.73-5.13l31.3-6.6,33,15.89c18.1,8.56,35.46,16.63,38.64,17.36,2.93,1,5.38,2.45,5.38,3.43C932.56,2992.75,926.94,2999.85,919.85,3007.67Zm232.56-144c-68.48,14.67-135.24,49.39-185.86,96.84l-18.83,17.36-31.79-13.94c-17.6-7.58-32-14.67-32-15.41,0-1,7.82-3.67,17.12-6.11,23-5.87,44.5-16.87,53.8-27.63,6.84-7.59,7.58-10.28,6.84-20.55-.73-11.24-.49-12,6.12-13.45,10.51-2.2,23.23-14.67,26.16-25.67,3.18-12,1.23-20.79-7.33-31.55l-6.85-8.8,5.87-6.6c7.33-8.56,9.29-16.39,7.33-27.64-4.64-24-52.82-53.55-114-69.94l-19.32-5.13,10.27-5.14c13.69-7.09,19.56-15.89,19.56-29.59,0-19.56-12.71-30.57-48.42-41.57-31.79-9.54-58.69-13.69-91.7-13.69l-30.81.24L706.85,2588c-6.6-14.92-29.83-68.23-51.6-117.87-60.64-137.92-74.58-169.71-81.92-188.3-3.91-9.54-14.92-34.72-24.45-56.24s-18.1-40.6-18.83-42.31c-1.47-3.67-4.89-4.89,48.17,18.59,55,24.45,123.25,54.77,176.07,78.74,27.64,12.47,65.54,29.59,84.37,37.9s62.36,28.12,96.59,44c34.24,15.65,66.27,30.08,70.92,32l8.56,3.43,27.39,80.21c14.91,44,50.13,146,77.76,226.69,27.88,80.7,51.11,148.44,51.85,150.64C1172.46,2858.5,1168.55,2860.21,1152.41,2863.64Zm165.06-4.16c-41.57-5.14-79.72-7.09-102-4.89l-24,2.2-2.44-6.36c-1.47-3.42-14.92-42.55-30.08-86.81-15.16-44.51-37.17-108.33-48.91-141.84-37.9-109.31-70.18-202.72-72.38-209.81-1.47-5.63-1.23-6.85,1.71-5.63,21.27,8.07,89.5,7.83,119.58-.49,9.54-2.69,18.34-4.89,19.81-5.13,1.46,0,4.64,6.11,6.84,13.69,8.07,29.59,127.17,401.05,137.44,429.66l6.11,16.88ZM1743,2105.56c-2.45.73-33.51,9.53-69.21,19.56-75.81,21.52-146,44.26-194.41,63.34-134.5,52.57-245.28,116.4-326.71,188.05-9.54,8.31-19.32,14.67-24,15.65-7.59,1.71-8.07,1.47-5.38-3.42,5.13-9.79,45.48-50.14,69.93-70.19,121.3-99,276.09-167.51,461-204,79.23-15.65,88.77-17.11,91.7-12.71C1746.64,2103.11,1745.18,2104.82,1743,2105.56Zm18.58,12.47c.49-.74,3.42-1.23,6.11-1,3.18,0-1.22,3.18-11,7.82-8.8,4.41-28.61,13.21-44,20.06-15.4,6.6-70.67,31.05-123.25,54.53-52.33,23.48-135.47,60.4-184.63,82.41-49.15,21.76-114,50.87-144.28,64.8-58.93,26.9-88.28,39.13-93.17,39.13-4.4,0,43.78-37.66,72.39-56.49,130.09-85.83,262.88-141.83,464.63-195.39C1735.15,2125.85,1760.83,2118.52,1761.56,2118ZM1707,3023.32l-14.68-9.05c-27.14-16.38-90-50.37-135.72-73.36-69-34.48-122.76-55.26-177.29-68.71-16.14-3.92-30.08-7.83-31.06-8.81-1.71-2.2-10.76-29.83-45-137.68-13.21-41.08-38.39-119.82-56.25-174.84-35-107.36-50.37-156-49.39-156.51,1.22-1,156.5-70.92,227.91-102.71,43-19.32,121.29-54,173.62-77.76,52.58-23.48,108.58-48.42,124.72-55.27,16.14-7.09,48.18-21.27,70.92-31.79,23-10.51,41.81-18.83,42.06-18.58.24,0,6.6,21,13.94,46.46,7.33,25.68,24,83.39,36.92,128.38s29.1,100.51,35.71,123.5c21,72.14,60.89,211.28,60.89,212.26,0,.73-8.56-3.18-18.83-8.31-25.43-13-45-15.41-91.7-12.23-73.12,5.38-123.74,19.56-133,37.41-9,17.37-.24,38.64,20.3,48.67,11,5.62,15.16,5.87,71.65,7.09,47.93,1.22,61.63,2.2,68.72,5.38,12.47,5.62,15.16,10.27,4.4,8.07-4.65-1-26.41-2-48.66-2-33.26,0-44.27.74-61.87,5.14-46.71,11.49-116.16,46.95-134.5,68.71-13.7,16.39-13.94,38.15-.49,48.67l5.87,4.64-4.89,7.1c-2.94,4.64-4.65,11.49-4.65,19.07,0,10.52,1,13,9.29,21,5.63,5.63,13.45,10.52,20.06,12.23l13.94,3.91c2,.49,2.2,2.93.73,8.07-4.65,16.14,4.89,31.79,25.43,41.82,13,6.36,63.83,20.54,92.68,25.67,10.76,2,11.74,4.89,2.45,7.34-8.07,2-93.91,36.68-105.64,42.8Zm236.47,149.91c-1.22,4.64-1.71,4.89-6.6,1.22-9.54-6.85-157-104.91-184.63-122.52l-27.39-17.6,15.41-6.12c8.55-3.42,37.9-15.65,65.53-27.14,55.76-23,53.07-22.74,71.9-6.36,6.11,5.38,7.82,8.8,7.09,13.21-1.71,8.31,3.42,52.82,8.07,70.91,5.87,23.48,23.48,57.23,38.39,74.1C1941.3,3164.18,1944.48,3169.31,1943.5,3173.23Zm13.45-21.52c-19.56-18.83-33.75-39.62-42.31-62.61-7.33-19.31-13.45-56-13.45-80.21v-16.14l-12.22-11c-16.63-14.92-39.37-24-94.4-37.17-51.35-12.47-70.42-19.81-74.58-29.1-3.43-7.09-1.22-17.36,3.67-19.32,1.95-.73,17.85-2.69,35-4.4,40.1-3.67,90.48-1.22,131.07,6.11,34,6.12,39.62,5.38,37.9-5.87-1-7.09-3.42-7.82-51.59-14.91-33.51-4.65-42.55-5.14-91-3.43-84.86,2.94-92,2.2-103.93-7.58-15.41-13-7.34-23.72,27.87-37.41,60.16-23.48,96.35-29.59,150.89-25.19,19.32,1.71,49.15,4.89,66,7.09,17.12,2.2,32.77,3.18,35,2.45,3.92-1.72,5.63-12.72,2-14.92-4.89-2.94-83.39-11.74-117.87-13-53.31-2-79.72,3.42-152.35,30.32l-11.74,4.4-7.09-7.82c-8.31-9.29-7.83-12.72,3.42-24.7,16.39-17.61,72.14-46.71,110.29-58,30.57-8.8,57-9.78,124.72-4.64,79.72,5.87,82.9,5.87,83.88-.49,1.22-8.07-4.16-10.52-28.86-13.21-22.5-2.44-22.74-2.69-36.19-14.92-7.34-6.6-16.14-13.69-19.81-15.65-12.47-6.35-36-8.55-83.39-8.07-44.51.74-48.42.49-59.18-4.64-12.22-5.63-17.36-14.67-12.47-22.5,5.38-8.56,51.11-22,92.19-27.14,9.54-1,33.51-2,53.07-1.72l36,.49,20.29,10.52c36.68,18.58,92.44,62.6,106.13,83.39,11,16.38,32.28,105.4,55,227.67,13.94,76.54,16.63,86.08,27.14,96.83l7.34,7.59L2149.4,3062c-6.84,32.77-17.85,58.2-37.9,88-11.49,16.87-37.66,43.77-53.31,54.77l-8.31,5.63-24.7-12.72C1989.23,3178.85,1975.53,3169.56,1957,3151.71Zm135.48,182.91a61.61,61.61,0,0,1-19.08-3.66c-15.89-6.61-94.15-70.43-90.48-73.86.49-.73,6.85-2.44,14.18-4.15l13-3.18,9.78,8.8c5.38,4.89,22,20.54,36.68,34.73,14.92,14.18,31.3,29.1,36.68,33.5l9.78,7.82Zm36.68-3.42c-8.81,1.71-13.45-2.2-75.08-61.13l-26.9-25.68,18.34-11c10-6.11,18.59-11,19.08-11,.49-.24,14.18,12,30.57,27.14,16.14,14.92,39.37,35.46,51.11,45.49s21.52,18.58,21.52,19.32C2167.75,3316.28,2136.93,3329.73,2129.11,3331.2Zm73.85-41.33c-9.05,8.56-18.1,15.41-20.05,15.41-2.94,0-36.2-28.61-91.95-79l-14.43-13,14.43-13.69c7.82-7.58,15.4-13.21,16.87-12.23,1.23.73,16.14,12.72,33,26.17,16.87,13.69,41.57,32.76,54.77,42.79l24.21,18.34Zm42.06-46.95-14.18,21-6.85-4.4c-12.72-8.07-107.35-82.66-107.6-84.61,0-1.22,4.89-9.05,11-17.61l11.24-15.65,58,38.15c31.79,20.79,58.94,38.88,60.16,40.1C2258.23,3221.16,2253.58,3230.2,2245,3242.92Zm34-73.85c-7.58,24-13,37.17-15.16,36.68-2-.49-79.72-50.37-117.87-75.56-1.47-1.23,12.72-35.22,14.92-35.22,1.22,0,7.82,2.94,14.91,6.36,7.1,3.67,33.75,17.85,59.43,32l47,25.43Zm3.91-27.63c-1.22,0-13.45-6.12-27.38-13.7-68.72-37.17-87.79-47.93-89-49.88-1.95-3.18,3.91-31.8,6.36-31.8,1.22,0,13.45,4.9,27.39,10.76,85.59,36.93,86.08,37.17,86.81,46C2288.3,3113.8,2285.13,3141.44,2282.92,3141.44Zm1.47-73.86,1.47,10.52-9.54-3.67c-5.13-2.2-31.3-13.69-57.71-25.19l-48.42-21.52v-15.16c0-8.56,1-15.4,2-15.4s15.65,5.87,32.52,13c16.63,7.09,39.86,16.87,51.84,21.52C2280,3040.68,2280.48,3041.66,2284.39,3067.58Zm-35.95-71.4c9.3,6.11,21,20.05,18.83,22.25-.73.74-18.83-6.11-40.1-15.16s-43.53-18.34-49.4-20.3c-10.51-3.67-13.2-7.09-18.58-24.45-1.72-5.63-1.47-5.63,6.6-2.2,4.4,1.95,15.16,6.6,24,10.27C2210.78,2975.39,2237.44,2988.84,2248.44,2996.18Zm522.83-524.06c-84.85,4.41-194.9,46.71-298.58,114.69-63.09,41.58-114.2,82.9-156.75,126.43-12,12.23-22,22.26-22.5,22.26-2,0-.73-85.84,1.47-118.61,4.64-63.09,12-106.37,29.83-171.67,10.52-39.37,10.52-44.75-.73-44.75-6.12,0-6.85,2.45-20.3,55.51-12.23,49.16-21.76,107.36-26.17,159.45-3.66,44-1.46,200.77,3.67,263.12,2.2,24.21,3.67,48.42,3.92,53.8v10l-21.77,4.16c-12,2.2-26.65,6.35-32.52,9.29l-10.76,5.13-24.21-10.51c-13.45-5.63-32.77-13.21-42.8-16.87l-18.09-6.36-4.41-23c-6.6-33.26-33.25-152.84-37.9-168.73-8.8-31.79-29.34-57-70.67-87.31-8.56-6.35-15.65-12.71-15.65-14.42,0-3.67-30.57-110.54-98.8-344.56-10-35-26.65-92.2-36.92-127.16-10-35-19.32-66-20.79-69.21-3.42-7.58-9-6.85-32,4.4l-19.81,9.54-14.92-6.11c-8.31-3.43-20.3-8.81-26.65-12.23-6.36-3.18-14.43-5.87-17.61-5.87-11.25,0-100,17.12-140.86,27.14-94.88,23-157.48,44.75-228.64,79-76.79,37.17-134.75,73.36-182.92,114.69-7.83,6.6-14.43,11.74-14.92,11.25s-2-26.66-3.42-58.2c-2.69-59.18-4.16-66-13.21-62.6-5.87,2.44-6.11,4.64-4.16,36.68,1,16.14,2,45.73,2,66v36.68l-23.72,25.19-24,25.19L1093,2367c-28.61-39.37-75.07-80.94-127.65-114.2l-22.5-14.18,11.74-33.26c45.73-129.61,102.95-227.42,168.49-287.58,67.25-61.87,167.51-115.43,313.75-168l26.16-9.3,3.92,20.06c14.67,73.85,50.62,144,97.08,188.78,39.13,37.66,76.54,58.94,126.92,71.65,25.92,6.61,91.95,5.63,124.23-1.46,68.71-15.41,134.25-47.93,196.12-97.58,53.06-42.3,118.36-118.6,147-171.17,3.91-7.1,4.64-7.34,26.9-8.81,25.43-1.47,53.31-8.07,78-18.58l15.89-6.85,22,7.82c12.23,4.41,28.12,10.52,35.46,13.45,24.21,9.54,86.81,43,116.4,62.36,83.88,54.78,133,111.51,183.41,211.78,39.61,79.23,78.5,178.76,114.2,292,19.56,61.38,48.17,159.44,48.17,164.09C2798.66,2469.68,2788.88,2471.15,2771.27,2472.12Z"/><path class="cls-1" d="M1943.5,3173.23c-1.22,4.65-1.71,4.9-6.6,1.23-9.54-6.85-157-104.91-184.63-122.52l-27.39-17.6,15.41-6.12c8.56-3.42,37.9-15.65,65.53-27.14,55.76-23,53.07-22.75,71.9-6.36,6.11,5.38,7.82,8.8,7.09,13.2-1.71,8.32,3.42,52.83,8.07,70.92,5.87,23.48,23.48,57.22,38.39,74.1C1941.3,3164.19,1944.48,3169.32,1943.5,3173.23Z"/><path class="cls-2" d="M1563,3496.52c13.21-27.14,14.67-35,6.85-38.15-6.6-2.44-10,1-15.9,15.16-7.82,19.32-27.63,54.78-41.08,73.86s-37.17,47.68-37.17,44.5c0-1,2.69-8.56,5.87-16.87,21.76-55.51,50.86-190.74,43-200-7.09-8.56-17.12-.49-17.12,13.45,0,27.39-33.26,161.65-46.71,188.3-.09.2-.22.47-.34.81s-.24.54-.37.88-.29.68-.44,1.07-.19.49-.29.76-.29.74-.46,1.13-.37,1-.59,1.49l-2.32,6q-.7,1.8-1.47,3.81H1290.06c.39-1,.78-2,1.15-3,.59-1.47,1.12-2.91,1.66-4.36,1.27-3.32,2.52-6.57,3.74-9.8.88-2.3,1.74-4.55,2.59-6.8,1.13-3,2.25-5.89,3.33-8.8.64-1.62,1.25-3.23,1.83-4.85q1.55-4,3-7.87,3.17-8.3,6.12-16.11c1-2.6,2-5.16,2.91-7.68,1.07-2.84,2.12-5.63,3.15-8.34.51-1.35,1-2.69,1.52-4l7.16-19q1.21-3.2,2.35-6.24c.2-.54.42-1.08.59-1.59.29-.73.56-1.47.83-2.2,1-2.74,2-5.38,3-7.92.64-1.72,1.27-3.35,1.86-5,2.37-6.28,4.48-12,6.36-17,.27-.71.51-1.4.78-2.08a2.08,2.08,0,0,1,.12-.32c.47-1.25.91-2.47,1.35-3.62,2.32-6.28,4.18-11.32,5.52-15,.27-.74.52-1.42.74-2.06.12-.32.22-.61.32-.9s.24-.69.36-1,.3-.85.42-1.22a5.3,5.3,0,0,0,.19-.56,4.27,4.27,0,0,0,.18-.49c2.93-9,19.07-27.39,22.25-25.43,1.22.73,20.78,49.4,34.72,87.54,2.2,5.38,3.92,6.61,9,6.12,3.67-.49,6.6-2.45,7.09-4.89,1-4.65-7.33-27.15-26.65-72.88l-12-28.12,5.62-4.16c2.93-2.44,11.49-6.6,18.83-9.53,7.34-2.69,14.92-6.36,16.87-7.83,5.14-4.4,12.48-21.52,12.48-29.83a53.93,53.93,0,0,1,13-34.73c11-12.47,19.31-15.65,39.61-14.67,14.18.49,20.54,2.2,36.19,10,1.69.85,4,2.1,6.88,3.79,1.14.66,2.39,1.39,3.74,2.2.68.39,1.37.8,2.08,1.24l2.2,1.32,3.1,1.91,1.45.88,1.49.93c1,.61,2,1.27,3.1,1.93l2.74,1.72,9,5.64c2.1,1.35,4.3,2.74,6.57,4.21,5.48,3.52,11.47,7.36,17.93,11.57,1.61,1.05,3.28,2.1,4.94,3.2,4.28,2.79,8.78,5.7,13.45,8.76,3.15,2.05,6.41,4.18,9.73,6.38s6.75,4.42,10.27,6.75,6.92,4.55,10.52,6.92q15,9.9,32.06,21.22c2.54,1.69,5.13,3.43,7.75,5.16q2,1.29,4,2.65c4.84,3.2,9.78,6.5,14.84,9.85l.42.29q6.42,4.26,13.08,8.73,10,6.68,20.59,13.77l17.61,11.79q44.9,30.07,98.65,66.34c3.57,2.42,7.19,4.84,10.83,7.31s7.29,4.92,11,7.44q7.36,5,14.91,10.05,15.12,10.23,30.86,20.88c3.94,2.67,7.9,5.33,11.89,8q23.91,16.17,49.25,33.35H1500.56c2.76-3.25,5.55-6.67,8.34-10.22.71-.88,1.42-1.78,2.1-2.69.93-1.17,1.84-2.37,2.74-3.57s1.81-2.39,2.72-3.62c1.29-1.76,2.61-3.54,3.91-5.33,1.17-1.61,2.32-3.25,3.47-4.89s2.32-3.33,3.47-5c.17-.22.32-.44.47-.66,1.25-1.86,2.52-3.72,3.74-5.6,4.4-6.63,8.71-13.45,12.84-20.35,1.37-2.32,2.74-4.64,4.08-7,.12-.22.25-.41.37-.63,1.22-2.13,2.42-4.26,3.59-6.36l2.79-5.11c.12-.22.22-.44.34-.66,1-1.91,2.06-3.84,3-5.75.44-.83.85-1.66,1.27-2.47C1560.91,3500.7,1562,3498.62,1563,3496.52Z"/><path class="cls-3" d="M815.43,3174.21c0,.49-4.4,10.52-10,22.5-12.23,26.41-39.61,94.64-53.8,134.26-5.62,16.14-10.76,29.83-11,30.32-.49.24-12.47-8.56-27.15-19.81-30.81-23.72-58.44-44-65.78-47.93-2.93-1.47-11.49-15.65-20-33-23.23-47.2-56.25-93.66-65.78-91.71a11.32,11.32,0,0,0-6.36,4.9c-2.2,3.17-.73,6.11,6.36,14.67,17.36,20,57,82.65,52.33,82.65-.49,0-13-6.84-27.63-15.16-45-25.43-118.36-58.2-130.59-58.2-6.36,0-10.51,7.83-6.6,12.72,1.71,2,13.2,7.33,25.67,11.74,50.63,17.85,134.75,65,194.9,109.31,55.27,40.34,64.81,48.17,63.34,52.08-.76,1.93-1.74,4.5-2.88,7.66-.32.88-.66,1.78-1,2.76-.19.49-.36,1-.53,1.49-.35.91-.69,1.84-1,2.81a2,2,0,0,0-.12.37c-.42,1.13-.84,2.28-1.25,3.47-.64,1.79-1.32,3.67-2,5.65-.34.93-.68,1.91-1,2.91-1.13,3.16-2.3,6.56-3.57,10.13-.49,1.44-1,2.91-1.52,4.42-2.57,7.34-5.36,15.43-8.39,24.21-.56,1.64-1.12,3.3-1.71,5-.88,2.54-1.79,5.13-2.69,7.8-1,2.91-2,5.91-3.06,9-.41,1.22-.83,2.47-1.27,3.71s-.85,2.52-1.29,3.82-.88,2.57-1.32,3.89q-4.74,13.86-9.86,29c-.88,2.52-1.74,5-2.59,7.61q-3.82,11.19-7.78,23c-1.05,3.13-2.1,6.29-3.18,9.47-4.47,13.27-9.09,27-13.81,41H48.81q-4.37-9.31-8.07-18.7c-.22-.54-.41-1.1-.63-1.64-1.79-4.57-3.43-9.15-5-13.75-.54-1.58-1-3.2-1.56-4.79-1.54-4.86-3-9.73-4.23-14.65-.25-.88-.47-1.78-.69-2.69a2.85,2.85,0,0,1-.14-.63c-.27-1-.52-2-.74-2.94s-.49-1.95-.68-2.93c-.27-1.15-.52-2.3-.79-3.45-.29-1.37-.58-2.76-.88-4.16-.53-2.64-1.05-5.28-1.51-7.94-.61-3.35-1.15-6.75-1.66-10.18,0-.07,0-.12,0-.19-.29-2.06-.56-4.14-.83-6.21-.37-2.69-.69-5.38-.95-8.12-.1-.88-.2-1.76-.27-2.64q-.59-5.91-1-12c-.12-1.62-.22-3.23-.29-4.87-.13-2.05-.23-4.13-.3-6.21s-.17-4.21-.22-6.31-.1-4.25-.12-6.38-.05-4.31-.05-6.46c.24-76.29,14.18-138.16,46.46-204.43C118,3131.66,219.23,3064.42,349.57,3051c26.17-2.45,84.86-1.23,112.49,2.44,55,7.58,144,32.53,215,59.91C716.39,3128.49,815.43,3172,815.43,3174.21Z"/><path class="cls-3" d="M2290.21,3592.72H2006.42c-20-13.54-42.21-28.56-68.72-46.46l-7.11-4.79c-2.4-1.64-4.84-3.28-7.34-5-19.86-13.4-42-28.34-67.3-45.36-124.22-83.88-265.08-176.8-295.16-195.14-40.1-24-61.13-30.08-86.08-24.95-26.9,5.63-43,24.46-48.17,56.25-2.69,16.87-9,29.34-14.67,29.34-1.72,0-26.42,11-31.79,13.94-.74.49-4.9-8.07-9.3-18.58-9.53-23-12.47-26.17-19.81-22.26-6.11,3.18-5.38,6.36,5.38,27.64,13,25.92,13,25.43,2,32.52-13.45,8.8-17.61,16.63-31.55,57.47-1.58,4.67-3.27,9.51-5.11,14.74-.36,1-.73,2.08-1.12,3.16v0c-.59,1.62-1.15,3.26-1.76,4.94s-1.22,3.43-1.86,5.19c-1,2.66-1.93,5.43-3,8.31-.71,1.91-1.42,3.89-2.16,5.92-1.12,3-2.27,6.21-3.49,9.54-.81,2.2-1.67,4.47-2.52,6.82-1.74,4.69-3.57,9.66-5.55,14.94-.49,1.32-1,2.67-1.49,4q-1.8,4.76-3.7,9.85c-.73,2-1.46,3.94-2.22,5.94s-1.54,4.11-2.35,6.21q-1.68,4.49-3.47,9.25c-1,2.76-2.13,5.6-3.21,8.48-.56,1.45-1.1,2.91-1.66,4.41-1.12,2.95-2.27,6-3.45,9.12s-2.39,6.28-3.62,9.53c-.63,1.62-1.24,3.28-1.88,4.94H680.44l8.61-25.45q2.13-6.32,4.25-12.55c8.81-26,17.37-51.06,25.46-74.63q1.68-4.92,3.35-9.76c4.57-13.33,9-26.14,13.23-38.34,1-2.79,1.93-5.53,2.86-8.24,2.84-8.17,5.6-16.05,8.24-23.58.76-2.17,1.52-4.33,2.25-6.43,1-2.76,1.93-5.48,2.86-8.12.83-2.35,1.67-4.67,2.45-6.94,1-2.82,2-5.58,3-8.27.36-1,.73-2.08,1.1-3.1,1.34-3.82,2.66-7.51,3.93-11,.71-2,1.42-3.94,2.11-5.85.49-1.34,1-2.69,1.47-4,.75-2.1,1.51-4.18,2.25-6.16.36-1.08.75-2.13,1.14-3.18,57.23-156.26,107.85-253.83,165.8-318.88,69-77.77,142.57-122.52,227.18-138.17,34.24-6.36,37.17-6.85,78.26-7.09a570.74,570.74,0,0,1,63.58,3.18c102,13.45,203.7,53.55,352.87,138.9,65,37.17,171.67,105.64,254.57,163.35l30.81,21.52,1.47,14.67c2.69,29.84,18.1,51.6,64.56,90.73,12.47,10.51,27.39,22.5,33.26,26.9,9.53,6.85,11.25,9.29,13.69,21,3.67,19.32,17.61,49.64,33,72.63q2.51,3.74,5.21,7.51c.74,1,1.49,2.07,2.28,3.13,2.57,3.47,5.25,7,8.09,10.44.71.9,1.44,1.78,2.15,2.66q9.51,11.52,20.69,23c1.47,1.52,3,3.06,4.48,4.57q10.56,10.58,22.32,21c1.08,1,2.16,1.93,3.26,2.89l4,3.47c1.66,1.42,3.35,2.86,5,4.26,1.84,1.56,3.67,3.1,5.56,4.62s3.93,3.2,5.91,4.79c1.49,1.2,3,2.4,4.5,3.57,1.69,1.32,3.38,2.64,5.09,3.94,1.42,1.1,2.84,2.2,4.28,3.28s3,2.29,4.55,3.42,3.05,2.27,4.59,3.37c1.79,1.32,3.57,2.62,5.38,3.92,12.7,9.12,25.95,18,39.62,26.58,1,.63,2,1.25,2.93,1.83s2,1.22,2.94,1.81c2.15,1.35,4.3,2.67,6.46,3.94Q2273.44,3583.67,2290.21,3592.72Z"/><path class="cls-4" d="M1053.61,2391.92c-16.63-3.67-33.74-10.27-71.89-27.63-91-40.84-116.41-52.33-171.18-77.52-58.2-26.65-152.6-68.72-196.13-87.55-13.2-5.62-24-11-24-12,0-2.93,13.2-6.36,19.56-5.13,3.43.73,12.23,2.69,19.57,4.64,27.87,6.85,172.4,57,211.53,73.12,54.28,22.5,115.91,55,150.39,79.23,26.16,18.34,62.11,45.73,65.78,50.13C1060.46,2393.15,1060.21,2393.39,1053.61,2391.92Z"/><path class="cls-4" d="M1068.53,2378.23c-9-8.07-26.66-22.25-38.88-31.55C950.17,2287.75,868,2249.11,712.48,2197c-96.11-32-98.55-34.48-19.57-20.05,57.47,10.27,132.3,29.1,163.85,41.33,63.09,24,124.47,60.16,167.75,98.79,22.5,20.06,56.25,56.74,63.34,69.21C1094.94,2398,1086.63,2394.61,1068.53,2378.23Z"/><path class="cls-4" d="M1756.67,2124.88c-8.8,4.41-28.61,13.21-44,20.06-15.4,6.6-70.67,31-123.25,54.53-52.33,23.47-135.47,60.4-184.63,82.41-49.15,21.76-114,50.86-144.28,64.8-58.93,26.9-88.27,39.13-93.17,39.13-4.4,0,43.78-37.66,72.39-56.49,130.1-85.83,262.88-141.83,464.63-195.39,30.81-8.07,56.49-15.4,57.22-15.89.49-.74,3.42-1.23,6.12-1C1770.85,2117.06,1766.45,2120.24,1756.67,2124.88Z"/><path class="cls-4" d="M1743,2105.56c-2.45.74-33.51,9.54-69.21,19.57-75.81,21.52-146,44.26-194.41,63.33-134.5,52.58-245.28,116.41-326.71,188.06-9.54,8.31-19.32,14.67-24,15.65-7.58,1.71-8.07,1.46-5.38-3.43,5.13-9.78,45.48-50.13,69.94-70.18,121.29-99,276.08-167.51,461-203.95,79.23-15.65,88.77-17.12,91.7-12.71C1746.64,2103.12,1745.18,2104.83,1743,2105.56Z"/><path class="cls-5" d="M1329.21,2861l-11.74-1.46c-41.57-5.14-79.72-7.09-102-4.89l-24,2.2-2.44-6.36c-1.47-3.42-14.92-42.55-30.08-86.81-15.16-44.51-37.17-108.34-48.91-141.84-37.9-109.31-70.18-202.72-72.38-209.81-1.47-5.63-1.23-6.85,1.71-5.63,21.27,8.07,89.5,7.83,119.58-.49,9.54-2.69,18.34-4.89,19.81-5.13,1.46,0,4.64,6.11,6.84,13.69,8.07,29.59,127.17,401,137.44,429.66Z"/><path class="cls-6" d="M1152.41,2863.64c-68.47,14.68-135.23,49.4-185.85,96.84l-18.83,17.37-31.79-13.94c-17.61-7.58-32-14.68-32-15.41,0-1,7.83-3.67,17.12-6.11,23-5.87,44.5-16.88,53.8-27.64,6.84-7.58,7.58-10.27,6.84-20.54-.73-11.25-.48-12,6.12-13.45,10.51-2.2,23.23-14.67,26.16-25.67,3.18-12,1.23-20.79-7.33-31.55l-6.85-8.8,5.87-6.61c7.34-8.56,9.29-16.38,7.34-27.63-4.65-24-52.83-53.55-114-69.94l-19.32-5.13,10.27-5.14c13.7-7.09,19.56-15.89,19.56-29.59,0-19.56-12.71-30.57-48.41-41.57-31.8-9.54-58.69-13.7-91.71-13.7l-30.81.25-11.74-27.63c-6.6-14.92-29.83-68.23-51.6-117.87-60.64-137.93-74.58-169.72-81.92-188.3-3.91-9.54-14.92-34.73-24.45-56.25s-18.1-40.59-18.83-42.3c-1.47-3.67-4.89-4.89,48.17,18.58,55,24.46,123.25,54.78,176.07,78.75,27.64,12.47,65.54,29.59,84.37,37.9s62.36,28.12,96.59,44c34.24,15.65,66.27,30.08,70.92,32l8.56,3.43,27.39,80.21c14.92,44,50.13,146,77.76,226.69,27.88,80.7,51.11,148.43,51.85,150.63C1172.46,2858.51,1168.55,2860.22,1152.41,2863.64Z"/><path class="cls-6" d="M1923.45,2406.59c-6.61-23-22.75-78.5-35.71-123.5s-29.59-102.7-36.92-128.38c-7.34-25.43-13.7-46.46-13.94-46.46-.25-.25-19.07,8.07-42.06,18.58-22.74,10.52-54.78,24.7-70.92,31.79-16.14,6.85-72.14,31.79-124.72,55.27-52.33,23.72-130.58,58.44-173.62,77.76-71.41,31.79-226.69,101.73-227.91,102.71-1,.49,14.42,49.15,49.39,156.51,17.86,55,43,133.76,56.25,174.84,34.23,107.85,43.28,135.48,45,137.68,1,1,14.92,4.89,31.06,8.81,54.53,13.45,108.33,34.23,177.29,68.71,45.73,23,108.58,57,135.72,73.36l14.68,9.05,8.56-4.15c11.73-6.12,97.57-40.84,105.64-42.8,9.29-2.45,8.31-5.38-2.45-7.34-28.85-5.13-79.72-19.31-92.68-25.67-20.54-10-30.08-25.68-25.43-41.82,1.47-5.14,1.22-7.58-.73-8.07l-13.94-3.91c-6.61-1.71-14.43-6.6-20.06-12.23-8.31-8.07-9.29-10.51-9.29-21,0-7.58,1.71-14.43,4.65-19.07l4.89-7.1-5.87-4.64c-13.45-10.52-13.21-32.28.49-48.67,18.34-21.76,87.79-57.22,134.5-68.71,17.6-4.4,28.61-5.14,61.87-5.14,22.25,0,44,1,48.66,2,10.76,2.2,8.07-2.45-4.4-8.07-7.09-3.18-20.79-4.16-68.72-5.38-56.49-1.22-60.64-1.47-71.65-7.09-20.54-10-29.34-31.3-20.3-48.67,9.3-17.85,59.92-32,133-37.41,46.7-3.18,66.27-.74,91.7,12.23,10.27,5.13,18.83,9,18.83,8.31C1984.34,2617.87,1944.48,2478.73,1923.45,2406.59Zm-52.9,143.3c-12.47,8.8-439.19,193.92-452.64,196.37-6.12,1.22-7.34.24-11.74-10.27-2.69-6.12-13.21-37.42-23.48-69.21s-30.08-93.66-44.26-137.19c-16.87-51.84-25.19-80.45-23.72-82.65,1.22-1.72,77.52-35.71,169.71-75.08,92.19-39.61,195.15-84.12,228.65-98.79,33.74-14.92,62.85-26.9,65-27.15s5.13,1.23,6.6,2.69c1.22,1.71,13.69,40.11,27.39,85.1s33.5,109.56,44.26,143.55c10.51,33.75,19.32,63.34,19.32,65.29S1873.24,2547.93,1870.55,2549.89Z"/><path class="cls-7" d="M2102.94,3334.63h-10.51a61.33,61.33,0,0,1-19.08-3.67c-15.89-6.6-94.15-70.42-90.48-73.85.49-.73,6.85-2.44,14.19-4.15l13-3.18,9.78,8.8c5.38,4.89,22,20.54,36.68,34.73,14.92,14.18,31.3,29.1,36.68,33.5Z"/><path class="cls-7" d="M2167.75,3314.34c0,1.95-30.82,15.4-38.64,16.87-8.81,1.71-13.45-2.2-75.08-61.14l-26.9-25.67,18.34-11c10-6.11,18.59-11,19.08-11,.49-.25,14.18,12,30.57,27.14,16.14,14.92,39.37,35.46,51.11,45.49S2167.75,3313.6,2167.75,3314.34Z"/><path class="cls-7" d="M2219.83,3274.72,2203,3289.88c-9.05,8.56-18.1,15.41-20.05,15.41-2.94,0-36.19-28.61-91.95-79l-14.43-13,14.43-13.69c7.82-7.59,15.41-13.21,16.87-12.23,1.23.73,16.14,12.71,33,26.16,16.87,13.7,41.57,32.77,54.77,42.8Z"/><path class="cls-7" d="M2245,3242.93l-14.18,21-6.85-4.4c-12.72-8.07-107.35-82.66-107.6-84.61,0-1.23,4.89-9,11-17.61l11.25-15.65,57.95,38.15c31.79,20.78,58.94,38.88,60.16,40.1C2258.23,3221.17,2253.58,3230.21,2245,3242.93Z"/><path class="cls-7" d="M2282.19,3158.81l-3.18,10.27c-7.58,24-13,37.17-15.16,36.68-2-.49-79.72-50.38-117.87-75.56-1.47-1.23,12.72-35.22,14.92-35.22,1.22,0,7.82,2.94,14.92,6.36,7.09,3.67,33.74,17.85,59.42,32Z"/><path class="cls-7" d="M2282.93,3141.44c-1.23,0-13.45-6.11-27.39-13.69-68.72-37.17-87.79-47.93-89-49.89-1.95-3.18,3.92-31.79,6.36-31.79,1.22,0,13.45,4.89,27.39,10.76,85.59,36.93,86.08,37.17,86.81,46C2288.3,3113.81,2285.13,3141.44,2282.93,3141.44Z"/><path class="cls-7" d="M2285.86,3078.11l-9.54-3.67c-5.13-2.2-31.3-13.69-57.71-25.19l-48.42-21.52v-15.16c0-8.56,1-15.41,2-15.41s15.65,5.87,32.52,13c16.63,7.09,39.86,16.87,51.84,21.52,23.48,9,24,10,27.88,35.94Z"/><path class="cls-7" d="M2267.27,3018.44c-.73.73-18.83-6.11-40.1-15.16s-43.53-18.34-49.4-20.3c-10.51-3.67-13.2-7.09-18.58-24.45-1.72-5.63-1.47-5.63,6.6-2.2,4.4,2,15.16,6.6,24,10.27,21,8.8,47.69,22.25,58.69,29.59C2257.74,3002.3,2269.48,3016.24,2267.27,3018.44Z"/><path class="cls-8" d="M893.44,3037.76c.49.49-7.34,13.2-17.61,28.37-10,15.16-22.5,35.21-27.39,44.75-5.13,9.29-13,24-17.36,32.28l-8.32,14.91L779.48,3138c-24-11.25-56.49-25.68-72.38-32-28.37-11.5-28.86-11.74-36.93-25.44-14.18-23.47-19.07-43.28-20.3-83.39-1-29.58-.24-39.61,3.92-60.64,5.38-25.92,19.07-67.25,22-66,.74.49,6.85,6.36,13.21,13.21,10.52,11.49,11.49,13.45,11.49,24.7,0,20.78,6.36,34.48,24.21,52.33,27.15,26.9,92.2,58.93,144.77,70.92C882.19,3034.58,893,3037.27,893.44,3037.76Z"/><path class="cls-8" d="M2875.69,3458.86c-1,2.45-1.93,4.89-2.93,7.29-.71,1.78-1.47,3.54-2.23,5.31-.58,1.39-1.19,2.78-1.81,4.15-1.85,4.21-3.76,8.32-5.77,12.38-.9,1.88-1.83,3.71-2.76,5.57q-2.79,5.51-5.77,10.84c-1.17,2.12-2.37,4.23-3.57,6.3-.42.74-.83,1.45-1.27,2.16-1.13,1.93-2.28,3.81-3.45,5.69-.66,1.1-1.35,2.18-2,3.23-1.49,2.37-3,4.72-4.6,7-1,1.47-2,3-3,4.4-.46.69-.95,1.35-1.41,2-.81,1.13-1.62,2.25-2.43,3.35a292.2,292.2,0,0,1-22.71,27.51c-1.3,1.4-2.6,2.77-3.92,4.11s-2.64,2.69-4,4c-.88.88-1.79,1.76-2.69,2.62s-1.81,1.74-2.72,2.59c-1.37,1.27-2.74,2.54-4.13,3.79q-2.74,2.46-5.53,4.82l-2.32,2-3.3,2.71H2328c-3.45-1.71-6.89-3.44-10.34-5.25-2.69-1.4-5.38-2.79-8.07-4.26-1.76-.9-3.5-1.86-5.24-2.81s-3.64-2-5.45-3c-2.42-1.35-4.84-2.72-7.26-4.09s-4.87-2.79-7.31-4.23-4.87-2.86-7.31-4.33c-1.67-1-3.33-2-5-3l-1.25-.78-2.3-1.4-.61-.36c-4.33-2.67-8.66-5.41-13-8.2-2.47-1.59-5-3.17-7.46-4.81s-5-3.3-7.53-5c-81.19-54-129.12-102.95-155-158.22-15.65-33-16.13-30.81,8.81-30.56,48.91.24,97.33-23.24,139.14-67.5,20.54-21.52,32.28-38.88,46.47-68.71,35.21-74.34,32.76-170-5.63-221.07-3.18-4.4-11.49-11.74-18.34-16.14l-12.47-8.56,14.43-4.4c19.81-6.11,64.07-5.87,87.79.24,71.89,19.08,182.43,74.83,247.72,125.45,26.65,20.55,80.45,73.12,98.31,95.86,10.75,13.94,14.67,17.12,19.56,16.63,3.91-.24,6.36-2.2,6.85-5.38,1.71-12-73.12-90.23-118.12-123.73-13.2-9.79-36.68-25.93-52.33-35.95s-26.17-17.61-23.48-16.88c2.69,1,12.23,2.69,21.28,4.16,51.11,7.83,121.29,33.75,155.77,57.22,14.19,9.79,17.85,10.52,22.26,5.14,5.62-6.6-.25-12.72-26.42-27.63-30.56-17.61-60.4-29.35-102.21-40.84-30.33-8.32-87.79-18.34-105.16-18.34q-9.17,0-35.21-12.47c-50.13-24.46-97.33-40.11-136.46-45-10.51-1.47-13-2.69-13.69-6.85-1.47-6.6-5.87-77-8.8-133.52l-2-42.55,22.25-24.21c80-86.08,205.42-171.42,317.66-215.68,54.54-21.52,116.65-35.71,152.11-35l19.56.49,9.3,36.68c57.46,228.4,90.72,434.55,100.26,620.4C2920.2,3265.92,2906.26,3380.12,2875.69,3458.86Z"/><path class="cls-8" d="M2065.77,1846.59c-115.67,127.66-272.42,188.3-390.29,151.38-39.86-12.72-68-30.33-100.75-63.1-45-45.24-77.27-106.86-91.7-175.58-2.45-12.47-4.4-23-3.91-23.23,1.22-1.22,48.9-17.36,51.59-17.61,1.47-.24,3.92,8.56,5.63,19.32,5.87,40.6,29.59,97.82,54.29,130.1,53.31,70.67,128.38,93.9,221.8,69.21,78.74-20.79,173.38-85.35,225.71-153.58l15.89-20.78,19.32-2.94c17.12-2.44,37.17-8.31,59.43-17.36,4.4-1.71,8.56-2.45,9.53-1.71C2146.47,1745.11,2102.21,1806.49,2065.77,1846.59Z"/><path class="cls-1" d="M2798.66,2468c0,1.71-9.78,3.17-27.38,4.15-84.86,4.4-194.9,46.71-298.59,114.69-63.09,41.58-114.2,82.9-156.75,126.43-12,12.23-22,22.25-22.5,22.25-2,0-.73-85.83,1.47-118.6,4.64-63.09,12-106.37,29.83-171.67,10.52-39.37,10.52-44.75-.73-44.75-6.12,0-6.85,2.45-20.3,55.51-12.23,49.16-21.76,107.36-26.16,159.44-3.67,44-1.47,200.77,3.66,263.13,2.2,24.21,3.67,48.42,3.92,53.8v10l-21.77,4.15c-12,2.21-26.65,6.36-32.52,9.3l-10.76,5.13-24.21-10.51c-13.45-5.63-32.77-13.21-42.8-16.88l-18.09-6.35-4.4-23c-6.61-33.26-33.26-152.84-37.91-168.74-8.8-31.79-29.34-57-70.67-87.3-8.56-6.35-15.65-12.71-15.65-14.42,0-3.67-30.57-110.54-98.8-344.56-10-35-26.65-92.2-36.92-127.17-10-35-19.32-66-20.79-69.2-3.42-7.58-9-6.85-32,4.4l-19.81,9.54-14.92-6.12c-8.31-3.42-20.3-8.8-26.65-12.22-6.36-3.18-14.43-5.87-17.61-5.87-11.25,0-100,17.12-140.86,27.14-94.88,23-157.48,44.75-228.64,79-76.79,37.17-134.75,73.36-182.92,114.69-7.83,6.6-14.43,11.74-14.92,11.25s-2-26.66-3.42-58.2c-2.69-59.18-4.16-66-13.21-62.61-5.87,2.45-6.11,4.65-4.15,36.69,1,16.14,2,45.72,2,66v36.68l-23.72,25.19-24,25.19L1093,2367c-28.61-39.37-75.07-80.94-127.65-114.2l-22.5-14.18,11.74-33.26c45.73-129.61,102.95-227.43,168.49-287.58,67.25-61.87,167.51-115.43,313.75-168l26.17-9.3,3.91,20.06c14.67,73.85,50.62,144,97.08,188.78,39.13,37.66,76.54,58.94,126.92,71.65,25.92,6.61,91.95,5.63,124.23-1.46,68.71-15.41,134.25-47.93,196.12-97.58,53.06-42.3,118.36-118.6,147-171.18,3.91-7.09,4.64-7.33,26.9-8.8,25.43-1.47,53.31-8.07,78-18.58l15.89-6.85,22,7.82c12.23,4.41,28.12,10.52,35.46,13.45,24.21,9.54,86.81,43,116.4,62.36,83.88,54.78,133,111.51,183.41,211.77,39.61,79.24,78.5,178.77,114.2,292C2770.05,2365.27,2798.66,2463.33,2798.66,2468Z"/><path class="cls-9" d="M1679.64,925.65c-2.93,3.18-26.17,3.42-40.11,1-19.56-3.92-40.83-17.61-68.22-43.78-22.5-21.52-44.75-47.44-40.84-47.44.73,0,11.49,7.83,23.72,17.37,12.47,9.29,32.52,23.23,44.75,30.81,24,14.91,73.85,39.86,79.48,39.86C1680.86,923.45,1681.11,924.18,1679.64,925.65Z"/><path class="cls-9" d="M1580.36,1685.2c-.49.49-11.25,3.42-24,7.09-12.72,3.42-32,9-42.79,12.47l-19.57,6.11-4.64-5.62c-8.32-9.78-23.72-45.49-29.59-68.47-6.85-27.15-10-50.62-6.85-50.62,1.22,0,11.25,3.18,22.25,7.33,18.59,6.85,54.78,14.92,81.68,18.34l11.25,1.47,1.71,12.72c1,7.09,3.91,23,6.36,35.7C1578.89,1674.44,1580.6,1685,1580.36,1685.2Z"/><path class="cls-9" d="M2042.3,1478.56c-.74,33.5-2.45,51.84-6.36,70.92-9,42.55-29.1,96.83-35.22,94.88-5.13-1.71-18.58-31.55-26.16-57.71-13.94-48.91-25.92-123.74-31.79-198.08l-2.45-32.53,12-24.94c6.61-13.69,15.17-34,18.83-45.24,4.89-14.67,7.58-19.81,10.27-18.83,1.72.73,7.59,1.22,12.72,1.22h9.29l11,29.84C2036.18,1357.51,2044.25,1409.35,2042.3,1478.56Z"/><path class="cls-10" d="M1627.31,268.08c0,1-15.16,2.44-33.5,3.17-18.59,1-36,2-38.4,2.21-6.84,1-9.53-13.21-8.07-45.73,1.47-29.35,6.85-50.62,19.32-75.81,7.58-15.16,16.14-28.12,18.1-28.12.73,0,.49,4.89-.25,10.76-2.44,16.14,2.94,52.57,11.25,76.54,7.58,21.27,20.79,46.22,27.88,52.08C1625.6,264.9,1627.31,267.1,1627.31,268.08Z"/><path class="cls-10" d="M1807.05,16.2,1788,27.2c-46.71,27.39-81.68,75.08-94.64,129.12-8.31,34.48-5.62,82.41,6.12,112.49,1.71,3.91.24,4.16-22.26,2.69-24-1.47-24.21-1.47-32.52-10.27-31.06-33.75-47.2-85.1-41.82-133.28,3.18-27.39,8.81-37.9,28.37-54,42.55-35.22,101.49-56.25,161.15-57.47Z"/><path class="cls-10" d="M2004.64,107.66l-14.43,2.93c-57.22,11.74-103.69,51.35-127.9,109.8-10.76,25.68-15.4,49.64-14.43,74.1.49,12.71-.24,19.8-1.71,19.07-25.18-11.49-73.12-26.17-109.55-33.26-16.39-3.18-18.1-5.62-26.41-36-7.09-25.18-7.09-60.15,0-87,15.4-59.43,59.67-108.82,114.44-127.65,21.52-7.58,23.23-7.58,49.16,1.22,44,14.67,88.52,39.37,118.84,66.27Z"/><path class="cls-10" d="M2087.05,292.77c0,13.94,0,14.19-11.5,23-29.59,22.5-69.69,35.46-110,35.46-32,0-52.82-4.89-77.77-17.85-22.49-11.74-22.74-12.23-23-44.51-.25-26.9,3.91-45,16.63-70.92,26.9-54.53,77.52-90.72,128.14-91.45,9.78-.25,13,1,18.58,6.35,11.25,11.5,34.24,52.58,42.8,76.79C2080,235.06,2087.05,271.25,2087.05,292.77Z"/><path class="cls-10" d="M2078.24,356.6c-7.82,29.59-22.49,59.67-37.41,75.81l-11.74,13L2002,419.45c-14.92-14.19-33.51-30.82-41.58-36.93l-14.67-11,24.7-1.47c36.44-2.45,74.1-13.21,99.53-29.1,6.11-3.67,11.74-6.85,12.72-6.85S2081.67,344.37,2078.24,356.6Z"/><path class="cls-9" d="M2211.76,1624.31c-23.72,59.91-63.82,97.32-121.53,114-27.39,8.07-84.62,7.83-117.38-.24-12.48-2.94-22.75-6.36-22.75-7.09.25-1,5.63-5.63,12.48-10.27,22.74-15.9,52.08-55.27,66.76-89.75,41.08-96.11,43-216.42,5.37-325.73-5.86-17.12-11.24-32.53-12.22-34.73-1.47-3.18.24-4.4,8.31-5.62,29.1-4.65,73.85-33.75,97.09-63.34l11-14.18,5.14,8.07c2.69,4.4,13,24,23,43.53C2239.4,1381,2255.05,1516,2211.76,1624.31Z"/><path class="cls-9" d="M1472.51,1717.23c-.49.49-18.83,7.34-41.08,15.41-22,7.82-52.82,19.32-68.23,25.67-15.4,6.12-29.34,11.25-31.3,11.25-5.62,0-30.57-18.58-44.75-33.5-24-24.94-40.84-55.27-50.13-90-7.09-26.66-6.6-107.84,1-143.06,7.33-33.26,21-80.7,23.72-80.7.49,0,7.82,10.76,16.63,23.72a353.8,353.8,0,0,0,70.91,78c20.79,16.39,54.78,38.64,73.86,47.93,10.76,5.38,11,5.63,11,17.37,0,28.12,15.16,82.9,30.57,111.26C1469.58,1709.16,1473,1716.74,1472.51,1717.23Z"/><path class="cls-10" d="M1254.87,1766.14c-2.2,2.45-44.51-14.92-62.85-25.92-24.45-14.18-57.22-47-70.91-70.92-23.48-40.35-31.79-72.87-31.79-124,0-53.31,5.86-82.41,36.68-179.25,30.81-97.33,39.37-141.84,39.37-207.13,0-22,1-39.86,2-39.86s11.25,33.26,23,73.85c11.49,40.84,25.19,90,30.08,109.56,9,35.46,18.59,65.54,27.39,85.1l4.64,10.51-7.09,17.61c-20,48.91-32.28,112-32.28,168,0,66,17.12,144.77,38.15,174.36C1253.89,1762,1255.6,1765.41,1254.87,1766.14Z"/><path class="cls-10" d="M2345,1218.11c-5.63-9.53-22.74-37.41-37.66-62.36-58.45-96.34-79-148.68-105.4-267.77-29.59-133.76-59.67-224.24-100.75-302-71.16-135.23-165.56-221.06-293.94-267.53-34.24-12.47-57.22-18.58-96.84-25.19-35-5.86-131.56-5.86-168.24,0-112.49,18.1-205.71,59.7-265.09,109.32-15,12.49-22.28,18.43-26.6,20.15,0,1.71-41.87,51.74-51.16,60.3-93.42,83.63-148.93,232.31-137.19,367.06,6.85,76,25.92,137.43,58.93,189.52,12,18.83,38.64,52.08,42.07,52.33,1,.24.73-2.69-.49-6.6-1.47-3.67-4.65-17.12-7.09-30.08-29.59-144.77-2.94-305.68,65.53-398.12,6.12-8.07,6.12-9,5.63-46.46-.49-21,.24-39.62,1.46-41.33,1.23-2,4.9-2.93,8.07-2.44,5.87.73,5.87.73,7.34,42.3,1,24.21,3.18,49.65,5.63,60.65,26.16,120.07,107.84,214,218.62,251.14,36.68,12.23,92.19,19.32,124,15.9l16.14-1.71-17.85-12.47c-24.46-16.88-64.07-57.47-81-82.66-7.58-11.74-18.58-30.81-24.21-42.79-5.38-12-16.38-29.59-24-38.89-51.84-63.58-86.81-144-92-211l-1.71-22.25,6.6-1.71c9.29-2.2,12,1.47,13,19.07,4.89,80.7,48.42,167.76,122.27,244.3q89.5,92.44,208.6,131.81c77.27,25.43,168.73,32.28,227.42,17.36,19.57-4.89,26.9-3.67,26.9,4.4a10.61,10.61,0,0,1-3.18,7.09c-3.42,2.94-48.91,12.72-58.69,12.72-13.45,0-13.69,1.47-3.91,20.3,10,19.07,24.21,58.69,24.45,68v5.87l2.69-6.11c18.59-43.29,27.15-57.23,47.93-78.26,17.86-17.85,24-22.25,38.15-27.88,40.84-16.13,84.37-8.06,114,20.55,14.67,14.42,30.57,46.21,35.7,72.14,7.83,38.39,1,91.7-16.14,125.94l-4.15,8.55,15.65,28.13c79,140.12,105.88,275.84,77.52,389.06-12.48,50.13-33.26,89.75-64.07,122.52l-15.66,16.63h9.54c15.9,0,50.38-6.85,69.7-13.7,57.71-20.78,112-61.87,141.83-107.35C2450.44,1502.27,2437.72,1372.66,2345,1218.11ZM2034.15,812.17c-.73,5.63-2.44,7.09-13,10-20.3,5.38-84.61,6.36-112.49,1.71-98.55-16.87-200.77-82.65-273.64-176.07-42.55-54.29-86.81-142.81-77.52-154.06,7.34-8.8,12.23-4.16,19.81,18.1,12.71,38.39,42.3,89.25,75.56,130.83,67.74,84.61,160.91,145.25,250.9,162.86,22.5,4.4,91,4.65,108.09.24C2028.28,801.41,2035.13,803.61,2034.15,812.17Z"/><path class="cls-11" d="M779.48,2891c1.71.49,16.87-.49,33.5-2.69,34-4.15,115.92-4.89,125.7-1.22,9.29,3.42,8.56,12.72-1.47,20.54-4.4,3.18-15.41,8.81-24.7,12.23-19.07,7.09-75.32,21.52-102,25.92-10,1.71-19.81,4.4-21.28,5.63-4.4,3.17-3.91,13.69.49,15.4,2,.74,17.61-1.47,34.73-5.13l31.3-6.61,33,15.9c18.1,8.56,35.46,16.63,38.64,17.36,2.93,1,5.38,2.45,5.38,3.42-.25,1-5.87,8.07-13,15.9l-12.72,14.18-22-4.89c-39.37-8.56-93.66-30.32-124-49.88-32.52-20.79-44-37.42-44.51-64.32-.24-14.18-1-15.65-10.51-26.16-16.63-17.86-18.59-24-17.36-48.67,1.22-21.27,1.22-21.52-7.34-35.46-11.49-18.09-13.21-35.94-5.63-53.31,6.61-14.91,6.36-18.83-1-36.68-7.58-18.83-7.83-32.28-.49-43,6.36-9.29,26.9-20.78,43.28-24,17.61-3.43,53.07-2.94,77.52,1,60.4,9.78,90.73,29.83,69.21,45.48-8.07,6.11-24.7,8.8-71.17,12-41.81,2.69-76.78,8.07-81.92,12.47a9.37,9.37,0,0,0,.25,14.43c2.69,2.2,7.58,2.2,20.54.25,24.21-3.92,83.14-3.18,109.07,1,48.41,7.83,104.9,30.08,124.22,48.91,11.5,11.25,12,22,1.23,27.88-5.87,3.42-9,3.42-31.8-.73-62.11-11-97.08-13.21-149.65-8.81-29.84,2.45-35.71,4.65-35.71,12.48,0,4.15,7.83,10.76,10,8.31.73-.49,17.12-2,36.43-3.18,74.35-4.65,154.8,7.58,175.34,26.9,6.85,6.6,7.34,17.36,1,23.72-8.07,8.07-21,9.54-77.28,9.54-49.15,0-109.06,4.64-116.15,9C775.08,2878.32,775.81,2889.57,779.48,2891Z"/><path class="cls-11" d="M2153.32,3042.89,2149.4,3062c-6.84,32.77-17.85,58.2-37.9,88-11.49,16.88-37.66,43.78-53.31,54.78l-8.31,5.63-24.7-12.72c-36-18.83-49.64-28.12-68.23-46-19.56-18.83-33.75-39.62-42.31-62.61-7.33-19.32-13.45-56-13.45-80.21v-16.14l-12.22-11c-16.63-14.92-39.37-24-94.4-37.17-51.35-12.47-70.42-19.81-74.58-29.1-3.42-7.09-1.22-17.36,3.67-19.32,1.95-.73,17.85-2.69,35-4.4,40.1-3.67,90.48-1.23,131.07,6.11,34,6.11,39.62,5.38,37.91-5.87-1-7.09-3.43-7.82-51.6-14.92-33.51-4.64-42.55-5.13-91-3.42-84.86,2.94-92,2.2-103.93-7.58-15.41-13-7.34-23.72,27.88-37.41,60.15-23.48,96.34-29.59,150.88-25.19,19.32,1.71,49.15,4.89,66,7.09,17.12,2.2,32.77,3.18,35,2.44,3.92-1.71,5.63-12.71,2-14.91-4.89-2.94-83.39-11.74-117.87-13-53.31-2-79.72,3.42-152.35,30.32l-11.74,4.4-7.09-7.82c-8.31-9.3-7.82-12.72,3.42-24.7,16.39-17.61,72.14-46.71,110.29-58,30.57-8.8,57-9.78,124.72-4.65,79.72,5.87,82.9,5.87,83.88-.48,1.22-8.07-4.16-10.52-28.86-13.21-22.5-2.44-22.74-2.69-36.19-14.92-7.34-6.6-16.14-13.69-19.81-15.65-12.47-6.36-36-8.56-83.39-8.07-44.5.74-48.42.49-59.18-4.64-12.22-5.63-17.36-14.68-12.47-22.5,5.38-8.56,51.11-22,92.19-27.15,9.54-1,33.51-1.95,53.07-1.71l36,.49,20.29,10.52c36.69,18.58,92.44,62.6,106.14,83.39,11,16.38,32.27,105.39,55,227.66,13.94,76.55,16.63,86.08,27.14,96.84Z"/><path class="cls-11" d="M2151.85,1035.93c-5.38-25.43-14.67-43-31.55-60.16-15.89-15.89-28.36-21.76-51.59-24.45-16.14-2-40.11,4.15-55.52,14.18-27.38,17.36-54.77,58.69-65.78,98.8-7.09,25.92-8.56,28.36-16.38,27.38-7.34-.73-10-7.33-19.81-50.62-5.13-22.49-19.32-56.73-29.34-70.91-4.9-6.85-5.87-7.09-33.75-8.81-15.9-1-37.66-3.18-48.42-5.13-25.43-4.4-24.94-4.4-26.66,2.69-2,8.07-7.09,7.82-25.92-1-41.57-19.81-108.33-14.92-145.74,10.27-11.74,8.07-19.32,5.38-17.61-6.11,1.22-6.85.73-7.34-5.87-5.87-8.8,1.71-54-2.45-77-7.34-26.9-5.62-53.07-14.67-80.7-28.12-81.68-39.86-147-115.18-175.09-201.5-3.43-10.76-7.83-25.44-9.54-32.53-3.18-12.47-3.42-13-7.34-8.56-6.11,6.61-22.49,38.4-32.28,62.12-38.63,93.9-44.75,215.68-17.36,338.44,3.43,14.68,13.21,52.82,22.26,84.37,8.8,31.55,23.23,84.37,31.79,117.38,17.6,65.54,25.92,89,44.5,125.94,43.53,86.57,128.14,151.37,234,178.76,24.7,6.36,30.32,7.09,68.47,6.85,38.64,0,43.53-.49,70.67-7.83,62.85-16.63,130.1-57,188.79-113.47,19.32-18.58,28.37-23,31.06-15.65,1.95,4.65-7.09,23.24-26.66,54-96.4,151.81-228.16,181.94-228.16,181.94-14.42,6.23-26.21,10.66-32.52,13l-15.89,4.64c-8.81,2.45-16.39,4.9-16.88,5.14-.24.49,1.47,11.74,3.91,25.19,19.08,98.06,77.52,170.44,150.64,185.85,77.77,16.38,173.63-17.85,262.88-93.9,22.5-19.32,60.65-59.18,62.85-66.28.49-1.46-3.42-2.44-9.78-2.44-24.7,0-80.94-12.47-94.15-21-9.29-5.87-6.85-12.23,8.56-22,15.9-10,33.26-25.92,47.2-43.28l9.53-12-7.33-9.29c-4.16-5.14-10-15.16-13.45-22.5-19.81-43.77-41.57-161.88-46.46-255l-1.47-26.9,12-23.72c6.6-13,16.14-36.44,21.52-52.09l9.29-28.61,8.81,2c4.64,1.23,17.85,2,29.34,2,16.63,0,24-1.47,36.19-6.36C2122.75,1209.31,2170,1122,2151.85,1035.93ZM1357,1191.7c-21.76,21.52-54.77-4.89-54.77-44,0-18.58,5.38-29.58,16.87-35.45,20.05-10,44.51,12,47.44,42.79C1368.26,1172.38,1365.33,1183.14,1357,1191.7ZM1371,992.4c-3.18,4.4-3.91,4.4-17.85.49-8.56-2.45-23.47-4.16-36.43-4.16-37.91,0-67.25,11.25-89.51,34.73-9.05,9.29-12.71,11.74-16.63,10.51-3.42-1-4.89-3.67-4.89-8.56,0-14.67,39.13-41.57,72.39-50.13,16.63-4.15,67.25-3.42,82.16,1C1371.44,979.68,1375.6,986,1371,992.4Zm66,299.32c-8.07-9.29-7.83-10.76,3.18-51.11,14.43-53.06,15.41-99.77,3.67-142.32-2.2-7.83-3.43-15.65-2.45-17.85,2.2-5.87,12-3.43,15.41,3.66,6.6,14.43,11.25,45.73,11.25,77-.25,33.51-3.43,54.54-14.43,93.91-4.65,16.14-5.87,24.21-4.16,26.65,3.91,6.61,30.57,19.81,47,23.48,17.86,4.16,21,6.36,18.59,13.45-2.2,6.85-12.72,6.85-34.73-.73C1460,1311,1446,1302.72,1437,1291.72Zm214.46,96.84c-45.48,38.88-102.46,51.84-156.26,35.7-19.32-5.62-24.21-9.54-21.76-17.36,1.95-6.36,9.53-6.36,24.7.49,14.91,6.6,51.84,8.8,72.62,4.4,23-4.65,56.49-23,72.39-39.13,15.65-16.14,25.43-18.58,26.65-6.84C1670.52,1371.2,1667.58,1374.86,1651.44,1388.56Zm59.92-264.6c-1.23,16.39-6.85,25.44-19.81,31.79-7.58,3.92-10.27,4.16-17.61,1.72-31.54-10.52-37.41-74.1-7.82-86.82,9.78-4.4,10-4.4,19.56-.24C1703.29,1077.75,1713.07,1098.29,1711.36,1124Zm379.77-81.18c-14.92,5.38-37.9,23-48.91,37.41-13.45,17.36-26.41,45.73-31.06,67.49-4.15,20.3-5.62,23-12.22,21.52-9.3-1.71-6.85-26.9,5.38-58,14.18-35.46,40.59-65.78,70.18-80.7,17.12-8.32,24.21-9.29,28.86-3.67S2103.6,1038.13,2091.13,1042.78Z"/><path d="M1371,992.41c-3.17,4.4-3.91,4.4-17.85.49-8.56-2.45-23.47-4.16-36.43-4.16-37.91,0-67.25,11.25-89.51,34.73-9,9.29-12.71,11.73-16.63,10.51-3.42-1-4.89-3.67-4.89-8.56,0-14.67,39.13-41.57,72.39-50.13,16.63-4.16,67.25-3.42,82.16,1C1371.44,979.69,1375.6,986.05,1371,992.41Z"/><path d="M2091.13,1042.78c-14.92,5.38-37.9,23-48.91,37.42-13.45,17.36-26.41,45.73-31,67.49-4.16,20.3-5.63,23-12.23,21.52-9.29-1.71-6.85-26.9,5.38-58,14.18-35.46,40.59-65.79,70.18-80.7,17.12-8.32,24.21-9.29,28.86-3.67S2103.6,1038.14,2091.13,1042.78Z"/><path d="M1711.36,1124c-1.23,16.39-6.85,25.43-19.81,31.79-7.58,3.92-10.27,4.16-17.61,1.71-31.54-10.51-37.41-74.09-7.82-86.81,9.78-4.4,10-4.4,19.56-.24C1703.29,1077.75,1713.07,1098.3,1711.36,1124Z"/><path d="M1515,1318.63c-2.2,6.85-12.72,6.85-34.73-.74-20.29-6.84-34.23-15.16-43.28-26.16-8.07-9.29-7.82-10.76,3.18-51.11,14.43-53.07,15.41-99.77,3.67-142.32-2.2-7.83-3.43-15.65-2.45-17.86,2.2-5.86,12-3.42,15.41,3.67,6.6,14.43,11.25,45.73,11.25,77-.25,33.51-3.43,54.54-14.43,93.91-4.65,16.14-5.87,24.21-4.16,26.65,3.92,6.6,30.57,19.81,47,23.48C1514.26,1309.34,1517.44,1311.54,1515,1318.63Z"/><path d="M1357,1191.71c-21.77,21.52-54.78-4.89-54.78-44,0-18.58,5.38-29.59,16.87-35.46,20.05-10,44.51,12,47.44,42.8C1368.26,1172.39,1365.33,1183.15,1357,1191.71Z"/><path d="M1651.44,1388.57c-45.48,38.88-102.46,51.84-156.26,35.7-19.32-5.62-24.21-9.54-21.76-17.36,1.95-6.36,9.53-6.36,24.7.49,14.91,6.6,51.84,8.8,72.63,4.4,23-4.65,56.48-23,72.38-39.13,15.65-16.14,25.43-18.58,26.65-6.85C1670.52,1371.2,1667.58,1374.87,1651.44,1388.57Z"/><path d="M1856.37,2477.26c-10.76-34-30.57-98.55-44.26-143.55s-26.17-83.39-27.39-85.1c-1.47-1.46-4.4-2.93-6.6-2.69s-31.31,12.23-65,27.15c-33.5,14.67-136.46,59.18-228.65,98.79-92.19,39.37-168.49,73.36-169.71,75.08-1.47,2.2,6.85,30.81,23.72,82.65,14.18,43.53,34,105.4,44.26,137.19s20.79,63.09,23.48,69.21c4.4,10.51,5.62,11.49,11.74,10.27,13.45-2.45,440.17-187.57,452.64-196.37,2.69-2,5.14-5.38,5.14-7.34S1866.88,2511,1856.37,2477.26Zm-2,62.11c-2.93,2.94-149.9,66.76-327.19,142.33-68.72,29.34-105.89,44-107.11,42.3-1-1.46-7.34-20.29-14.19-41.81-24.45-76.79-67.74-210.55-70.43-217.4-1.71-3.91-2-8.07-1-9.05s19.07-8.8,39.86-17.61c20.78-8.56,78-33.25,127.16-54.29,234.76-101.72,268-115.91,270.22-115.17,1.22.24,9.29,23.72,17.85,51.84s27.14,88.52,41.08,134C1844.88,2500,1855.39,2538.15,1854.41,2539.37Z"/><path class="cls-12" d="M1854.41,2539.38c-2.93,2.94-149.9,66.76-327.19,142.33-68.72,29.34-105.89,44-107.11,42.3-1-1.47-7.34-20.3-14.19-41.82-24.45-76.78-67.73-210.55-70.42-217.39-1.72-3.92-2-8.07-1-9.05s19.07-8.8,39.86-17.61c20.78-8.56,78-33.26,127.16-54.29,234.76-101.73,268-115.91,270.22-115.18,1.22.25,9.29,23.72,17.85,51.85s27.14,88.52,41.08,134C1844.88,2500,1855.39,2538.16,1854.41,2539.38Z"/><path d="M2034.15,812.18c-.73,5.63-2.44,7.09-13,10-20.3,5.38-84.61,6.36-112.49,1.71-98.55-16.87-200.77-82.66-273.64-176.07-42.55-54.29-86.81-142.81-77.52-154.06,7.34-8.81,12.23-4.16,19.81,18.09,12.71,38.4,42.3,89.26,75.56,130.83,67.74,84.62,160.91,145.26,250.9,162.87,22.5,4.4,91,4.65,108.09.24C2028.28,801.42,2035.13,803.62,2034.15,812.18Z"/></g></g></svg>